<?xml version="1.0" encoding="UTF-8"?>
<svg id="a" data-name="图层 1" xmlns="http://www.w3.org/2000/svg" width="100mm" height="100mm" viewBox="0 0 283.46 283.46">
  <polygon points=".02 161.89 96.32 154.99 11.47 200.58 101.88 167.05 33.54 234.57 110.72 177.13 64.3 260.94 122.1 184.38 101.35 277.72 134.97 188.13 141.77 283.46 148.46 188.11 182 277.74 161.42 184.37 219.16 260.97 172.7 177.18 249.93 234.54 181.56 167.05 271.95 200.66 187.18 154.92 283.46 161.9 189.08 141.8 283.44 121.58 187.14 128.48 272 82.88 181.59 116.42 249.92 48.9 172.75 106.34 219.16 22.53 161.36 99.08 182.11 5.74 148.5 95.33 141.69 0 135 95.35 101.47 5.72 122.04 99.1 64.31 22.5 110.77 106.28 33.53 48.93 101.9 116.41 11.52 82.8 96.29 128.55 0 121.56 94.39 141.67 .02 161.89" fill="#661c19"/>
  <polygon points="96.88 148.16 20.17 141.74 96.88 135.3 25.07 107.84 100.49 123.11 39.48 76.64 107.48 112.37 62.11 50.8 117.26 103.97 91.21 32.26 128.94 98.68 124.48 22.6 141.73 96.88 158.99 22.6 154.52 98.68 192.26 32.26 166.21 103.97 221.35 50.8 175.99 112.37 243.98 76.64 182.98 123.11 258.39 107.84 186.58 135.3 263.29 141.74 186.58 148.16 258.39 175.62 182.98 160.35 243.99 206.82 175.99 171.09 221.35 232.67 166.21 179.5 192.26 251.2 154.52 184.79 158.99 260.86 141.73 186.58 124.48 260.86 128.94 184.79 91.21 251.2 117.26 179.5 62.11 232.67 107.48 171.09 39.48 206.82 100.49 160.35 25.07 175.62 96.88 148.16" fill="#992620"/>
  <g>
    <polygon points="141.73 155.47 127.28 241.61 137.79 154.94 99.54 233.15 134.26 153.33 74.84 218.13 131.23 150.71 56.06 196.28 129.07 147.42 44.42 170 127.99 143.76 39.36 141.73 127.99 139.71 44.42 113.46 129.07 136.04 56.05 87.19 131.23 132.75 74.84 65.34 134.26 130.13 99.53 50.32 137.79 128.53 127.28 41.85 141.73 128 156.19 41.85 145.67 128.53 183.93 50.32 149.2 130.14 208.62 65.34 152.24 132.75 227.41 87.19 154.4 136.04 239.05 113.46 155.47 139.71 244.11 141.73 155.47 143.76 239.05 170 154.4 147.42 227.41 196.28 152.24 150.71 208.62 218.13 149.2 153.33 183.93 233.14 145.67 154.94 156.19 241.62 141.73 155.47" fill="#c8271a"/>
    <path d="M153.33,61.67l-7.78,64.13-.65,5.36,2.38-4.86,28.08-57.4-25.49,58.58-2.16,4.97,3.68-4.01,44.12-48.12-41.87,50.06-3.5,4.18,4.67-2.83,55.55-33.67-53.96,36.11-4.52,3.03,5.27-1.41,61.99-16.54-61.2,19.22-5.22,1.64,5.47.12,66.13,1.51-66.13,1.51-5.47.12,5.22,1.64,61.2,19.22-61.99-16.54-5.27-1.41,4.52,3.03,53.96,36.11-55.55-33.67-4.67-2.83,3.5,4.18,41.87,50.06-44.13-48.12-3.68-4.01,2.16,4.97,25.49,58.58-28.08-57.4-2.38-4.86.65,5.36,7.78,64.13-10.69-63.72-.9-5.36-.9,5.36-10.69,63.72,7.78-64.12.65-5.36-2.38,4.86-28.08,57.4,25.49-58.58,2.16-4.97-3.68,4.01-44.13,48.12,41.87-50.06,3.5-4.18-4.67,2.83-55.55,33.67,53.96-36.11,4.52-3.03-5.27,1.41-61.99,16.54,61.2-19.22,5.22-1.64-5.47-.12-66.13-1.51,66.13-1.51,5.47-.12-5.22-1.64-61.2-19.22,61.99,16.54,5.27,1.41-4.52-3.03-53.96-36.11,55.55,33.67,4.67,2.83-3.5-4.18-41.87-50.06,44.12,48.12,3.68,4.01-2.16-4.97-25.49-58.58,28.08,57.4,2.38,4.86-.65-5.36-7.78-64.13,10.69,63.72.9,5.36.9-5.36,10.69-63.73M159.05,22.03l-17.32,103.21-17.32-103.21,12.6,103.87L90.96,31.74l41.81,96.08L61.73,50.37l67.4,80.58-90.13-54.63,87.56,58.59-102.04-27.22,100.73,31.64-105.66,2.41,105.66,2.41-100.73,31.64,102.04-27.22-87.56,58.59,90.13-54.63-67.4,80.59,71.04-77.46-41.81,96.08,46.06-94.16-12.6,103.87,17.32-103.21,17.32,103.21-12.6-103.87,46.06,94.16-41.81-96.08,71.04,77.46-67.4-80.58,90.13,54.63-87.56-58.59,102.04,27.22-100.73-31.64,105.66-2.41-105.66-2.41,100.73-31.64-102.04,27.22,87.56-58.59-90.13,54.63,67.4-80.59-71.04,77.46,41.81-96.08-46.06,94.16,12.6-103.87h0Z" fill="#c8271a"/>
  </g>
</svg>