<?xml version="1.0" encoding="UTF-8"?>
<svg id="a" data-name="图层 1" xmlns="http://www.w3.org/2000/svg" width="100mm" height="100mm" viewBox="0 0 283.46 283.46">
  <polygon points="149.38 194.03 141.74 283.46 134.08 194.03 101.44 277.75 119.59 189.82 64.34 260.95 106.83 181.67 33.61 234.56 96.83 170.26 11.58 200.64 90.54 156.64 .09 161.85 88.41 141.73 .09 121.61 90.54 126.82 11.58 82.82 96.83 113.2 33.61 48.9 106.83 101.8 64.34 22.51 119.59 93.64 101.44 5.71 134.08 89.44 141.74 0 149.38 89.44 182.03 5.71 163.87 93.64 219.12 22.51 176.64 101.79 249.85 48.9 186.63 113.2 271.89 82.82 192.92 126.82 283.37 121.61 195.06 141.73 283.37 161.85 192.92 156.64 271.89 200.64 186.63 170.26 249.85 234.56 176.64 181.67 219.12 260.95 163.87 189.82 182.03 277.75 149.38 194.03" fill="#992620"/>
  <polygon points="141.73 160.38 121.72 277.33 136.27 159.66 83.31 265.84 131.39 157.48 49.13 245.45 127.19 153.92 23.12 215.78 124.2 149.45 7.01 180.11 122.71 144.48 0 141.73 122.71 138.98 7.01 103.35 124.2 134.01 23.11 67.68 127.19 129.54 49.13 38.02 131.39 125.98 83.31 17.62 136.27 123.81 121.72 6.13 141.73 123.09 161.75 6.13 147.19 123.81 200.15 17.63 152.07 125.99 234.33 38.02 156.27 129.54 260.35 67.68 159.26 134.01 276.46 103.35 160.75 138.98 283.46 141.73 160.75 144.48 276.46 180.11 159.26 149.45 260.35 215.78 156.28 153.92 234.34 245.45 152.07 157.47 200.15 265.83 147.19 159.66 161.75 277.34 141.73 160.38" fill="#c8271a"/>
  <polygon points="203.29 133.15 161.46 136.08 198.32 116.66 159.05 130.95 188.73 102.18 155.21 126.65 175.37 90.95 150.26 123.56 159.27 83.8 144.67 121.97 141.71 81.35 138.81 121.97 124.24 83.79 133.18 123.57 108.1 90.94 128.28 126.63 94.73 102.2 124.43 130.95 85.17 116.63 121.99 136.12 80.16 133.14 121.17 141.7 80.17 150.32 122.01 147.38 85.14 166.8 124.42 152.52 94.73 181.28 128.26 156.81 108.1 192.51 133.2 159.9 124.19 199.66 138.79 161.5 141.75 202.11 144.66 161.49 159.22 199.67 150.28 159.9 175.37 192.53 155.18 156.84 188.74 181.27 159.03 152.52 198.3 166.84 161.47 147.35 203.3 150.32 162.3 141.76 203.29 133.15" fill="#661c19"/>
</svg>