<?xml version="1.0" encoding="UTF-8"?>
<svg id="a" data-name="图层 1" xmlns="http://www.w3.org/2000/svg" width="100mm" height="100mm" viewBox="0 0 283.46 283.46">
  <polygon points=".06 161.89 96.33 154.99 11.5 200.58 101.89 167.05 33.58 234.57 110.72 177.13 64.32 260.94 122.11 184.38 101.36 277.72 134.97 188.13 141.77 283.46 148.46 188.11 181.99 277.74 161.41 184.37 219.13 260.97 172.69 177.18 249.9 234.54 181.55 167.05 271.91 200.66 187.16 154.92 283.42 161.9 189.06 141.8 283.4 121.58 187.13 128.48 271.96 82.88 181.58 116.42 249.89 48.9 172.74 106.34 219.14 22.53 161.36 99.08 182.1 5.74 148.5 95.33 141.69 0 135 95.35 101.48 5.72 122.05 99.1 64.33 22.5 110.78 106.28 33.56 48.93 101.91 116.41 11.56 82.8 96.3 128.55 .04 121.56 94.4 141.67 .06 161.89" fill="#c8271a"/>
  <polygon points="89.44 149.23 0 141.74 89.44 134.23 5.71 102.21 93.65 120.01 22.51 65.82 101.8 107.49 48.9 35.68 113.2 97.69 82.82 14.06 126.82 91.52 121.62 2.8 141.73 89.42 161.86 2.8 156.64 91.52 200.64 14.06 170.27 97.69 234.56 35.68 181.67 107.49 260.95 65.82 189.82 120.01 277.75 102.21 194.03 134.23 283.46 141.74 194.03 149.23 277.75 181.26 189.82 163.45 260.96 217.64 181.68 175.97 234.56 247.79 170.27 185.77 200.65 269.4 156.64 191.95 161.86 280.67 141.73 194.04 121.62 280.67 126.82 191.95 82.82 269.4 113.2 185.77 48.9 247.79 101.8 175.97 22.51 217.64 93.65 163.45 5.71 181.26 89.44 149.23" fill="#992620"/>
  <polygon points="141.73 160.74 121.73 279.95 136.28 160 83.36 268.23 131.4 157.78 49.2 247.45 127.2 154.15 23.2 217.21 124.21 149.6 7.1 180.85 122.72 144.53 .1 141.73 122.72 138.93 7.11 102.61 124.21 133.86 23.2 66.25 127.2 129.31 49.2 36.02 131.4 125.68 83.35 15.23 136.28 123.46 121.73 3.52 141.73 122.73 161.73 3.51 147.19 123.46 200.11 15.23 152.06 125.68 234.27 36.02 156.26 129.31 260.26 66.25 159.25 133.86 276.36 102.61 160.74 138.93 283.36 141.73 160.74 144.53 276.36 180.85 159.25 149.6 260.26 217.21 156.27 154.15 234.27 247.45 152.06 157.78 200.11 268.23 147.19 160 161.73 279.95 141.73 160.74" fill="#661c19"/>
</svg>