<?xml version="1.0" encoding="UTF-8"?>
<svg id="a" data-name="图层 1" xmlns="http://www.w3.org/2000/svg" width="100mm" height="100mm" viewBox="0 0 283.46 283.46">
  <polygon points="96.38 148.4 18.81 141.74 96.38 135.07 23.76 106.61 100.03 122.43 38.33 74.27 107.09 111.3 61.22 47.48 116.99 102.59 90.64 28.27 128.8 97.11 124.29 18.26 141.73 95.25 159.19 18.26 154.66 97.11 192.82 28.27 166.48 102.59 222.24 47.48 176.37 111.3 245.13 74.27 183.44 122.43 259.7 106.61 187.09 135.07 264.66 141.74 187.09 148.4 259.7 176.86 183.44 161.03 245.14 209.19 176.38 172.16 222.24 235.98 166.48 180.87 192.83 255.19 154.66 186.36 159.19 265.2 141.73 188.22 124.29 265.2 128.8 186.36 90.64 255.19 116.99 180.87 61.22 235.98 107.09 172.16 38.33 209.19 100.03 161.03 23.76 176.86 96.38 148.4" fill="#661c19"/>
  <polygon points="68.95 152.34 118.41 148.71 74.83 172.71 121.26 155.06 86.16 190.6 125.8 160.37 101.96 204.49 131.65 164.18 120.99 213.32 138.26 166.16 141.75 216.35 145.19 166.15 162.41 213.33 151.84 164.18 181.5 204.5 157.64 160.4 197.31 190.59 162.19 155.06 208.61 172.75 165.07 148.67 214.53 152.35 166.05 141.77 214.52 131.12 165.06 134.75 208.64 110.75 162.2 128.41 197.3 92.86 157.66 123.1 181.5 78.98 151.81 119.28 162.47 70.14 145.21 117.31 141.71 67.12 138.28 117.32 121.05 70.13 131.62 119.29 101.97 78.96 125.83 123.07 86.16 92.88 121.28 128.4 74.85 110.71 118.39 134.79 68.94 131.11 117.42 141.7 68.95 152.34" fill="#c8271a"/>
  <polygon points="141.73 161.22 121.72 283.46 136.27 160.47 83.31 271.44 131.39 158.19 49.13 250.13 127.19 154.47 23.12 219.13 124.2 149.8 7.01 181.85 122.71 144.6 0 141.73 122.71 138.86 7.01 101.62 124.2 133.66 23.11 64.33 127.19 128.99 49.13 33.33 131.39 125.27 83.31 12.02 136.27 123 121.72 0 141.73 122.25 161.75 0 147.19 123 200.15 12.02 152.07 125.28 234.33 33.33 156.27 128.99 260.35 64.33 159.26 133.66 276.46 101.62 160.75 138.86 283.46 141.73 160.75 144.6 276.46 181.85 159.26 149.8 260.35 219.13 156.28 154.47 234.34 250.13 152.07 158.18 200.15 271.44 147.19 160.47 161.75 283.46 141.73 161.22" fill="#992620"/>
</svg>