<?xml version="1.0" encoding="UTF-8"?>
<svg id="a" data-name="图层 1" xmlns="http://www.w3.org/2000/svg" width="100mm" height="100mm" viewBox="0 0 283.46 283.46">
  <g>
    <path d="M141.85,248.28c1.91,0,3.64-25.45,3.64-46.5,0-21.07-1.72-46.47-3.63-46.47-1.88,0-3.89,24.63-3.91,46.24-.02,21.91,2.01,46.74,3.9,46.73Z" fill="#ffd52d"/>
    <path d="M101.07,240.22c1.77.72,13.1-22.12,21.16-41.56,8.06-19.46,16.19-43.59,14.43-44.33-1.73-.73-13.02,21.26-21.3,41.22-8.4,20.24-16.03,43.95-14.28,44.67Z" fill="#ffd52d"/>
    <path d="M66.48,217.16c1.36,1.35,20.57-15.42,35.45-30.3,14.9-14.9,31.64-34.07,30.29-35.43-1.32-1.34-20.16,14.66-35.46,29.93-15.51,15.48-31.63,34.47-30.29,35.8Z" fill="#ffd52d"/>
    <path d="M43.34,182.62c.74,1.76,24.9-6.38,44.35-14.43,19.47-8.06,42.27-19.37,41.55-21.14-.71-1.74-24.24,5.83-44.21,14.08-20.25,8.37-42.41,19.74-41.68,21.49Z" fill="#ffd52d"/>
    <path d="M35.18,141.86c0,1.91,25.45,3.64,46.5,3.64,21.07,0,46.47-1.72,46.47-3.63,0-1.88-24.63-3.89-46.24-3.91-21.91-.02-46.74,2.01-46.73,3.9Z" fill="#ffd52d"/>
    <path d="M43.24,101.07c-.72,1.77,22.12,13.1,41.56,21.16,19.46,8.06,43.59,16.19,44.33,14.43.73-1.73-21.26-13.02-41.22-21.3-20.24-8.4-43.95-16.03-44.67-14.28Z" fill="#ffd52d"/>
    <path d="M66.3,66.48c-1.35,1.36,15.42,20.57,30.3,35.45,14.9,14.9,34.07,31.64,35.43,30.29,1.34-1.32-14.66-20.16-29.93-35.46-15.48-15.51-34.47-31.63-35.8-30.29Z" fill="#ffd52d"/>
    <path d="M100.84,43.34c-1.76.74,6.38,24.9,14.43,44.35,8.06,19.46,19.37,42.27,21.14,41.55,1.74-.71-5.83-24.24-14.08-44.21-8.37-20.25-19.74-42.41-21.49-41.68Z" fill="#ffd52d"/>
    <path d="M141.61,35.18c-1.91,0-3.64,25.45-3.64,46.5,0,21.07,1.72,46.47,3.63,46.47,1.88,0,3.89-24.63,3.91-46.24.02-21.91-2.01-46.74-3.9-46.73Z" fill="#ffd52d"/>
    <path d="M182.39,43.25c-1.77-.72-13.1,22.12-21.16,41.56-8.06,19.46-16.19,43.59-14.43,44.33,1.73.73,13.02-21.26,21.3-41.22,8.4-20.24,16.03-43.95,14.28-44.67Z" fill="#ffd52d"/>
    <path d="M216.99,66.3c-1.36-1.35-20.57,15.42-35.45,30.3-14.9,14.9-31.64,34.07-30.29,35.43,1.32,1.34,20.16-14.66,35.46-29.93,15.51-15.48,31.63-34.47,30.29-35.8Z" fill="#ffd52d"/>
    <path d="M240.12,100.85c-.74-1.76-24.9,6.38-44.35,14.43-19.47,8.06-42.27,19.37-41.55,21.14.71,1.74,24.24-5.83,44.21-14.08,20.25-8.37,42.41-19.74,41.68-21.49Z" fill="#ffd52d"/>
    <path d="M248.28,141.61c0-1.91-25.45-3.64-46.5-3.64-21.07,0-46.47,1.72-46.47,3.63,0,1.88,24.63,3.89,46.24,3.91,21.91.02,46.74-2.01,46.73-3.9Z" fill="#ffd52d"/>
    <path d="M240.22,182.39c.72-1.77-22.12-13.1-41.56-21.16-19.46-8.06-43.59-16.19-44.33-14.43-.73,1.73,21.26,13.02,41.22,21.3,20.24,8.4,43.95,16.03,44.67,14.28Z" fill="#ffd52d"/>
    <path d="M217.16,216.99c1.35-1.36-15.42-20.57-30.3-35.45-14.9-14.9-34.07-31.64-35.43-30.29-1.34,1.32,14.66,20.16,29.93,35.46,15.48,15.51,34.47,31.63,35.8,30.29Z" fill="#ffd52d"/>
    <path d="M182.62,240.12c1.76-.74-6.38-24.9-14.43-44.35-8.06-19.46-19.37-42.27-21.14-41.55-1.74.71,5.83,24.24,14.08,44.21,8.37,20.25,19.74,42.41,21.49,41.68Z" fill="#ffd52d"/>
  </g>
  <g>
    <path d="M133.55,185.27c1.32.25.31,7.27-.63,27.89-.08,1.87-1.7,37.73-9.79,48.9-.73,1-2.72,3.76-4.63,3.4-1.83-.35-2.67-3.4-2.98-4.51-3.65-13.31,8.46-49.3,8.46-49.3,6.64-19.72,8.24-26.63,9.56-26.38Z" fill="#fcf3cb"/>
    <path d="M117.52,178.82c1.13.73-2.5,6.83-11.25,25.53-.79,1.7-16.01,34.21-27.76,41.44-1.05.65-3.95,2.43-5.58,1.37-1.56-1.02-1.17-4.17-1.02-5.3,1.72-13.7,26.68-42.31,26.68-42.31,13.68-15.68,17.81-21.45,18.93-20.72Z" fill="#fcf3cb"/>
    <path d="M105.17,166.73c.76,1.11-4.92,5.35-20.17,19.28-1.38,1.26-27.88,25.48-41.5,27.66-1.22.2-4.59.73-5.68-.87-1.05-1.54.52-4.3,1.08-5.29,6.83-12,40.84-28.88,40.84-28.88,18.64-9.25,24.66-13,25.42-11.89Z" fill="#fcf3cb"/>
    <path d="M98.38,150.84c.28,1.31-6.6,3.06-26.01,10.09-1.76.64-35.51,12.87-48.93,9.67-1.2-.29-4.52-1.08-4.91-2.98-.38-1.83,2.12-3.77,3.03-4.47,10.9-8.47,48.79-11.05,48.79-11.05,20.76-1.42,27.76-2.58,28.04-1.26Z" fill="#fcf3cb"/>
    <path d="M98.2,133.55c-.25,1.32-7.27.31-27.89-.63-1.87-.08-37.73-1.7-48.9-9.79-1-.73-3.76-2.72-3.4-4.63.35-1.83,3.4-2.67,4.51-2.98,13.31-3.65,49.3,8.46,49.3,8.46,19.72,6.64,26.63,8.24,26.38,9.56Z" fill="#fcf3cb"/>
    <path d="M104.64,117.52c-.73,1.13-6.83-2.5-25.53-11.25-1.7-.79-34.21-16.01-41.44-27.76-.65-1.05-2.43-3.95-1.37-5.58,1.02-1.56,4.17-1.17,5.3-1.02,13.7,1.72,42.31,26.68,42.31,26.68,15.68,13.68,21.45,17.81,20.72,18.93Z" fill="#fcf3cb"/>
    <path d="M116.73,105.17c-1.11.76-5.35-4.92-19.28-20.17-1.26-1.38-25.48-27.88-27.66-41.5-.2-1.22-.73-4.59.87-5.68,1.54-1.05,4.3.52,5.29,1.08,12,6.83,28.88,40.84,28.88,40.84,9.25,18.64,13,24.66,11.89,25.42Z" fill="#fcf3cb"/>
    <path d="M132.63,98.38c-1.31.28-3.06-6.6-10.09-26.01-.64-1.76-12.87-35.51-9.67-48.93.29-1.2,1.08-4.52,2.98-4.91,1.83-.38,3.77,2.12,4.47,3.03,8.47,10.9,11.05,48.79,11.05,48.79,1.42,20.76,2.58,27.76,1.26,28.04Z" fill="#fcf3cb"/>
    <path d="M149.91,98.2c-1.32-.25-.31-7.27.63-27.89.08-1.87,1.7-37.73,9.79-48.9.73-1,2.72-3.76,4.63-3.4,1.83.35,2.67,3.4,2.98,4.51,3.65,13.31-8.46,49.3-8.46,49.3-6.64,19.72-8.24,26.63-9.56,26.38Z" fill="#fcf3cb"/>
    <path d="M165.95,104.64c-1.13-.73,2.5-6.83,11.25-25.53.79-1.7,16.01-34.21,27.76-41.44,1.05-.65,3.95-2.43,5.58-1.37,1.56,1.02,1.17,4.17,1.02,5.3-1.72,13.7-26.68,42.31-26.68,42.31-13.68,15.68-17.81,21.45-18.93,20.72Z" fill="#fcf3cb"/>
    <path d="M178.3,116.73c-.76-1.11,4.92-5.35,20.17-19.28,1.38-1.26,27.88-25.48,41.5-27.66,1.22-.2,4.59-.73,5.68.87,1.05,1.54-.52,4.3-1.08,5.29-6.83,12-40.84,28.88-40.84,28.88-18.64,9.25-24.66,13-25.42,11.89Z" fill="#fcf3cb"/>
    <path d="M185.08,132.63c-.28-1.31,6.6-3.06,26.01-10.09,1.76-.64,35.51-12.87,48.93-9.67,1.2.29,4.52,1.08,4.91,2.98.38,1.83-2.12,3.77-3.03,4.47-10.9,8.47-48.79,11.05-48.79,11.05-20.76,1.42-27.76,2.58-28.04,1.26Z" fill="#fcf3cb"/>
    <path d="M185.26,149.91c.25-1.32,7.27-.31,27.89.63,1.87.08,37.73,1.7,48.9,9.79,1,.73,3.76,2.72,3.4,4.63-.35,1.83-3.4,2.67-4.51,2.98-13.31,3.65-49.3-8.46-49.3-8.46-19.72-6.64-26.63-8.24-26.38-9.56Z" fill="#fcf3cb"/>
    <path d="M178.82,165.95c.73-1.13,6.83,2.5,25.53,11.25,1.7.79,34.21,16.01,41.44,27.76.65,1.05,2.43,3.95,1.37,5.58-1.02,1.56-4.17,1.17-5.3,1.02-13.7-1.72-42.31-26.68-42.31-26.68-15.68-13.68-21.45-17.81-20.72-18.93Z" fill="#fcf3cb"/>
    <path d="M166.73,178.3c1.11-.76,5.35,4.92,19.28,20.17,1.26,1.38,25.48,27.88,27.66,41.5.2,1.22.73,4.59-.87,5.68-1.54,1.05-4.3-.52-5.29-1.08-12-6.83-28.88-40.84-28.88-40.84-9.25-18.64-13-24.66-11.89-25.42Z" fill="#fcf3cb"/>
    <path d="M150.83,185.08c1.31-.28,3.06,6.6,10.09,26.01.64,1.76,12.87,35.51,9.67,48.93-.29,1.2-1.08,4.52-2.98,4.91-1.83.38-3.77-2.12-4.47-3.03-8.47-10.9-11.05-48.79-11.05-48.79-1.42-20.76-2.58-27.76-1.26-28.04Z" fill="#fcf3cb"/>
  </g>
  <g>
    <g id="b" data-name="&amp;lt;径向重复&amp;gt;">
      <path d="M100.38,242.17c.51.21-.47,2.91-2.5,11.04-.18.74-3.72,14.87-7.84,18.66-.37.34-1.39,1.28-2.12.98-.7-.29-.79-1.57-.82-2.03-.38-5.59,7.35-18.93,7.35-18.93,4.23-7.31,5.43-9.93,5.94-9.72Z" fill="#f5b828"/>
    </g>
    <g id="c" data-name="&amp;lt;径向重复&amp;gt;">
      <path d="M65.09,218.69c.39.38-1.55,2.51-6.54,9.24-.45.61-9.13,12.31-14.39,14.24-.47.17-1.77.65-2.33.09-.54-.53-.13-1.75.02-2.19,1.79-5.31,14.03-14.67,14.03-14.67,6.71-5.13,8.82-7.09,9.2-6.71Z" fill="#f5b828"/>
    </g>
    <g id="d" data-name="&amp;lt;径向重复&amp;gt;">
      <path d="M41.47,183.51c.21.5-2.39,1.73-9.58,6.04-.65.39-13.15,7.88-18.74,7.65-.5-.02-1.88-.08-2.19-.8-.29-.7.55-1.67.86-2.02,3.69-4.22,18.58-8.19,18.58-8.19,8.16-2.17,10.86-3.18,11.07-2.68Z" fill="#f5b828"/>
    </g>
    <g id="e" data-name="&amp;lt;径向重复&amp;gt;">
      <path d="M33.12,141.96c0,.55-2.87.69-11.16,1.91-.75.11-15.16,2.25-20.24-.11-.46-.21-1.71-.79-1.71-1.58,0-.76,1.15-1.33,1.57-1.54,5.02-2.49,20.3-.46,20.3-.46,8.37,1.11,11.25,1.22,11.25,1.76Z" fill="#f5b828"/>
    </g>
    <g id="f" data-name="&amp;lt;径向重复&amp;gt;">
      <path d="M41.3,100.38c-.21.51-2.91-.47-11.04-2.5-.74-.18-14.87-3.72-18.66-7.84-.34-.37-1.28-1.39-.98-2.12.29-.7,1.57-.79,2.03-.82,5.59-.38,18.93,7.35,18.93,7.35,7.31,4.23,9.93,5.43,9.72,5.94Z" fill="#f5b828"/>
    </g>
    <g id="g" data-name="&amp;lt;径向重复&amp;gt;">
      <path d="M64.77,65.09c-.38.39-2.51-1.55-9.25-6.54-.61-.45-12.31-9.13-14.24-14.39-.17-.47-.65-1.77-.09-2.33.53-.54,1.75-.13,2.19.02,5.31,1.79,14.68,14.03,14.68,14.03,5.13,6.71,7.09,8.82,6.71,9.2Z" fill="#f5b828"/>
    </g>
    <g id="h" data-name="&amp;lt;径向重复&amp;gt;">
      <path d="M99.95,41.47c-.5.21-1.73-2.39-6.04-9.58-.39-.65-7.88-13.15-7.65-18.74.02-.5.08-1.88.8-2.19.7-.29,1.67.55,2.02.86,4.22,3.69,8.19,18.58,8.19,18.58,2.17,8.16,3.18,10.86,2.68,11.07Z" fill="#f5b828"/>
    </g>
    <g id="i" data-name="&amp;lt;径向重复&amp;gt;">
      <path d="M141.5,33.12c-.55,0-.69-2.87-1.91-11.16-.11-.75-2.25-15.16.11-20.24.21-.46.79-1.71,1.58-1.71.76,0,1.33,1.15,1.54,1.57,2.49,5.02.46,20.3.46,20.3-1.11,8.37-1.22,11.25-1.76,11.25Z" fill="#f5b828"/>
    </g>
    <g id="j" data-name="&amp;lt;径向重复&amp;gt;">
      <path d="M183.08,41.3c-.51-.21.47-2.91,2.5-11.04.18-.74,3.72-14.87,7.84-18.66.37-.34,1.39-1.28,2.12-.98.7.29.79,1.57.82,2.03.38,5.59-7.35,18.93-7.35,18.93-4.23,7.31-5.43,9.93-5.94,9.72Z" fill="#f5b828"/>
    </g>
    <g id="k" data-name="&amp;lt;径向重复&amp;gt;">
      <path d="M218.37,64.76c-.39-.38,1.55-2.51,6.54-9.24.45-.61,9.13-12.31,14.39-14.24.47-.17,1.77-.65,2.33-.09.54.53.13,1.75-.02,2.19-1.79,5.31-14.03,14.67-14.03,14.67-6.71,5.13-8.82,7.09-9.2,6.71Z" fill="#f5b828"/>
    </g>
    <g id="l" data-name="&amp;lt;径向重复&amp;gt;">
      <path d="M241.99,99.95c-.21-.5,2.39-1.73,9.58-6.04.65-.39,13.15-7.88,18.74-7.65.5.02,1.88.08,2.19.8.29.7-.55,1.67-.86,2.02-3.69,4.22-18.58,8.19-18.58,8.19-8.16,2.17-10.86,3.18-11.07,2.68Z" fill="#f5b828"/>
    </g>
    <g id="m" data-name="&amp;lt;径向重复&amp;gt;">
      <path d="M250.35,141.5c0-.55,2.87-.69,11.16-1.91.75-.11,15.16-2.25,20.24.11.46.21,1.71.79,1.71,1.58,0,.76-1.15,1.33-1.57,1.54-5.02,2.49-20.3.46-20.3.46-8.37-1.11-11.25-1.22-11.25-1.76Z" fill="#f5b828"/>
    </g>
    <g id="n" data-name="&amp;lt;径向重复&amp;gt;">
      <path d="M242.17,183.08c.21-.51,2.91.47,11.04,2.5.74.18,14.87,3.72,18.66,7.84.34.37,1.28,1.39.98,2.12-.29.7-1.57.79-2.03.82-5.59.38-18.93-7.35-18.93-7.35-7.31-4.23-9.93-5.43-9.72-5.94Z" fill="#f5b828"/>
    </g>
    <g id="o" data-name="&amp;lt;径向重复&amp;gt;">
      <path d="M218.7,218.37c.38-.39,2.51,1.55,9.25,6.54.61.45,12.31,9.13,14.24,14.39.17.47.65,1.77.09,2.33-.53.54-1.75.13-2.19-.02-5.31-1.79-14.68-14.03-14.68-14.03-5.13-6.71-7.09-8.82-6.71-9.2Z" fill="#f5b828"/>
    </g>
    <g id="p" data-name="&amp;lt;径向重复&amp;gt;">
      <path d="M183.52,241.99c.5-.21,1.73,2.39,6.04,9.58.39.65,7.88,13.15,7.65,18.74-.02.5-.08,1.88-.8,2.19-.7.29-1.67-.55-2.02-.86-4.22-3.69-8.19-18.58-8.19-18.58-2.17-8.16-3.18-10.86-2.68-11.07Z" fill="#f5b828"/>
    </g>
    <g id="q" data-name="&amp;lt;径向重复&amp;gt;">
      <path d="M141.96,250.35c.55,0,.69,2.87,1.91,11.16.11.75,2.25,15.16-.11,20.24-.21.46-.79,1.71-1.58,1.71-.76,0-1.33-1.15-1.54-1.57-2.49-5.02-.46-20.3-.46-20.3,1.11-8.37,1.22-11.25,1.76-11.25Z" fill="#f5b828"/>
    </g>
  </g>
</svg>