<?xml version="1.0" encoding="UTF-8"?>
<svg id="a" data-name="图层 1" xmlns="http://www.w3.org/2000/svg" width="100mm" height="100mm" viewBox="0 0 283.46 283.46">
  <g>
    <g id="b" data-name="&amp;lt;径向重复&amp;gt;">
      <path d="M141.75,171.49c.6,0,.73,5.41,2,21.03.12,1.42,2.33,28.56-.3,38.08-.24.85-.89,3.2-1.75,3.2-.83,0-1.45-2.18-1.67-2.97-2.68-9.48-.31-38.19-.31-38.19,1.3-15.73,1.44-21.14,2.04-21.14Z" fill="#fcf3cb"/>
    </g>
    <g id="c" data-name="&amp;lt;径向重复&amp;gt;">
      <path d="M131,169.48c.56.22-1.28,5.31-5.73,20.33-.4,1.36-8.15,27.47-14.04,35.4-.53.71-1.98,2.67-2.79,2.35-.77-.3-.56-2.56-.48-3.37.92-9.81,13.5-35.73,13.5-35.73,6.89-14.2,8.98-19.2,9.54-18.98Z" fill="#fcf3cb"/>
    </g>
    <g id="d" data-name="&amp;lt;径向重复&amp;gt;">
      <path d="M121.7,163.73c.44.4-3.11,4.49-12.69,16.88-.87,1.12-17.52,22.68-25.88,27.94-.75.47-2.81,1.77-3.45,1.19-.61-.56.4-2.59.77-3.32,4.4-8.82,25.5-28.44,25.5-28.44,11.56-10.75,15.31-14.66,15.75-14.25Z" fill="#fcf3cb"/>
    </g>
    <g id="e" data-name="&amp;lt;径向重复&amp;gt;">
      <path d="M115.1,155.01c.27.54-4.52,3.06-17.93,11.16-1.22.73-24.53,14.82-34.22,16.7-.87.17-3.26.64-3.64-.14-.37-.75,1.31-2.27,1.91-2.82,7.29-6.63,34.05-17.3,34.05-17.3,14.66-5.85,19.57-8.14,19.83-7.6Z" fill="#fcf3cb"/>
    </g>
    <g id="f" data-name="&amp;lt;径向重复&amp;gt;">
      <path d="M112.11,144.49c.05.6-5.32,1.22-20.75,3.93-1.4.25-28.22,4.95-37.94,3.21-.87-.16-3.27-.59-3.35-1.45-.07-.83,2.04-1.64,2.8-1.94,9.19-3.55,38-3.84,38-3.84,15.78-.16,21.19-.52,21.24.08Z" fill="#fcf3cb"/>
    </g>
    <g id="g" data-name="&amp;lt;径向重复&amp;gt;">
      <path d="M113.11,133.6c-.17.58-5.4-.78-20.77-3.83-1.39-.28-28.11-5.58-36.54-10.71-.76-.46-2.84-1.73-2.6-2.56.23-.8,2.49-.79,3.31-.79,9.86.01,36.82,10.15,36.82,10.15,14.77,5.55,19.94,7.17,19.78,7.75Z" fill="#fcf3cb"/>
    </g>
    <g id="h" data-name="&amp;lt;径向重复&amp;gt;">
      <path d="M117.98,123.81c-.36.48-4.76-2.68-17.98-11.08-1.2-.76-24.2-15.35-30.21-23.19-.54-.7-2.02-2.64-1.5-3.32.5-.66,2.61.16,3.38.46,9.18,3.57,30.67,22.77,30.67,22.77,11.77,10.52,16.01,13.89,15.64,14.37Z" fill="#fcf3cb"/>
    </g>
    <g id="i" data-name="&amp;lt;径向重复&amp;gt;">
      <path d="M126.06,116.44c-.51.31-3.47-4.22-12.77-16.83-.84-1.14-17.02-23.06-19.79-32.53-.25-.85-.93-3.19-.2-3.64.71-.43,2.38,1.09,2.98,1.65,7.27,6.65,20.37,32.31,20.37,32.31,7.18,14.06,9.91,18.73,9.4,19.05Z" fill="#fcf3cb"/>
    </g>
    <g id="j" data-name="&amp;lt;径向重复&amp;gt;">
      <path d="M136.25,112.49c-.59.11-1.71-5.19-5.83-20.3-.37-1.37-7.54-27.65-6.7-37.49.08-.88.28-3.31,1.13-3.47.82-.15,1.82,1.88,2.19,2.61,4.38,8.83,7.33,37.48,7.33,37.48,1.61,15.7,2.47,21.05,1.88,21.16Z" fill="#fcf3cb"/>
    </g>
    <g id="k" data-name="&amp;lt;径向重复&amp;gt;">
      <path d="M147.19,112.48c-.59-.11.28-5.45,1.9-21.04.15-1.41,2.96-28.5,7.29-37.38.39-.8,1.46-2.99,2.31-2.82.82.16,1.02,2.41,1.1,3.23.9,9.81-6.71,37.6-6.71,37.6-4.17,15.22-5.3,20.52-5.89,20.41Z" fill="#fcf3cb"/>
    </g>
    <g id="l" data-name="&amp;lt;径向重复&amp;gt;">
      <path d="M157.39,116.43c-.51-.32,2.23-4.98,9.37-18.93.65-1.26,13.06-25.51,20.3-32.22.65-.6,2.44-2.26,3.17-1.8.7.44.08,2.62-.14,3.4-2.71,9.48-19.84,32.64-19.84,32.64-9.38,12.69-12.35,17.22-12.86,16.9Z" fill="#fcf3cb"/>
    </g>
    <g id="m" data-name="&amp;lt;径向重复&amp;gt;">
      <path d="M165.47,123.79c-.36-.48,3.88-3.84,15.58-14.26,1.06-.95,21.39-19.07,30.57-22.71.82-.33,3.09-1.22,3.61-.53.5.67-.87,2.47-1.36,3.12-5.95,7.86-30.29,23.27-30.29,23.27-13.34,8.44-17.74,11.59-18.1,11.12Z" fill="#fcf3cb"/>
    </g>
    <g id="n" data-name="&amp;lt;径向重复&amp;gt;">
      <path d="M170.35,133.58c-.16-.58,5.01-2.18,19.68-7.67,1.33-.5,26.83-10.06,36.71-10.13.89,0,3.32-.03,3.56.81.22.8-1.7,1.99-2.4,2.42-8.39,5.18-36.65,10.75-36.65,10.75-15.48,3.06-20.73,4.4-20.89,3.83Z" fill="#fcf3cb"/>
    </g>
    <g id="o" data-name="&amp;lt;径向重复&amp;gt;">
      <path d="M171.36,144.46c.06-.6,5.46-.22,21.12-.05,1.42.02,28.65.32,37.89,3.81.83.31,3.11,1.18,3.02,2.04-.08.83-2.31,1.24-3.11,1.39-9.69,1.8-38.06-3.21-38.06-3.21-15.54-2.74-20.92-3.38-20.86-3.98Z" fill="#fcf3cb"/>
    </g>
    <g id="p" data-name="&amp;lt;径向重复&amp;gt;">
      <path d="M168.37,154.98c.27-.53,5.17,1.76,19.71,7.58,1.32.53,26.61,10.65,33.95,17.24.66.59,2.47,2.22,2.08,2.99-.37.74-2.6.32-3.4.17-9.69-1.82-34.33-16.74-34.33-16.74-13.5-8.17-18.29-10.71-18.02-11.25Z" fill="#fcf3cb"/>
    </g>
    <g id="q" data-name="&amp;lt;径向重复&amp;gt;">
      <path d="M161.79,163.71c.44-.4,4.18,3.51,15.64,14.19,1.04.97,20.96,19.54,25.43,28.34.4.79,1.5,2.96.86,3.54-.62.56-2.54-.64-3.23-1.07-8.37-5.2-25.96-28.01-25.96-28.01-9.64-12.5-13.18-16.6-12.74-17Z" fill="#fcf3cb"/>
    </g>
    <g id="r" data-name="&amp;lt;径向重复&amp;gt;">
      <path d="M152.49,169.47c.56-.21,2.63,4.78,9.46,18.88.62,1.28,12.49,25.79,13.47,35.62.09.88.33,3.31-.48,3.62-.78.3-2.14-1.51-2.63-2.17-5.93-7.87-14.09-35.5-14.09-35.5-4.47-15.14-6.3-20.24-5.74-20.45Z" fill="#fcf3cb"/>
    </g>
  </g>
  <g>
    <g id="s" data-name="&amp;lt;径向重复&amp;gt;">
      <path d="M141.46,35.63c-3.83,0-7.29,23.23-7.29,42.45,0,19.24,3.46,42.43,7.29,42.43,3.77,0,7.8-22.48,7.83-42.22.03-20.01-4.04-42.68-7.83-42.67Z" fill="#ffd52d"/>
    </g>
    <g id="t" data-name="&amp;lt;径向重复&amp;gt;">
      <path d="M179.81,42.69c-3.58-1.38-15.19,19.03-22.14,36.95-6.95,17.94-12.1,40.81-8.53,42.2,3.51,1.37,15.39-18.15,22.55-36.54,7.26-18.65,11.65-41.25,8.12-42.62Z" fill="#ffd52d"/>
    </g>
    <g id="u" data-name="&amp;lt;径向重复&amp;gt;">
      <path d="M213.02,63.14c-2.84-2.58-21.04,12.26-33.99,26.46-12.96,14.22-26.02,33.69-23.2,36.27,2.78,2.55,20.91-11.36,34.22-25.92,13.5-14.77,25.77-34.26,22.96-36.81Z" fill="#ffd52d"/>
    </g>
    <g id="v" data-name="&amp;lt;径向重复&amp;gt;">
      <path d="M236.6,94.2c-1.72-3.43-24.05,3.83-41.25,12.4-17.22,8.57-36.43,22.01-34.73,25.44,1.68,3.38,23.6-3.04,41.28-11.81,17.92-8.89,36.4-22.64,34.71-26.03Z" fill="#ffd52d"/>
    </g>
    <g id="w" data-name="&amp;lt;径向重复&amp;gt;">
      <path d="M247.36,131.68c-.36-3.82-23.81-5.12-42.94-3.34-19.15,1.77-41.92,7.36-41.58,11.18.34,3.76,23.11,5.69,42.76,3.9,19.93-1.82,42.12-7.96,41.76-11.73Z" fill="#ffd52d"/>
    </g>
    <g id="x" data-name="&amp;lt;径向重复&amp;gt;">
      <path d="M243.86,170.51c1.04-3.69-20.35-13.37-38.84-18.63-18.5-5.26-41.75-8.28-42.81-4.6-1.04,3.63,19.49,13.65,38.46,19.08,19.24,5.51,42.15,7.79,43.18,4.15Z" fill="#ffd52d"/>
    </g>
    <g id="y" data-name="&amp;lt;径向重复&amp;gt;">
      <path d="M226.57,205.46c2.3-3.06-14.15-19.82-29.48-31.4-15.35-11.59-35.94-22.8-38.26-19.75-2.28,3.01,13.24,19.77,28.97,31.69,15.95,12.08,36.49,22.5,38.77,19.47Z" fill="#ffd52d"/>
    </g>
    <g id="z" data-name="&amp;lt;径向重复&amp;gt;">
      <path d="M197.82,231.8c3.26-2.02-6.03-23.59-16.15-39.93-10.13-16.35-25.28-34.25-28.54-32.24-3.21,1.98,5.21,23.22,15.57,40.01,10.51,17.03,25.9,34.16,29.12,32.16Z" fill="#ffd52d"/>
    </g>
    <g id="aa" data-name="&amp;lt;径向重复&amp;gt;">
      <path d="M161.49,245.98c3.77-.71,2.9-24.18-.63-43.07-3.53-18.91-11.2-41.07-14.96-40.37-3.71.69-3.53,23.53.06,42.94,3.65,19.67,11.81,41.21,15.53,40.5Z" fill="#ffd52d"/>
    </g>
    <g id="ab" data-name="&amp;lt;径向重复&amp;gt;">
      <path d="M122.5,246.08c3.77.7,11.44-21.5,14.97-40.39,3.53-18.91,4.39-42.34.63-43.05-3.71-.7-11.8,20.67-15.45,40.06-3.71,19.66-3.87,42.69-.15,43.38Z" fill="#ffd52d"/>
    </g>
    <g id="ac" data-name="&amp;lt;径向重复&amp;gt;">
      <path d="M86.1,232.09c3.26,2.01,18.43-15.92,28.55-32.26,10.13-16.35,19.39-37.89,16.14-39.92-3.2-1.99-18.47,15.01-28.88,31.77-10.56,17-19.03,38.41-15.81,40.4Z" fill="#ffd52d"/>
    </g>
    <g id="ad" data-name="&amp;lt;径向重复&amp;gt;">
      <path d="M57.22,205.89c2.32,3.06,22.94-8.18,38.27-19.76,15.35-11.59,31.77-28.33,29.47-31.39-2.27-3.01-22.64,7.33-38.41,19.19-15.99,12.03-31.62,28.94-29.33,31.96Z" fill="#ffd52d"/>
    </g>
    <g id="ae" data-name="&amp;lt;径向重复&amp;gt;">
      <path d="M39.75,171.03c1.06,3.69,24.34.65,42.83-4.6,18.5-5.26,39.86-14.94,38.82-18.63-1.03-3.63-23.76-1.35-42.75,4.02-19.25,5.45-39.94,15.56-38.9,19.21Z" fill="#ffd52d"/>
    </g>
    <g id="af" data-name="&amp;lt;径向重复&amp;gt;">
      <path d="M36.05,132.21c-.35,3.82,22.46,9.4,41.6,11.18,19.15,1.78,42.56.47,42.92-3.35.35-3.75-21.67-9.84-41.31-11.69-19.92-1.88-42.87.08-43.21,3.86Z" fill="#ffd52d"/>
    </g>
    <g id="ag" data-name="&amp;lt;径向重复&amp;gt;">
      <path d="M46.63,94.68c-1.7,3.43,17.55,16.88,34.75,25.45,17.22,8.57,39.52,15.81,41.23,12.39,1.69-3.37-16.65-17-34.3-25.82-17.9-8.95-40-15.41-41.68-12.01Z" fill="#ffd52d"/>
    </g>
    <g id="ah" data-name="&amp;lt;径向重复&amp;gt;">
      <path d="M70.05,63.5c-2.83,2.59,10.26,22.08,23.21,36.29,12.96,14.22,31.14,29.02,33.98,26.45,2.79-2.54-9.39-21.87-22.66-36.47-13.46-14.81-31.74-28.82-34.53-26.26Z" fill="#ffd52d"/>
    </g>
    <g id="ai" data-name="&amp;lt;径向重复&amp;gt;">
      <path d="M103.15,42.89c-3.57,1.39,1.59,24.3,8.54,42.22,6.95,17.94,18.56,38.31,22.13,36.93,3.52-1.36-.85-23.78-7.95-42.19-7.2-18.67-19.18-38.34-22.71-36.96Z" fill="#ffd52d"/>
    </g>
  </g>
  <g>
    <g id="aj" data-name="&amp;lt;径向重复&amp;gt;">
      <g id="ak" data-name="&amp;lt;径向重复&amp;gt;">
        <path d="M141.75,234.88c.8,0,.97,4.22,2.67,16.4.15,1.1,3.11,22.27-.4,29.69-.32.67-1.18,2.5-2.34,2.49-1.11,0-1.93-1.7-2.23-2.32-3.59-7.39-.42-29.78-.42-29.78,1.74-12.27,1.92-16.49,2.72-16.49Z" fill="#f5b828"/>
      </g>
    </g>
    <g id="al" data-name="&amp;lt;径向重复&amp;gt;">
      <g id="am" data-name="&amp;lt;径向重复&amp;gt;">
        <path d="M108.1,228.59c.75.29-.62,4.29-3.43,16.25-.26,1.09-5.14,21.89-11.1,27.54-.53.51-2.01,1.9-3.08,1.48-1.03-.4-1.19-2.29-1.25-2.97-.68-8.19,10.37-27.92,10.37-27.92,6.05-10.81,7.75-14.68,8.5-14.39Z" fill="#f5b828"/>
      </g>
    </g>
    <g id="an" data-name="&amp;lt;径向重复&amp;gt;">
      <g id="ao" data-name="&amp;lt;径向重复&amp;gt;">
        <path d="M78.99,210.58c.59.54-2.13,3.77-9.07,13.92-.63.92-12.7,18.56-20.3,21.67-.68.28-2.56,1.05-3.41.27-.82-.75-.28-2.56-.09-3.22,2.33-7.88,19.75-22.29,19.75-22.29,9.55-7.89,12.53-10.89,13.12-10.35Z" fill="#f5b828"/>
      </g>
    </g>
    <g id="ap" data-name="&amp;lt;径向重复&amp;gt;">
      <g id="aq" data-name="&amp;lt;径向重复&amp;gt;">
        <path d="M58.36,183.27c.36.72-3.35,2.75-13.49,9.7-.92.63-18.55,12.72-26.76,12.88-.74.01-2.76.05-3.28-.98-.49-1,.66-2.49,1.08-3.03,5.02-6.51,26.47-13.65,26.47-13.65,11.75-3.91,15.62-5.63,15.97-4.91Z" fill="#f5b828"/>
      </g>
    </g>
    <g id="ar" data-name="&amp;lt;径向重复&amp;gt;">
      <g id="as" data-name="&amp;lt;径向重复&amp;gt;">
        <path d="M48.99,150.34c.07.8-4.11,1.36-16.08,4.17-1.09.26-21.89,5.16-29.61,2.34-.69-.25-2.6-.95-2.7-2.1-.1-1.11,1.52-2.08,2.1-2.44,7.03-4.26,29.62-3.17,29.62-3.17,12.37.6,16.6.39,16.67,1.19Z" fill="#f5b828"/>
      </g>
    </g>
    <g id="at" data-name="&amp;lt;径向重复&amp;gt;">
      <g id="au" data-name="&amp;lt;径向重复&amp;gt;">
        <path d="M52.14,116.26c-.22.77-4.32-.22-16.5-1.92-1.1-.15-22.27-3.1-28.45-8.51-.55-.49-2.08-1.82-1.76-2.93.31-1.07,2.17-1.4,2.84-1.51,8.09-1.43,28.76,7.75,28.76,7.75,11.32,5.03,15.33,6.36,15.11,7.13Z" fill="#f5b828"/>
      </g>
    </g>
    <g id="av" data-name="&amp;lt;径向重复&amp;gt;">
      <g id="aw" data-name="&amp;lt;径向重复&amp;gt;">
        <path d="M67.39,85.61c-.48.64-3.95-1.77-14.69-7.75-.97-.54-19.65-10.94-23.45-18.22-.34-.65-1.28-2.45-.58-3.37.67-.88,2.52-.52,3.19-.39,8.06,1.59,24.02,17.61,24.02,17.61,8.74,8.78,12,11.47,11.52,12.11Z" fill="#f5b828"/>
      </g>
    </g>
    <g id="ax" data-name="&amp;lt;径向重复&amp;gt;">
      <g id="ay" data-name="&amp;lt;径向重复&amp;gt;">
        <path d="M92.68,62.55c-.68.42-3.05-3.08-10.9-12.53-.71-.86-14.37-17.3-15.29-25.46-.08-.73-.31-2.75.68-3.35.95-.58,2.54.43,3.12.79,6.94,4.4,16.04,25.1,16.04,25.1,4.98,11.34,7.04,15.03,6.36,15.45Z" fill="#f5b828"/>
      </g>
    </g>
    <g id="az" data-name="&amp;lt;径向重复&amp;gt;">
      <g id="ba" data-name="&amp;lt;径向重复&amp;gt;">
        <path d="M124.6,50.18c-.79.15-1.73-3.97-5.64-15.63-.35-1.06-7.15-21.32-5.06-29.26.19-.71.7-2.67,1.84-2.88,1.09-.2,2.21,1.32,2.62,1.87,4.89,6.61,5.88,29.2,5.88,29.2.55,12.38,1.14,16.56.35,16.71Z" fill="#f5b828"/>
      </g>
    </g>
    <g id="bb" data-name="&amp;lt;径向重复&amp;gt;">
      <g id="bc" data-name="&amp;lt;径向重复&amp;gt;">
        <path d="M158.83,50.17c-.79-.15-.18-4.33.39-16.61.05-1.11,1.03-22.47,5.85-29.12.43-.6,1.62-2.24,2.76-2.02,1.09.21,1.59,2.03,1.77,2.69,2.17,7.93-5.06,29.35-5.06,29.35-3.96,11.74-4.92,15.85-5.71,15.71Z" fill="#f5b828"/>
      </g>
    </g>
    <g id="bd" data-name="&amp;lt;径向重复&amp;gt;">
      <g id="be" data-name="&amp;lt;径向重复&amp;gt;">
        <path d="M190.75,62.53c-.68-.42,1.4-4.1,6.36-15.35.45-1.02,9.08-20.58,15.97-25.03.62-.4,2.32-1.5,3.3-.89.94.59.75,2.46.68,3.14-.84,8.18-15.32,25.54-15.32,25.54-7.93,9.51-10.32,13.01-11,12.58Z" fill="#f5b828"/>
      </g>
    </g>
    <g id="bf" data-name="&amp;lt;径向重复&amp;gt;">
      <g id="bg" data-name="&amp;lt;径向重复&amp;gt;">
        <path d="M216.05,85.58c-.48-.64,2.78-3.32,11.48-12.01.79-.79,15.9-15.91,23.94-17.57.72-.15,2.71-.56,3.4.36.67.89-.19,2.57-.5,3.18-3.74,7.32-23.51,18.28-23.51,18.28-10.84,6.01-14.32,8.4-14.8,7.76Z" fill="#f5b828"/>
      </g>
    </g>
    <g id="bh" data-name="&amp;lt;径向重复&amp;gt;">
      <g id="bi" data-name="&amp;lt;径向重复&amp;gt;">
        <path d="M231.32,116.22c-.22-.77,3.79-2.09,15.04-7.06,1.02-.45,20.57-9.09,28.67-7.74.73.12,2.73.46,3.04,1.57.3,1.07-1.11,2.33-1.62,2.78-6.13,5.48-28.53,8.55-28.53,8.55-12.27,1.69-16.39,2.66-16.6,1.89Z" fill="#f5b828"/>
      </g>
    </g>
    <g id="bj" data-name="&amp;lt;径向重复&amp;gt;">
      <g id="bk" data-name="&amp;lt;径向重复&amp;gt;">
        <path d="M234.48,150.31c.08-.8,4.29-.58,16.57-1.15,1.11-.05,22.47-1.05,29.53,3.14.63.38,2.38,1.41,2.27,2.56-.11,1.11-1.87,1.77-2.51,2.01-7.69,2.89-29.7-2.33-29.7-2.33-12.05-2.86-16.24-3.44-16.17-4.23Z" fill="#f5b828"/>
      </g>
    </g>
    <g id="bl" data-name="&amp;lt;径向重复&amp;gt;">
      <g id="bm" data-name="&amp;lt;径向重复&amp;gt;">
        <path d="M225.12,183.24c.36-.72,4.21,1.01,15.87,4.92,1.06.35,21.33,7.14,26.4,13.6.46.58,1.71,2.17,1.19,3.21-.5.99-2.39.97-3.07.97-8.22-.08-26.85-12.9-26.85-12.9-10.21-7.02-13.9-9.07-13.54-9.79Z" fill="#f5b828"/>
      </g>
    </g>
    <g id="bn" data-name="&amp;lt;径向重复&amp;gt;">
      <g id="bo" data-name="&amp;lt;径向重复&amp;gt;">
        <path d="M204.5,210.56c.59-.54,3.56,2.47,13.02,10.32.86.71,17.31,14.36,19.71,22.22.22.7.81,2.64-.05,3.42-.82.75-2.58.05-3.21-.21-7.63-3.05-20.37-21.73-20.37-21.73-6.98-10.23-9.69-13.48-9.09-14.02Z" fill="#f5b828"/>
      </g>
    </g>
    <g id="bp" data-name="&amp;lt;径向重复&amp;gt;">
      <g id="bq" data-name="&amp;lt;径向重复&amp;gt;">
        <path d="M175.4,228.58c.75-.29,2.43,3.58,8.41,14.32.54.97,10.95,19.64,10.35,27.84-.05.73-.2,2.76-1.28,3.17-1.04.4-2.42-.89-2.92-1.35-6.02-5.6-11.15-27.62-11.15-27.62-2.81-12.07-4.16-16.07-3.42-16.36Z" fill="#f5b828"/>
      </g>
    </g>
  </g>
</svg>