<?xml version="1.0" encoding="UTF-8"?>
<svg id="a" data-name="图层 1" xmlns="http://www.w3.org/2000/svg" width="100mm" height="100mm" viewBox="0 0 283.46 283.46">
  <g>
    <g id="b" data-name="&amp;lt;径向重复&amp;gt;">
      <path d="M141.67,124.65c-2.04,0-2.48-10.83-6.82-42.07-.39-2.83-7.96-57.14,1.03-76.18C136.69,4.69,138.9,0,141.86,0c2.84,0,4.94,4.36,5.7,5.94,9.17,18.97,1.07,76.41,1.07,76.41-4.44,31.47-4.92,42.3-6.96,42.3Z" fill="#fcf3cb"/>
    </g>
    <g id="c" data-name="&amp;lt;径向重复&amp;gt;">
      <path d="M148.25,125.86c-1.9-.74,1.58-11,8.77-41.7.65-2.78,13.14-56.17,28.37-70.66,1.37-1.3,5.13-4.88,7.88-3.8,2.64,1.04,3.04,5.86,3.18,7.61,1.73,21.02-26.49,71.64-26.49,71.64-15.46,27.73-19.8,37.66-21.71,36.92Z" fill="#fcf3cb"/>
    </g>
    <g id="d" data-name="&amp;lt;径向重复&amp;gt;">
      <path d="M153.94,129.38c-1.51-1.39,5.43-9.68,23.18-35.7,1.61-2.36,32.46-47.61,51.87-55.6,1.74-.72,6.54-2.69,8.71-.69,2.09,1.93.72,6.57.23,8.25-5.95,20.22-50.47,57.19-50.47,57.19-24.39,20.25-32.01,27.94-33.52,26.55Z" fill="#fcf3cb"/>
    </g>
    <g id="e" data-name="&amp;lt;径向重复&amp;gt;">
      <path d="M157.98,134.73c-.91-1.84,8.55-7.05,34.46-24.88,2.35-1.62,47.39-32.62,68.37-33.03,1.88-.04,7.06-.14,8.37,2.52,1.26,2.55-1.69,6.39-2.75,7.78-12.82,16.7-67.64,35.02-67.64,35.02-30.03,10.04-39.9,14.44-40.81,12.6Z" fill="#fcf3cb"/>
    </g>
    <g id="f" data-name="&amp;lt;径向重复&amp;gt;">
      <path d="M159.83,141.18c-.19-2.04,10.51-3.48,41.08-10.7,2.77-.66,55.93-13.23,75.64-6,1.77.65,6.64,2.43,6.9,5.39.25,2.84-3.87,5.34-5.36,6.25-17.97,10.92-75.67,8.12-75.67,8.12-31.62-1.53-42.4-1.01-42.59-3.06Z" fill="#fcf3cb"/>
    </g>
    <g id="g" data-name="&amp;lt;径向重复&amp;gt;">
      <path d="M159.23,147.87c.56-1.97,11.05.57,42.16,4.92,2.82.39,56.91,7.95,72.69,21.84,1.42,1.25,5.31,4.68,4.49,7.53-.79,2.74-5.53,3.58-7.25,3.88-20.68,3.67-73.48-19.88-73.48-19.88-28.93-12.9-39.17-16.32-38.61-18.3Z" fill="#fcf3cb"/>
    </g>
    <g id="h" data-name="&amp;lt;径向重复&amp;gt;">
      <path d="M156.26,153.88c1.23-1.64,10.1,4.54,37.54,19.88,2.49,1.39,50.21,28.06,59.92,46.73.87,1.68,3.27,6.29,1.48,8.65-1.72,2.27-6.45,1.33-8.16.99-20.6-4.08-61.37-45.19-61.37-45.19-22.34-22.52-30.66-29.43-29.42-31.07Z" fill="#fcf3cb"/>
    </g>
    <g id="i" data-name="&amp;lt;径向重复&amp;gt;">
      <path d="M151.34,158.42c1.74-1.08,7.78,7.9,27.86,32.16,1.82,2.2,36.72,44.38,39.06,65.31.21,1.88.79,7.05-1.73,8.6-2.42,1.49-6.49-1.1-7.96-2.03-17.74-11.28-40.97-64.4-40.97-64.4-12.73-29.1-18-38.56-16.26-39.64Z" fill="#fcf3cb"/>
    </g>
    <g id="j" data-name="&amp;lt;径向重复&amp;gt;">
      <path d="M145.11,160.86c2.01-.37,4.42,10.19,14.41,40.09.91,2.71,18.28,54.7,12.93,75.07-.48,1.83-1.8,6.86-4.71,7.39-2.79.51-5.66-3.38-6.69-4.79-12.49-16.96-15.04-74.91-15.04-74.91-1.4-31.75-2.91-42.49-.9-42.86Z" fill="#fcf3cb"/>
    </g>
    <g id="k" data-name="&amp;lt;径向重复&amp;gt;">
      <path d="M138.42,160.88c2.01.38.46,11.1-.99,42.61-.13,2.86-2.64,57.64-14.95,74.69-1.1,1.53-4.15,5.74-7.05,5.19-2.79-.53-4.06-5.2-4.52-6.89-5.54-20.34,12.93-75.31,12.93-75.31,10.12-30.11,12.57-40.67,14.58-40.29Z" fill="#fcf3cb"/>
    </g>
    <g id="l" data-name="&amp;lt;径向重复&amp;gt;">
      <path d="M132.18,158.47c1.74,1.08-3.57,10.52-16.25,39.37-1.15,2.62-23.19,52.79-40.82,64.23-1.58,1.03-5.93,3.85-8.44,2.28-2.41-1.51-1.91-6.32-1.74-8.07,2.15-20.98,39.15-65.53,39.15-65.53,20.27-24.41,26.36-33.37,28.09-32.28Z" fill="#fcf3cb"/>
    </g>
    <g id="m" data-name="&amp;lt;径向重复&amp;gt;">
      <path d="M127.23,153.96c1.23,1.64-7.11,8.51-29.32,30.82-2.01,2.02-40.62,40.81-61.17,45.08-1.84.38-6.92,1.44-8.69-.93-1.7-2.28.49-6.59,1.28-8.15,9.55-18.78,60.08-46.91,60.08-46.91,27.68-15.41,36.58-21.55,37.81-19.91Z" fill="#fcf3cb"/>
    </g>
    <g id="n" data-name="&amp;lt;径向重复&amp;gt;">
      <path d="M124.23,147.96c.56,1.98-9.69,5.36-38.43,18.1-2.61,1.16-52.56,23.32-73.25,19.85-1.86-.31-6.97-1.17-7.77-4.02-.77-2.74,2.83-5.97,4.13-7.14,15.66-14.05,72.9-21.95,72.9-21.95,31.36-4.33,41.87-6.83,42.42-4.85Z" fill="#fcf3cb"/>
    </g>
    <g id="o" data-name="&amp;lt;径向重复&amp;gt;">
      <path d="M123.6,141.27c-.19,2.04-10.97,1.48-42.34,2.94-2.85.13-57.4,2.68-75.45-8.06-1.62-.96-6.08-3.62-5.8-6.57.27-2.84,4.78-4.54,6.42-5.16,19.66-7.42,75.87,5.98,75.87,5.98,30.8,7.34,41.49,8.82,41.3,10.86Z" fill="#fcf3cb"/>
    </g>
    <g id="p" data-name="&amp;lt;径向重复&amp;gt;">
      <path d="M125.41,134.81c-.91,1.84-10.76-2.6-40.54-12.62-2.7-.91-54.49-18.32-67.46-34.88-1.16-1.49-4.37-5.58-3.04-8.23,1.27-2.55,6.09-2.5,7.84-2.48,21,.21,68.6,33.09,68.6,33.09,26.08,18.02,35.52,23.27,34.61,25.11Z" fill="#fcf3cb"/>
    </g>
    <g id="q" data-name="&amp;lt;径向重复&amp;gt;">
      <path d="M129.43,129.44c-1.51,1.38-9.1-6.32-33.27-26.47-2.19-1.83-44.22-36.85-50.35-56.99-.55-1.81-2.07-6.78.12-8.77,2.1-1.91,6.58-.12,8.2.53,19.51,7.82,52.06,55.74,52.06,55.74,17.83,26.26,24.75,34.59,23.24,35.97Z" fill="#fcf3cb"/>
    </g>
    <g id="r" data-name="&amp;lt;径向重复&amp;gt;">
      <path d="M135.11,125.9c-1.91.74-6.21-9.2-21.5-36.75-1.39-2.5-27.98-50.4-26.45-71.41.14-1.89.51-7.07,3.27-8.14,2.65-1.02,6.18,2.28,7.46,3.47,15.38,14.36,28.49,70.86,28.49,70.86,7.18,30.95,10.63,41.23,8.73,41.97Z" fill="#fcf3cb"/>
    </g>
  </g>
  <g>
    <path d="M141.85,260.32c1.92,0,3.66-25.71,3.66-46.98,0-21.29-1.74-46.95-3.66-46.95-1.89,0-3.91,24.88-3.93,46.71-.02,22.14,2.03,47.22,3.93,47.22Z" fill="#ffd52d"/>
    <path d="M99.61,252.44c1.8.69,12.66-22.65,20.31-42.48,7.66-19.85,15.27-44.41,13.48-45.11-1.76-.69-12.6,21.78-20.47,42.13-7.98,20.64-15.1,44.77-13.32,45.45Z" fill="#ffd52d"/>
    <path d="M63.04,229.77c1.43,1.3,19.95-16.52,34.22-32.24,14.28-15.73,30.21-35.87,28.8-37.17-1.39-1.29-19.58,15.74-34.24,31.86-14.87,16.35-30.19,36.27-28.78,37.55Z" fill="#ffd52d"/>
    <path d="M37.11,195.37c.86,1.73,24.55-8.17,43.51-17.65,18.98-9.49,41.08-22.49,40.23-24.22-.84-1.7-23.92,7.57-43.4,17.29-19.74,9.86-41.2,22.87-40.34,24.58Z" fill="#ffd52d"/>
    <path d="M25.3,153.88c.19,1.92,25.83,1.29,46.92-.68,21.11-1.96,46.39-6.07,46.22-7.99-.17-1.89-25.03-1.62-46.69.38-21.96,2.03-46.64,6.38-46.46,8.28Z" fill="#ffd52d"/>
    <path d="M29.22,110.91c-.52,1.86,23.63,10.57,44,16.39,20.39,5.83,45.44,11.17,45.98,9.32.53-1.83-22.76-10.59-43.67-16.58-21.2-6.07-45.79-10.97-46.3-9.13Z" fill="#ffd52d"/>
    <path d="M48.32,72.26c-1.15,1.55,18.23,18.43,35.13,31.24,16.92,12.83,38.36,26.9,39.52,25.36,1.15-1.51-17.42-18.13-34.76-31.3-17.59-13.35-38.75-26.83-39.89-25.31Z" fill="#ffd52d"/>
    <path d="M80.05,43.16c-1.63,1.02,10.37,23.79,21.52,41.87,11.16,18.1,26.09,39,27.73,37.99,1.61-.99-9.72-23.22-21.15-41.79-11.59-18.83-26.48-39.08-28.09-38.07Z" fill="#ffd52d"/>
    <path d="M120.1,27.53c-1.89.36,1.11,25.95,5,46.85,3.9,20.92,10.3,45.83,12.19,45.48,1.86-.34-.71-25.18-4.69-46.64-4.04-21.77-10.63-46.04-12.5-45.69Z" fill="#ffd52d"/>
    <path d="M163.07,27.48c-1.89-.35-8.3,24.6-12.19,45.5-3.9,20.92-6.88,46.47-5,46.83,1.86.36,8.4-23.74,12.41-45.19,4.07-21.76,6.65-46.79,4.78-47.14Z" fill="#ffd52d"/>
    <path d="M203.16,43.02c-1.64-1.01-16.59,19.93-27.74,38.01-11.16,18.1-23.13,40.83-21.51,41.85,1.61,1.01,16.37-19.09,27.83-37.64,11.62-18.82,23.03-41.22,21.41-42.22Z" fill="#ffd52d"/>
    <path d="M234.95,72.05c-1.17-1.54-22.64,12.56-39.54,25.38-16.92,12.83-36.26,29.68-35.11,31.23,1.13,1.52,22.13-11.86,39.49-25,17.61-13.33,36.31-30.08,35.16-31.6Z" fill="#ffd52d"/>
    <path d="M254.15,110.65c-.53-1.86-25.63,3.5-46,9.32-20.39,5.82-44.49,14.53-43.97,16.38.51,1.83,24.9-3.03,45.82-8.99,21.21-6.04,44.68-14.88,44.15-16.71Z" fill="#ffd52d"/>
    <path d="M258.17,153.61c.17-1.92-25.16-6.03-46.25-7.99-21.11-1.96-46.71-2.59-46.9-.67-.18,1.89,24.31,6.21,45.96,8.24,21.95,2.06,47.02,2.33,47.18.43Z" fill="#ffd52d"/>
    <path d="M246.45,195.13c.85-1.73-21.29-14.75-40.25-24.23-18.98-9.49-42.63-19.36-43.49-17.64-.85,1.7,20.44,14.61,39.89,24.35,19.73,9.88,43,19.23,43.84,17.52Z" fill="#ffd52d"/>
    <path d="M220.6,229.59c1.42-1.31-14.55-21.48-28.81-37.19-14.28-15.73-32.78-33.52-34.21-32.22-1.4,1.27,13.8,21.03,28.44,37.18,14.84,16.37,33.18,33.53,34.58,32.24Z" fill="#ffd52d"/>
    <path d="M184.08,252.35c1.79-.7-5.84-25.3-13.49-45.13-7.66-19.85-18.51-43.14-20.3-42.46-1.77.68,5.3,24.62,13.14,44.98,7.95,20.65,18.88,43.3,20.65,42.6Z" fill="#ffd52d"/>
  </g>
  <g>
    <g id="s" data-name="&amp;lt;径向重复&amp;gt;">
      <g id="t" data-name="&amp;lt;径向重复&amp;gt;">
        <path d="M141.69,85.45c-1.29,0-1.56-6.83-4.3-26.52-.25-1.79-5.02-36.03.65-48.03.51-1.08,1.91-4.04,3.77-4.04,1.79,0,3.12,2.75,3.6,3.75,5.78,11.96.68,48.18.68,48.18-2.8,19.84-3.1,26.67-4.39,26.67Z" fill="#f5b828"/>
      </g>
    </g>
    <g id="u" data-name="&amp;lt;径向重复&amp;gt;">
      <g id="v" data-name="&amp;lt;径向重复&amp;gt;">
        <path d="M162.37,89.31c-1.2-.47,1-6.93,5.53-26.29.41-1.76,8.28-35.42,17.89-44.56.86-.82,3.23-3.08,4.97-2.4,1.67.65,1.92,3.7,2.01,4.8,1.09,13.25-16.7,45.17-16.7,45.17-9.75,17.49-12.49,23.75-13.69,23.28Z" fill="#f5b828"/>
      </g>
    </g>
    <g id="w" data-name="&amp;lt;径向重复&amp;gt;">
      <g id="x" data-name="&amp;lt;径向重复&amp;gt;">
        <path d="M180.26,100.42c-.95-.87,3.43-6.1,14.62-22.51,1.02-1.49,20.47-30.02,32.71-35.06,1.1-.45,4.12-1.7,5.49-.43,1.32,1.21.46,4.14.15,5.2-3.75,12.75-31.83,36.06-31.83,36.06-15.38,12.77-20.19,17.61-21.14,16.74Z" fill="#f5b828"/>
      </g>
    </g>
    <g id="y" data-name="&amp;lt;径向重复&amp;gt;">
      <g id="z" data-name="&amp;lt;径向重复&amp;gt;">
        <path d="M192.94,117.27c-.57-1.16,5.39-4.45,21.73-15.69,1.48-1.02,29.88-20.57,43.11-20.83,1.19-.02,4.45-.09,5.28,1.59.79,1.61-1.06,4.03-1.74,4.9-8.09,10.53-42.65,22.08-42.65,22.08-18.94,6.33-25.16,9.1-25.73,7.94Z" fill="#f5b828"/>
      </g>
    </g>
    <g id="aa" data-name="&amp;lt;径向重复&amp;gt;">
      <g id="ab" data-name="&amp;lt;径向重复&amp;gt;">
        <path d="M198.71,137.58c-.12-1.29,6.63-2.19,25.91-6.75,1.75-.41,35.27-8.34,47.69-3.78,1.11.41,4.18,1.53,4.35,3.4.16,1.79-2.44,3.37-3.38,3.94-11.33,6.89-47.71,5.12-47.71,5.12-19.93-.97-26.74-.64-26.85-1.93Z" fill="#f5b828"/>
      </g>
    </g>
    <g id="ac" data-name="&amp;lt;径向重复&amp;gt;">
      <g id="ad" data-name="&amp;lt;径向重复&amp;gt;">
        <path d="M196.78,158.61c.35-1.24,6.97.36,26.58,3.1,1.78.25,35.88,5.02,45.83,13.77.89.79,3.35,2.95,2.83,4.75-.5,1.73-3.49,2.26-4.57,2.45-13.04,2.31-46.33-12.53-46.33-12.53-18.24-8.13-24.7-10.29-24.35-11.54Z" fill="#f5b828"/>
      </g>
    </g>
    <g id="ae" data-name="&amp;lt;径向重复&amp;gt;">
      <g id="af" data-name="&amp;lt;径向重复&amp;gt;">
        <path d="M187.41,177.52c.78-1.03,6.37,2.86,23.67,12.54,1.57.88,31.66,17.69,37.78,29.47.55,1.06,2.06,3.96.94,5.45-1.08,1.43-4.07.84-5.14.63-12.99-2.57-38.7-28.49-38.7-28.49-14.08-14.2-19.33-18.56-18.55-19.59Z" fill="#f5b828"/>
      </g>
    </g>
    <g id="ag" data-name="&amp;lt;径向重复&amp;gt;">
      <g id="ah" data-name="&amp;lt;径向重复&amp;gt;">
        <path d="M171.87,191.76c1.1-.68,4.91,4.98,17.56,20.28,1.15,1.39,23.15,27.98,24.63,41.18.13,1.18.5,4.44-1.09,5.42-1.52.94-4.09-.69-5.02-1.28-11.19-7.11-25.83-40.6-25.83-40.6-8.02-18.35-11.35-24.32-10.25-25Z" fill="#f5b828"/>
      </g>
    </g>
    <g id="ai" data-name="&amp;lt;径向重复&amp;gt;">
      <g id="aj" data-name="&amp;lt;径向重复&amp;gt;">
        <path d="M152.26,199.4c1.27-.24,2.79,6.42,9.08,25.28.57,1.71,11.52,34.49,8.15,47.34-.3,1.15-1.14,4.33-2.97,4.66-1.76.32-3.57-2.13-4.22-3.02-7.87-10.69-9.48-47.23-9.48-47.23-.88-20.02-1.83-26.79-.57-27.03Z" fill="#f5b828"/>
      </g>
    </g>
    <g id="ak" data-name="&amp;lt;径向重复&amp;gt;">
      <g id="al" data-name="&amp;lt;径向重复&amp;gt;">
        <path d="M131.23,199.41c1.27.24.29,7-.62,26.87-.08,1.8-1.66,36.34-9.43,47.1-.7.96-2.61,3.62-4.44,3.27-1.76-.34-2.56-3.28-2.85-4.35-3.5-12.83,8.15-47.48,8.15-47.48,6.38-18.99,7.93-25.65,9.2-25.41Z" fill="#f5b828"/>
      </g>
    </g>
    <g id="am" data-name="&amp;lt;径向重复&amp;gt;">
      <g id="an" data-name="&amp;lt;径向重复&amp;gt;">
        <path d="M111.62,191.79c1.09.68-2.25,6.63-10.25,24.83-.73,1.65-14.62,33.28-25.74,40.5-1,.65-3.74,2.43-5.32,1.44-1.52-.95-1.21-3.99-1.09-5.09,1.35-13.23,24.68-41.32,24.68-41.32,12.78-15.39,16.62-21.04,17.71-20.36Z" fill="#f5b828"/>
      </g>
    </g>
    <g id="ao" data-name="&amp;lt;径向重复&amp;gt;">
      <g id="ap" data-name="&amp;lt;径向重复&amp;gt;">
        <path d="M96.06,177.57c.78,1.03-4.48,5.37-18.49,19.43-1.27,1.28-25.61,25.73-38.57,28.43-1.16.24-4.36.91-5.48-.59-1.07-1.44.31-4.16.81-5.14,6.02-11.84,37.88-29.58,37.88-29.58,17.46-9.72,23.07-13.59,23.84-12.56Z" fill="#f5b828"/>
      </g>
    </g>
    <g id="aq" data-name="&amp;lt;径向重复&amp;gt;">
      <g id="ar" data-name="&amp;lt;径向重复&amp;gt;">
        <path d="M86.68,158.67c.35,1.25-6.11,3.38-24.23,11.41-1.64.73-33.14,14.7-46.19,12.52-1.17-.2-4.39-.74-4.9-2.54-.48-1.73,1.78-3.76,2.6-4.5,9.88-8.86,45.96-13.84,45.96-13.84,19.77-2.73,26.4-4.31,26.75-3.06Z" fill="#f5b828"/>
      </g>
    </g>
    <g id="as" data-name="&amp;lt;径向重复&amp;gt;">
      <g id="at" data-name="&amp;lt;径向重复&amp;gt;">
        <path d="M84.73,137.64c-.12,1.29-6.91.93-26.7,1.85-1.79.08-36.19,1.69-47.57-5.08-1.02-.61-3.83-2.28-3.65-4.14.17-1.79,3.02-2.86,4.05-3.25,12.4-4.68,47.84,3.77,47.84,3.77,19.42,4.63,26.16,5.56,26.04,6.85Z" fill="#f5b828"/>
      </g>
    </g>
    <g id="au" data-name="&amp;lt;径向重复&amp;gt;">
      <g id="av" data-name="&amp;lt;径向重复&amp;gt;">
        <path d="M90.47,117.32c-.58,1.16-6.78-1.64-25.56-7.96-1.7-.57-34.36-11.55-42.53-21.99-.73-.94-2.75-3.52-1.92-5.19.8-1.61,3.84-1.57,4.94-1.56,13.24.13,43.25,20.87,43.25,20.87,16.44,11.36,22.4,14.68,21.82,15.83Z" fill="#f5b828"/>
      </g>
    </g>
    <g id="aw" data-name="&amp;lt;径向重复&amp;gt;">
      <g id="ax" data-name="&amp;lt;径向重复&amp;gt;">
        <path d="M103.14,100.46c-.95.87-5.74-3.99-20.98-16.69-1.38-1.15-27.88-23.23-31.75-35.94-.35-1.14-1.3-4.28.08-5.53,1.33-1.21,4.15-.07,5.17.33,12.3,4.93,32.82,35.15,32.82,35.15,11.25,16.56,15.6,21.81,14.65,22.68Z" fill="#f5b828"/>
      </g>
    </g>
    <g id="ay" data-name="&amp;lt;径向重复&amp;gt;">
      <g id="az" data-name="&amp;lt;径向重复&amp;gt;">
        <path d="M121.02,89.34c-1.2.47-3.91-5.8-13.55-23.17-.87-1.58-17.64-31.78-16.68-45.03.09-1.19.32-4.46,2.06-5.13,1.67-.64,3.9,1.44,4.7,2.19,9.7,9.06,17.96,44.68,17.96,44.68,4.53,19.52,6.71,26,5.5,26.46Z" fill="#f5b828"/>
      </g>
    </g>
  </g>
</svg>