<?xml version="1.0" encoding="UTF-8"?>
<svg id="a" data-name="图层 1" xmlns="http://www.w3.org/2000/svg" width="100mm" height="100mm" viewBox="0 0 283.46 283.46">
  <g>
    <g id="b" data-name="&amp;lt;径向重复&amp;gt;">
      <path d="M141.68,107.76c-2.16,0-2.61-7.66-7.19-29.74-.42-2-8.39-40.4,1.09-53.86.85-1.21,3.19-4.53,6.3-4.53,2.99,0,5.21,3.09,6.01,4.2,9.67,13.41,1.13,54.02,1.13,54.02-4.68,22.25-5.18,29.91-7.34,29.91Z" fill="#fcf3cb"/>
    </g>
    <g id="c" data-name="&amp;lt;径向重复&amp;gt;">
      <path d="M153.96,110.03c-2.01-.78.33-8.08,4.04-30.33.34-2.02,6.77-40.7,20.47-49.83,1.23-.82,4.61-3.07,7.51-1.94,2.79,1.09,3.75,4.76,4.09,6.09,4.17,16-18.46,50.78-18.46,50.78-12.4,19.06-15.64,26.02-17.65,25.23Z" fill="#fcf3cb"/>
    </g>
    <g id="d" data-name="&amp;lt;径向重复&amp;gt;">
      <path d="M164.59,116.59c-1.59-1.45,3.23-7.42,14.72-26.83,1.04-1.76,21.02-35.51,37.09-39.07,1.44-.32,5.41-1.2,7.71.9,2.21,2.02,1.77,5.79,1.62,7.16-1.89,16.43-35.56,40.68-35.56,40.68-18.45,13.29-23.98,18.61-25.57,17.16Z" fill="#fcf3cb"/>
    </g>
    <g id="e" data-name="&amp;lt;径向重复&amp;gt;">
      <path d="M172.13,126.54c-.96-1.93,5.69-5.75,23.42-19.7,1.61-1.26,32.43-25.52,48.7-23.04,1.46.22,5.48.83,6.86,3.63,1.33,2.68-.44,6.04-1.08,7.26-7.7,14.63-47.86,25.09-47.86,25.09-22,5.73-29.08,8.69-30.04,6.76Z" fill="#fcf3cb"/>
    </g>
    <g id="f" data-name="&amp;lt;径向重复&amp;gt;">
      <path d="M175.56,138.55c-.2-2.15,7.38-3.31,28.95-9.91,1.96-.6,39.45-12.08,53.73-3.89,1.28.73,4.81,2.76,5.09,5.86.27,2.98-2.59,5.47-3.63,6.38-12.46,10.87-53.69,6.11-53.69,6.11-22.59-2.61-30.26-2.4-30.46-4.55Z" fill="#fcf3cb"/>
    </g>
    <g id="g" data-name="&amp;lt;径向重复&amp;gt;">
      <path d="M174.42,150.98c.59-2.07,8.08-.42,30.57,1.22,2.04.15,41.15,2.99,51.51,15.78.93,1.15,3.49,4.31,2.63,7.3-.83,2.88-4.39,4.17-5.69,4.64-15.55,5.63-52.27-13.7-52.27-13.7-20.12-10.59-27.35-13.17-26.76-15.24Z" fill="#fcf3cb"/>
    </g>
    <g id="h" data-name="&amp;lt;径向重复&amp;gt;">
      <path d="M168.87,162.17c1.3-1.72,7.68,2.53,28.07,12.18,1.85.88,37.29,17.65,42.33,33.32.45,1.41,1.69,5.28-.19,7.76-1.81,2.38-5.6,2.3-6.98,2.27-16.53-.37-43.79-31.65-43.79-31.65-14.94-17.14-20.74-22.16-19.44-23.88Z" fill="#fcf3cb"/>
    </g>
    <g id="i" data-name="&amp;lt;径向重复&amp;gt;">
      <path d="M159.66,170.59c1.83-1.13,6.25,5.13,21.77,21.5,1.41,1.48,28.4,29.93,27.43,46.37-.09,1.47-.33,5.53-2.98,7.17-2.55,1.57-6.06.12-7.32-.4-15.28-6.31-29.4-45.34-29.4-45.34-7.73-21.38-11.34-28.16-9.5-29.29Z" fill="#fcf3cb"/>
    </g>
    <g id="j" data-name="&amp;lt;径向重复&amp;gt;">
      <path d="M148.02,175.12c2.12-.39,3.98,7.04,12.54,27.91.78,1.89,15.67,38.17,8.83,53.14-.61,1.34-2.3,5.04-5.36,5.61-2.94.54-5.69-2.08-6.68-3.02-11.97-11.41-11.04-52.89-11.04-52.9.51-22.73-.4-30.35,1.72-30.75Z" fill="#fcf3cb"/>
    </g>
    <g id="k" data-name="&amp;lt;径向重复&amp;gt;">
      <path d="M135.54,175.14c2.12.4,1.16,8,1.61,30.56.04,2.05.82,41.25-10.96,52.75-1.06,1.03-3.97,3.87-7.03,3.29-2.94-.56-4.56-3.99-5.14-5.23-7.04-14.96,8.82-53.31,8.82-53.31,8.69-21.01,10.59-28.45,12.71-28.05Z" fill="#fcf3cb"/>
    </g>
    <g id="l" data-name="&amp;lt;径向重复&amp;gt;">
      <path d="M123.89,170.64c1.83,1.14-1.81,7.88-9.54,29.07-.7,1.92-14.14,38.76-29.28,45.22-1.36.58-5.1,2.17-7.74.53-2.54-1.58-2.81-5.37-2.9-6.74-1.16-16.49,27.48-46.53,27.48-46.53,15.69-16.45,20.15-22.7,21.98-21.56Z" fill="#fcf3cb"/>
    </g>
    <g id="m" data-name="&amp;lt;径向重复&amp;gt;">
      <path d="M114.65,162.25c1.3,1.72-4.53,6.7-19.4,23.66-1.35,1.54-27.18,31.04-43.64,31.59-1.48.05-5.54.19-7.41-2.3-1.8-2.39-.68-6.02-.27-7.33,4.88-15.8,42.43-33.46,42.43-33.46,20.57-9.67,26.99-13.89,28.29-12.17Z" fill="#fcf3cb"/>
    </g>
    <g id="n" data-name="&amp;lt;径向重复&amp;gt;">
      <path d="M109.07,151.08c.59,2.07-6.65,4.61-26.64,15.06-1.81.95-36.56,19.12-52.1,13.7-1.39-.49-5.23-1.83-6.08-4.82-.81-2.88,1.54-5.86,2.39-6.93,10.25-12.97,51.65-15.87,51.65-15.87,22.68-1.59,30.18-3.2,30.77-1.12Z" fill="#fcf3cb"/>
    </g>
    <g id="o" data-name="&amp;lt;径向重复&amp;gt;">
      <path d="M107.9,138.64c-.2,2.15-7.86,1.9-30.28,4.42-2.03.23-41,4.62-53.53-6.05-1.12-.96-4.22-3.59-3.92-6.69.28-2.98,3.55-4.9,4.74-5.6,14.25-8.39,53.9,3.86,53.9,3.86,21.72,6.71,29.3,7.92,29.1,10.07Z" fill="#fcf3cb"/>
    </g>
    <g id="p" data-name="&amp;lt;径向重复&amp;gt;">
      <path d="M111.3,126.63c-.96,1.93-8.02-1.07-29.83-6.82-1.98-.52-39.9-10.5-47.73-24.98-.7-1.3-2.64-4.88-1.24-7.66,1.34-2.68,5.09-3.29,6.44-3.51,16.32-2.68,48.86,23.07,48.86,23.07,17.83,14.11,24.46,17.97,23.5,19.9Z" fill="#fcf3cb"/>
    </g>
    <g id="q" data-name="&amp;lt;径向重复&amp;gt;">
      <path d="M118.81,116.66c-1.59,1.45-7.09-3.9-25.35-17.13-1.66-1.2-33.42-24.2-35.48-40.54-.19-1.47-.7-5.5,1.61-7.59,2.22-2.01,5.93-1.23,7.27-.95,16.18,3.4,37.23,39.16,37.23,39.16,11.53,19.59,16.32,25.59,14.72,27.05Z" fill="#fcf3cb"/>
    </g>
    <g id="r" data-name="&amp;lt;径向重复&amp;gt;">
      <path d="M129.41,110.07c-2.01.78-5.2-6.19-17.45-25.13-1.11-1.72-22.42-34.64-18.45-50.62.36-1.43,1.34-5.38,4.24-6.5,2.79-1.07,5.97.99,7.13,1.74,13.86,9.01,20.57,49.97,20.57,49.97,3.67,22.44,5.97,29.76,3.96,30.54Z" fill="#fcf3cb"/>
    </g>
  </g>
  <g>
    <g id="s" data-name="&amp;lt;径向重复&amp;gt;">
      <g id="t" data-name="&amp;lt;径向重复&amp;gt;">
        <path d="M141.75,243.21c.85,0,1.03,3.5,2.83,13.59.16.92,3.29,18.45-.43,24.6-.33.55-1.25,2.07-2.48,2.07-1.17,0-2.05-1.41-2.36-1.92-3.8-6.13-.44-24.68-.44-24.68,1.84-10.16,2.04-13.66,2.88-13.66Z" fill="#f5b828"/>
      </g>
    </g>
    <g id="u" data-name="&amp;lt;径向重复&amp;gt;">
      <g id="v" data-name="&amp;lt;径向重复&amp;gt;">
        <path d="M105.09,236.36c.79.31-.31,3.63-2.27,13.69-.18.91-3.59,18.4-9.29,22.79-.51.39-1.92,1.48-3.06,1.03-1.09-.43-1.4-2.05-1.51-2.64-1.33-7.09,8.5-23.17,8.5-23.17,5.38-8.81,6.83-12,7.62-11.7Z" fill="#f5b828"/>
      </g>
    </g>
    <g id="w" data-name="&amp;lt;径向重复&amp;gt;">
      <g id="x" data-name="&amp;lt;径向重复&amp;gt;">
        <path d="M73.38,216.74c.62.57-1.6,3.28-7.06,11.94-.5.79-10,15.86-16.89,17.9-.62.18-2.32.69-3.22-.14-.87-.79-.56-2.42-.45-3.01,1.32-7.09,16.3-18.54,16.3-18.54,8.2-6.27,10.71-8.72,11.33-8.15Z" fill="#f5b828"/>
      </g>
    </g>
    <g id="y" data-name="&amp;lt;径向重复&amp;gt;">
      <g id="z" data-name="&amp;lt;径向重复&amp;gt;">
        <path d="M50.9,186.98c.38.76-2.67,2.48-10.9,8.58-.75.55-15.05,11.17-22.21,10.59-.64-.05-2.41-.2-2.95-1.29-.52-1.05.35-2.46.66-2.97,3.79-6.13,21.89-11.4,21.89-11.4,9.92-2.89,13.14-4.27,13.51-3.51Z" fill="#f5b828"/>
      </g>
    </g>
    <g id="aa" data-name="&amp;lt;径向重复&amp;gt;">
      <g id="ab" data-name="&amp;lt;径向重复&amp;gt;">
        <path d="M40.69,151.11c.08.84-3.39,1.34-13.27,4.07-.9.25-18.07,4.98-24.54,1.85-.58-.28-2.18-1.06-2.29-2.27-.11-1.17,1.21-2.17,1.69-2.53,5.75-4.35,24.53-2.72,24.53-2.72,10.29.89,13.79.77,13.87,1.61Z" fill="#f5b828"/>
      </g>
    </g>
    <g id="ac" data-name="&amp;lt;径向重复&amp;gt;">
      <g id="ad" data-name="&amp;lt;径向重复&amp;gt;">
        <path d="M44.13,113.98c-.23.81-3.64.03-13.84-1-.92-.09-18.65-1.88-23.55-7.14-.44-.47-1.65-1.77-1.31-2.95.32-1.13,1.92-1.58,2.49-1.75,6.93-1.98,23.86,6.33,23.86,6.33,9.27,4.55,12.58,5.7,12.35,6.51Z" fill="#f5b828"/>
      </g>
    </g>
    <g id="ae" data-name="&amp;lt;径向重复&amp;gt;">
      <g id="af" data-name="&amp;lt;径向重复&amp;gt;">
        <path d="M60.74,80.59c-.51.67-3.41-1.29-12.54-5.93-.83-.42-16.71-8.49-19.38-15.17-.24-.6-.9-2.25-.16-3.22.71-.94,2.36-.78,2.95-.73,7.18.66,19.96,14.52,19.96,14.52,7,7.59,9.68,9.86,9.16,10.53Z" fill="#f5b828"/>
      </g>
    </g>
    <g id="ag" data-name="&amp;lt;径向重复&amp;gt;">
      <g id="ah" data-name="&amp;lt;径向重复&amp;gt;">
        <path d="M88.3,55.47c-.72.44-2.71-2.43-9.55-10.06-.62-.69-12.52-13.96-12.59-21.14,0-.64-.02-2.42,1.02-3.06,1-.62,2.48.12,3.02.39,6.45,3.21,13.37,20.75,13.37,20.75,3.79,9.61,5.46,12.69,4.74,13.13Z" fill="#f5b828"/>
      </g>
    </g>
    <g id="ai" data-name="&amp;lt;径向重复&amp;gt;">
      <g id="aj" data-name="&amp;lt;径向重复&amp;gt;">
        <path d="M123.07,41.99c-.83.15-1.65-3.25-5.27-12.84-.33-.87-6.63-17.53-4.1-24.26.23-.6.85-2.27,2.05-2.49,1.16-.21,2.27,1.01,2.67,1.45,4.86,5.32,4.97,24.18,4.97,24.18.06,10.33.51,13.8-.32,13.96Z" fill="#f5b828"/>
      </g>
    </g>
    <g id="ak" data-name="&amp;lt;径向重复&amp;gt;">
      <g id="al" data-name="&amp;lt;径向重复&amp;gt;">
        <path d="M160.36,41.98c-.83-.16-.37-3.63-.28-13.87,0-.93.15-18.75,4.94-24.11.43-.48,1.61-1.8,2.81-1.58,1.15.22,1.75,1.76,1.97,2.32,2.61,6.72-4.1,24.34-4.1,24.34-3.67,9.65-4.51,13.06-5.34,12.9Z" fill="#f5b828"/>
      </g>
    </g>
    <g id="am" data-name="&amp;lt;径向重复&amp;gt;">
      <g id="an" data-name="&amp;lt;径向重复&amp;gt;">
        <path d="M195.14,55.45c-.72-.45.97-3.51,4.75-13.04.34-.86,6.91-17.42,13.31-20.69.57-.29,2.15-1.1,3.19-.45,1,.62,1,2.28,1,2.87,0,7.21-12.61,21.21-12.61,21.21-6.91,7.67-8.92,10.54-9.64,10.1Z" fill="#f5b828"/>
      </g>
    </g>
    <g id="ao" data-name="&amp;lt;径向重复&amp;gt;">
      <g id="ap" data-name="&amp;lt;径向重复&amp;gt;">
        <path d="M222.7,80.56c-.51-.68,2.17-2.93,9.14-10.44.63-.68,12.74-13.75,19.89-14.49.64-.07,2.41-.25,3.14.73.71.94.11,2.48-.11,3.04-2.6,6.72-19.43,15.23-19.43,15.23-9.22,4.66-12.13,6.61-12.64,5.93Z" fill="#f5b828"/>
      </g>
    </g>
    <g id="aq" data-name="&amp;lt;径向重复&amp;gt;">
      <g id="ar" data-name="&amp;lt;径向重复&amp;gt;">
        <path d="M239.33,113.94c-.23-.81,3.08-1.94,12.29-6.44.84-.41,16.85-8.22,23.78-6.32.62.17,2.33.64,2.67,1.82.32,1.13-.8,2.35-1.2,2.8-4.85,5.33-23.61,7.18-23.61,7.18-10.28,1.01-13.7,1.78-13.93.97Z" fill="#f5b828"/>
      </g>
    </g>
    <g id="as" data-name="&amp;lt;径向重复&amp;gt;">
      <g id="at" data-name="&amp;lt;径向重复&amp;gt;">
        <path d="M242.78,151.08c.08-.84,3.58-.7,13.79-1.56.93-.08,18.68-1.58,24.46,2.69.52.38,1.95,1.44,1.83,2.66-.11,1.17-1.59,1.91-2.13,2.18-6.45,3.22-24.61-1.84-24.61-1.84-9.95-2.77-13.42-3.29-13.34-4.13Z" fill="#f5b828"/>
      </g>
    </g>
    <g id="au" data-name="&amp;lt;径向重复&amp;gt;">
      <g id="av" data-name="&amp;lt;径向重复&amp;gt;">
        <path d="M232.58,186.95c.38-.76,3.59.64,13.42,3.53.89.26,17.99,5.28,21.83,11.35.35.54,1.29,2.04.75,3.14-.53,1.05-2.17,1.2-2.77,1.26-7.18.67-22.29-10.6-22.29-10.6-8.28-6.17-11.32-7.91-10.94-8.67Z" fill="#f5b828"/>
      </g>
    </g>
    <g id="aw" data-name="&amp;lt;径向重复&amp;gt;">
      <g id="ax" data-name="&amp;lt;径向重复&amp;gt;">
        <path d="M210.11,216.71c.63-.57,3.11,1.89,11.24,8.14.74.57,14.87,11.42,16.26,18.47.13.63.47,2.37-.44,3.2-.87.79-2.46.34-3.04.17-6.93-1.97-16.95-17.94-16.95-17.94-5.49-8.75-7.7-11.47-7.07-12.04Z" fill="#f5b828"/>
      </g>
    </g>
    <g id="ay" data-name="&amp;lt;径向重复&amp;gt;">
      <g id="az" data-name="&amp;lt;径向重复&amp;gt;">
        <path d="M178.41,236.35c.79-.3,2.22,2.89,7.54,11.65.48.79,9.74,16.02,8.49,23.1-.11.63-.42,2.38-1.56,2.82-1.1.42-2.42-.57-2.9-.94-5.75-4.34-9.33-22.85-9.33-22.85-1.96-10.14-3.04-13.47-2.25-13.78Z" fill="#f5b828"/>
      </g>
    </g>
  </g>
  <g>
    <g id="ba" data-name="&amp;lt;径向重复&amp;gt;">
      <path d="M141.58,45.56c-2.15,0-4.08,22.19-4.08,40.54,0,18.37,1.94,40.51,4.08,40.52,2.11,0,4.36-21.47,4.38-40.31.02-19.11-2.26-40.75-4.38-40.75Z" fill="#ffd52d"/>
    </g>
    <g id="bb" data-name="&amp;lt;径向重复&amp;gt;">
      <path d="M176.33,52c-2-.77-11.82,19.22-18.45,36.33-6.64,17.13-12.83,38.48-10.83,39.26,1.97.77,11.83-18.45,18.65-36.01,6.92-17.81,12.61-38.82,10.63-39.58Z" fill="#ffd52d"/>
    </g>
    <g id="bc" data-name="&amp;lt;径向重复&amp;gt;">
      <path d="M206.41,70.56c-1.59-1.44-17.96,13.65-30.33,27.21-12.38,13.57-25.86,31.25-24.28,32.69,1.56,1.43,17.69-12.93,30.4-26.84,12.88-14.11,25.78-31.64,24.21-33.06Z" fill="#ffd52d"/>
    </g>
    <g id="bd" data-name="&amp;lt;径向重复&amp;gt;">
      <path d="M227.75,98.73c-.96-1.92-21.68,6.24-38.11,14.42-16.44,8.19-35.4,19.79-34.45,21.71.94,1.89,21.17-5.66,38.04-14.05,17.11-8.5,35.47-20.19,34.52-22.08Z" fill="#ffd52d"/>
    </g>
    <g id="be" data-name="&amp;lt;径向重复&amp;gt;">
      <path d="M237.48,132.71c-.2-2.14-22.47-2.02-40.74-.32-18.29,1.69-40.16,5.67-39.97,7.8.19,2.1,21.78,2.36,40.55.64,19.03-1.75,40.37-6.01,40.17-8.12Z" fill="#ffd52d"/>
    </g>
    <g id="bf" data-name="&amp;lt;径向重复&amp;gt;">
      <path d="M234.27,167.91c.58-2.07-20.22-10-37.88-15.02-17.67-5.03-39.5-9.22-40.09-7.16-.58,2.03,19.46,10.07,37.58,15.25,18.37,5.25,39.82,8.98,40.39,6.94Z" fill="#ffd52d"/>
    </g>
    <g id="bg" data-name="&amp;lt;径向重复&amp;gt;">
      <path d="M218.57,199.57c1.29-1.72-15.25-16.63-29.89-27.69-14.66-11.07-33.5-22.87-34.79-21.16-1.28,1.68,14.5,16.42,29.53,27.79,15.24,11.53,33.88,22.76,35.16,21.06Z" fill="#ffd52d"/>
    </g>
    <g id="bh" data-name="&amp;lt;径向重复&amp;gt;">
      <path d="M192.49,223.42c1.82-1.14-8.21-21.01-17.87-36.62-9.67-15.62-22.98-33.42-24.8-32.3-1.8,1.11,7.59,20.55,17.5,36.58,10.04,16.25,23.38,33.46,25.17,32.34Z" fill="#ffd52d"/>
    </g>
    <g id="bi" data-name="&amp;lt;径向重复&amp;gt;">
      <path d="M159.55,236.24c2.11-.4-.07-22.56-3.44-40.6-3.38-18.06-9.35-39.47-11.46-39.08-2.08.38-.34,21.91,3.1,40.43,3.49,18.78,9.71,39.64,11.79,39.25Z" fill="#ffd52d"/>
    </g>
    <g id="bj" data-name="&amp;lt;径向重复&amp;gt;">
      <path d="M124.21,236.29c2.11.39,8.09-21.06,11.46-39.1,3.38-18.06,5.54-40.18,3.43-40.58-2.07-.39-8.23,20.3-11.71,38.82-3.53,18.78-5.27,40.47-3.18,40.86Z" fill="#ffd52d"/>
    </g>
    <g id="bk" data-name="&amp;lt;径向重复&amp;gt;">
      <path d="M91.23,223.57c1.83,1.12,15.15-16.72,24.81-32.32,9.67-15.62,19.68-35.47,17.86-36.6-1.79-1.12-15.01,15.96-24.95,31.97-10.07,16.24-19.53,35.84-17.73,36.95Z" fill="#ffd52d"/>
    </g>
    <g id="bl" data-name="&amp;lt;径向重复&amp;gt;">
      <path d="M65.08,199.81c1.3,1.71,20.17-10.11,34.81-21.17,14.66-11.07,31.16-25.96,29.88-27.68-1.27-1.69-19.76,9.46-34.81,20.8-15.26,11.5-31.16,26.36-29.88,28.05Z" fill="#ffd52d"/>
    </g>
    <g id="bm" data-name="&amp;lt;径向重复&amp;gt;">
      <path d="M49.28,168.19c.59,2.06,22.46-2.15,40.11-7.17,17.67-5.03,38.44-12.95,37.86-15.01-.57-2.03-21.85,1.68-39.97,6.82-18.38,5.21-38.58,13.33-37.99,15.36Z" fill="#ffd52d"/>
    </g>
    <g id="bn" data-name="&amp;lt;径向重复&amp;gt;">
      <path d="M45.96,133.01c-.19,2.14,21.72,6.11,39.99,7.8,18.29,1.69,40.52,1.81,40.72-.33.2-2.1-20.98-6.33-39.74-8.08-19.02-1.78-40.79-1.51-40.98.6Z" fill="#ffd52d"/>
    </g>
    <g id="bo" data-name="&amp;lt;径向重复&amp;gt;">
      <path d="M55.58,99c-.95,1.92,18.04,13.54,34.47,21.72,16.44,8.19,37.13,16.32,38.09,14.41.95-1.89-17.28-13.48-34.13-21.89-17.1-8.53-37.49-16.14-38.43-14.24Z" fill="#ffd52d"/>
    </g>
    <g id="bp" data-name="&amp;lt;径向重复&amp;gt;">
      <path d="M76.83,70.76c-1.58,1.45,11.93,19.15,24.3,32.71,12.38,13.57,28.73,28.63,30.31,27.19,1.56-1.42-11.24-18.81-23.92-32.74-12.86-14.13-29.13-28.59-30.69-27.16Z" fill="#ffd52d"/>
    </g>
    <g id="bq" data-name="&amp;lt;径向重复&amp;gt;">
      <path d="M106.85,52.11c-2,.78,4.21,22.16,10.84,39.28,6.64,17.13,16.44,37.08,18.44,36.31,1.97-.76-3.69-21.6-10.48-39.17-6.89-17.82-16.83-37.18-18.8-36.41Z" fill="#ffd52d"/>
    </g>
  </g>
</svg>