<?xml version="1.0" encoding="UTF-8"?>
<svg id="a" data-name="图层 1" xmlns="http://www.w3.org/2000/svg" width="100mm" height="100mm" viewBox="0 0 283.46 283.46">
  <g>
    <g>
      <g id="b" data-name="&amp;lt;径向重复&amp;gt;">
        <path d="M141.04,282.67c-1.17-2.9-3.14-17.62.69-112.59,3.84,94.97,1.86,109.69.69,112.59-.43,1.06-.96,1.06-1.39,0Z" fill="#87c48d"/>
      </g>
      <g id="c" data-name="&amp;lt;径向重复&amp;gt;">
        <path d="M97.52,275.56c-.21-3.11,2.46-17.73,35.45-106.86-25.7,91.51-32.13,104.9-34.13,107.29-.74.88-1.24.71-1.32-.43Z" fill="#87c48d"/>
      </g>
      <g id="d" data-name="&amp;lt;径向重复&amp;gt;">
        <path d="M58.33,255.34c.76-3.03,7.81-16.1,66.74-90.68-52.72,79.09-62.97,89.84-65.62,91.49-.97.61-1.4.3-1.12-.82Z" fill="#87c48d"/>
      </g>
      <g id="e" data-name="&amp;lt;径向重复&amp;gt;">
        <path d="M27.31,224.01c1.66-2.65,12.41-12.9,91.49-65.62C44.22,217.32,31.15,224.38,28.12,225.13c-1.11.28-1.42-.15-.82-1.12Z" fill="#87c48d"/>
      </g>
      <g id="f" data-name="&amp;lt;径向重复&amp;gt;">
        <path d="M7.48,184.62c2.39-2,15.78-8.43,107.29-34.13C25.64,183.49,11.02,186.16,7.91,185.94c-1.14-.08-1.31-.58-.43-1.32Z" fill="#87c48d"/>
      </g>
      <g id="g" data-name="&amp;lt;径向重复&amp;gt;">
        <path d="M.8,141.04c2.9-1.17,17.62-3.14,112.59.69-94.97,3.84-109.69,1.86-112.59.69-1.06-.43-1.06-.96,0-1.39Z" fill="#87c48d"/>
      </g>
      <g id="h" data-name="&amp;lt;径向重复&amp;gt;">
        <path d="M7.91,97.52c3.11-.21,17.73,2.46,106.86,35.45C23.26,107.27,9.87,100.85,7.48,98.84c-.88-.74-.71-1.24.43-1.32Z" fill="#87c48d"/>
      </g>
      <g id="i" data-name="&amp;lt;径向重复&amp;gt;">
        <path d="M28.12,58.33c3.03.76,16.1,7.81,90.68,66.74C39.71,72.35,28.96,62.1,27.31,59.45c-.61-.97-.3-1.4.82-1.12Z" fill="#87c48d"/>
      </g>
      <g id="j" data-name="&amp;lt;径向重复&amp;gt;">
        <path d="M59.45,27.31c2.65,1.66,12.9,12.41,65.62,91.49C66.14,44.22,59.09,31.15,58.33,28.12c-.28-1.11.15-1.42,1.12-.82Z" fill="#87c48d"/>
      </g>
      <g id="k" data-name="&amp;lt;径向重复&amp;gt;">
        <path d="M98.84,7.48c2,2.39,8.43,15.78,34.13,107.29C99.98,25.64,97.31,11.02,97.52,7.91c.08-1.14.58-1.31,1.32-.43Z" fill="#87c48d"/>
      </g>
      <g id="l" data-name="&amp;lt;径向重复&amp;gt;">
        <path d="M142.43.8c1.17,2.9,3.14,17.62-.69,112.59-3.84-94.97-1.86-109.69-.69-112.59.43-1.06.96-1.06,1.39,0Z" fill="#87c48d"/>
      </g>
      <g id="m" data-name="&amp;lt;径向重复&amp;gt;">
        <path d="M185.94,7.91c.21,3.11-2.46,17.73-35.45,106.86C176.19,23.26,182.62,9.87,184.62,7.48c.74-.88,1.24-.71,1.32.43Z" fill="#87c48d"/>
      </g>
      <g id="n" data-name="&amp;lt;径向重复&amp;gt;">
        <path d="M225.13,28.12c-.76,3.03-7.81,16.1-66.74,90.68,52.72-79.09,62.97-89.84,65.62-91.49.97-.61,1.4-.3,1.12.82Z" fill="#87c48d"/>
      </g>
      <g id="o" data-name="&amp;lt;径向重复&amp;gt;">
        <path d="M256.16,59.45c-1.66,2.65-12.41,12.9-91.49,65.62,74.58-58.93,87.65-65.98,90.68-66.74,1.11-.28,1.42.15.82,1.12Z" fill="#87c48d"/>
      </g>
      <g id="p" data-name="&amp;lt;径向重复&amp;gt;">
        <path d="M275.98,98.84c-2.39,2-15.78,8.43-107.29,34.13,89.14-33,103.75-35.67,106.86-35.45,1.14.08,1.31.58.43,1.32Z" fill="#87c48d"/>
      </g>
      <g id="q" data-name="&amp;lt;径向重复&amp;gt;">
        <path d="M282.67,142.43c-2.9,1.17-17.62,3.14-112.59-.69,94.97-3.84,109.69-1.86,112.59-.69,1.06.43,1.06.96,0,1.39Z" fill="#87c48d"/>
      </g>
      <g id="r" data-name="&amp;lt;径向重复&amp;gt;">
        <path d="M275.55,185.94c-3.11.21-17.73-2.46-106.86-35.45,91.51,25.7,104.9,32.13,107.29,34.13.88.74.71,1.24-.43,1.32Z" fill="#87c48d"/>
      </g>
      <g id="s" data-name="&amp;lt;径向重复&amp;gt;">
        <path d="M255.34,225.13c-3.03-.76-16.1-7.81-90.68-66.74,79.09,52.72,89.84,62.97,91.49,65.62.61.97.3,1.4-.82,1.12Z" fill="#87c48d"/>
      </g>
      <g id="t" data-name="&amp;lt;径向重复&amp;gt;">
        <path d="M224.01,256.16c-2.65-1.66-12.9-12.41-65.62-91.49,58.93,74.58,65.98,87.65,66.74,90.68.28,1.11-.15,1.42-1.12.82Z" fill="#87c48d"/>
      </g>
      <g id="u" data-name="&amp;lt;径向重复&amp;gt;">
        <path d="M184.62,275.98c-2-2.39-8.43-15.78-34.13-107.29,33,89.14,35.67,103.75,35.45,106.86-.08,1.14-.58,1.31-1.32.43Z" fill="#87c48d"/>
      </g>
    </g>
    <g>
      <g id="v" data-name="&amp;lt;径向重复&amp;gt;">
        <path d="M55.25,54.49c2.24.95,11.44,7.98,61.66,62.43-54.45-50.22-61.48-59.42-62.43-61.66-.35-.82-.06-1.11.77-.77Z" fill="#3d9396"/>
      </g>
      <g id="w" data-name="&amp;lt;径向重复&amp;gt;">
        <path d="M86.44,32.03c1.83,1.6,8.42,11.12,39.35,78.43-36.27-64.59-40.1-75.51-40.32-77.94-.08-.89.29-1.08.96-.49Z" fill="#3d9396"/>
      </g>
      <g id="x" data-name="&amp;lt;径向重复&amp;gt;">
        <path d="M123.05,20.31c1.25,2.09,4.57,13.18,13.19,86.75-14.53-72.64-14.81-84.21-14.26-86.58.2-.87.61-.94,1.07-.17Z" fill="#3d9396"/>
      </g>
      <g id="y" data-name="&amp;lt;径向重复&amp;gt;">
        <path d="M161.48,20.48c.54,2.37.27,13.94-14.26,86.58,8.62-73.57,11.94-84.66,13.19-86.75.46-.77.87-.7,1.07.17Z" fill="#3d9396"/>
      </g>
      <g id="z" data-name="&amp;lt;径向重复&amp;gt;">
        <path d="M197.98,32.52c-.21,2.42-4.05,13.35-40.32,77.94,30.94-67.31,37.52-76.83,39.35-78.43.67-.59,1.04-.4.96.49Z" fill="#3d9396"/>
      </g>
      <g id="aa" data-name="&amp;lt;径向重复&amp;gt;">
        <path d="M228.98,55.25c-.95,2.24-7.98,11.44-62.43,61.66,50.22-54.45,59.42-61.48,61.66-62.43.82-.35,1.11-.06.77.77Z" fill="#3d9396"/>
      </g>
      <g id="ab" data-name="&amp;lt;径向重复&amp;gt;">
        <path d="M251.43,86.44c-1.6,1.83-11.12,8.42-78.43,39.35,64.59-36.27,75.51-40.1,77.94-40.32.89-.08,1.08.29.49.96Z" fill="#3d9396"/>
      </g>
      <g id="ac" data-name="&amp;lt;径向重复&amp;gt;">
        <path d="M263.15,123.05c-2.09,1.25-13.18,4.57-86.75,13.19,72.64-14.53,84.21-14.81,86.58-14.26.87.2.94.61.17,1.07Z" fill="#3d9396"/>
      </g>
      <g id="ad" data-name="&amp;lt;径向重复&amp;gt;">
        <path d="M262.98,161.48c-2.37.54-13.94.27-86.58-14.26,73.57,8.62,84.66,11.94,86.75,13.19.77.46.7.87-.17,1.07Z" fill="#3d9396"/>
      </g>
      <g id="ae" data-name="&amp;lt;径向重复&amp;gt;">
        <path d="M250.94,197.98c-2.42-.21-13.35-4.05-77.94-40.32,67.31,30.94,76.83,37.52,78.43,39.35.59.67.4,1.04-.49.96Z" fill="#3d9396"/>
      </g>
      <g id="af" data-name="&amp;lt;径向重复&amp;gt;">
        <path d="M228.22,228.98c-2.24-.95-11.44-7.98-61.66-62.43,54.45,50.22,61.47,59.42,62.43,61.66.35.82.06,1.11-.77.77Z" fill="#3d9396"/>
      </g>
      <g id="ag" data-name="&amp;lt;径向重复&amp;gt;">
        <path d="M197.02,251.43c-1.83-1.6-8.42-11.12-39.35-78.43,36.27,64.59,40.1,75.51,40.32,77.94.08.89-.29,1.08-.96.49Z" fill="#3d9396"/>
      </g>
      <g id="ah" data-name="&amp;lt;径向重复&amp;gt;">
        <path d="M160.42,263.15c-1.25-2.09-4.57-13.18-13.19-86.75,14.53,72.64,14.81,84.21,14.26,86.58-.2.87-.61.94-1.07.17Z" fill="#3d9396"/>
      </g>
      <g id="ai" data-name="&amp;lt;径向重复&amp;gt;">
        <path d="M121.98,262.98c-.54-2.37-.27-13.94,14.26-86.58-8.62,73.57-11.94,84.66-13.19,86.75-.46.77-.87.7-1.07-.17Z" fill="#3d9396"/>
      </g>
      <g id="aj" data-name="&amp;lt;径向重复&amp;gt;">
        <path d="M85.48,250.94c.21-2.42,4.05-13.35,40.32-77.94-30.94,67.31-37.52,76.83-39.35,78.43-.67.59-1.04.4-.96-.49Z" fill="#3d9396"/>
      </g>
      <g id="ak" data-name="&amp;lt;径向重复&amp;gt;">
        <path d="M54.49,228.22c.95-2.24,7.98-11.44,62.43-61.66-50.22,54.45-59.42,61.48-61.66,62.43-.82.35-1.11.06-.77-.77Z" fill="#3d9396"/>
      </g>
      <g id="al" data-name="&amp;lt;径向重复&amp;gt;">
        <path d="M32.03,197.02c1.6-1.83,11.12-8.42,78.43-39.35-64.59,36.27-75.51,40.1-77.94,40.32-.89.08-1.08-.29-.49-.96Z" fill="#3d9396"/>
      </g>
      <g id="am" data-name="&amp;lt;径向重复&amp;gt;">
        <path d="M20.32,160.42c2.09-1.25,13.18-4.57,86.75-13.19-72.64,14.53-84.21,14.81-86.58,14.26-.87-.2-.94-.61-.17-1.07Z" fill="#3d9396"/>
      </g>
      <g id="an" data-name="&amp;lt;径向重复&amp;gt;">
        <path d="M20.48,121.98c2.37-.54,13.94-.27,86.58,14.26-73.57-8.62-84.66-11.94-86.75-13.19-.77-.46-.7-.87.17-1.07Z" fill="#3d9396"/>
      </g>
      <g id="ao" data-name="&amp;lt;径向重复&amp;gt;">
        <path d="M32.52,85.48c2.42.21,13.35,4.05,77.94,40.32-67.31-30.94-76.83-37.52-78.43-39.35-.59-.67-.4-1.04.49-.96Z" fill="#3d9396"/>
      </g>
    </g>
    <g>
      <g id="ap" data-name="&amp;lt;径向重复&amp;gt;">
        <ellipse cx="141.73" cy="125.84" rx="3.28" ry="7.11" fill="#cae3ca"/>
      </g>
      <g id="aq" data-name="&amp;lt;径向重复&amp;gt;">
        <ellipse cx="149.12" cy="127.66" rx="7.11" ry="3.28" transform="translate(-33.22 200.37) rotate(-62.31)" fill="#cae3ca"/>
      </g>
      <g id="ar" data-name="&amp;lt;径向重复&amp;gt;">
        <ellipse cx="154.81" cy="132.71" rx="7.11" ry="3.28" transform="translate(-47.98 111.43) rotate(-34.62)" fill="#cae3ca"/>
      </g>
      <g id="as" data-name="&amp;lt;径向重复&amp;gt;">
        <ellipse cx="157.51" cy="139.82" rx="7.11" ry="3.28" transform="translate(-15.7 20) rotate(-6.92)" fill="#cae3ca"/>
      </g>
      <g id="at" data-name="&amp;lt;径向重复&amp;gt;">
        <ellipse cx="156.59" cy="147.37" rx="3.28" ry="7.11" transform="translate(-36.73 241.52) rotate(-69.23)" fill="#cae3ca"/>
      </g>
      <g id="au" data-name="&amp;lt;径向重复&amp;gt;">
        <ellipse cx="152.27" cy="153.63" rx="3.28" ry="7.11" transform="translate(-63.58 139.61) rotate(-41.54)" fill="#cae3ca"/>
      </g>
      <g id="av" data-name="&amp;lt;径向重复&amp;gt;">
        <ellipse cx="145.53" cy="157.16" rx="3.28" ry="7.11" transform="translate(-33.38 39.4) rotate(-13.85)" fill="#cae3ca"/>
      </g>
      <g id="aw" data-name="&amp;lt;径向重复&amp;gt;">
        <ellipse cx="137.93" cy="157.16" rx="7.11" ry="3.28" transform="translate(-47.67 253.47) rotate(-76.15)" fill="#cae3ca"/>
      </g>
      <g id="ax" data-name="&amp;lt;径向重复&amp;gt;">
        <ellipse cx="131.2" cy="153.63" rx="7.11" ry="3.28" transform="translate(-70.79 149.95) rotate(-48.46)" fill="#cae3ca"/>
      </g>
      <g id="ay" data-name="&amp;lt;径向重复&amp;gt;">
        <ellipse cx="126.88" cy="147.37" rx="7.11" ry="3.28" transform="translate(-44.01 54.57) rotate(-20.77)" fill="#cae3ca"/>
      </g>
      <g id="az" data-name="&amp;lt;径向重复&amp;gt;">
        <ellipse cx="125.96" cy="139.82" rx="3.28" ry="7.11" transform="translate(-28.02 248) rotate(-83.08)" fill="#cae3ca"/>
      </g>
      <g id="ba" data-name="&amp;lt;径向重复&amp;gt;">
        <ellipse cx="128.66" cy="132.71" rx="3.28" ry="7.11" transform="translate(-53.64 163.2) rotate(-55.38)" fill="#cae3ca"/>
      </g>
      <g id="bb" data-name="&amp;lt;径向重复&amp;gt;">
        <ellipse cx="134.35" cy="127.66" rx="3.28" ry="7.11" transform="translate(-43.94 77.06) rotate(-27.69)" fill="#cae3ca"/>
      </g>
    </g>
  </g>
  <g>
    <g>
      <g id="bc" data-name="&amp;lt;径向重复&amp;gt;">
        <path d="M141.04,282.67c-1.17-2.9-3.14-17.62.69-112.59,3.84,94.97,1.86,109.69.69,112.59-.43,1.06-.96,1.06-1.39,0Z" fill="#87c48d"/>
      </g>
      <g id="bd" data-name="&amp;lt;径向重复&amp;gt;">
        <path d="M97.52,275.56c-.21-3.11,2.46-17.73,35.45-106.86-25.7,91.51-32.13,104.9-34.13,107.29-.74.88-1.24.71-1.32-.43Z" fill="#87c48d"/>
      </g>
      <g id="be" data-name="&amp;lt;径向重复&amp;gt;">
        <path d="M58.33,255.34c.76-3.03,7.81-16.1,66.74-90.68-52.72,79.09-62.97,89.84-65.62,91.49-.97.61-1.4.3-1.12-.82Z" fill="#87c48d"/>
      </g>
      <g id="bf" data-name="&amp;lt;径向重复&amp;gt;">
        <path d="M27.31,224.01c1.66-2.65,12.41-12.9,91.49-65.62C44.22,217.32,31.15,224.38,28.12,225.13c-1.11.28-1.42-.15-.82-1.12Z" fill="#87c48d"/>
      </g>
      <g id="bg" data-name="&amp;lt;径向重复&amp;gt;">
        <path d="M7.48,184.62c2.39-2,15.78-8.43,107.29-34.13C25.64,183.49,11.02,186.16,7.91,185.94c-1.14-.08-1.31-.58-.43-1.32Z" fill="#87c48d"/>
      </g>
      <g id="bh" data-name="&amp;lt;径向重复&amp;gt;">
        <path d="M.8,141.04c2.9-1.17,17.62-3.14,112.59.69-94.97,3.84-109.69,1.86-112.59.69-1.06-.43-1.06-.96,0-1.39Z" fill="#87c48d"/>
      </g>
      <g id="bi" data-name="&amp;lt;径向重复&amp;gt;">
        <path d="M7.91,97.52c3.11-.21,17.73,2.46,106.86,35.45C23.26,107.27,9.87,100.85,7.48,98.84c-.88-.74-.71-1.24.43-1.32Z" fill="#87c48d"/>
      </g>
      <g id="bj" data-name="&amp;lt;径向重复&amp;gt;">
        <path d="M28.12,58.33c3.03.76,16.1,7.81,90.68,66.74C39.71,72.35,28.96,62.1,27.31,59.45c-.61-.97-.3-1.4.82-1.12Z" fill="#87c48d"/>
      </g>
      <g id="bk" data-name="&amp;lt;径向重复&amp;gt;">
        <path d="M59.45,27.31c2.65,1.66,12.9,12.41,65.62,91.49C66.14,44.22,59.09,31.15,58.33,28.12c-.28-1.11.15-1.42,1.12-.82Z" fill="#87c48d"/>
      </g>
      <g id="bl" data-name="&amp;lt;径向重复&amp;gt;">
        <path d="M98.84,7.48c2,2.39,8.43,15.78,34.13,107.29C99.98,25.64,97.31,11.02,97.52,7.91c.08-1.14.58-1.31,1.32-.43Z" fill="#87c48d"/>
      </g>
      <g id="bm" data-name="&amp;lt;径向重复&amp;gt;">
        <path d="M142.43.8c1.17,2.9,3.14,17.62-.69,112.59-3.84-94.97-1.86-109.69-.69-112.59.43-1.06.96-1.06,1.39,0Z" fill="#87c48d"/>
      </g>
      <g id="bn" data-name="&amp;lt;径向重复&amp;gt;">
        <path d="M185.94,7.91c.21,3.11-2.46,17.73-35.45,106.86C176.19,23.26,182.62,9.87,184.62,7.48c.74-.88,1.24-.71,1.32.43Z" fill="#87c48d"/>
      </g>
      <g id="bo" data-name="&amp;lt;径向重复&amp;gt;">
        <path d="M225.13,28.12c-.76,3.03-7.81,16.1-66.74,90.68,52.72-79.09,62.97-89.84,65.62-91.49.97-.61,1.4-.3,1.12.82Z" fill="#87c48d"/>
      </g>
      <g id="bp" data-name="&amp;lt;径向重复&amp;gt;">
        <path d="M256.16,59.45c-1.66,2.65-12.41,12.9-91.49,65.62,74.58-58.93,87.65-65.98,90.68-66.74,1.11-.28,1.42.15.82,1.12Z" fill="#87c48d"/>
      </g>
      <g id="bq" data-name="&amp;lt;径向重复&amp;gt;">
        <path d="M275.98,98.84c-2.39,2-15.78,8.43-107.29,34.13,89.14-33,103.75-35.67,106.86-35.45,1.14.08,1.31.58.43,1.32Z" fill="#87c48d"/>
      </g>
      <g id="br" data-name="&amp;lt;径向重复&amp;gt;">
        <path d="M282.67,142.43c-2.9,1.17-17.62,3.14-112.59-.69,94.97-3.84,109.69-1.86,112.59-.69,1.06.43,1.06.96,0,1.39Z" fill="#87c48d"/>
      </g>
      <g id="bs" data-name="&amp;lt;径向重复&amp;gt;">
        <path d="M275.55,185.94c-3.11.21-17.73-2.46-106.86-35.45,91.51,25.7,104.9,32.13,107.29,34.13.88.74.71,1.24-.43,1.32Z" fill="#87c48d"/>
      </g>
      <g id="bt" data-name="&amp;lt;径向重复&amp;gt;">
        <path d="M255.34,225.13c-3.03-.76-16.1-7.81-90.68-66.74,79.09,52.72,89.84,62.97,91.49,65.62.61.97.3,1.4-.82,1.12Z" fill="#87c48d"/>
      </g>
      <g id="bu" data-name="&amp;lt;径向重复&amp;gt;">
        <path d="M224.01,256.16c-2.65-1.66-12.9-12.41-65.62-91.49,58.93,74.58,65.98,87.65,66.74,90.68.28,1.11-.15,1.42-1.12.82Z" fill="#87c48d"/>
      </g>
      <g id="bv" data-name="&amp;lt;径向重复&amp;gt;">
        <path d="M184.62,275.98c-2-2.39-8.43-15.78-34.13-107.29,33,89.14,35.67,103.75,35.45,106.86-.08,1.14-.58,1.31-1.32.43Z" fill="#87c48d"/>
      </g>
    </g>
    <g>
      <g id="bw" data-name="&amp;lt;径向重复&amp;gt;">
        <path d="M55.25,54.49c2.24.95,11.44,7.98,61.66,62.43-54.45-50.22-61.48-59.42-62.43-61.66-.35-.82-.06-1.11.77-.77Z" fill="#3d9396"/>
      </g>
      <g id="bx" data-name="&amp;lt;径向重复&amp;gt;">
        <path d="M86.44,32.03c1.83,1.6,8.42,11.12,39.35,78.43-36.27-64.59-40.1-75.51-40.32-77.94-.08-.89.29-1.08.96-.49Z" fill="#3d9396"/>
      </g>
      <g id="by" data-name="&amp;lt;径向重复&amp;gt;">
        <path d="M123.05,20.31c1.25,2.09,4.57,13.18,13.19,86.75-14.53-72.64-14.81-84.21-14.26-86.58.2-.87.61-.94,1.07-.17Z" fill="#3d9396"/>
      </g>
      <g id="bz" data-name="&amp;lt;径向重复&amp;gt;">
        <path d="M161.48,20.48c.54,2.37.27,13.94-14.26,86.58,8.62-73.57,11.94-84.66,13.19-86.75.46-.77.87-.7,1.07.17Z" fill="#3d9396"/>
      </g>
      <g id="ca" data-name="&amp;lt;径向重复&amp;gt;">
        <path d="M197.98,32.52c-.21,2.42-4.05,13.35-40.32,77.94,30.94-67.31,37.52-76.83,39.35-78.43.67-.59,1.04-.4.96.49Z" fill="#3d9396"/>
      </g>
      <g id="cb" data-name="&amp;lt;径向重复&amp;gt;">
        <path d="M228.98,55.25c-.95,2.24-7.98,11.44-62.43,61.66,50.22-54.45,59.42-61.48,61.66-62.43.82-.35,1.11-.06.77.77Z" fill="#3d9396"/>
      </g>
      <g id="cc" data-name="&amp;lt;径向重复&amp;gt;">
        <path d="M251.43,86.44c-1.6,1.83-11.12,8.42-78.43,39.35,64.59-36.27,75.51-40.1,77.94-40.32.89-.08,1.08.29.49.96Z" fill="#3d9396"/>
      </g>
      <g id="cd" data-name="&amp;lt;径向重复&amp;gt;">
        <path d="M263.15,123.05c-2.09,1.25-13.18,4.57-86.75,13.19,72.64-14.53,84.21-14.81,86.58-14.26.87.2.94.61.17,1.07Z" fill="#3d9396"/>
      </g>
      <g id="ce" data-name="&amp;lt;径向重复&amp;gt;">
        <path d="M262.98,161.48c-2.37.54-13.94.27-86.58-14.26,73.57,8.62,84.66,11.94,86.75,13.19.77.46.7.87-.17,1.07Z" fill="#3d9396"/>
      </g>
      <g id="cf" data-name="&amp;lt;径向重复&amp;gt;">
        <path d="M250.94,197.98c-2.42-.21-13.35-4.05-77.94-40.32,67.31,30.94,76.83,37.52,78.43,39.35.59.67.4,1.04-.49.96Z" fill="#3d9396"/>
      </g>
      <g id="cg" data-name="&amp;lt;径向重复&amp;gt;">
        <path d="M228.22,228.98c-2.24-.95-11.44-7.98-61.66-62.43,54.45,50.22,61.47,59.42,62.43,61.66.35.82.06,1.11-.77.77Z" fill="#3d9396"/>
      </g>
      <g id="ch" data-name="&amp;lt;径向重复&amp;gt;">
        <path d="M197.02,251.43c-1.83-1.6-8.42-11.12-39.35-78.43,36.27,64.59,40.1,75.51,40.32,77.94.08.89-.29,1.08-.96.49Z" fill="#3d9396"/>
      </g>
      <g id="ci" data-name="&amp;lt;径向重复&amp;gt;">
        <path d="M160.42,263.15c-1.25-2.09-4.57-13.18-13.19-86.75,14.53,72.64,14.81,84.21,14.26,86.58-.2.87-.61.94-1.07.17Z" fill="#3d9396"/>
      </g>
      <g id="cj" data-name="&amp;lt;径向重复&amp;gt;">
        <path d="M121.98,262.98c-.54-2.37-.27-13.94,14.26-86.58-8.62,73.57-11.94,84.66-13.19,86.75-.46.77-.87.7-1.07-.17Z" fill="#3d9396"/>
      </g>
      <g id="ck" data-name="&amp;lt;径向重复&amp;gt;">
        <path d="M85.48,250.94c.21-2.42,4.05-13.35,40.32-77.94-30.94,67.31-37.52,76.83-39.35,78.43-.67.59-1.04.4-.96-.49Z" fill="#3d9396"/>
      </g>
      <g id="cl" data-name="&amp;lt;径向重复&amp;gt;">
        <path d="M54.49,228.22c.95-2.24,7.98-11.44,62.43-61.66-50.22,54.45-59.42,61.48-61.66,62.43-.82.35-1.11.06-.77-.77Z" fill="#3d9396"/>
      </g>
      <g id="cm" data-name="&amp;lt;径向重复&amp;gt;">
        <path d="M32.03,197.02c1.6-1.83,11.12-8.42,78.43-39.35-64.59,36.27-75.51,40.1-77.94,40.32-.89.08-1.08-.29-.49-.96Z" fill="#3d9396"/>
      </g>
      <g id="cn" data-name="&amp;lt;径向重复&amp;gt;">
        <path d="M20.32,160.42c2.09-1.25,13.18-4.57,86.75-13.19-72.64,14.53-84.21,14.81-86.58,14.26-.87-.2-.94-.61-.17-1.07Z" fill="#3d9396"/>
      </g>
      <g id="co" data-name="&amp;lt;径向重复&amp;gt;">
        <path d="M20.48,121.98c2.37-.54,13.94-.27,86.58,14.26-73.57-8.62-84.66-11.94-86.75-13.19-.77-.46-.7-.87.17-1.07Z" fill="#3d9396"/>
      </g>
      <g id="cp" data-name="&amp;lt;径向重复&amp;gt;">
        <path d="M32.52,85.48c2.42.21,13.35,4.05,77.94,40.32-67.31-30.94-76.83-37.52-78.43-39.35-.59-.67-.4-1.04.49-.96Z" fill="#3d9396"/>
      </g>
    </g>
    <g>
      <g id="cq" data-name="&amp;lt;径向重复&amp;gt;">
        <ellipse cx="141.73" cy="125.84" rx="3.28" ry="7.11" fill="#cae3ca"/>
      </g>
      <g id="cr" data-name="&amp;lt;径向重复&amp;gt;">
        <ellipse cx="149.12" cy="127.66" rx="7.11" ry="3.28" transform="translate(-33.22 200.37) rotate(-62.31)" fill="#cae3ca"/>
      </g>
      <g id="cs" data-name="&amp;lt;径向重复&amp;gt;">
        <ellipse cx="154.81" cy="132.71" rx="7.11" ry="3.28" transform="translate(-47.98 111.43) rotate(-34.62)" fill="#cae3ca"/>
      </g>
      <g id="ct" data-name="&amp;lt;径向重复&amp;gt;">
        <ellipse cx="157.51" cy="139.82" rx="7.11" ry="3.28" transform="translate(-15.7 20) rotate(-6.92)" fill="#cae3ca"/>
      </g>
      <g id="cu" data-name="&amp;lt;径向重复&amp;gt;">
        <ellipse cx="156.59" cy="147.37" rx="3.28" ry="7.11" transform="translate(-36.73 241.52) rotate(-69.23)" fill="#cae3ca"/>
      </g>
      <g id="cv" data-name="&amp;lt;径向重复&amp;gt;">
        <ellipse cx="152.27" cy="153.63" rx="3.28" ry="7.11" transform="translate(-63.58 139.61) rotate(-41.54)" fill="#cae3ca"/>
      </g>
      <g id="cw" data-name="&amp;lt;径向重复&amp;gt;">
        <ellipse cx="145.53" cy="157.16" rx="3.28" ry="7.11" transform="translate(-33.38 39.4) rotate(-13.85)" fill="#cae3ca"/>
      </g>
      <g id="cx" data-name="&amp;lt;径向重复&amp;gt;">
        <ellipse cx="137.93" cy="157.16" rx="7.11" ry="3.28" transform="translate(-47.67 253.47) rotate(-76.15)" fill="#cae3ca"/>
      </g>
      <g id="cy" data-name="&amp;lt;径向重复&amp;gt;">
        <ellipse cx="131.2" cy="153.63" rx="7.11" ry="3.28" transform="translate(-70.79 149.95) rotate(-48.46)" fill="#cae3ca"/>
      </g>
      <g id="cz" data-name="&amp;lt;径向重复&amp;gt;">
        <ellipse cx="126.88" cy="147.37" rx="7.11" ry="3.28" transform="translate(-44.01 54.57) rotate(-20.77)" fill="#cae3ca"/>
      </g>
      <g id="da" data-name="&amp;lt;径向重复&amp;gt;">
        <ellipse cx="125.96" cy="139.82" rx="3.28" ry="7.11" transform="translate(-28.02 248) rotate(-83.08)" fill="#cae3ca"/>
      </g>
      <g id="db" data-name="&amp;lt;径向重复&amp;gt;">
        <ellipse cx="128.66" cy="132.71" rx="3.28" ry="7.11" transform="translate(-53.64 163.2) rotate(-55.38)" fill="#cae3ca"/>
      </g>
      <g id="dc" data-name="&amp;lt;径向重复&amp;gt;">
        <ellipse cx="134.35" cy="127.66" rx="3.28" ry="7.11" transform="translate(-43.94 77.06) rotate(-27.69)" fill="#cae3ca"/>
      </g>
    </g>
  </g>
</svg>