<?xml version="1.0" encoding="UTF-8"?>
<svg id="a" data-name="图层 1" xmlns="http://www.w3.org/2000/svg" width="100mm" height="100mm" viewBox="0 0 283.46 283.46">
  <g>
    <g>
      <g id="b" data-name="&amp;lt;径向重复&amp;gt;">
        <ellipse cx="141.73" cy="242.78" rx="13.17" ry="25.02" fill="#cae3ca"/>
      </g>
      <g id="c" data-name="&amp;lt;径向重复&amp;gt;">
        <ellipse cx="113.26" cy="238.68" rx="25.02" ry="13.17" transform="translate(-147.66 280.11) rotate(-73.64)" fill="#cae3ca"/>
      </g>
      <g id="d" data-name="&amp;lt;径向重复&amp;gt;">
        <ellipse cx="87.1" cy="226.73" rx="25.02" ry="13.17" transform="translate(-150.73 177.43) rotate(-57.27)" fill="#cae3ca"/>
      </g>
      <g id="e" data-name="&amp;lt;径向重复&amp;gt;">
        <ellipse cx="65.37" cy="207.9" rx="25.02" ry="13.17" transform="translate(-120.18 93.59) rotate(-40.91)" fill="#cae3ca"/>
      </g>
      <g id="f" data-name="&amp;lt;径向重复&amp;gt;">
        <ellipse cx="49.82" cy="183.71" rx="25.02" ry="13.17" transform="translate(-71.81 37.3) rotate(-24.55)" fill="#cae3ca"/>
      </g>
      <g id="g" data-name="&amp;lt;径向重复&amp;gt;">
        <ellipse cx="41.72" cy="156.11" rx="25.02" ry="13.17" transform="translate(-21.79 7.53) rotate(-8.18)" fill="#cae3ca"/>
      </g>
      <g id="h" data-name="&amp;lt;径向重复&amp;gt;">
        <ellipse cx="41.72" cy="127.35" rx="13.17" ry="25.02" transform="translate(-90.28 150.52) rotate(-81.82)" fill="#cae3ca"/>
      </g>
      <g id="i" data-name="&amp;lt;径向重复&amp;gt;">
        <ellipse cx="49.82" cy="99.76" rx="13.17" ry="25.02" transform="translate(-61.62 103.63) rotate(-65.45)" fill="#cae3ca"/>
      </g>
      <g id="j" data-name="&amp;lt;径向重复&amp;gt;">
        <ellipse cx="65.37" cy="75.56" rx="13.17" ry="25.02" transform="translate(-34.55 75.48) rotate(-49.09)" fill="#cae3ca"/>
      </g>
      <g id="k" data-name="&amp;lt;径向重复&amp;gt;">
        <ellipse cx="87.1" cy="56.73" rx="13.17" ry="25.02" transform="translate(-16.84 56.1) rotate(-32.73)" fill="#cae3ca"/>
      </g>
      <g id="l" data-name="&amp;lt;径向重复&amp;gt;">
        <ellipse cx="113.27" cy="44.78" rx="13.17" ry="25.02" transform="translate(-8.03 33.72) rotate(-16.36)" fill="#cae3ca"/>
      </g>
      <g id="m" data-name="&amp;lt;径向重复&amp;gt;">
        <ellipse cx="141.73" cy="40.69" rx="13.17" ry="25.02" fill="#cae3ca"/>
      </g>
      <g id="n" data-name="&amp;lt;径向重复&amp;gt;">
        <ellipse cx="170.2" cy="44.78" rx="25.02" ry="13.17" transform="translate(79.28 195.47) rotate(-73.64)" fill="#cae3ca"/>
      </g>
      <g id="o" data-name="&amp;lt;径向重复&amp;gt;">
        <ellipse cx="196.36" cy="56.73" rx="25.02" ry="13.17" transform="translate(42.48 191.25) rotate(-57.27)" fill="#cae3ca"/>
      </g>
      <g id="p" data-name="&amp;lt;径向重复&amp;gt;">
        <ellipse cx="218.09" cy="75.56" rx="25.02" ry="13.17" transform="translate(3.79 161.28) rotate(-40.91)" fill="#cae3ca"/>
      </g>
      <g id="q" data-name="&amp;lt;径向重复&amp;gt;">
        <ellipse cx="233.64" cy="99.76" rx="25.02" ry="13.17" transform="translate(-20.33 106.07) rotate(-24.55)" fill="#cae3ca"/>
      </g>
      <g id="r" data-name="&amp;lt;径向重复&amp;gt;">
        <ellipse cx="241.75" cy="127.35" rx="25.02" ry="13.17" transform="translate(-15.66 35.7) rotate(-8.18)" fill="#cae3ca"/>
      </g>
      <g id="s" data-name="&amp;lt;径向重复&amp;gt;">
        <ellipse cx="241.75" cy="156.11" rx="13.17" ry="25.02" transform="translate(52.82 373.18) rotate(-81.82)" fill="#cae3ca"/>
      </g>
      <g id="t" data-name="&amp;lt;径向重复&amp;gt;">
        <ellipse cx="233.64" cy="183.71" rx="13.17" ry="25.02" transform="translate(-30.52 319.92) rotate(-65.45)" fill="#cae3ca"/>
      </g>
      <g id="u" data-name="&amp;lt;径向重复&amp;gt;">
        <ellipse cx="218.1" cy="207.9" rx="13.17" ry="25.02" transform="translate(-81.85 236.58) rotate(-49.09)" fill="#cae3ca"/>
      </g>
      <g id="v" data-name="&amp;lt;径向重复&amp;gt;">
        <ellipse cx="196.36" cy="226.74" rx="13.17" ry="25.02" transform="translate(-91.41 142.15) rotate(-32.73)" fill="#cae3ca"/>
      </g>
      <g id="w" data-name="&amp;lt;径向重复&amp;gt;">
        <ellipse cx="170.2" cy="238.68" rx="13.17" ry="25.02" transform="translate(-60.35 57.62) rotate(-16.36)" fill="#cae3ca"/>
      </g>
    </g>
    <g>
      <g id="x" data-name="&amp;lt;径向重复&amp;gt;">
        <path d="M140.76,239.68c-1.63-2.01-4.4-12.24.97-78.25,5.38,66,2.61,76.23.97,78.25-.6.74-1.35.74-1.95,0Z" fill="#87c48d"/>
      </g>
      <g id="y" data-name="&amp;lt;径向重复&amp;gt;">
        <path d="M113.2,235.44c-1-2.39-.78-12.99,22.98-74.8-13.44,64.84-18.98,73.88-21.11,75.35-.78.54-1.5.33-1.87-.55Z" fill="#87c48d"/>
      </g>
      <g id="z" data-name="&amp;lt;径向重复&amp;gt;">
        <path d="M87.96,223.6c-.29-2.58,2.91-12.68,43.12-65.3-31.16,58.43-39.02,65.54-41.49,66.35-.9.3-1.53-.11-1.64-1.05Z" fill="#87c48d"/>
      </g>
      <g id="aa" data-name="&amp;lt;径向重复&amp;gt;">
        <path d="M67.07,205.14c.45-2.55,6.37-11.35,59.77-50.51-46.36,47.29-55.91,51.89-58.5,51.98-.95.03-1.44-.53-1.27-1.47Z" fill="#87c48d"/>
      </g>
      <g id="ab" data-name="&amp;lt;径向重复&amp;gt;">
        <path d="M52.23,181.54c1.15-2.32,9.31-9.09,71.58-31.62-57.81,32.31-68.26,34.04-70.77,33.39-.92-.24-1.23-.92-.81-1.77Z" fill="#87c48d"/>
      </g>
      <g id="ac" data-name="&amp;lt;径向重复&amp;gt;">
        <path d="M44.64,154.71c1.76-1.9,11.49-6.1,77.59-10.17-64.57,14.71-75.09,13.43-77.31,12.1-.82-.49-.92-1.23-.28-1.93Z" fill="#87c48d"/>
      </g>
      <g id="ad" data-name="&amp;lt;径向重复&amp;gt;">
        <path d="M44.92,126.83c2.22-1.33,12.75-2.62,77.31,12.1-66.1-4.07-75.83-8.27-77.59-10.17-.65-.7-.54-1.44.28-1.93Z" fill="#87c48d"/>
      </g>
      <g id="ae" data-name="&amp;lt;径向重复&amp;gt;">
        <path d="M53.04,100.16c2.51-.65,12.97,1.08,70.77,33.39-62.27-22.53-70.43-29.3-71.58-31.62-.42-.85-.11-1.53.81-1.77Z" fill="#87c48d"/>
      </g>
      <g id="af" data-name="&amp;lt;径向重复&amp;gt;">
        <path d="M68.35,76.86c2.59.08,12.14,4.69,58.5,51.98-53.4-39.16-59.32-47.95-59.77-50.51-.17-.94.32-1.5,1.27-1.47Z" fill="#87c48d"/>
      </g>
      <g id="ag" data-name="&amp;lt;径向重复&amp;gt;">
        <path d="M89.6,58.81c2.46.81,10.32,7.92,41.49,66.35-40.21-52.62-43.41-62.72-43.12-65.3.11-.95.73-1.35,1.64-1.05Z" fill="#87c48d"/>
      </g>
      <g id="ah" data-name="&amp;lt;径向重复&amp;gt;">
        <path d="M115.07,47.48c2.13,1.47,7.67,10.51,21.11,75.35-23.75-61.81-23.98-72.41-22.98-74.8.37-.88,1.08-1.09,1.87-.55Z" fill="#87c48d"/>
      </g>
      <g id="ai" data-name="&amp;lt;径向重复&amp;gt;">
        <path d="M142.7,43.79c1.63,2.01,4.4,12.24-.97,78.25-5.38-66-2.61-76.23-.97-78.25.6-.74,1.35-.74,1.95,0Z" fill="#87c48d"/>
      </g>
      <g id="aj" data-name="&amp;lt;径向重复&amp;gt;">
        <path d="M170.26,48.03c1,2.39.78,12.99-22.98,74.8,13.44-64.84,18.98-73.88,21.11-75.35.78-.54,1.5-.33,1.87.55Z" fill="#87c48d"/>
      </g>
      <g id="ak" data-name="&amp;lt;径向重复&amp;gt;">
        <path d="M195.5,59.86c.29,2.58-2.91,12.68-43.12,65.3,31.16-58.43,39.02-65.54,41.49-66.35.9-.3,1.53.11,1.64,1.05Z" fill="#87c48d"/>
      </g>
      <g id="al" data-name="&amp;lt;径向重复&amp;gt;">
        <path d="M216.39,78.33c-.45,2.55-6.37,11.35-59.77,50.51,46.36-47.29,55.91-51.89,58.5-51.98.95-.03,1.44.53,1.27,1.47Z" fill="#87c48d"/>
      </g>
      <g id="am" data-name="&amp;lt;径向重复&amp;gt;">
        <path d="M231.23,101.93c-1.15,2.32-9.31,9.09-71.58,31.62,57.81-32.31,68.26-34.04,70.77-33.39.92.24,1.23.92.81,1.77Z" fill="#87c48d"/>
      </g>
      <g id="an" data-name="&amp;lt;径向重复&amp;gt;">
        <path d="M238.82,128.76c-1.76,1.9-11.49,6.1-77.59,10.17,64.57-14.71,75.09-13.43,77.31-12.1.82.49.92,1.23.28,1.93Z" fill="#87c48d"/>
      </g>
      <g id="ao" data-name="&amp;lt;径向重复&amp;gt;">
        <path d="M238.54,156.63c-2.22,1.33-12.75,2.62-77.31-12.1,66.1,4.07,75.83,8.27,77.59,10.17.65.7.54,1.44-.28,1.93Z" fill="#87c48d"/>
      </g>
      <g id="ap" data-name="&amp;lt;径向重复&amp;gt;">
        <path d="M230.42,183.3c-2.51.65-12.97-1.08-70.77-33.39,62.27,22.53,70.43,29.3,71.58,31.62.42.85.11,1.53-.81,1.77Z" fill="#87c48d"/>
      </g>
      <g id="aq" data-name="&amp;lt;径向重复&amp;gt;">
        <path d="M215.12,206.61c-2.59-.08-12.14-4.69-58.5-51.98,53.4,39.16,59.32,47.95,59.77,50.51.17.94-.32,1.5-1.27,1.47Z" fill="#87c48d"/>
      </g>
      <g id="ar" data-name="&amp;lt;径向重复&amp;gt;">
        <path d="M193.87,224.66c-2.46-.81-10.32-7.92-41.49-66.35,40.21,52.62,43.41,62.72,43.12,65.3-.11.95-.73,1.35-1.64,1.05Z" fill="#87c48d"/>
      </g>
      <g id="as" data-name="&amp;lt;径向重复&amp;gt;">
        <path d="M168.4,235.99c-2.13-1.47-7.67-10.51-21.11-75.35,23.75,61.81,23.98,72.41,22.98,74.8-.37.88-1.08,1.09-1.87.55Z" fill="#87c48d"/>
      </g>
    </g>
    <g>
      <g id="at" data-name="&amp;lt;径向重复&amp;gt;">
        <path d="M.8,140.33c2.9-2.35,17.62-6.34,112.59,1.4-94.97,7.74-109.69,3.75-112.59,1.4-1.06-.86-1.06-1.94,0-2.8Z" fill="#3d9396"/>
      </g>
      <g id="au" data-name="&amp;lt;径向重复&amp;gt;">
        <path d="M6.9,100.28c3.43-1.43,18.67-1.07,107.64,33.39C21.25,114.07,8.24,106.05,6.11,102.97c-.78-1.13-.48-2.16.78-2.69Z" fill="#3d9396"/>
      </g>
      <g id="av" data-name="&amp;lt;径向重复&amp;gt;">
        <path d="M23.92,63.58c3.7-.4,18.21,4.29,93.97,62.67C33.85,80.9,23.6,69.5,22.42,65.94c-.43-1.31.14-2.21,1.5-2.36Z" fill="#3d9396"/>
      </g>
      <g id="aw" data-name="&amp;lt;径向重复&amp;gt;">
        <path d="M50.49,33.22c3.66.67,16.28,9.3,72.68,86.87C55.18,52.66,48.53,38.8,48.39,35.05c-.05-1.38.75-2.08,2.1-1.83Z" fill="#3d9396"/>
      </g>
      <g id="ax" data-name="&amp;lt;径向重复&amp;gt;">
        <path d="M84.45,11.65c3.32,1.68,13.03,13.55,45.51,104.04C83.53,31.63,81.01,16.45,81.92,12.81c.34-1.34,1.3-1.78,2.52-1.16Z" fill="#3d9396"/>
      </g>
      <g id="ay" data-name="&amp;lt;径向重复&amp;gt;">
        <path d="M123.05.61c2.72,2.56,8.72,16.71,14.65,112.78C116.6,19.53,118.41,4.24,120.3,1.01c.7-1.19,1.75-1.34,2.75-.4Z" fill="#3d9396"/>
      </g>
      <g id="az" data-name="&amp;lt;径向重复&amp;gt;">
        <path d="M163.16,1.01c1.89,3.23,3.71,18.52-17.4,112.38C151.7,17.32,157.7,3.17,160.42.61c1-.94,2.05-.79,2.75.4Z" fill="#3d9396"/>
      </g>
      <g id="ba" data-name="&amp;lt;径向重复&amp;gt;">
        <path d="M201.54,12.81c.92,3.64-1.61,18.82-48.03,102.88C185.99,25.2,195.69,13.33,199.02,11.65c1.22-.62,2.19-.17,2.52,1.16Z" fill="#3d9396"/>
      </g>
      <g id="bb" data-name="&amp;lt;径向重复&amp;gt;">
        <path d="M235.07,35.05c-.14,3.75-6.79,17.6-74.78,85.04,56.4-77.58,69.02-86.2,72.68-86.87,1.34-.25,2.15.46,2.1,1.83Z" fill="#3d9396"/>
      </g>
      <g id="bc" data-name="&amp;lt;径向重复&amp;gt;">
        <path d="M261.04,65.94c-1.18,3.56-11.43,14.96-95.47,60.31,75.75-58.38,90.27-63.07,93.97-62.67,1.36.15,1.93,1.05,1.5,2.36Z" fill="#3d9396"/>
      </g>
      <g id="bd" data-name="&amp;lt;径向重复&amp;gt;">
        <path d="M277.35,102.97c-2.12,3.08-15.13,11.1-108.42,30.7,88.97-34.46,104.2-34.82,107.64-33.39,1.26.53,1.56,1.56.78,2.69Z" fill="#3d9396"/>
      </g>
      <g id="be" data-name="&amp;lt;径向重复&amp;gt;">
        <path d="M282.67,143.13c-2.9,2.35-17.62,6.34-112.59-1.4,94.97-7.74,109.69-3.75,112.59-1.4,1.06.86,1.06,1.94,0,2.8Z" fill="#3d9396"/>
      </g>
      <g id="bf" data-name="&amp;lt;径向重复&amp;gt;">
        <path d="M276.57,183.19c-3.43,1.43-18.67,1.07-107.64-33.39,93.28,19.6,106.3,27.62,108.42,30.7.78,1.13.48,2.16-.78,2.69Z" fill="#3d9396"/>
      </g>
      <g id="bg" data-name="&amp;lt;径向重复&amp;gt;">
        <path d="M259.54,219.88c-3.7.4-18.21-4.29-93.97-62.67,84.04,45.35,94.29,56.75,95.47,60.31.43,1.31-.14,2.21-1.5,2.36Z" fill="#3d9396"/>
      </g>
      <g id="bh" data-name="&amp;lt;径向重复&amp;gt;">
        <path d="M232.98,250.25c-3.66-.67-16.28-9.3-72.68-86.87,67.99,67.44,74.64,81.29,74.78,85.04.05,1.38-.75,2.08-2.1,1.83Z" fill="#3d9396"/>
      </g>
      <g id="bi" data-name="&amp;lt;径向重复&amp;gt;">
        <path d="M199.02,271.82c-3.32-1.68-13.03-13.55-45.51-104.04,46.42,84.05,48.95,99.24,48.03,102.88-.34,1.34-1.3,1.78-2.52,1.16Z" fill="#3d9396"/>
      </g>
      <g id="bj" data-name="&amp;lt;径向重复&amp;gt;">
        <path d="M160.42,282.85c-2.72-2.56-8.72-16.71-14.65-112.78,21.1,93.86,19.29,109.15,17.4,112.38-.7,1.19-1.75,1.34-2.75.4Z" fill="#3d9396"/>
      </g>
      <g id="bk" data-name="&amp;lt;径向重复&amp;gt;">
        <path d="M120.3,282.45c-1.89-3.23-3.71-18.52,17.4-112.38-5.93,96.06-11.93,110.22-14.65,112.78-1,.94-2.05.79-2.75-.4Z" fill="#3d9396"/>
      </g>
      <g id="bl" data-name="&amp;lt;径向重复&amp;gt;">
        <path d="M81.92,270.66c-.92-3.64,1.61-18.82,48.03-102.88-32.48,90.49-42.19,102.36-45.51,104.04-1.22.62-2.19.17-2.52-1.16Z" fill="#3d9396"/>
      </g>
      <g id="bm" data-name="&amp;lt;径向重复&amp;gt;">
        <path d="M48.39,248.41c.14-3.75,6.79-17.6,74.78-85.04-56.4,77.58-69.02,86.2-72.68,86.87-1.34.25-2.15-.46-2.1-1.83Z" fill="#3d9396"/>
      </g>
      <g id="bn" data-name="&amp;lt;径向重复&amp;gt;">
        <path d="M22.42,217.53c1.18-3.56,11.43-14.96,95.47-60.31-75.75,58.38-90.27,63.07-93.97,62.67-1.36-.15-1.93-1.05-1.5-2.36Z" fill="#3d9396"/>
      </g>
      <g id="bo" data-name="&amp;lt;径向重复&amp;gt;">
        <path d="M6.11,180.5c2.12-3.08,15.13-11.1,108.42-30.7C25.57,184.26,10.33,184.62,6.9,183.19c-1.26-.53-1.56-1.56-.78-2.69Z" fill="#3d9396"/>
      </g>
    </g>
  </g>
  <g>
    <g>
      <g id="bp" data-name="&amp;lt;径向重复&amp;gt;">
        <ellipse cx="141.73" cy="242.78" rx="13.17" ry="25.02" fill="#cae3ca"/>
      </g>
      <g id="bq" data-name="&amp;lt;径向重复&amp;gt;">
        <ellipse cx="113.26" cy="238.68" rx="25.02" ry="13.17" transform="translate(-147.66 280.11) rotate(-73.64)" fill="#cae3ca"/>
      </g>
      <g id="br" data-name="&amp;lt;径向重复&amp;gt;">
        <ellipse cx="87.1" cy="226.73" rx="25.02" ry="13.17" transform="translate(-150.73 177.43) rotate(-57.27)" fill="#cae3ca"/>
      </g>
      <g id="bs" data-name="&amp;lt;径向重复&amp;gt;">
        <ellipse cx="65.37" cy="207.9" rx="25.02" ry="13.17" transform="translate(-120.18 93.59) rotate(-40.91)" fill="#cae3ca"/>
      </g>
      <g id="bt" data-name="&amp;lt;径向重复&amp;gt;">
        <ellipse cx="49.82" cy="183.71" rx="25.02" ry="13.17" transform="translate(-71.81 37.3) rotate(-24.55)" fill="#cae3ca"/>
      </g>
      <g id="bu" data-name="&amp;lt;径向重复&amp;gt;">
        <ellipse cx="41.72" cy="156.11" rx="25.02" ry="13.17" transform="translate(-21.79 7.53) rotate(-8.18)" fill="#cae3ca"/>
      </g>
      <g id="bv" data-name="&amp;lt;径向重复&amp;gt;">
        <ellipse cx="41.72" cy="127.35" rx="13.17" ry="25.02" transform="translate(-90.28 150.52) rotate(-81.82)" fill="#cae3ca"/>
      </g>
      <g id="bw" data-name="&amp;lt;径向重复&amp;gt;">
        <ellipse cx="49.82" cy="99.76" rx="13.17" ry="25.02" transform="translate(-61.62 103.63) rotate(-65.45)" fill="#cae3ca"/>
      </g>
      <g id="bx" data-name="&amp;lt;径向重复&amp;gt;">
        <ellipse cx="65.37" cy="75.56" rx="13.17" ry="25.02" transform="translate(-34.55 75.48) rotate(-49.09)" fill="#cae3ca"/>
      </g>
      <g id="by" data-name="&amp;lt;径向重复&amp;gt;">
        <ellipse cx="87.1" cy="56.73" rx="13.17" ry="25.02" transform="translate(-16.84 56.1) rotate(-32.73)" fill="#cae3ca"/>
      </g>
      <g id="bz" data-name="&amp;lt;径向重复&amp;gt;">
        <ellipse cx="113.27" cy="44.78" rx="13.17" ry="25.02" transform="translate(-8.03 33.72) rotate(-16.36)" fill="#cae3ca"/>
      </g>
      <g id="ca" data-name="&amp;lt;径向重复&amp;gt;">
        <ellipse cx="141.73" cy="40.69" rx="13.17" ry="25.02" fill="#cae3ca"/>
      </g>
      <g id="cb" data-name="&amp;lt;径向重复&amp;gt;">
        <ellipse cx="170.2" cy="44.78" rx="25.02" ry="13.17" transform="translate(79.28 195.47) rotate(-73.64)" fill="#cae3ca"/>
      </g>
      <g id="cc" data-name="&amp;lt;径向重复&amp;gt;">
        <ellipse cx="196.36" cy="56.73" rx="25.02" ry="13.17" transform="translate(42.48 191.25) rotate(-57.27)" fill="#cae3ca"/>
      </g>
      <g id="cd" data-name="&amp;lt;径向重复&amp;gt;">
        <ellipse cx="218.09" cy="75.56" rx="25.02" ry="13.17" transform="translate(3.79 161.28) rotate(-40.91)" fill="#cae3ca"/>
      </g>
      <g id="ce" data-name="&amp;lt;径向重复&amp;gt;">
        <ellipse cx="233.64" cy="99.76" rx="25.02" ry="13.17" transform="translate(-20.33 106.07) rotate(-24.55)" fill="#cae3ca"/>
      </g>
      <g id="cf" data-name="&amp;lt;径向重复&amp;gt;">
        <ellipse cx="241.75" cy="127.35" rx="25.02" ry="13.17" transform="translate(-15.66 35.7) rotate(-8.18)" fill="#cae3ca"/>
      </g>
      <g id="cg" data-name="&amp;lt;径向重复&amp;gt;">
        <ellipse cx="241.75" cy="156.11" rx="13.17" ry="25.02" transform="translate(52.82 373.18) rotate(-81.82)" fill="#cae3ca"/>
      </g>
      <g id="ch" data-name="&amp;lt;径向重复&amp;gt;">
        <ellipse cx="233.64" cy="183.71" rx="13.17" ry="25.02" transform="translate(-30.52 319.92) rotate(-65.45)" fill="#cae3ca"/>
      </g>
      <g id="ci" data-name="&amp;lt;径向重复&amp;gt;">
        <ellipse cx="218.1" cy="207.9" rx="13.17" ry="25.02" transform="translate(-81.85 236.58) rotate(-49.09)" fill="#cae3ca"/>
      </g>
      <g id="cj" data-name="&amp;lt;径向重复&amp;gt;">
        <ellipse cx="196.36" cy="226.74" rx="13.17" ry="25.02" transform="translate(-91.41 142.15) rotate(-32.73)" fill="#cae3ca"/>
      </g>
      <g id="ck" data-name="&amp;lt;径向重复&amp;gt;">
        <ellipse cx="170.2" cy="238.68" rx="13.17" ry="25.02" transform="translate(-60.35 57.62) rotate(-16.36)" fill="#cae3ca"/>
      </g>
    </g>
    <g>
      <g id="cl" data-name="&amp;lt;径向重复&amp;gt;">
        <path d="M140.76,239.68c-1.63-2.01-4.4-12.24.97-78.25,5.38,66,2.61,76.23.97,78.25-.6.74-1.35.74-1.95,0Z" fill="#87c48d"/>
      </g>
      <g id="cm" data-name="&amp;lt;径向重复&amp;gt;">
        <path d="M113.2,235.44c-1-2.39-.78-12.99,22.98-74.8-13.44,64.84-18.98,73.88-21.11,75.35-.78.54-1.5.33-1.87-.55Z" fill="#87c48d"/>
      </g>
      <g id="cn" data-name="&amp;lt;径向重复&amp;gt;">
        <path d="M87.96,223.6c-.29-2.58,2.91-12.68,43.12-65.3-31.16,58.43-39.02,65.54-41.49,66.35-.9.3-1.53-.11-1.64-1.05Z" fill="#87c48d"/>
      </g>
      <g id="co" data-name="&amp;lt;径向重复&amp;gt;">
        <path d="M67.07,205.14c.45-2.55,6.37-11.35,59.77-50.51-46.36,47.29-55.91,51.89-58.5,51.98-.95.03-1.44-.53-1.27-1.47Z" fill="#87c48d"/>
      </g>
      <g id="cp" data-name="&amp;lt;径向重复&amp;gt;">
        <path d="M52.23,181.54c1.15-2.32,9.31-9.09,71.58-31.62-57.81,32.31-68.26,34.04-70.77,33.39-.92-.24-1.23-.92-.81-1.77Z" fill="#87c48d"/>
      </g>
      <g id="cq" data-name="&amp;lt;径向重复&amp;gt;">
        <path d="M44.64,154.71c1.76-1.9,11.49-6.1,77.59-10.17-64.57,14.71-75.09,13.43-77.31,12.1-.82-.49-.92-1.23-.28-1.93Z" fill="#87c48d"/>
      </g>
      <g id="cr" data-name="&amp;lt;径向重复&amp;gt;">
        <path d="M44.92,126.83c2.22-1.33,12.75-2.62,77.31,12.1-66.1-4.07-75.83-8.27-77.59-10.17-.65-.7-.54-1.44.28-1.93Z" fill="#87c48d"/>
      </g>
      <g id="cs" data-name="&amp;lt;径向重复&amp;gt;">
        <path d="M53.04,100.16c2.51-.65,12.97,1.08,70.77,33.39-62.27-22.53-70.43-29.3-71.58-31.62-.42-.85-.11-1.53.81-1.77Z" fill="#87c48d"/>
      </g>
      <g id="ct" data-name="&amp;lt;径向重复&amp;gt;">
        <path d="M68.35,76.86c2.59.08,12.14,4.69,58.5,51.98-53.4-39.16-59.32-47.95-59.77-50.51-.17-.94.32-1.5,1.27-1.47Z" fill="#87c48d"/>
      </g>
      <g id="cu" data-name="&amp;lt;径向重复&amp;gt;">
        <path d="M89.6,58.81c2.46.81,10.32,7.92,41.49,66.35-40.21-52.62-43.41-62.72-43.12-65.3.11-.95.73-1.35,1.64-1.05Z" fill="#87c48d"/>
      </g>
      <g id="cv" data-name="&amp;lt;径向重复&amp;gt;">
        <path d="M115.07,47.48c2.13,1.47,7.67,10.51,21.11,75.35-23.75-61.81-23.98-72.41-22.98-74.8.37-.88,1.08-1.09,1.87-.55Z" fill="#87c48d"/>
      </g>
      <g id="cw" data-name="&amp;lt;径向重复&amp;gt;">
        <path d="M142.7,43.79c1.63,2.01,4.4,12.24-.97,78.25-5.38-66-2.61-76.23-.97-78.25.6-.74,1.35-.74,1.95,0Z" fill="#87c48d"/>
      </g>
      <g id="cx" data-name="&amp;lt;径向重复&amp;gt;">
        <path d="M170.26,48.03c1,2.39.78,12.99-22.98,74.8,13.44-64.84,18.98-73.88,21.11-75.35.78-.54,1.5-.33,1.87.55Z" fill="#87c48d"/>
      </g>
      <g id="cy" data-name="&amp;lt;径向重复&amp;gt;">
        <path d="M195.5,59.86c.29,2.58-2.91,12.68-43.12,65.3,31.16-58.43,39.02-65.54,41.49-66.35.9-.3,1.53.11,1.64,1.05Z" fill="#87c48d"/>
      </g>
      <g id="cz" data-name="&amp;lt;径向重复&amp;gt;">
        <path d="M216.39,78.33c-.45,2.55-6.37,11.35-59.77,50.51,46.36-47.29,55.91-51.89,58.5-51.98.95-.03,1.44.53,1.27,1.47Z" fill="#87c48d"/>
      </g>
      <g id="da" data-name="&amp;lt;径向重复&amp;gt;">
        <path d="M231.23,101.93c-1.15,2.32-9.31,9.09-71.58,31.62,57.81-32.31,68.26-34.04,70.77-33.39.92.24,1.23.92.81,1.77Z" fill="#87c48d"/>
      </g>
      <g id="db" data-name="&amp;lt;径向重复&amp;gt;">
        <path d="M238.82,128.76c-1.76,1.9-11.49,6.1-77.59,10.17,64.57-14.71,75.09-13.43,77.31-12.1.82.49.92,1.23.28,1.93Z" fill="#87c48d"/>
      </g>
      <g id="dc" data-name="&amp;lt;径向重复&amp;gt;">
        <path d="M238.54,156.63c-2.22,1.33-12.75,2.62-77.31-12.1,66.1,4.07,75.83,8.27,77.59,10.17.65.7.54,1.44-.28,1.93Z" fill="#87c48d"/>
      </g>
      <g id="dd" data-name="&amp;lt;径向重复&amp;gt;">
        <path d="M230.42,183.3c-2.51.65-12.97-1.08-70.77-33.39,62.27,22.53,70.43,29.3,71.58,31.62.42.85.11,1.53-.81,1.77Z" fill="#87c48d"/>
      </g>
      <g id="de" data-name="&amp;lt;径向重复&amp;gt;">
        <path d="M215.12,206.61c-2.59-.08-12.14-4.69-58.5-51.98,53.4,39.16,59.32,47.95,59.77,50.51.17.94-.32,1.5-1.27,1.47Z" fill="#87c48d"/>
      </g>
      <g id="df" data-name="&amp;lt;径向重复&amp;gt;">
        <path d="M193.87,224.66c-2.46-.81-10.32-7.92-41.49-66.35,40.21,52.62,43.41,62.72,43.12,65.3-.11.95-.73,1.35-1.64,1.05Z" fill="#87c48d"/>
      </g>
      <g id="dg" data-name="&amp;lt;径向重复&amp;gt;">
        <path d="M168.4,235.99c-2.13-1.47-7.67-10.51-21.11-75.35,23.75,61.81,23.98,72.41,22.98,74.8-.37.88-1.08,1.09-1.87.55Z" fill="#87c48d"/>
      </g>
    </g>
    <g>
      <g id="dh" data-name="&amp;lt;径向重复&amp;gt;">
        <path d="M.8,140.33c2.9-2.35,17.62-6.34,112.59,1.4-94.97,7.74-109.69,3.75-112.59,1.4-1.06-.86-1.06-1.94,0-2.8Z" fill="#3d9396"/>
      </g>
      <g id="di" data-name="&amp;lt;径向重复&amp;gt;">
        <path d="M6.9,100.28c3.43-1.43,18.67-1.07,107.64,33.39C21.25,114.07,8.24,106.05,6.11,102.97c-.78-1.13-.48-2.16.78-2.69Z" fill="#3d9396"/>
      </g>
      <g id="dj" data-name="&amp;lt;径向重复&amp;gt;">
        <path d="M23.92,63.58c3.7-.4,18.21,4.29,93.97,62.67C33.85,80.9,23.6,69.5,22.42,65.94c-.43-1.31.14-2.21,1.5-2.36Z" fill="#3d9396"/>
      </g>
      <g id="dk" data-name="&amp;lt;径向重复&amp;gt;">
        <path d="M50.49,33.22c3.66.67,16.28,9.3,72.68,86.87C55.18,52.66,48.53,38.8,48.39,35.05c-.05-1.38.75-2.08,2.1-1.83Z" fill="#3d9396"/>
      </g>
      <g id="dl" data-name="&amp;lt;径向重复&amp;gt;">
        <path d="M84.45,11.65c3.32,1.68,13.03,13.55,45.51,104.04C83.53,31.63,81.01,16.45,81.92,12.81c.34-1.34,1.3-1.78,2.52-1.16Z" fill="#3d9396"/>
      </g>
      <g id="dm" data-name="&amp;lt;径向重复&amp;gt;">
        <path d="M123.05.61c2.72,2.56,8.72,16.71,14.65,112.78C116.6,19.53,118.41,4.24,120.3,1.01c.7-1.19,1.75-1.34,2.75-.4Z" fill="#3d9396"/>
      </g>
      <g id="dn" data-name="&amp;lt;径向重复&amp;gt;">
        <path d="M163.16,1.01c1.89,3.23,3.71,18.52-17.4,112.38C151.7,17.32,157.7,3.17,160.42.61c1-.94,2.05-.79,2.75.4Z" fill="#3d9396"/>
      </g>
      <g id="do" data-name="&amp;lt;径向重复&amp;gt;">
        <path d="M201.54,12.81c.92,3.64-1.61,18.82-48.03,102.88C185.99,25.2,195.69,13.33,199.02,11.65c1.22-.62,2.19-.17,2.52,1.16Z" fill="#3d9396"/>
      </g>
      <g id="dp" data-name="&amp;lt;径向重复&amp;gt;">
        <path d="M235.07,35.05c-.14,3.75-6.79,17.6-74.78,85.04,56.4-77.58,69.02-86.2,72.68-86.87,1.34-.25,2.15.46,2.1,1.83Z" fill="#3d9396"/>
      </g>
      <g id="dq" data-name="&amp;lt;径向重复&amp;gt;">
        <path d="M261.04,65.94c-1.18,3.56-11.43,14.96-95.47,60.31,75.75-58.38,90.27-63.07,93.97-62.67,1.36.15,1.93,1.05,1.5,2.36Z" fill="#3d9396"/>
      </g>
      <g id="dr" data-name="&amp;lt;径向重复&amp;gt;">
        <path d="M277.35,102.97c-2.12,3.08-15.13,11.1-108.42,30.7,88.97-34.46,104.2-34.82,107.64-33.39,1.26.53,1.56,1.56.78,2.69Z" fill="#3d9396"/>
      </g>
      <g id="ds" data-name="&amp;lt;径向重复&amp;gt;">
        <path d="M282.67,143.13c-2.9,2.35-17.62,6.34-112.59-1.4,94.97-7.74,109.69-3.75,112.59-1.4,1.06.86,1.06,1.94,0,2.8Z" fill="#3d9396"/>
      </g>
      <g id="dt" data-name="&amp;lt;径向重复&amp;gt;">
        <path d="M276.57,183.19c-3.43,1.43-18.67,1.07-107.64-33.39,93.28,19.6,106.3,27.62,108.42,30.7.78,1.13.48,2.16-.78,2.69Z" fill="#3d9396"/>
      </g>
      <g id="du" data-name="&amp;lt;径向重复&amp;gt;">
        <path d="M259.54,219.88c-3.7.4-18.21-4.29-93.97-62.67,84.04,45.35,94.29,56.75,95.47,60.31.43,1.31-.14,2.21-1.5,2.36Z" fill="#3d9396"/>
      </g>
      <g id="dv" data-name="&amp;lt;径向重复&amp;gt;">
        <path d="M232.98,250.25c-3.66-.67-16.28-9.3-72.68-86.87,67.99,67.44,74.64,81.29,74.78,85.04.05,1.38-.75,2.08-2.1,1.83Z" fill="#3d9396"/>
      </g>
      <g id="dw" data-name="&amp;lt;径向重复&amp;gt;">
        <path d="M199.02,271.82c-3.32-1.68-13.03-13.55-45.51-104.04,46.42,84.05,48.95,99.24,48.03,102.88-.34,1.34-1.3,1.78-2.52,1.16Z" fill="#3d9396"/>
      </g>
      <g id="dx" data-name="&amp;lt;径向重复&amp;gt;">
        <path d="M160.42,282.85c-2.72-2.56-8.72-16.71-14.65-112.78,21.1,93.86,19.29,109.15,17.4,112.38-.7,1.19-1.75,1.34-2.75.4Z" fill="#3d9396"/>
      </g>
      <g id="dy" data-name="&amp;lt;径向重复&amp;gt;">
        <path d="M120.3,282.45c-1.89-3.23-3.71-18.52,17.4-112.38-5.93,96.06-11.93,110.22-14.65,112.78-1,.94-2.05.79-2.75-.4Z" fill="#3d9396"/>
      </g>
      <g id="dz" data-name="&amp;lt;径向重复&amp;gt;">
        <path d="M81.92,270.66c-.92-3.64,1.61-18.82,48.03-102.88-32.48,90.49-42.19,102.36-45.51,104.04-1.22.62-2.19.17-2.52-1.16Z" fill="#3d9396"/>
      </g>
      <g id="ea" data-name="&amp;lt;径向重复&amp;gt;">
        <path d="M48.39,248.41c.14-3.75,6.79-17.6,74.78-85.04-56.4,77.58-69.02,86.2-72.68,86.87-1.34.25-2.15-.46-2.1-1.83Z" fill="#3d9396"/>
      </g>
      <g id="eb" data-name="&amp;lt;径向重复&amp;gt;">
        <path d="M22.42,217.53c1.18-3.56,11.43-14.96,95.47-60.31-75.75,58.38-90.27,63.07-93.97,62.67-1.36-.15-1.93-1.05-1.5-2.36Z" fill="#3d9396"/>
      </g>
      <g id="ec" data-name="&amp;lt;径向重复&amp;gt;">
        <path d="M6.11,180.5c2.12-3.08,15.13-11.1,108.42-30.7C25.57,184.26,10.33,184.62,6.9,183.19c-1.26-.53-1.56-1.56-.78-2.69Z" fill="#3d9396"/>
      </g>
    </g>
  </g>
</svg>