<?xml version="1.0" encoding="UTF-8"?>
<svg id="a" data-name="图层 1" xmlns="http://www.w3.org/2000/svg" width="100mm" height="100mm" viewBox="0 0 283.46 283.46">
  <g>
    <g>
      <g id="b" data-name="&amp;lt;径向重复&amp;gt;">
        <path d="M140.47,170.88c-2.12,2.9-5.7,17.62,1.26,112.59,6.96-94.97,3.38-109.69,1.26-112.59-.78-1.06-1.74-1.06-2.52,0Z" fill="#87c48d"/>
      </g>
      <g id="c" data-name="&amp;lt;径向重复&amp;gt;">
        <path d="M131.53,169.06c-2.91,2.1-10.87,14.99-33.59,107.47,35.97-88.17,37.11-103.28,35.99-106.69-.41-1.25-1.33-1.55-2.4-.78Z" fill="#87c48d"/>
      </g>
      <g id="d" data-name="&amp;lt;径向重复&amp;gt;">
        <path d="M123.58,164.57c-3.41,1.1-14.97,10.9-65.16,91.83,61.46-72.74,67.21-86.76,67.2-90.35,0-1.32-.79-1.88-2.04-1.48Z" fill="#87c48d"/>
      </g>
      <g id="e" data-name="&amp;lt;径向重复&amp;gt;">
        <path d="M117.41,157.84c-3.59-.01-17.61,5.74-90.35,67.2,80.93-50.19,90.73-61.74,91.83-65.16.4-1.25-.16-2.03-1.48-2.04Z" fill="#87c48d"/>
      </g>
      <g id="f" data-name="&amp;lt;径向重复&amp;gt;">
        <path d="M113.63,149.54c-3.41-1.12-18.52.02-106.69,35.99,92.48-22.72,105.37-30.69,107.47-33.59.77-1.07.47-1.99-.78-2.4Z" fill="#87c48d"/>
      </g>
      <g id="g" data-name="&amp;lt;径向重复&amp;gt;">
        <path d="M112.59,140.47c-2.9-2.12-17.62-5.7-112.59,1.26,94.97,6.96,109.69,3.38,112.59,1.26,1.06-.78,1.06-1.74,0-2.52Z" fill="#87c48d"/>
      </g>
      <g id="h" data-name="&amp;lt;径向重复&amp;gt;">
        <path d="M114.4,131.53c-2.1-2.91-14.99-10.87-107.47-33.59,88.17,35.97,103.28,37.11,106.69,35.99,1.25-.41,1.55-1.33.78-2.4Z" fill="#87c48d"/>
      </g>
      <g id="i" data-name="&amp;lt;径向重复&amp;gt;">
        <path d="M118.9,123.58c-1.1-3.41-10.9-14.97-91.83-65.16,72.74,61.46,86.76,67.21,90.35,67.2,1.32,0,1.88-.79,1.48-2.04Z" fill="#87c48d"/>
      </g>
      <g id="j" data-name="&amp;lt;径向重复&amp;gt;">
        <path d="M125.62,117.41c.01-3.59-5.74-17.61-67.2-90.35,50.19,80.93,61.74,90.73,65.16,91.83,1.25.4,2.03-.16,2.04-1.48Z" fill="#87c48d"/>
      </g>
      <g id="k" data-name="&amp;lt;径向重复&amp;gt;">
        <path d="M133.93,113.63c1.12-3.41-.02-18.52-35.99-106.69,22.72,92.48,30.69,105.37,33.59,107.47,1.07.77,1.99.47,2.4-.78Z" fill="#87c48d"/>
      </g>
      <g id="l" data-name="&amp;lt;径向重复&amp;gt;">
        <path d="M142.99,112.59C145.11,109.69,148.7,94.97,141.73,0c-6.96,94.97-3.38,109.69-1.26,112.59.78,1.06,1.74,1.06,2.52,0Z" fill="#87c48d"/>
      </g>
      <g id="m" data-name="&amp;lt;径向重复&amp;gt;">
        <path d="M151.94,114.4c2.91-2.1,10.87-14.99,33.59-107.47-35.97,88.17-37.11,103.28-35.99,106.69.41,1.25,1.33,1.55,2.4.78Z" fill="#87c48d"/>
      </g>
      <g id="n" data-name="&amp;lt;径向重复&amp;gt;">
        <path d="M159.88,118.9c3.41-1.1,14.97-10.9,65.16-91.83-61.46,72.74-67.21,86.76-67.2,90.35,0,1.32.79,1.88,2.04,1.48Z" fill="#87c48d"/>
      </g>
      <g id="o" data-name="&amp;lt;径向重复&amp;gt;">
        <path d="M166.05,125.62c3.59.01,17.61-5.74,90.35-67.2-80.93,50.19-90.73,61.74-91.83,65.16-.4,1.25.16,2.03,1.48,2.04Z" fill="#87c48d"/>
      </g>
      <g id="p" data-name="&amp;lt;径向重复&amp;gt;">
        <path d="M169.84,133.92c3.41,1.12,18.52-.02,106.69-35.99-92.48,22.72-105.37,30.69-107.47,33.59-.77,1.07-.47,1.99.78,2.4Z" fill="#87c48d"/>
      </g>
      <g id="q" data-name="&amp;lt;径向重复&amp;gt;">
        <path d="M170.88,142.99c2.9,2.12,17.62,5.7,112.59-1.26-94.97-6.96-109.69-3.38-112.59-1.26-1.06.78-1.06,1.74,0,2.52Z" fill="#87c48d"/>
      </g>
      <g id="r" data-name="&amp;lt;径向重复&amp;gt;">
        <path d="M169.06,151.94c2.1,2.91,14.99,10.87,107.47,33.59-88.17-35.97-103.28-37.11-106.69-35.99-1.25.41-1.55,1.33-.78,2.4Z" fill="#87c48d"/>
      </g>
      <g id="s" data-name="&amp;lt;径向重复&amp;gt;">
        <path d="M164.57,159.88c1.1,3.41,10.9,14.97,91.83,65.16-72.74-61.46-86.76-67.21-90.35-67.2-1.32,0-1.88.79-1.48,2.04Z" fill="#87c48d"/>
      </g>
      <g id="t" data-name="&amp;lt;径向重复&amp;gt;">
        <path d="M157.84,166.05c-.01,3.59,5.74,17.61,67.2,90.35-50.19-80.93-61.74-90.73-65.16-91.83-1.25-.4-2.03.16-2.04,1.48Z" fill="#87c48d"/>
      </g>
      <g id="u" data-name="&amp;lt;径向重复&amp;gt;">
        <path d="M149.54,169.84c-1.12,3.41.02,18.52,35.99,106.69-22.72-92.48-30.69-105.37-33.59-107.47-1.07-.77-1.99-.47-2.4.78Z" fill="#87c48d"/>
      </g>
    </g>
    <g>
      <g id="v" data-name="&amp;lt;径向重复&amp;gt;">
        <path d="M40.61,241.92c1.07-2.63,9.14-13.36,72.36-71.43-58.07,63.22-68.8,71.3-71.43,72.36-.97.39-1.32.03-.93-.93Z" fill="#3d9396"/>
      </g>
      <g id="w" data-name="&amp;lt;径向重复&amp;gt;">
        <path d="M14.6,205.77c1.83-2.17,12.82-9.88,90.9-45.57C30.73,202.38,18.03,206.74,15.19,206.94c-1.04.07-1.27-.38-.6-1.18Z" fill="#3d9396"/>
      </g>
      <g id="x" data-name="&amp;lt;径向重复&amp;gt;">
        <path d="M1.03,163.35c2.41-1.5,15.25-5.44,100.53-15.25C17.42,165.11,3.99,165.34,1.24,164.65c-1.01-.25-1.09-.75-.21-1.3Z" fill="#3d9396"/>
      </g>
      <g id="y" data-name="&amp;lt;径向重复&amp;gt;">
        <path d="M1.24,118.81c2.76-.69,16.18-.46,100.32,16.56C16.28,125.55,3.44,121.62,1.03,120.11c-.88-.55-.81-1.05.21-1.3Z" fill="#3d9396"/>
      </g>
      <g id="z" data-name="&amp;lt;径向重复&amp;gt;">
        <path d="M15.2,76.52c2.83.2,15.53,4.56,90.3,46.75C27.42,87.58,16.42,79.87,14.6,77.69c-.67-.8-.44-1.25.6-1.18Z" fill="#3d9396"/>
      </g>
      <g id="aa" data-name="&amp;lt;径向重复&amp;gt;">
        <path d="M41.54,40.61c2.63,1.07,13.36,9.14,71.43,72.36C49.75,54.9,41.67,44.17,40.61,41.54c-.39-.97-.03-1.32.93-.93Z" fill="#3d9396"/>
      </g>
      <g id="ab" data-name="&amp;lt;径向重复&amp;gt;">
        <path d="M77.7,14.6c2.17,1.83,9.88,12.82,45.57,90.9C81.08,30.73,76.72,18.03,76.52,15.19c-.07-1.04.38-1.27,1.18-.6Z" fill="#3d9396"/>
      </g>
      <g id="ac" data-name="&amp;lt;径向重复&amp;gt;">
        <path d="M120.12,1.03c1.5,2.41,5.44,15.25,15.25,100.53C118.35,17.42,118.13,3.99,118.81,1.24c.25-1.01.75-1.09,1.3-.21Z" fill="#3d9396"/>
      </g>
      <g id="ad" data-name="&amp;lt;径向重复&amp;gt;">
        <path d="M164.65,1.24c.69,2.76.46,16.18-16.56,100.32C157.91,16.28,161.85,3.44,163.35,1.03c.55-.88,1.05-.81,1.3.21Z" fill="#3d9396"/>
      </g>
      <g id="ae" data-name="&amp;lt;径向重复&amp;gt;">
        <path d="M206.95,15.2c-.2,2.83-4.56,15.53-46.75,90.3C195.89,27.42,203.6,16.42,205.77,14.6c.8-.67,1.25-.44,1.18.6Z" fill="#3d9396"/>
      </g>
      <g id="af" data-name="&amp;lt;径向重复&amp;gt;">
        <path d="M242.86,41.54c-1.07,2.63-9.14,13.36-72.36,71.43,58.07-63.23,68.8-71.3,71.43-72.36.97-.39,1.32-.03.93.93Z" fill="#3d9396"/>
      </g>
      <g id="ag" data-name="&amp;lt;径向重复&amp;gt;">
        <path d="M268.87,77.7c-1.83,2.17-12.82,9.88-90.9,45.57,74.77-42.19,87.46-46.55,90.3-46.75,1.04-.07,1.27.38.6,1.18Z" fill="#3d9396"/>
      </g>
      <g id="ah" data-name="&amp;lt;径向重复&amp;gt;">
        <path d="M282.43,120.12c-2.41,1.5-15.25,5.44-100.53,15.25,84.14-17.02,97.57-17.24,100.32-16.56,1.01.25,1.09.75.21,1.3Z" fill="#3d9396"/>
      </g>
      <g id="ai" data-name="&amp;lt;径向重复&amp;gt;">
        <path d="M282.23,164.65c-2.76.69-16.18.46-100.32-16.56,85.28,9.82,98.12,13.75,100.53,15.26.88.55.81,1.05-.21,1.3Z" fill="#3d9396"/>
      </g>
      <g id="aj" data-name="&amp;lt;径向重复&amp;gt;">
        <path d="M268.27,206.95c-2.83-.2-15.53-4.56-90.3-46.75,78.08,35.69,89.07,43.4,90.9,45.57.67.8.44,1.25-.6,1.18Z" fill="#3d9396"/>
      </g>
      <g id="ak" data-name="&amp;lt;径向重复&amp;gt;">
        <path d="M241.92,242.86c-2.63-1.07-13.36-9.14-71.43-72.36,63.22,58.07,71.3,68.8,72.36,71.43.39.97.03,1.32-.93.93Z" fill="#3d9396"/>
      </g>
      <g id="al" data-name="&amp;lt;径向重复&amp;gt;">
        <path d="M205.77,268.87c-2.17-1.83-9.88-12.82-45.57-90.9,42.19,74.77,46.55,87.46,46.75,90.3.07,1.04-.38,1.27-1.18.6Z" fill="#3d9396"/>
      </g>
      <g id="am" data-name="&amp;lt;径向重复&amp;gt;">
        <path d="M163.35,282.43c-1.5-2.41-5.44-15.25-15.25-100.53,17.02,84.14,17.24,97.57,16.56,100.32-.25,1.01-.75,1.09-1.3.21Z" fill="#3d9396"/>
      </g>
      <g id="an" data-name="&amp;lt;径向重复&amp;gt;">
        <path d="M118.81,282.23c-.69-2.76-.46-16.18,16.56-100.32-9.82,85.28-13.75,98.12-15.26,100.53-.55.88-1.05.81-1.3-.21Z" fill="#3d9396"/>
      </g>
      <g id="ao" data-name="&amp;lt;径向重复&amp;gt;">
        <path d="M76.52,268.27c.2-2.83,4.56-15.53,46.75-90.3-35.69,78.08-43.4,89.07-45.57,90.9-.8.67-1.25.44-1.18-.6Z" fill="#3d9396"/>
      </g>
    </g>
    <g>
      <g id="ap" data-name="&amp;lt;径向重复&amp;gt;">
        <ellipse cx="141.73" cy="125.84" rx="3.28" ry="7.11" fill="#cae3ca"/>
      </g>
      <g id="aq" data-name="&amp;lt;径向重复&amp;gt;">
        <ellipse cx="149.12" cy="127.66" rx="7.11" ry="3.28" transform="translate(-33.22 200.37) rotate(-62.31)" fill="#cae3ca"/>
      </g>
      <g id="ar" data-name="&amp;lt;径向重复&amp;gt;">
        <ellipse cx="154.81" cy="132.71" rx="7.11" ry="3.28" transform="translate(-47.98 111.43) rotate(-34.62)" fill="#cae3ca"/>
      </g>
      <g id="as" data-name="&amp;lt;径向重复&amp;gt;">
        <ellipse cx="157.51" cy="139.82" rx="7.11" ry="3.28" transform="translate(-15.7 20) rotate(-6.92)" fill="#cae3ca"/>
      </g>
      <g id="at" data-name="&amp;lt;径向重复&amp;gt;">
        <ellipse cx="156.59" cy="147.37" rx="3.28" ry="7.11" transform="translate(-36.73 241.52) rotate(-69.23)" fill="#cae3ca"/>
      </g>
      <g id="au" data-name="&amp;lt;径向重复&amp;gt;">
        <ellipse cx="152.27" cy="153.63" rx="3.28" ry="7.11" transform="translate(-63.58 139.61) rotate(-41.54)" fill="#cae3ca"/>
      </g>
      <g id="av" data-name="&amp;lt;径向重复&amp;gt;">
        <ellipse cx="145.53" cy="157.16" rx="3.28" ry="7.11" transform="translate(-33.38 39.4) rotate(-13.85)" fill="#cae3ca"/>
      </g>
      <g id="aw" data-name="&amp;lt;径向重复&amp;gt;">
        <ellipse cx="137.93" cy="157.16" rx="7.11" ry="3.28" transform="translate(-47.67 253.47) rotate(-76.15)" fill="#cae3ca"/>
      </g>
      <g id="ax" data-name="&amp;lt;径向重复&amp;gt;">
        <ellipse cx="131.2" cy="153.63" rx="7.11" ry="3.28" transform="translate(-70.79 149.95) rotate(-48.46)" fill="#cae3ca"/>
      </g>
      <g id="ay" data-name="&amp;lt;径向重复&amp;gt;">
        <ellipse cx="126.88" cy="147.37" rx="7.11" ry="3.28" transform="translate(-44.01 54.57) rotate(-20.77)" fill="#cae3ca"/>
      </g>
      <g id="az" data-name="&amp;lt;径向重复&amp;gt;">
        <ellipse cx="125.96" cy="139.82" rx="3.28" ry="7.11" transform="translate(-28.02 248.01) rotate(-83.08)" fill="#cae3ca"/>
      </g>
      <g id="ba" data-name="&amp;lt;径向重复&amp;gt;">
        <ellipse cx="128.66" cy="132.71" rx="3.28" ry="7.11" transform="translate(-53.64 163.2) rotate(-55.38)" fill="#cae3ca"/>
      </g>
      <g id="bb" data-name="&amp;lt;径向重复&amp;gt;">
        <ellipse cx="134.35" cy="127.66" rx="3.28" ry="7.11" transform="translate(-43.94 77.06) rotate(-27.69)" fill="#cae3ca"/>
      </g>
    </g>
  </g>
  <g>
    <g>
      <g id="bc" data-name="&amp;lt;径向重复&amp;gt;">
        <path d="M140.47,170.88c-2.12,2.9-5.7,17.62,1.26,112.59,6.96-94.97,3.38-109.69,1.26-112.59-.78-1.06-1.74-1.06-2.52,0Z" fill="#87c48d"/>
      </g>
      <g id="bd" data-name="&amp;lt;径向重复&amp;gt;">
        <path d="M131.53,169.06c-2.91,2.1-10.87,14.99-33.59,107.47,35.97-88.17,37.11-103.28,35.99-106.69-.41-1.25-1.33-1.55-2.4-.78Z" fill="#87c48d"/>
      </g>
      <g id="be" data-name="&amp;lt;径向重复&amp;gt;">
        <path d="M123.58,164.57c-3.41,1.1-14.97,10.9-65.16,91.83,61.46-72.74,67.21-86.76,67.2-90.35,0-1.32-.79-1.88-2.04-1.48Z" fill="#87c48d"/>
      </g>
      <g id="bf" data-name="&amp;lt;径向重复&amp;gt;">
        <path d="M117.41,157.84c-3.59-.01-17.61,5.74-90.35,67.2,80.93-50.19,90.73-61.74,91.83-65.16.4-1.25-.16-2.03-1.48-2.04Z" fill="#87c48d"/>
      </g>
      <g id="bg" data-name="&amp;lt;径向重复&amp;gt;">
        <path d="M113.63,149.54c-3.41-1.12-18.52.02-106.69,35.99,92.48-22.72,105.37-30.69,107.47-33.59.77-1.07.47-1.99-.78-2.4Z" fill="#87c48d"/>
      </g>
      <g id="bh" data-name="&amp;lt;径向重复&amp;gt;">
        <path d="M112.59,140.47c-2.9-2.12-17.62-5.7-112.59,1.26,94.97,6.96,109.69,3.38,112.59,1.26,1.06-.78,1.06-1.74,0-2.52Z" fill="#87c48d"/>
      </g>
      <g id="bi" data-name="&amp;lt;径向重复&amp;gt;">
        <path d="M114.4,131.53c-2.1-2.91-14.99-10.87-107.47-33.59,88.17,35.97,103.28,37.11,106.69,35.99,1.25-.41,1.55-1.33.78-2.4Z" fill="#87c48d"/>
      </g>
      <g id="bj" data-name="&amp;lt;径向重复&amp;gt;">
        <path d="M118.9,123.58c-1.1-3.41-10.9-14.97-91.83-65.16,72.74,61.46,86.76,67.21,90.35,67.2,1.32,0,1.88-.79,1.48-2.04Z" fill="#87c48d"/>
      </g>
      <g id="bk" data-name="&amp;lt;径向重复&amp;gt;">
        <path d="M125.62,117.41c.01-3.59-5.74-17.61-67.2-90.35,50.19,80.93,61.74,90.73,65.16,91.83,1.25.4,2.03-.16,2.04-1.48Z" fill="#87c48d"/>
      </g>
      <g id="bl" data-name="&amp;lt;径向重复&amp;gt;">
        <path d="M133.93,113.63c1.12-3.41-.02-18.52-35.99-106.69,22.72,92.48,30.69,105.37,33.59,107.47,1.07.77,1.99.47,2.4-.78Z" fill="#87c48d"/>
      </g>
      <g id="bm" data-name="&amp;lt;径向重复&amp;gt;">
        <path d="M142.99,112.59C145.11,109.69,148.7,94.97,141.73,0c-6.96,94.97-3.38,109.69-1.26,112.59.78,1.06,1.74,1.06,2.52,0Z" fill="#87c48d"/>
      </g>
      <g id="bn" data-name="&amp;lt;径向重复&amp;gt;">
        <path d="M151.94,114.4c2.91-2.1,10.87-14.99,33.59-107.47-35.97,88.17-37.11,103.28-35.99,106.69.41,1.25,1.33,1.55,2.4.78Z" fill="#87c48d"/>
      </g>
      <g id="bo" data-name="&amp;lt;径向重复&amp;gt;">
        <path d="M159.88,118.9c3.41-1.1,14.97-10.9,65.16-91.83-61.46,72.74-67.21,86.76-67.2,90.35,0,1.32.79,1.88,2.04,1.48Z" fill="#87c48d"/>
      </g>
      <g id="bp" data-name="&amp;lt;径向重复&amp;gt;">
        <path d="M166.05,125.62c3.59.01,17.61-5.74,90.35-67.2-80.93,50.19-90.73,61.74-91.83,65.16-.4,1.25.16,2.03,1.48,2.04Z" fill="#87c48d"/>
      </g>
      <g id="bq" data-name="&amp;lt;径向重复&amp;gt;">
        <path d="M169.84,133.92c3.41,1.12,18.52-.02,106.69-35.99-92.48,22.72-105.37,30.69-107.47,33.59-.77,1.07-.47,1.99.78,2.4Z" fill="#87c48d"/>
      </g>
      <g id="br" data-name="&amp;lt;径向重复&amp;gt;">
        <path d="M170.88,142.99c2.9,2.12,17.62,5.7,112.59-1.26-94.97-6.96-109.69-3.38-112.59-1.26-1.06.78-1.06,1.74,0,2.52Z" fill="#87c48d"/>
      </g>
      <g id="bs" data-name="&amp;lt;径向重复&amp;gt;">
        <path d="M169.06,151.94c2.1,2.91,14.99,10.87,107.47,33.59-88.17-35.97-103.28-37.11-106.69-35.99-1.25.41-1.55,1.33-.78,2.4Z" fill="#87c48d"/>
      </g>
      <g id="bt" data-name="&amp;lt;径向重复&amp;gt;">
        <path d="M164.57,159.88c1.1,3.41,10.9,14.97,91.83,65.16-72.74-61.46-86.76-67.21-90.35-67.2-1.32,0-1.88.79-1.48,2.04Z" fill="#87c48d"/>
      </g>
      <g id="bu" data-name="&amp;lt;径向重复&amp;gt;">
        <path d="M157.84,166.05c-.01,3.59,5.74,17.61,67.2,90.35-50.19-80.93-61.74-90.73-65.16-91.83-1.25-.4-2.03.16-2.04,1.48Z" fill="#87c48d"/>
      </g>
      <g id="bv" data-name="&amp;lt;径向重复&amp;gt;">
        <path d="M149.54,169.84c-1.12,3.41.02,18.52,35.99,106.69-22.72-92.48-30.69-105.37-33.59-107.47-1.07-.77-1.99-.47-2.4.78Z" fill="#87c48d"/>
      </g>
    </g>
    <g>
      <g id="bw" data-name="&amp;lt;径向重复&amp;gt;">
        <path d="M40.61,241.92c1.07-2.63,9.14-13.36,72.36-71.43-58.07,63.22-68.8,71.3-71.43,72.36-.97.39-1.32.03-.93-.93Z" fill="#3d9396"/>
      </g>
      <g id="bx" data-name="&amp;lt;径向重复&amp;gt;">
        <path d="M14.6,205.77c1.83-2.17,12.82-9.88,90.9-45.57C30.73,202.38,18.03,206.74,15.19,206.94c-1.04.07-1.27-.38-.6-1.18Z" fill="#3d9396"/>
      </g>
      <g id="by" data-name="&amp;lt;径向重复&amp;gt;">
        <path d="M1.03,163.35c2.41-1.5,15.25-5.44,100.53-15.25C17.42,165.11,3.99,165.34,1.24,164.65c-1.01-.25-1.09-.75-.21-1.3Z" fill="#3d9396"/>
      </g>
      <g id="bz" data-name="&amp;lt;径向重复&amp;gt;">
        <path d="M1.24,118.81c2.76-.69,16.18-.46,100.32,16.56C16.28,125.55,3.44,121.62,1.03,120.11c-.88-.55-.81-1.05.21-1.3Z" fill="#3d9396"/>
      </g>
      <g id="ca" data-name="&amp;lt;径向重复&amp;gt;">
        <path d="M15.2,76.52c2.83.2,15.53,4.56,90.3,46.75C27.42,87.58,16.42,79.87,14.6,77.69c-.67-.8-.44-1.25.6-1.18Z" fill="#3d9396"/>
      </g>
      <g id="cb" data-name="&amp;lt;径向重复&amp;gt;">
        <path d="M41.54,40.61c2.63,1.07,13.36,9.14,71.43,72.36C49.75,54.9,41.67,44.17,40.61,41.54c-.39-.97-.03-1.32.93-.93Z" fill="#3d9396"/>
      </g>
      <g id="cc" data-name="&amp;lt;径向重复&amp;gt;">
        <path d="M77.7,14.6c2.17,1.83,9.88,12.82,45.57,90.9C81.08,30.73,76.72,18.03,76.52,15.19c-.07-1.04.38-1.27,1.18-.6Z" fill="#3d9396"/>
      </g>
      <g id="cd" data-name="&amp;lt;径向重复&amp;gt;">
        <path d="M120.12,1.03c1.5,2.41,5.44,15.25,15.25,100.53C118.35,17.42,118.13,3.99,118.81,1.24c.25-1.01.75-1.09,1.3-.21Z" fill="#3d9396"/>
      </g>
      <g id="ce" data-name="&amp;lt;径向重复&amp;gt;">
        <path d="M164.65,1.24c.69,2.76.46,16.18-16.56,100.32C157.91,16.28,161.85,3.44,163.35,1.03c.55-.88,1.05-.81,1.3.21Z" fill="#3d9396"/>
      </g>
      <g id="cf" data-name="&amp;lt;径向重复&amp;gt;">
        <path d="M206.95,15.2c-.2,2.83-4.56,15.53-46.75,90.3C195.89,27.42,203.6,16.42,205.77,14.6c.8-.67,1.25-.44,1.18.6Z" fill="#3d9396"/>
      </g>
      <g id="cg" data-name="&amp;lt;径向重复&amp;gt;">
        <path d="M242.86,41.54c-1.07,2.63-9.14,13.36-72.36,71.43,58.07-63.23,68.8-71.3,71.43-72.36.97-.39,1.32-.03.93.93Z" fill="#3d9396"/>
      </g>
      <g id="ch" data-name="&amp;lt;径向重复&amp;gt;">
        <path d="M268.87,77.7c-1.83,2.17-12.82,9.88-90.9,45.57,74.77-42.19,87.46-46.55,90.3-46.75,1.04-.07,1.27.38.6,1.18Z" fill="#3d9396"/>
      </g>
      <g id="ci" data-name="&amp;lt;径向重复&amp;gt;">
        <path d="M282.43,120.12c-2.41,1.5-15.25,5.44-100.53,15.25,84.14-17.02,97.57-17.24,100.32-16.56,1.01.25,1.09.75.21,1.3Z" fill="#3d9396"/>
      </g>
      <g id="cj" data-name="&amp;lt;径向重复&amp;gt;">
        <path d="M282.23,164.65c-2.76.69-16.18.46-100.32-16.56,85.28,9.82,98.12,13.75,100.53,15.26.88.55.81,1.05-.21,1.3Z" fill="#3d9396"/>
      </g>
      <g id="ck" data-name="&amp;lt;径向重复&amp;gt;">
        <path d="M268.27,206.95c-2.83-.2-15.53-4.56-90.3-46.75,78.08,35.69,89.07,43.4,90.9,45.57.67.8.44,1.25-.6,1.18Z" fill="#3d9396"/>
      </g>
      <g id="cl" data-name="&amp;lt;径向重复&amp;gt;">
        <path d="M241.92,242.86c-2.63-1.07-13.36-9.14-71.43-72.36,63.22,58.07,71.3,68.8,72.36,71.43.39.97.03,1.32-.93.93Z" fill="#3d9396"/>
      </g>
      <g id="cm" data-name="&amp;lt;径向重复&amp;gt;">
        <path d="M205.77,268.87c-2.17-1.83-9.88-12.82-45.57-90.9,42.19,74.77,46.55,87.46,46.75,90.3.07,1.04-.38,1.27-1.18.6Z" fill="#3d9396"/>
      </g>
      <g id="cn" data-name="&amp;lt;径向重复&amp;gt;">
        <path d="M163.35,282.43c-1.5-2.41-5.44-15.25-15.25-100.53,17.02,84.14,17.24,97.57,16.56,100.32-.25,1.01-.75,1.09-1.3.21Z" fill="#3d9396"/>
      </g>
      <g id="co" data-name="&amp;lt;径向重复&amp;gt;">
        <path d="M118.81,282.23c-.69-2.76-.46-16.18,16.56-100.32-9.82,85.28-13.75,98.12-15.26,100.53-.55.88-1.05.81-1.3-.21Z" fill="#3d9396"/>
      </g>
      <g id="cp" data-name="&amp;lt;径向重复&amp;gt;">
        <path d="M76.52,268.27c.2-2.83,4.56-15.53,46.75-90.3-35.69,78.08-43.4,89.07-45.57,90.9-.8.67-1.25.44-1.18-.6Z" fill="#3d9396"/>
      </g>
    </g>
    <g>
      <g id="cq" data-name="&amp;lt;径向重复&amp;gt;">
        <ellipse cx="141.73" cy="125.84" rx="3.28" ry="7.11" fill="#cae3ca"/>
      </g>
      <g id="cr" data-name="&amp;lt;径向重复&amp;gt;">
        <ellipse cx="149.12" cy="127.66" rx="7.11" ry="3.28" transform="translate(-33.22 200.37) rotate(-62.31)" fill="#cae3ca"/>
      </g>
      <g id="cs" data-name="&amp;lt;径向重复&amp;gt;">
        <ellipse cx="154.81" cy="132.71" rx="7.11" ry="3.28" transform="translate(-47.98 111.43) rotate(-34.62)" fill="#cae3ca"/>
      </g>
      <g id="ct" data-name="&amp;lt;径向重复&amp;gt;">
        <ellipse cx="157.51" cy="139.82" rx="7.11" ry="3.28" transform="translate(-15.7 20) rotate(-6.92)" fill="#cae3ca"/>
      </g>
      <g id="cu" data-name="&amp;lt;径向重复&amp;gt;">
        <ellipse cx="156.59" cy="147.37" rx="3.28" ry="7.11" transform="translate(-36.73 241.52) rotate(-69.23)" fill="#cae3ca"/>
      </g>
      <g id="cv" data-name="&amp;lt;径向重复&amp;gt;">
        <ellipse cx="152.27" cy="153.63" rx="3.28" ry="7.11" transform="translate(-63.58 139.61) rotate(-41.54)" fill="#cae3ca"/>
      </g>
      <g id="cw" data-name="&amp;lt;径向重复&amp;gt;">
        <ellipse cx="145.53" cy="157.16" rx="3.28" ry="7.11" transform="translate(-33.38 39.4) rotate(-13.85)" fill="#cae3ca"/>
      </g>
      <g id="cx" data-name="&amp;lt;径向重复&amp;gt;">
        <ellipse cx="137.93" cy="157.16" rx="7.11" ry="3.28" transform="translate(-47.67 253.47) rotate(-76.15)" fill="#cae3ca"/>
      </g>
      <g id="cy" data-name="&amp;lt;径向重复&amp;gt;">
        <ellipse cx="131.2" cy="153.63" rx="7.11" ry="3.28" transform="translate(-70.79 149.95) rotate(-48.46)" fill="#cae3ca"/>
      </g>
      <g id="cz" data-name="&amp;lt;径向重复&amp;gt;">
        <ellipse cx="126.88" cy="147.37" rx="7.11" ry="3.28" transform="translate(-44.01 54.57) rotate(-20.77)" fill="#cae3ca"/>
      </g>
      <g id="da" data-name="&amp;lt;径向重复&amp;gt;">
        <ellipse cx="125.96" cy="139.82" rx="3.28" ry="7.11" transform="translate(-28.02 248.01) rotate(-83.08)" fill="#cae3ca"/>
      </g>
      <g id="db" data-name="&amp;lt;径向重复&amp;gt;">
        <ellipse cx="128.66" cy="132.71" rx="3.28" ry="7.11" transform="translate(-53.64 163.2) rotate(-55.38)" fill="#cae3ca"/>
      </g>
      <g id="dc" data-name="&amp;lt;径向重复&amp;gt;">
        <ellipse cx="134.35" cy="127.66" rx="3.28" ry="7.11" transform="translate(-43.94 77.06) rotate(-27.69)" fill="#cae3ca"/>
      </g>
    </g>
  </g>
</svg>