<?xml version="1.0" encoding="UTF-8"?>
<svg id="a" data-name="图层 1" xmlns="http://www.w3.org/2000/svg" width="100mm" height="100mm" viewBox="0 0 283.46 283.46">
  <g>
    <g>
      <g id="b" data-name="&amp;lt;径向重复&amp;gt;">
        <ellipse cx="141.73" cy="60.97" rx="9.6" ry="30.39" fill="#cae3ca"/>
      </g>
      <g id="c" data-name="&amp;lt;径向重复&amp;gt;">
        <ellipse cx="166.69" cy="64.92" rx="30.39" ry="9.6" transform="translate(53.44 203.39) rotate(-72)" fill="#cae3ca"/>
      </g>
      <g id="d" data-name="&amp;lt;径向重复&amp;gt;">
        <ellipse cx="189.2" cy="76.39" rx="30.39" ry="9.6" transform="translate(16.19 184.56) rotate(-54)" fill="#cae3ca"/>
      </g>
      <g id="e" data-name="&amp;lt;径向重复&amp;gt;">
        <ellipse cx="207.07" cy="94.26" rx="30.39" ry="9.6" transform="translate(-15.86 139.72) rotate(-36)" fill="#cae3ca"/>
      </g>
      <g id="f" data-name="&amp;lt;径向重复&amp;gt;">
        <ellipse cx="218.55" cy="116.77" rx="30.39" ry="9.6" transform="translate(-25.39 73.25) rotate(-18)" fill="#cae3ca"/>
      </g>
      <g id="g" data-name="&amp;lt;径向重复&amp;gt;">
        <ellipse cx="222.5" cy="141.73" rx="30.39" ry="9.6" fill="#cae3ca"/>
      </g>
      <g id="h" data-name="&amp;lt;径向重复&amp;gt;">
        <ellipse cx="218.55" cy="166.69" rx="9.6" ry="30.39" transform="translate(-7.52 323.03) rotate(-72)" fill="#cae3ca"/>
      </g>
      <g id="i" data-name="&amp;lt;径向重复&amp;gt;">
        <ellipse cx="207.07" cy="189.2" rx="9.6" ry="30.39" transform="translate(-67.71 245.52) rotate(-54)" fill="#cae3ca"/>
      </g>
      <g id="j" data-name="&amp;lt;径向重复&amp;gt;">
        <ellipse cx="189.2" cy="207.07" rx="9.6" ry="30.39" transform="translate(-85.58 150.76) rotate(-36)" fill="#cae3ca"/>
      </g>
      <g id="k" data-name="&amp;lt;径向重复&amp;gt;">
        <ellipse cx="166.69" cy="218.55" rx="9.6" ry="30.39" transform="translate(-59.38 62.21) rotate(-18)" fill="#cae3ca"/>
      </g>
      <g id="l" data-name="&amp;lt;径向重复&amp;gt;">
        <ellipse cx="141.73" cy="222.5" rx="9.6" ry="30.39" fill="#cae3ca"/>
      </g>
      <g id="m" data-name="&amp;lt;径向重复&amp;gt;">
        <ellipse cx="116.77" cy="218.55" rx="30.39" ry="9.6" transform="translate(-127.16 262.07) rotate(-72)" fill="#cae3ca"/>
      </g>
      <g id="n" data-name="&amp;lt;径向重复&amp;gt;">
        <ellipse cx="94.26" cy="207.07" rx="30.39" ry="9.6" transform="translate(-128.67 161.62) rotate(-54)" fill="#cae3ca"/>
      </g>
      <g id="o" data-name="&amp;lt;径向重复&amp;gt;">
        <ellipse cx="76.39" cy="189.2" rx="30.39" ry="9.6" transform="translate(-96.62 81.04) rotate(-36)" fill="#cae3ca"/>
      </g>
      <g id="p" data-name="&amp;lt;径向重复&amp;gt;">
        <ellipse cx="64.92" cy="166.69" rx="30.39" ry="9.6" transform="translate(-48.33 28.22) rotate(-18)" fill="#cae3ca"/>
      </g>
      <g id="q" data-name="&amp;lt;径向重复&amp;gt;">
        <ellipse cx="60.97" cy="141.73" rx="30.39" ry="9.6" fill="#cae3ca"/>
      </g>
      <g id="r" data-name="&amp;lt;径向重复&amp;gt;">
        <ellipse cx="64.92" cy="116.77" rx="9.6" ry="30.39" transform="translate(-66.2 142.43) rotate(-72)" fill="#cae3ca"/>
      </g>
      <g id="s" data-name="&amp;lt;径向重复&amp;gt;">
        <ellipse cx="76.39" cy="94.26" rx="9.6" ry="30.39" transform="translate(-44.77 100.66) rotate(-54)" fill="#cae3ca"/>
      </g>
      <g id="t" data-name="&amp;lt;径向重复&amp;gt;">
        <ellipse cx="94.26" cy="76.39" rx="9.6" ry="30.39" transform="translate(-26.9 69.99) rotate(-36)" fill="#cae3ca"/>
      </g>
      <g id="u" data-name="&amp;lt;径向重复&amp;gt;">
        <ellipse cx="116.78" cy="64.92" rx="9.6" ry="30.39" transform="translate(-14.35 39.26) rotate(-18)" fill="#cae3ca"/>
      </g>
    </g>
    <g>
      <g id="v" data-name="&amp;lt;径向重复&amp;gt;">
        <path d="M141.03,160.19c-1.19,2.95-3.2,17.92.71,114.54,3.9-96.61,1.89-111.59.71-114.54-.44-1.08-.98-1.08-1.41,0Z" fill="#3d9396"/>
      </g>
      <g id="w" data-name="&amp;lt;径向重复&amp;gt;">
        <path d="M135.35,159.07c-2.04,2.44-8.58,16.06-34.72,109.15,33.57-90.68,36.28-105.54,36.07-108.71-.08-1.16-.59-1.33-1.34-.44Z" fill="#3d9396"/>
      </g>
      <g id="x" data-name="&amp;lt;径向重复&amp;gt;">
        <path d="M130.31,156.25c-2.69,1.69-13.12,12.62-66.75,93.08,59.95-75.87,67.12-89.17,67.89-92.25.28-1.13-.15-1.45-1.14-.83Z" fill="#3d9396"/>
      </g>
      <g id="y" data-name="&amp;lt;径向重复&amp;gt;">
        <path d="M126.38,152.01c-3.08.77-16.38,7.95-92.25,67.89,80.46-53.63,91.39-64.06,93.08-66.75.62-.99.3-1.43-.83-1.14Z" fill="#3d9396"/>
      </g>
      <g id="z" data-name="&amp;lt;径向重复&amp;gt;">
        <path d="M123.96,146.76c-3.17-.22-18.03,2.5-108.71,36.07,93.09-26.14,106.71-32.68,109.15-34.72.89-.75.73-1.26-.44-1.34Z" fill="#3d9396"/>
      </g>
      <g id="aa" data-name="&amp;lt;径向重复&amp;gt;">
        <path d="M123.27,141.02c-2.95-1.19-17.92-3.2-114.54.71,96.61,3.9,111.59,1.89,114.54.71,1.08-.44,1.08-.98,0-1.41Z" fill="#3d9396"/>
      </g>
      <g id="ab" data-name="&amp;lt;径向重复&amp;gt;">
        <path d="M124.39,135.36c-2.44-2.04-16.06-8.58-109.15-34.72,90.68,33.57,105.54,36.28,108.71,36.07,1.16-.08,1.33-.59.44-1.34Z" fill="#3d9396"/>
      </g>
      <g id="ac" data-name="&amp;lt;径向重复&amp;gt;">
        <path d="M127.21,130.31c-1.69-2.69-12.62-13.12-93.08-66.75,75.87,59.95,89.17,67.12,92.25,67.89,1.13.28,1.45-.15.83-1.14Z" fill="#3d9396"/>
      </g>
      <g id="ad" data-name="&amp;lt;径向重复&amp;gt;">
        <path d="M131.45,126.38c-.77-3.08-7.95-16.38-67.89-92.25,53.63,80.46,64.06,91.39,66.75,93.08.99.62,1.43.3,1.14-.83Z" fill="#3d9396"/>
      </g>
      <g id="ae" data-name="&amp;lt;径向重复&amp;gt;">
        <path d="M136.7,123.96c.22-3.17-2.5-18.03-36.07-108.71,26.14,93.09,32.68,106.71,34.72,109.15.75.89,1.26.73,1.34-.44Z" fill="#3d9396"/>
      </g>
      <g id="af" data-name="&amp;lt;径向重复&amp;gt;">
        <path d="M142.44,123.27c1.19-2.95,3.2-17.92-.71-114.54-3.9,96.61-1.89,111.59-.71,114.54.44,1.08.98,1.08,1.41,0Z" fill="#3d9396"/>
      </g>
      <g id="ag" data-name="&amp;lt;径向重复&amp;gt;">
        <path d="M148.11,124.39c2.04-2.44,8.58-16.06,34.72-109.15-33.57,90.68-36.28,105.54-36.07,108.71.08,1.16.59,1.33,1.34.44Z" fill="#3d9396"/>
      </g>
      <g id="ah" data-name="&amp;lt;径向重复&amp;gt;">
        <path d="M153.16,127.21c2.69-1.69,13.12-12.62,66.75-93.08-59.95,75.87-67.12,89.17-67.89,92.25-.28,1.13.15,1.45,1.14.83Z" fill="#3d9396"/>
      </g>
      <g id="ai" data-name="&amp;lt;径向重复&amp;gt;">
        <path d="M157.08,131.45c3.08-.77,16.38-7.95,92.25-67.89-80.46,53.63-91.39,64.06-93.08,66.75-.62.99-.3,1.43.83,1.14Z" fill="#3d9396"/>
      </g>
      <g id="aj" data-name="&amp;lt;径向重复&amp;gt;">
        <path d="M159.51,136.7c3.17.22,18.03-2.5,108.71-36.07-93.09,26.14-106.71,32.68-109.15,34.72-.89.75-.73,1.26.44,1.34Z" fill="#3d9396"/>
      </g>
      <g id="ak" data-name="&amp;lt;径向重复&amp;gt;">
        <path d="M160.19,142.44c2.95,1.19,17.92,3.2,114.54-.71-96.61-3.9-111.59-1.89-114.54-.71-1.08.44-1.08.98,0,1.41Z" fill="#3d9396"/>
      </g>
      <g id="al" data-name="&amp;lt;径向重复&amp;gt;">
        <path d="M159.07,148.11c2.44,2.04,16.06,8.58,109.15,34.72-90.68-33.57-105.54-36.28-108.71-36.07-1.16.08-1.33.59-.44,1.34Z" fill="#3d9396"/>
      </g>
      <g id="am" data-name="&amp;lt;径向重复&amp;gt;">
        <path d="M156.25,153.15c1.69,2.69,12.62,13.12,93.08,66.75-75.87-59.95-89.17-67.12-92.25-67.89-1.13-.28-1.45.15-.83,1.14Z" fill="#3d9396"/>
      </g>
      <g id="an" data-name="&amp;lt;径向重复&amp;gt;">
        <path d="M152.01,157.08c.77,3.08,7.95,16.38,67.89,92.25-53.63-80.46-64.06-91.39-66.75-93.08-.99-.62-1.43-.3-1.14.83Z" fill="#3d9396"/>
      </g>
      <g id="ao" data-name="&amp;lt;径向重复&amp;gt;">
        <path d="M146.77,159.51c-.22,3.17,2.5,18.03,36.07,108.71-26.14-93.09-32.68-106.71-34.72-109.15-.75-.89-1.26-.73-1.34.44Z" fill="#3d9396"/>
      </g>
    </g>
    <g>
      <g id="ap" data-name="&amp;lt;径向重复&amp;gt;">
        <path d="M241.7,243.54c-3.63-.52-16.79-8.43-79.67-81.52,73.09,62.88,81,76.05,81.52,79.67.19,1.33-.52,2.04-1.85,1.85Z" fill="#87c48d"/>
      </g>
      <g id="aq" data-name="&amp;lt;径向重复&amp;gt;">
        <path d="M205.34,269.45c-3.29-1.62-13.37-13.21-50.58-102.15,50.08,82.39,53.54,97.36,52.91,100.96-.23,1.32-1.12,1.78-2.33,1.19Z" fill="#87c48d"/>
      </g>
      <g id="ar" data-name="&amp;lt;径向重复&amp;gt;">
        <path d="M162.76,282.86c-2.63-2.55-8.63-16.69-16.54-112.78,22.17,93.83,20.83,109.13,19.12,112.37-.63,1.19-1.62,1.35-2.58.41Z" fill="#87c48d"/>
      </g>
      <g id="as" data-name="&amp;lt;径向重复&amp;gt;">
        <path d="M118.12,282.45c-1.71-3.24-3.05-18.54,19.12-112.37-7.91,96.09-13.91,110.23-16.54,112.78-.96.94-1.95.78-2.58-.41Z" fill="#87c48d"/>
      </g>
      <g id="at" data-name="&amp;lt;径向重复&amp;gt;">
        <path d="M75.79,268.26c-.62-3.61,2.83-18.58,52.91-100.96-37.21,88.94-47.3,100.53-50.58,102.15-1.21.59-2.1.14-2.33-1.19Z" fill="#87c48d"/>
      </g>
      <g id="au" data-name="&amp;lt;径向重复&amp;gt;">
        <path d="M39.92,241.69c.52-3.63,8.43-16.79,81.52-79.67-62.88,73.09-76.05,81-79.67,81.52-1.33.19-2.04-.52-1.85-1.85Z" fill="#87c48d"/>
      </g>
      <g id="av" data-name="&amp;lt;径向重复&amp;gt;">
        <path d="M14.01,205.34c1.62-3.29,13.21-13.37,102.15-50.58-82.39,50.08-97.36,53.54-100.96,52.91-1.32-.23-1.78-1.12-1.19-2.33Z" fill="#87c48d"/>
      </g>
      <g id="aw" data-name="&amp;lt;径向重复&amp;gt;">
        <path d="M.61,162.76c2.55-2.63,16.69-8.63,112.78-16.54C19.56,168.39,4.25,167.05,1.02,165.34c-1.19-.63-1.35-1.62-.41-2.58Z" fill="#87c48d"/>
      </g>
      <g id="ax" data-name="&amp;lt;径向重复&amp;gt;">
        <path d="M1.02,118.12c3.24-1.71,18.54-3.05,112.37,19.12C17.3,129.34,3.16,123.33.61,120.7c-.94-.96-.78-1.95.41-2.58Z" fill="#87c48d"/>
      </g>
      <g id="ay" data-name="&amp;lt;径向重复&amp;gt;">
        <path d="M15.2,75.79c3.61-.62,18.58,2.83,100.96,52.91C27.22,91.49,15.63,81.41,14.01,78.12c-.59-1.21-.14-2.1,1.19-2.33Z" fill="#87c48d"/>
      </g>
      <g id="az" data-name="&amp;lt;径向重复&amp;gt;">
        <path d="M41.77,39.92c3.63.52,16.79,8.43,79.67,81.52C48.35,58.56,40.44,45.39,39.92,41.77c-.19-1.33.52-2.04,1.85-1.85Z" fill="#87c48d"/>
      </g>
      <g id="ba" data-name="&amp;lt;径向重复&amp;gt;">
        <path d="M78.12,14.01c3.29,1.62,13.37,13.21,50.58,102.15C78.62,33.78,75.17,18.81,75.79,15.2c.23-1.32,1.12-1.78,2.33-1.19Z" fill="#87c48d"/>
      </g>
      <g id="bb" data-name="&amp;lt;径向重复&amp;gt;">
        <path d="M120.7.61c2.63,2.55,8.63,16.69,16.54,112.78C115.07,19.56,116.41,4.25,118.12,1.02c.63-1.19,1.62-1.35,2.58-.41Z" fill="#87c48d"/>
      </g>
      <g id="bc" data-name="&amp;lt;径向重复&amp;gt;">
        <path d="M165.34,1.02c1.71,3.24,3.05,18.54-19.12,112.37C154.13,17.3,160.14,3.16,162.76.61c.96-.94,1.95-.78,2.58.41Z" fill="#87c48d"/>
      </g>
      <g id="bd" data-name="&amp;lt;径向重复&amp;gt;">
        <path d="M207.67,15.2c.62,3.61-2.83,18.58-52.91,100.96C191.98,27.22,202.06,15.63,205.34,14.01c1.21-.59,2.1-.14,2.33,1.19Z" fill="#87c48d"/>
      </g>
      <g id="be" data-name="&amp;lt;径向重复&amp;gt;">
        <path d="M243.54,41.77c-.52,3.63-8.43,16.79-81.52,79.67,62.88-73.09,76.05-81,79.67-81.52,1.33-.19,2.04.52,1.85,1.85Z" fill="#87c48d"/>
      </g>
      <g id="bf" data-name="&amp;lt;径向重复&amp;gt;">
        <path d="M269.45,78.12c-1.62,3.29-13.21,13.37-102.15,50.58,82.39-50.08,97.36-53.54,100.96-52.91,1.32.23,1.78,1.12,1.19,2.33Z" fill="#87c48d"/>
      </g>
      <g id="bg" data-name="&amp;lt;径向重复&amp;gt;">
        <path d="M282.86,120.7c-2.55,2.63-16.69,8.63-112.78,16.54,93.83-22.17,109.13-20.83,112.37-19.12,1.19.63,1.35,1.62.41,2.58Z" fill="#87c48d"/>
      </g>
      <g id="bh" data-name="&amp;lt;径向重复&amp;gt;">
        <path d="M282.45,165.34c-3.24,1.71-18.54,3.05-112.37-19.12,96.09,7.91,110.23,13.91,112.78,16.54.94.96.78,1.95-.41,2.58Z" fill="#87c48d"/>
      </g>
      <g id="bi" data-name="&amp;lt;径向重复&amp;gt;">
        <path d="M268.27,207.67c-3.61.62-18.58-2.83-100.96-52.91,88.94,37.21,100.53,47.3,102.15,50.58.59,1.21.14,2.1-1.19,2.33Z" fill="#87c48d"/>
      </g>
    </g>
  </g>
  <g>
    <g>
      <g id="bj" data-name="&amp;lt;径向重复&amp;gt;">
        <ellipse cx="141.73" cy="60.97" rx="9.6" ry="30.39" fill="#cae3ca"/>
      </g>
      <g id="bk" data-name="&amp;lt;径向重复&amp;gt;">
        <ellipse cx="166.69" cy="64.92" rx="30.39" ry="9.6" transform="translate(53.44 203.39) rotate(-72)" fill="#cae3ca"/>
      </g>
      <g id="bl" data-name="&amp;lt;径向重复&amp;gt;">
        <ellipse cx="189.2" cy="76.39" rx="30.39" ry="9.6" transform="translate(16.19 184.56) rotate(-54)" fill="#cae3ca"/>
      </g>
      <g id="bm" data-name="&amp;lt;径向重复&amp;gt;">
        <ellipse cx="207.07" cy="94.26" rx="30.39" ry="9.6" transform="translate(-15.86 139.72) rotate(-36)" fill="#cae3ca"/>
      </g>
      <g id="bn" data-name="&amp;lt;径向重复&amp;gt;">
        <ellipse cx="218.55" cy="116.77" rx="30.39" ry="9.6" transform="translate(-25.39 73.25) rotate(-18)" fill="#cae3ca"/>
      </g>
      <g id="bo" data-name="&amp;lt;径向重复&amp;gt;">
        <ellipse cx="222.5" cy="141.73" rx="30.39" ry="9.6" fill="#cae3ca"/>
      </g>
      <g id="bp" data-name="&amp;lt;径向重复&amp;gt;">
        <ellipse cx="218.55" cy="166.69" rx="9.6" ry="30.39" transform="translate(-7.52 323.03) rotate(-72)" fill="#cae3ca"/>
      </g>
      <g id="bq" data-name="&amp;lt;径向重复&amp;gt;">
        <ellipse cx="207.07" cy="189.2" rx="9.6" ry="30.39" transform="translate(-67.71 245.52) rotate(-54)" fill="#cae3ca"/>
      </g>
      <g id="br" data-name="&amp;lt;径向重复&amp;gt;">
        <ellipse cx="189.2" cy="207.07" rx="9.6" ry="30.39" transform="translate(-85.58 150.76) rotate(-36)" fill="#cae3ca"/>
      </g>
      <g id="bs" data-name="&amp;lt;径向重复&amp;gt;">
        <ellipse cx="166.69" cy="218.55" rx="9.6" ry="30.39" transform="translate(-59.38 62.21) rotate(-18)" fill="#cae3ca"/>
      </g>
      <g id="bt" data-name="&amp;lt;径向重复&amp;gt;">
        <ellipse cx="141.73" cy="222.5" rx="9.6" ry="30.39" fill="#cae3ca"/>
      </g>
      <g id="bu" data-name="&amp;lt;径向重复&amp;gt;">
        <ellipse cx="116.77" cy="218.55" rx="30.39" ry="9.6" transform="translate(-127.16 262.07) rotate(-72)" fill="#cae3ca"/>
      </g>
      <g id="bv" data-name="&amp;lt;径向重复&amp;gt;">
        <ellipse cx="94.26" cy="207.07" rx="30.39" ry="9.6" transform="translate(-128.67 161.62) rotate(-54)" fill="#cae3ca"/>
      </g>
      <g id="bw" data-name="&amp;lt;径向重复&amp;gt;">
        <ellipse cx="76.39" cy="189.2" rx="30.39" ry="9.6" transform="translate(-96.62 81.04) rotate(-36)" fill="#cae3ca"/>
      </g>
      <g id="bx" data-name="&amp;lt;径向重复&amp;gt;">
        <ellipse cx="64.92" cy="166.69" rx="30.39" ry="9.6" transform="translate(-48.33 28.22) rotate(-18)" fill="#cae3ca"/>
      </g>
      <g id="by" data-name="&amp;lt;径向重复&amp;gt;">
        <ellipse cx="60.97" cy="141.73" rx="30.39" ry="9.6" fill="#cae3ca"/>
      </g>
      <g id="bz" data-name="&amp;lt;径向重复&amp;gt;">
        <ellipse cx="64.92" cy="116.77" rx="9.6" ry="30.39" transform="translate(-66.2 142.43) rotate(-72)" fill="#cae3ca"/>
      </g>
      <g id="ca" data-name="&amp;lt;径向重复&amp;gt;">
        <ellipse cx="76.39" cy="94.26" rx="9.6" ry="30.39" transform="translate(-44.77 100.66) rotate(-54)" fill="#cae3ca"/>
      </g>
      <g id="cb" data-name="&amp;lt;径向重复&amp;gt;">
        <ellipse cx="94.26" cy="76.39" rx="9.6" ry="30.39" transform="translate(-26.9 69.99) rotate(-36)" fill="#cae3ca"/>
      </g>
      <g id="cc" data-name="&amp;lt;径向重复&amp;gt;">
        <ellipse cx="116.78" cy="64.92" rx="9.6" ry="30.39" transform="translate(-14.35 39.26) rotate(-18)" fill="#cae3ca"/>
      </g>
    </g>
    <g>
      <g id="cd" data-name="&amp;lt;径向重复&amp;gt;">
        <path d="M141.03,160.19c-1.19,2.95-3.2,17.92.71,114.54,3.9-96.61,1.89-111.59.71-114.54-.44-1.08-.98-1.08-1.41,0Z" fill="#3d9396"/>
      </g>
      <g id="ce" data-name="&amp;lt;径向重复&amp;gt;">
        <path d="M135.35,159.07c-2.04,2.44-8.58,16.06-34.72,109.15,33.57-90.68,36.28-105.54,36.07-108.71-.08-1.16-.59-1.33-1.34-.44Z" fill="#3d9396"/>
      </g>
      <g id="cf" data-name="&amp;lt;径向重复&amp;gt;">
        <path d="M130.31,156.25c-2.69,1.69-13.12,12.62-66.75,93.08,59.95-75.87,67.12-89.17,67.89-92.25.28-1.13-.15-1.45-1.14-.83Z" fill="#3d9396"/>
      </g>
      <g id="cg" data-name="&amp;lt;径向重复&amp;gt;">
        <path d="M126.38,152.01c-3.08.77-16.38,7.95-92.25,67.89,80.46-53.63,91.39-64.06,93.08-66.75.62-.99.3-1.43-.83-1.14Z" fill="#3d9396"/>
      </g>
      <g id="ch" data-name="&amp;lt;径向重复&amp;gt;">
        <path d="M123.96,146.76c-3.17-.22-18.03,2.5-108.71,36.07,93.09-26.14,106.71-32.68,109.15-34.72.89-.75.73-1.26-.44-1.34Z" fill="#3d9396"/>
      </g>
      <g id="ci" data-name="&amp;lt;径向重复&amp;gt;">
        <path d="M123.27,141.02c-2.95-1.19-17.92-3.2-114.54.71,96.61,3.9,111.59,1.89,114.54.71,1.08-.44,1.08-.98,0-1.41Z" fill="#3d9396"/>
      </g>
      <g id="cj" data-name="&amp;lt;径向重复&amp;gt;">
        <path d="M124.39,135.36c-2.44-2.04-16.06-8.58-109.15-34.72,90.68,33.57,105.54,36.28,108.71,36.07,1.16-.08,1.33-.59.44-1.34Z" fill="#3d9396"/>
      </g>
      <g id="ck" data-name="&amp;lt;径向重复&amp;gt;">
        <path d="M127.21,130.31c-1.69-2.69-12.62-13.12-93.08-66.75,75.87,59.95,89.17,67.12,92.25,67.89,1.13.28,1.45-.15.83-1.14Z" fill="#3d9396"/>
      </g>
      <g id="cl" data-name="&amp;lt;径向重复&amp;gt;">
        <path d="M131.45,126.38c-.77-3.08-7.95-16.38-67.89-92.25,53.63,80.46,64.06,91.39,66.75,93.08.99.62,1.43.3,1.14-.83Z" fill="#3d9396"/>
      </g>
      <g id="cm" data-name="&amp;lt;径向重复&amp;gt;">
        <path d="M136.7,123.96c.22-3.17-2.5-18.03-36.07-108.71,26.14,93.09,32.68,106.71,34.72,109.15.75.89,1.26.73,1.34-.44Z" fill="#3d9396"/>
      </g>
      <g id="cn" data-name="&amp;lt;径向重复&amp;gt;">
        <path d="M142.44,123.27c1.19-2.95,3.2-17.92-.71-114.54-3.9,96.61-1.89,111.59-.71,114.54.44,1.08.98,1.08,1.41,0Z" fill="#3d9396"/>
      </g>
      <g id="co" data-name="&amp;lt;径向重复&amp;gt;">
        <path d="M148.11,124.39c2.04-2.44,8.58-16.06,34.72-109.15-33.57,90.68-36.28,105.54-36.07,108.71.08,1.16.59,1.33,1.34.44Z" fill="#3d9396"/>
      </g>
      <g id="cp" data-name="&amp;lt;径向重复&amp;gt;">
        <path d="M153.16,127.21c2.69-1.69,13.12-12.62,66.75-93.08-59.95,75.87-67.12,89.17-67.89,92.25-.28,1.13.15,1.45,1.14.83Z" fill="#3d9396"/>
      </g>
      <g id="cq" data-name="&amp;lt;径向重复&amp;gt;">
        <path d="M157.08,131.45c3.08-.77,16.38-7.95,92.25-67.89-80.46,53.63-91.39,64.06-93.08,66.75-.62.99-.3,1.43.83,1.14Z" fill="#3d9396"/>
      </g>
      <g id="cr" data-name="&amp;lt;径向重复&amp;gt;">
        <path d="M159.51,136.7c3.17.22,18.03-2.5,108.71-36.07-93.09,26.14-106.71,32.68-109.15,34.72-.89.75-.73,1.26.44,1.34Z" fill="#3d9396"/>
      </g>
      <g id="cs" data-name="&amp;lt;径向重复&amp;gt;">
        <path d="M160.19,142.44c2.95,1.19,17.92,3.2,114.54-.71-96.61-3.9-111.59-1.89-114.54-.71-1.08.44-1.08.98,0,1.41Z" fill="#3d9396"/>
      </g>
      <g id="ct" data-name="&amp;lt;径向重复&amp;gt;">
        <path d="M159.07,148.11c2.44,2.04,16.06,8.58,109.15,34.72-90.68-33.57-105.54-36.28-108.71-36.07-1.16.08-1.33.59-.44,1.34Z" fill="#3d9396"/>
      </g>
      <g id="cu" data-name="&amp;lt;径向重复&amp;gt;">
        <path d="M156.25,153.15c1.69,2.69,12.62,13.12,93.08,66.75-75.87-59.95-89.17-67.12-92.25-67.89-1.13-.28-1.45.15-.83,1.14Z" fill="#3d9396"/>
      </g>
      <g id="cv" data-name="&amp;lt;径向重复&amp;gt;">
        <path d="M152.01,157.08c.77,3.08,7.95,16.38,67.89,92.25-53.63-80.46-64.06-91.39-66.75-93.08-.99-.62-1.43-.3-1.14.83Z" fill="#3d9396"/>
      </g>
      <g id="cw" data-name="&amp;lt;径向重复&amp;gt;">
        <path d="M146.77,159.51c-.22,3.17,2.5,18.03,36.07,108.71-26.14-93.09-32.68-106.71-34.72-109.15-.75-.89-1.26-.73-1.34.44Z" fill="#3d9396"/>
      </g>
    </g>
    <g>
      <g id="cx" data-name="&amp;lt;径向重复&amp;gt;">
        <path d="M241.7,243.54c-3.63-.52-16.79-8.43-79.67-81.52,73.09,62.88,81,76.05,81.52,79.67.19,1.33-.52,2.04-1.85,1.85Z" fill="#87c48d"/>
      </g>
      <g id="cy" data-name="&amp;lt;径向重复&amp;gt;">
        <path d="M205.34,269.45c-3.29-1.62-13.37-13.21-50.58-102.15,50.08,82.39,53.54,97.36,52.91,100.96-.23,1.32-1.12,1.78-2.33,1.19Z" fill="#87c48d"/>
      </g>
      <g id="cz" data-name="&amp;lt;径向重复&amp;gt;">
        <path d="M162.76,282.86c-2.63-2.55-8.63-16.69-16.54-112.78,22.17,93.83,20.83,109.13,19.12,112.37-.63,1.19-1.62,1.35-2.58.41Z" fill="#87c48d"/>
      </g>
      <g id="da" data-name="&amp;lt;径向重复&amp;gt;">
        <path d="M118.12,282.45c-1.71-3.24-3.05-18.54,19.12-112.37-7.91,96.09-13.91,110.23-16.54,112.78-.96.94-1.95.78-2.58-.41Z" fill="#87c48d"/>
      </g>
      <g id="db" data-name="&amp;lt;径向重复&amp;gt;">
        <path d="M75.79,268.26c-.62-3.61,2.83-18.58,52.91-100.96-37.21,88.94-47.3,100.53-50.58,102.15-1.21.59-2.1.14-2.33-1.19Z" fill="#87c48d"/>
      </g>
      <g id="dc" data-name="&amp;lt;径向重复&amp;gt;">
        <path d="M39.92,241.69c.52-3.63,8.43-16.79,81.52-79.67-62.88,73.09-76.05,81-79.67,81.52-1.33.19-2.04-.52-1.85-1.85Z" fill="#87c48d"/>
      </g>
      <g id="dd" data-name="&amp;lt;径向重复&amp;gt;">
        <path d="M14.01,205.34c1.62-3.29,13.21-13.37,102.15-50.58-82.39,50.08-97.36,53.54-100.96,52.91-1.32-.23-1.78-1.12-1.19-2.33Z" fill="#87c48d"/>
      </g>
      <g id="de" data-name="&amp;lt;径向重复&amp;gt;">
        <path d="M.61,162.76c2.55-2.63,16.69-8.63,112.78-16.54C19.56,168.39,4.25,167.05,1.02,165.34c-1.19-.63-1.35-1.62-.41-2.58Z" fill="#87c48d"/>
      </g>
      <g id="df" data-name="&amp;lt;径向重复&amp;gt;">
        <path d="M1.02,118.12c3.24-1.71,18.54-3.05,112.37,19.12C17.3,129.34,3.16,123.33.61,120.7c-.94-.96-.78-1.95.41-2.58Z" fill="#87c48d"/>
      </g>
      <g id="dg" data-name="&amp;lt;径向重复&amp;gt;">
        <path d="M15.2,75.79c3.61-.62,18.58,2.83,100.96,52.91C27.22,91.49,15.63,81.41,14.01,78.12c-.59-1.21-.14-2.1,1.19-2.33Z" fill="#87c48d"/>
      </g>
      <g id="dh" data-name="&amp;lt;径向重复&amp;gt;">
        <path d="M41.77,39.92c3.63.52,16.79,8.43,79.67,81.52C48.35,58.56,40.44,45.39,39.92,41.77c-.19-1.33.52-2.04,1.85-1.85Z" fill="#87c48d"/>
      </g>
      <g id="di" data-name="&amp;lt;径向重复&amp;gt;">
        <path d="M78.12,14.01c3.29,1.62,13.37,13.21,50.58,102.15C78.62,33.78,75.17,18.81,75.79,15.2c.23-1.32,1.12-1.78,2.33-1.19Z" fill="#87c48d"/>
      </g>
      <g id="dj" data-name="&amp;lt;径向重复&amp;gt;">
        <path d="M120.7.61c2.63,2.55,8.63,16.69,16.54,112.78C115.07,19.56,116.41,4.25,118.12,1.02c.63-1.19,1.62-1.35,2.58-.41Z" fill="#87c48d"/>
      </g>
      <g id="dk" data-name="&amp;lt;径向重复&amp;gt;">
        <path d="M165.34,1.02c1.71,3.24,3.05,18.54-19.12,112.37C154.13,17.3,160.14,3.16,162.76.61c.96-.94,1.95-.78,2.58.41Z" fill="#87c48d"/>
      </g>
      <g id="dl" data-name="&amp;lt;径向重复&amp;gt;">
        <path d="M207.67,15.2c.62,3.61-2.83,18.58-52.91,100.96C191.98,27.22,202.06,15.63,205.34,14.01c1.21-.59,2.1-.14,2.33,1.19Z" fill="#87c48d"/>
      </g>
      <g id="dm" data-name="&amp;lt;径向重复&amp;gt;">
        <path d="M243.54,41.77c-.52,3.63-8.43,16.79-81.52,79.67,62.88-73.09,76.05-81,79.67-81.52,1.33-.19,2.04.52,1.85,1.85Z" fill="#87c48d"/>
      </g>
      <g id="dn" data-name="&amp;lt;径向重复&amp;gt;">
        <path d="M269.45,78.12c-1.62,3.29-13.21,13.37-102.15,50.58,82.39-50.08,97.36-53.54,100.96-52.91,1.32.23,1.78,1.12,1.19,2.33Z" fill="#87c48d"/>
      </g>
      <g id="do" data-name="&amp;lt;径向重复&amp;gt;">
        <path d="M282.86,120.7c-2.55,2.63-16.69,8.63-112.78,16.54,93.83-22.17,109.13-20.83,112.37-19.12,1.19.63,1.35,1.62.41,2.58Z" fill="#87c48d"/>
      </g>
      <g id="dp" data-name="&amp;lt;径向重复&amp;gt;">
        <path d="M282.45,165.34c-3.24,1.71-18.54,3.05-112.37-19.12,96.09,7.91,110.23,13.91,112.78,16.54.94.96.78,1.95-.41,2.58Z" fill="#87c48d"/>
      </g>
      <g id="dq" data-name="&amp;lt;径向重复&amp;gt;">
        <path d="M268.27,207.67c-3.61.62-18.58-2.83-100.96-52.91,88.94,37.21,100.53,47.3,102.15,50.58.59,1.21.14,2.1-1.19,2.33Z" fill="#87c48d"/>
      </g>
    </g>
  </g>
</svg>