<?xml version="1.0" encoding="UTF-8"?>
<svg id="a" data-name="图层 1" xmlns="http://www.w3.org/2000/svg" width="100mm" height="100mm" viewBox="0 0 283.46 283.46">
  <g>
    <g id="b" data-name="&amp;lt;径向重复&amp;gt;">
      <path d="M117.66,165.81c-.82-.82-.74-2.18.18-2.9,1.82-1.42,3.64-2.85,5.46-4.27,2.01-1.57,4.02-3.14,6.04-4.72.06-.05.14-.04.2.01.05.05.07.13.01.2l-8.99,11.5c-.72.92-2.08,1-2.9.18Z" fill="#ef7c2c"/>
    </g>
    <g id="c" data-name="&amp;lt;径向重复&amp;gt;">
      <path d="M111.39,157.19c-.53-1.04-.03-2.31,1.07-2.7,2.17-.79,4.34-1.58,6.52-2.37,2.4-.87,4.8-1.75,7.2-2.62.07-.03.15,0,.18.07.03.06.02.14-.05.19l-12.1,8.16c-.97.65-2.28.31-2.81-.73Z" fill="#ef7c2c"/>
    </g>
    <g id="d" data-name="&amp;lt;径向重复&amp;gt;">
      <path d="M108.1,147.06c-.18-1.15.68-2.2,1.85-2.24,2.31-.08,4.62-.16,6.93-.24,2.55-.09,5.1-.18,7.65-.27.07,0,.14.05.15.13.01.07-.02.14-.11.17l-14.03,4.02c-1.12.32-2.27-.41-2.45-1.56Z" fill="#ef7c2c"/>
    </g>
    <g id="e" data-name="&amp;lt;径向重复&amp;gt;">
      <path d="M108.1,136.41c.18-1.15,1.33-1.88,2.45-1.56,2.22.64,4.44,1.27,6.67,1.91,2.45.7,4.91,1.41,7.36,2.11.07.02.12.09.11.17-.01.07-.06.13-.15.13l-14.58-.51c-1.16-.04-2.03-1.09-1.85-2.24Z" fill="#ef7c2c"/>
    </g>
    <g id="f" data-name="&amp;lt;径向重复&amp;gt;">
      <path d="M111.39,126.28c.53-1.04,1.85-1.38,2.81-.73,1.92,1.29,3.83,2.59,5.75,3.88,2.12,1.43,4.23,2.86,6.35,4.28.06.04.08.12.05.19-.03.06-.1.1-.18.07l-13.71-4.99c-1.1-.4-1.59-1.67-1.07-2.7Z" fill="#ef7c2c"/>
    </g>
    <g id="g" data-name="&amp;lt;径向重复&amp;gt;">
      <path d="M117.66,117.66c.82-.82,2.18-.74,2.9.18,1.42,1.82,2.85,3.64,4.27,5.46,1.57,2.01,3.14,4.02,4.72,6.04.05.06.04.14-.01.2-.05.05-.13.07-.2.01l-11.5-8.99c-.92-.72-1-2.08-.18-2.9Z" fill="#ef7c2c"/>
    </g>
    <g id="h" data-name="&amp;lt;径向重复&amp;gt;">
      <path d="M126.28,111.39c1.04-.53,2.31-.03,2.7,1.07.79,2.17,1.58,4.34,2.37,6.52.87,2.4,1.75,4.8,2.62,7.2.03.07,0,.15-.07.18-.06.03-.14.02-.19-.05l-8.16-12.1c-.65-.97-.31-2.28.73-2.81Z" fill="#ef7c2c"/>
    </g>
    <g id="i" data-name="&amp;lt;径向重复&amp;gt;">
      <path d="M136.41,108.1c1.15-.18,2.2.68,2.24,1.85.08,2.31.16,4.62.24,6.93.09,2.55.18,5.1.27,7.65,0,.07-.05.14-.13.15-.07.01-.14-.02-.17-.11l-4.02-14.03c-.32-1.12.41-2.27,1.56-2.45Z" fill="#ef7c2c"/>
    </g>
    <g id="j" data-name="&amp;lt;径向重复&amp;gt;">
      <path d="M147.06,108.1c1.15.18,1.88,1.33,1.56,2.45-.64,2.22-1.27,4.44-1.91,6.67-.7,2.45-1.41,4.91-2.11,7.36-.02.07-.09.12-.17.11-.07-.01-.13-.06-.13-.15l.51-14.58c.04-1.16,1.09-2.03,2.24-1.85Z" fill="#ef7c2c"/>
    </g>
    <g id="k" data-name="&amp;lt;径向重复&amp;gt;">
      <path d="M157.19,111.4c1.04.53,1.38,1.85.73,2.81-1.29,1.92-2.59,3.83-3.88,5.75-1.43,2.12-2.86,4.23-4.28,6.35-.04.06-.12.08-.19.05-.06-.03-.1-.1-.07-.18l4.99-13.71c.4-1.1,1.67-1.59,2.7-1.07Z" fill="#ef7c2c"/>
    </g>
    <g id="l" data-name="&amp;lt;径向重复&amp;gt;">
      <path d="M165.81,117.66c.82.82.74,2.18-.18,2.9-1.82,1.42-3.64,2.85-5.46,4.27-2.01,1.57-4.02,3.14-6.04,4.72-.06.05-.14.04-.2-.01-.05-.05-.07-.13-.01-.2l8.99-11.5c.72-.92,2.08-1,2.9-.18Z" fill="#ef7c2c"/>
    </g>
    <g id="m" data-name="&amp;lt;径向重复&amp;gt;">
      <path d="M172.07,126.28c.53,1.04.03,2.31-1.07,2.7-2.17.79-4.34,1.58-6.52,2.37-2.4.87-4.8,1.75-7.2,2.62-.07.03-.15,0-.18-.07-.03-.06-.02-.14.05-.19l12.1-8.16c.97-.65,2.28-.31,2.81.73Z" fill="#ef7c2c"/>
    </g>
    <g id="n" data-name="&amp;lt;径向重复&amp;gt;">
      <path d="M175.36,136.41c.18,1.15-.68,2.2-1.85,2.24-2.31.08-4.62.16-6.93.24-2.55.09-5.1.18-7.65.27-.07,0-.14-.05-.15-.13-.01-.07.02-.14.11-.17l14.03-4.02c1.12-.32,2.27.41,2.45,1.56Z" fill="#ef7c2c"/>
    </g>
    <g id="o" data-name="&amp;lt;径向重复&amp;gt;">
      <path d="M175.36,147.06c-.18,1.15-1.33,1.88-2.45,1.56-2.22-.64-4.44-1.27-6.67-1.91-2.45-.7-4.91-1.41-7.36-2.11-.07-.02-.12-.09-.11-.17.01-.07.06-.13.15-.13l14.58.51c1.16.04,2.03,1.09,1.85,2.24Z" fill="#ef7c2c"/>
    </g>
    <g id="p" data-name="&amp;lt;径向重复&amp;gt;">
      <path d="M172.07,157.19c-.53,1.04-1.85,1.38-2.81.73-1.92-1.29-3.83-2.59-5.75-3.88-2.12-1.43-4.23-2.86-6.35-4.28-.06-.04-.08-.12-.05-.19.03-.06.1-.1.18-.07l13.71,4.99c1.1.4,1.59,1.67,1.07,2.7Z" fill="#ef7c2c"/>
    </g>
    <g id="q" data-name="&amp;lt;径向重复&amp;gt;">
      <path d="M165.81,165.81c-.82.82-2.18.74-2.9-.18-1.42-1.82-2.85-3.64-4.27-5.46-1.57-2.01-3.14-4.02-4.72-6.04-.05-.06-.04-.14.01-.2.05-.05.13-.07.2-.01l11.5,8.99c.92.72,1,2.08.18,2.9Z" fill="#ef7c2c"/>
    </g>
    <g id="r" data-name="&amp;lt;径向重复&amp;gt;">
      <path d="M157.19,172.07c-1.04.53-2.31.03-2.7-1.07-.79-2.17-1.58-4.34-2.37-6.52-.87-2.4-1.75-4.8-2.62-7.2-.03-.07,0-.15.07-.18.06-.03.14-.02.19.05l8.16,12.1c.65.97.31,2.28-.73,2.81Z" fill="#ef7c2c"/>
    </g>
    <g id="s" data-name="&amp;lt;径向重复&amp;gt;">
      <path d="M147.06,175.36c-1.15.18-2.2-.68-2.24-1.85-.08-2.31-.16-4.62-.24-6.93-.09-2.55-.18-5.1-.27-7.65,0-.07.05-.14.13-.15.07-.01.14.02.17.11l4.02,14.03c.32,1.12-.41,2.27-1.56,2.45Z" fill="#ef7c2c"/>
    </g>
    <g id="t" data-name="&amp;lt;径向重复&amp;gt;">
      <path d="M136.41,175.36c-1.15-.18-1.88-1.33-1.56-2.45.64-2.22,1.27-4.44,1.91-6.67.7-2.45,1.41-4.91,2.11-7.36.02-.07.09-.12.17-.11.07.01.13.06.13.15l-.51,14.58c-.04,1.16-1.09,2.03-2.24,1.85Z" fill="#ef7c2c"/>
    </g>
    <g id="u" data-name="&amp;lt;径向重复&amp;gt;">
      <path d="M126.28,172.07c-1.04-.53-1.38-1.85-.73-2.81,1.29-1.92,2.59-3.83,3.88-5.75,1.43-2.12,2.86-4.23,4.28-6.35.04-.06.12-.08.19-.05.06.03.1.1.07.18l-4.99,13.71c-.4,1.1-1.67,1.59-2.7,1.07Z" fill="#ef7c2c"/>
    </g>
  </g>
  <g>
    <g id="v" data-name="&amp;lt;径向重复&amp;gt;">
      <path d="M70.57,212.9c-2.44-2.44-2.19-6.45.52-8.57,5.38-4.21,10.77-8.41,16.15-12.62,5.95-4.65,11.89-9.29,17.84-13.94.17-.14.43-.12.58.04.14.14.2.38.04.58l-26.56,33.99c-2.12,2.71-6.14,2.96-8.57.52Z" fill="#f9c97d"/>
    </g>
    <g id="w" data-name="&amp;lt;径向重复&amp;gt;">
      <path d="M52.06,187.42c-1.56-3.07-.09-6.81,3.15-7.99,6.42-2.34,12.84-4.67,19.26-7.01,7.09-2.58,14.18-5.16,21.27-7.74.21-.08.44.02.54.21.09.18.07.42-.15.57l-35.76,24.12c-2.86,1.93-6.75.92-8.32-2.15Z" fill="#f9c97d"/>
    </g>
    <g id="x" data-name="&amp;lt;径向重复&amp;gt;">
      <path d="M42.33,157.47c-.54-3.4,2.02-6.51,5.46-6.63,6.83-.24,13.66-.48,20.49-.72,7.54-.26,15.08-.53,22.62-.79.22,0,.42.15.45.37.03.2-.06.42-.31.49l-41.47,11.89c-3.31.95-6.71-1.21-7.25-4.62Z" fill="#f9c97d"/>
    </g>
    <g id="y" data-name="&amp;lt;径向重复&amp;gt;">
      <path d="M42.33,125.99c.54-3.4,3.93-5.57,7.25-4.62,6.57,1.88,13.14,3.77,19.7,5.65,7.25,2.08,14.51,4.16,21.76,6.24.21.06.35.27.31.49-.03.2-.19.38-.45.37l-43.11-1.51c-3.44-.12-6-3.23-5.46-6.63Z" fill="#f9c97d"/>
    </g>
    <g id="z" data-name="&amp;lt;径向重复&amp;gt;">
      <path d="M52.06,96.04c1.56-3.07,5.46-4.08,8.32-2.15,5.66,3.82,11.33,7.64,16.99,11.46,6.26,4.22,12.51,8.44,18.77,12.66.18.12.25.37.15.57-.09.18-.3.3-.54.21l-40.53-14.76c-3.24-1.18-4.71-4.92-3.15-7.99Z" fill="#f9c97d"/>
    </g>
    <g id="aa" data-name="&amp;lt;径向重复&amp;gt;">
      <path d="M70.57,70.57c2.44-2.44,6.45-2.19,8.57.52,4.21,5.38,8.41,10.77,12.62,16.15,4.65,5.95,9.29,11.89,13.94,17.84.14.17.12.43-.04.58-.14.14-.38.2-.58.04l-33.99-26.56c-2.71-2.12-2.96-6.14-.52-8.57Z" fill="#f9c97d"/>
    </g>
    <g id="ab" data-name="&amp;lt;径向重复&amp;gt;">
      <path d="M96.04,52.06c3.07-1.56,6.81-.09,7.99,3.15,2.34,6.42,4.67,12.84,7.01,19.26,2.58,7.09,5.16,14.18,7.74,21.27.08.21-.02.44-.21.54-.18.09-.42.07-.57-.15l-24.12-35.76c-1.93-2.86-.92-6.75,2.15-8.32Z" fill="#f9c97d"/>
    </g>
    <g id="ac" data-name="&amp;lt;径向重复&amp;gt;">
      <path d="M125.99,42.33c3.4-.54,6.51,2.02,6.63,5.46.24,6.83.48,13.66.72,20.49.26,7.54.53,15.08.79,22.62,0,.22-.15.42-.37.45-.2.03-.42-.06-.49-.31l-11.89-41.47c-.95-3.31,1.21-6.71,4.62-7.25Z" fill="#f9c97d"/>
    </g>
    <g id="ad" data-name="&amp;lt;径向重复&amp;gt;">
      <path d="M157.48,42.33c3.4.54,5.57,3.93,4.62,7.25-1.88,6.57-3.77,13.14-5.65,19.7-2.08,7.25-4.16,14.51-6.24,21.76-.06.21-.27.35-.49.31-.2-.03-.38-.19-.37-.45l1.51-43.11c.12-3.44,3.23-6,6.63-5.46Z" fill="#f9c97d"/>
    </g>
    <g id="ae" data-name="&amp;lt;径向重复&amp;gt;">
      <path d="M187.42,52.06c3.07,1.56,4.08,5.46,2.15,8.32-3.82,5.66-7.64,11.33-11.46,16.99-4.22,6.26-8.44,12.51-12.66,18.77-.12.18-.37.25-.57.15-.18-.09-.3-.3-.21-.54l14.76-40.53c1.18-3.24,4.92-4.71,7.99-3.15Z" fill="#f9c97d"/>
    </g>
    <g id="af" data-name="&amp;lt;径向重复&amp;gt;">
      <path d="M212.9,70.57c2.44,2.44,2.19,6.45-.52,8.57-5.38,4.21-10.77,8.41-16.15,12.62-5.95,4.65-11.89,9.29-17.84,13.94-.17.14-.43.12-.58-.04-.14-.14-.2-.38-.04-.58l26.56-33.99c2.12-2.71,6.14-2.96,8.57-.52Z" fill="#f9c97d"/>
    </g>
    <g id="ag" data-name="&amp;lt;径向重复&amp;gt;">
      <path d="M231.4,96.04c1.56,3.07.09,6.81-3.15,7.99-6.42,2.34-12.84,4.67-19.26,7.01-7.09,2.58-14.18,5.16-21.27,7.74-.21.08-.44-.02-.54-.21-.09-.18-.07-.42.15-.57l35.76-24.12c2.86-1.93,6.75-.92,8.32,2.15Z" fill="#f9c97d"/>
    </g>
    <g id="ah" data-name="&amp;lt;径向重复&amp;gt;">
      <path d="M241.13,125.99c.54,3.4-2.02,6.51-5.46,6.63-6.83.24-13.66.48-20.49.72-7.54.26-15.08.53-22.62.79-.22,0-.42-.15-.45-.37-.03-.2.06-.42.31-.49l41.47-11.89c3.31-.95,6.71,1.21,7.25,4.62Z" fill="#f9c97d"/>
    </g>
    <g id="ai" data-name="&amp;lt;径向重复&amp;gt;">
      <path d="M241.13,157.47c-.54,3.4-3.93,5.57-7.25,4.62-6.57-1.88-13.14-3.77-19.7-5.65-7.25-2.08-14.51-4.16-21.76-6.24-.21-.06-.35-.27-.31-.49.03-.2.19-.38.45-.37l43.11,1.51c3.44.12,6,3.23,5.46,6.63Z" fill="#f9c97d"/>
    </g>
    <g id="aj" data-name="&amp;lt;径向重复&amp;gt;">
      <path d="M231.4,187.42c-1.56,3.07-5.46,4.08-8.32,2.15-5.66-3.82-11.33-7.64-16.99-11.46-6.26-4.22-12.51-8.44-18.77-12.66-.18-.12-.25-.37-.15-.57.09-.18.3-.3.54-.21l40.53,14.76c3.24,1.18,4.71,4.92,3.15,7.99Z" fill="#f9c97d"/>
    </g>
    <g id="ak" data-name="&amp;lt;径向重复&amp;gt;">
      <path d="M212.9,212.9c-2.44,2.44-6.45,2.19-8.57-.52-4.21-5.38-8.41-10.77-12.62-16.15-4.65-5.95-9.29-11.89-13.94-17.84-.14-.17-.12-.43.04-.58.14-.14.38-.2.58-.04l33.99,26.56c2.71,2.12,2.96,6.14.52,8.57Z" fill="#f9c97d"/>
    </g>
    <g id="al" data-name="&amp;lt;径向重复&amp;gt;">
      <path d="M187.42,231.4c-3.07,1.56-6.81.09-7.99-3.15-2.34-6.42-4.67-12.84-7.01-19.26-2.58-7.09-5.16-14.18-7.74-21.27-.08-.21.02-.44.21-.54.18-.09.42-.07.57.15l24.12,35.76c1.93,2.86.92,6.75-2.15,8.32Z" fill="#f9c97d"/>
    </g>
    <g id="am" data-name="&amp;lt;径向重复&amp;gt;">
      <path d="M157.47,241.13c-3.4.54-6.51-2.02-6.63-5.46-.24-6.83-.48-13.66-.72-20.49-.26-7.54-.53-15.08-.79-22.62,0-.22.15-.42.37-.45.2-.03.42.06.49.31l11.89,41.47c.95,3.31-1.21,6.71-4.62,7.25Z" fill="#f9c97d"/>
    </g>
    <g id="an" data-name="&amp;lt;径向重复&amp;gt;">
      <path d="M125.99,241.13c-3.4-.54-5.57-3.93-4.62-7.25,1.88-6.57,3.77-13.14,5.65-19.7,2.08-7.25,4.16-14.51,6.24-21.76.06-.21.27-.35.49-.31.2.03.38.19.37.45l-1.51,43.11c-.12,3.44-3.23,6-6.63,5.46Z" fill="#f9c97d"/>
    </g>
    <g id="ao" data-name="&amp;lt;径向重复&amp;gt;">
      <path d="M96.04,231.4c-3.07-1.56-4.08-5.46-2.15-8.32,3.82-5.66,7.64-11.33,11.46-16.99,4.22-6.26,8.44-12.51,12.66-18.77.12-.18.37-.25.57-.15.18.09.3.3.21.54l-14.76,40.53c-1.18,3.24-4.92,4.71-7.99,3.15Z" fill="#f9c97d"/>
    </g>
  </g>
  <g>
    <g id="ap" data-name="&amp;lt;径向重复&amp;gt;">
      <polygon points="138.43 281.26 141.73 184.36 145.04 281.26 138.43 281.26" fill="#e9502d"/>
    </g>
    <g id="aq" data-name="&amp;lt;径向重复&amp;gt;">
      <polygon points="95.47 273.41 128.56 182.28 101.76 275.45 95.47 273.41" fill="#e9502d"/>
    </g>
    <g id="ar" data-name="&amp;lt;径向重复&amp;gt;">
      <polygon points="57.04 252.67 116.67 176.22 62.39 256.56 57.04 252.67" fill="#e9502d"/>
    </g>
    <g id="as" data-name="&amp;lt;径向重复&amp;gt;">
      <polygon points="26.91 221.07 107.24 166.79 30.79 226.42 26.91 221.07" fill="#e9502d"/>
    </g>
    <g id="at" data-name="&amp;lt;径向重复&amp;gt;">
      <polygon points="8.01 181.7 101.19 154.91 10.05 188 8.01 181.7" fill="#e9502d"/>
    </g>
    <g id="au" data-name="&amp;lt;径向重复&amp;gt;">
      <polygon points="2.2 138.43 99.1 141.73 2.2 145.04 2.2 138.43" fill="#e9502d"/>
    </g>
    <g id="av" data-name="&amp;lt;径向重复&amp;gt;">
      <polygon points="10.05 95.47 101.19 128.56 8.01 101.76 10.05 95.47" fill="#e9502d"/>
    </g>
    <g id="aw" data-name="&amp;lt;径向重复&amp;gt;">
      <polygon points="30.79 57.04 107.24 116.67 26.91 62.39 30.79 57.04" fill="#e9502d"/>
    </g>
    <g id="ax" data-name="&amp;lt;径向重复&amp;gt;">
      <polygon points="62.39 26.91 116.67 107.24 57.04 30.79 62.39 26.91" fill="#e9502d"/>
    </g>
    <g id="ay" data-name="&amp;lt;径向重复&amp;gt;">
      <polygon points="101.76 8.01 128.56 101.19 95.47 10.05 101.76 8.01" fill="#e9502d"/>
    </g>
    <g id="az" data-name="&amp;lt;径向重复&amp;gt;">
      <polygon points="145.04 2.2 141.73 99.1 138.42 2.2 145.04 2.2" fill="#e9502d"/>
    </g>
    <g id="ba" data-name="&amp;lt;径向重复&amp;gt;">
      <polygon points="187.99 10.05 154.91 101.19 181.7 8.01 187.99 10.05" fill="#e9502d"/>
    </g>
    <g id="bb" data-name="&amp;lt;径向重复&amp;gt;">
      <polygon points="226.42 30.79 166.79 107.24 221.07 26.91 226.42 30.79" fill="#e9502d"/>
    </g>
    <g id="bc" data-name="&amp;lt;径向重复&amp;gt;">
      <polygon points="256.56 62.39 176.22 116.67 252.67 57.04 256.56 62.39" fill="#e9502d"/>
    </g>
    <g id="bd" data-name="&amp;lt;径向重复&amp;gt;">
      <polygon points="275.45 101.76 182.27 128.56 273.41 95.47 275.45 101.76" fill="#e9502d"/>
    </g>
    <g id="be" data-name="&amp;lt;径向重复&amp;gt;">
      <polygon points="281.26 145.04 184.36 141.73 281.26 138.42 281.26 145.04" fill="#e9502d"/>
    </g>
    <g id="bf" data-name="&amp;lt;径向重复&amp;gt;">
      <polygon points="273.41 187.99 182.28 154.91 275.45 181.7 273.41 187.99" fill="#e9502d"/>
    </g>
    <g id="bg" data-name="&amp;lt;径向重复&amp;gt;">
      <polygon points="252.67 226.42 176.22 166.79 256.56 221.07 252.67 226.42" fill="#e9502d"/>
    </g>
    <g id="bh" data-name="&amp;lt;径向重复&amp;gt;">
      <polygon points="221.07 256.56 166.79 176.22 226.42 252.67 221.07 256.56" fill="#e9502d"/>
    </g>
    <g id="bi" data-name="&amp;lt;径向重复&amp;gt;">
      <polygon points="181.7 275.46 154.91 182.28 188 273.41 181.7 275.46" fill="#e9502d"/>
    </g>
  </g>
</svg>