<?xml version="1.0" encoding="UTF-8"?>
<svg id="a" data-name="图层 1" xmlns="http://www.w3.org/2000/svg" width="100mm" height="100mm" viewBox="0 0 283.46 283.46">
  <g>
    <g id="b" data-name="&amp;lt;径向重复&amp;gt;">
      <path d="M141.62,171.26c-1.6,0-2.84-1.4-2.65-2.99.39-3.15.77-6.31,1.16-9.46.43-3.48.85-6.96,1.28-10.45.01-.1.1-.18.2-.18.09,0,.19.06.2.18l2.44,19.9c.2,1.59-1.05,2.99-2.65,2.99Z" fill="#ef7c2c"/>
    </g>
    <g id="c" data-name="&amp;lt;径向重复&amp;gt;">
      <path d="M130.99,169.28c-1.49-.58-2.14-2.33-1.39-3.75,1.5-2.8,3-5.6,4.5-8.4,1.66-3.09,3.31-6.19,4.97-9.28.05-.09.16-.13.25-.09.09.03.15.12.12.24l-4.91,19.44c-.39,1.55-2.06,2.41-3.55,1.83Z" fill="#ef7c2c"/>
    </g>
    <g id="d" data-name="&amp;lt;径向重复&amp;gt;">
      <path d="M121.8,163.58c-1.18-1.08-1.16-2.95.06-3.99,2.41-2.07,4.82-4.14,7.23-6.21,2.66-2.29,5.32-4.57,7.98-6.86.08-.07.2-.07.27,0,.07.06.1.17.03.27l-11.6,16.36c-.93,1.31-2.79,1.51-3.97.43Z" fill="#ef7c2c"/>
    </g>
    <g id="e" data-name="&amp;lt;径向重复&amp;gt;">
      <path d="M115.29,154.96c-.71-1.43-.01-3.17,1.5-3.7,2.99-1.06,5.99-2.12,8.98-3.18,3.31-1.17,6.62-2.34,9.92-3.51.1-.03.21,0,.25.1.04.08.03.2-.07.26l-16.73,11.06c-1.34.88-3.14.4-3.86-1.04Z" fill="#ef7c2c"/>
    </g>
    <g id="f" data-name="&amp;lt;径向重复&amp;gt;">
      <path d="M112.33,144.56c-.15-1.59,1.13-2.96,2.73-2.91,3.18.09,6.35.19,9.53.28,3.51.1,7.01.21,10.52.31.1,0,.19.08.2.19,0,.09-.04.19-.16.22l-19.59,4.27c-1.56.34-3.07-.76-3.22-2.36Z" fill="#ef7c2c"/>
    </g>
    <g id="g" data-name="&amp;lt;径向重复&amp;gt;">
      <path d="M113.33,133.8c.44-1.54,2.13-2.35,3.6-1.73,2.93,1.24,5.85,2.47,8.78,3.7,3.23,1.36,6.46,2.73,9.7,4.09.1.04.15.15.12.25-.03.09-.11.17-.23.15l-19.81-3.1c-1.58-.25-2.59-1.82-2.15-3.36Z" fill="#ef7c2c"/>
    </g>
    <g id="h" data-name="&amp;lt;径向重复&amp;gt;">
      <path d="M118.14,124.12c.96-1.28,2.83-1.42,3.98-.31,2.28,2.21,4.57,4.42,6.85,6.63,2.52,2.44,5.04,4.88,7.56,7.32.07.07.08.19.02.27-.06.08-.16.11-.27.05l-17.36-10.05c-1.39-.8-1.76-2.64-.79-3.91Z" fill="#ef7c2c"/>
    </g>
    <g id="i" data-name="&amp;lt;径向重复&amp;gt;">
      <path d="M126.13,116.84c1.36-.84,3.15-.3,3.82,1.15,1.33,2.88,2.66,5.77,3.99,8.65,1.47,3.19,2.94,6.37,4.41,9.56.04.09,0,.21-.08.26-.08.05-.19.05-.27-.05l-12.56-15.64c-1-1.25-.69-3.09.68-3.94Z" fill="#ef7c2c"/>
    </g>
    <g id="j" data-name="&amp;lt;径向重复&amp;gt;">
      <path d="M136.21,112.93c1.57-.29,3.05.86,3.15,2.45.2,3.17.4,6.34.6,9.51.22,3.5.44,7,.66,10.5,0,.1-.07.2-.17.21-.09.02-.2-.02-.23-.14l-6.06-19.12c-.48-1.53.48-3.13,2.05-3.43Z" fill="#ef7c2c"/>
    </g>
    <g id="k" data-name="&amp;lt;径向重复&amp;gt;">
      <path d="M147.02,112.93c1.57.29,2.54,1.9,2.05,3.43-.96,3.03-1.92,6.06-2.88,9.08-1.06,3.34-2.12,6.69-3.18,10.03-.03.1-.13.16-.23.14-.09-.02-.17-.09-.17-.21l1.26-20.01c.1-1.6,1.58-2.75,3.15-2.45Z" fill="#ef7c2c"/>
    </g>
    <g id="l" data-name="&amp;lt;径向重复&amp;gt;">
      <path d="M157.1,116.84c1.36.84,1.68,2.69.68,3.94-1.99,2.48-3.98,4.95-5.97,7.43-2.2,2.74-4.39,5.47-6.59,8.21-.06.08-.18.1-.27.05-.08-.05-.13-.15-.08-.26l8.4-18.21c.67-1.45,2.46-1.99,3.82-1.15Z" fill="#ef7c2c"/>
    </g>
    <g id="m" data-name="&amp;lt;径向重复&amp;gt;">
      <path d="M165.09,124.12c.96,1.28.59,3.11-.79,3.91-2.75,1.59-5.5,3.18-8.25,4.77-3.04,1.76-6.07,3.51-9.11,5.27-.09.05-.2.03-.27-.05-.06-.08-.07-.19.02-.27l14.41-13.94c1.15-1.11,3.02-.97,3.98.31Z" fill="#ef7c2c"/>
    </g>
    <g id="n" data-name="&amp;lt;径向重复&amp;gt;">
      <path d="M169.91,133.8c.44,1.54-.57,3.12-2.15,3.36-3.14.49-6.28.98-9.42,1.47-3.47.54-6.93,1.08-10.4,1.63-.1.02-.2-.05-.23-.15-.03-.09,0-.2.12-.25l18.48-7.8c1.48-.62,3.16.19,3.6,1.73Z" fill="#ef7c2c"/>
    </g>
    <g id="o" data-name="&amp;lt;径向重复&amp;gt;">
      <path d="M170.91,144.56c-.15,1.59-1.66,2.7-3.22,2.36-3.1-.68-6.21-1.35-9.31-2.03-3.43-.75-6.86-1.49-10.28-2.24-.1-.02-.17-.12-.16-.22,0-.09.08-.18.2-.19l20.05-.6c1.6-.05,2.88,1.32,2.73,2.91Z" fill="#ef7c2c"/>
    </g>
    <g id="p" data-name="&amp;lt;径向重复&amp;gt;">
      <path d="M167.95,154.96c-.71,1.43-2.52,1.92-3.86,1.04-2.65-1.75-5.3-3.5-7.95-5.26-2.93-1.93-5.85-3.87-8.78-5.8-.09-.06-.12-.17-.07-.26.04-.08.14-.14.25-.1l18.91,6.69c1.51.53,2.21,2.27,1.5,3.7Z" fill="#ef7c2c"/>
    </g>
    <g id="q" data-name="&amp;lt;径向重复&amp;gt;">
      <path d="M161.44,163.58c-1.18,1.08-3.04.88-3.97-.43-1.84-2.59-3.68-5.18-5.51-7.77-2.03-2.86-4.06-5.72-6.09-8.58-.06-.08-.05-.2.03-.27.07-.06.18-.08.27,0l15.21,13.06c1.22,1.04,1.24,2.91.06,3.99Z" fill="#ef7c2c"/>
    </g>
    <g id="r" data-name="&amp;lt;径向重复&amp;gt;">
      <path d="M152.25,169.27c-1.49.58-3.16-.28-3.55-1.83-.78-3.08-1.56-6.16-2.33-9.24-.86-3.4-1.72-6.8-2.58-10.2-.03-.1.03-.2.12-.24.09-.03.2-.01.26.09l9.47,17.68c.76,1.41.11,3.17-1.39,3.75Z" fill="#ef7c2c"/>
    </g>
  </g>
  <g>
    <g id="s" data-name="&amp;lt;径向重复&amp;gt;">
      <g id="t" data-name="&amp;lt;径向重复&amp;gt;">
        <path d="M53.58,230.97c-2.03-2,.41-7.62,5.21-11.98,9.51-8.65,19.03-17.3,28.54-25.95,10.51-9.55,21.02-19.11,31.52-28.66.31-.28.64-.4.77-.27.12.12.07.41-.26.78l-53.88,60.73c-4.3,4.85-9.89,7.36-11.91,5.36Z" fill="#f9c97d"/>
      </g>
    </g>
    <g id="u" data-name="&amp;lt;径向重复&amp;gt;">
      <g id="v" data-name="&amp;lt;径向重复&amp;gt;">
        <path d="M27.33,193.15c-1.17-2.6,3.14-6.95,9.18-9.29,12-4.63,23.99-9.26,35.99-13.89,13.25-5.11,26.5-10.23,39.75-15.34.39-.15.74-.14.82.03.07.15-.09.41-.52.63l-72.18,37.17c-5.76,2.97-11.88,3.29-13.04.69Z" fill="#f9c97d"/>
      </g>
    </g>
    <g id="w" data-name="&amp;lt;径向重复&amp;gt;">
      <g id="x" data-name="&amp;lt;径向重复&amp;gt;">
        <path d="M16.52,148.4c-.15-2.85,5.44-5.35,11.92-5.34,12.86.02,25.72.03,38.58.05,14.2.02,28.41.04,42.61.05.42,0,.74.14.75.32,0,.17-.23.35-.71.4l-80.73,8.58c-6.45.69-12.26-1.22-12.41-4.07Z" fill="#f9c97d"/>
      </g>
    </g>
    <g id="y" data-name="&amp;lt;径向重复&amp;gt;">
      <g id="z" data-name="&amp;lt;径向重复&amp;gt;">
        <path d="M22.6,102.76c.89-2.71,7-3.03,13.04-.68,11.99,4.66,23.97,9.32,35.96,13.98,13.24,5.15,26.47,10.29,39.71,15.44.39.15.64.4.58.57-.05.16-.34.24-.81.12l-78.38-21.16c-6.26-1.69-10.99-5.57-10.1-8.28Z" fill="#f9c97d"/>
      </g>
    </g>
    <g id="aa" data-name="&amp;lt;径向重复&amp;gt;">
      <g id="ab" data-name="&amp;lt;径向重复&amp;gt;">
        <path d="M44.75,62.4c1.81-2.2,7.62-.29,12.41,4.08,9.49,8.68,18.98,17.35,28.48,26.03,10.48,9.58,20.97,19.16,31.45,28.74.31.28.45.6.34.75-.11.13-.4.1-.8-.18l-65.44-48.04c-5.23-3.84-8.24-9.16-6.43-11.37Z" fill="#f9c97d"/>
      </g>
    </g>
    <g id="ac" data-name="&amp;lt;径向重复&amp;gt;">
      <g id="ad" data-name="&amp;lt;径向重复&amp;gt;">
        <path d="M79.99,32.78c2.48-1.4,7.21,2.48,10.1,8.29,5.72,11.52,11.43,23.04,17.15,34.56,6.31,12.72,12.63,25.44,18.94,38.16.19.37.21.73.05.82-.15.08-.41-.05-.68-.46l-43.67-68.44c-3.49-5.47-4.37-11.52-1.89-12.92Z" fill="#f9c97d"/>
      </g>
    </g>
    <g id="ae" data-name="&amp;lt;径向重复&amp;gt;">
      <g id="af" data-name="&amp;lt;径向重复&amp;gt;">
        <path d="M123.55,17.88c2.82-.41,5.83,4.92,6.42,11.38,1.17,12.81,2.34,25.61,3.51,38.42,1.29,14.14,2.58,28.29,3.88,42.43.04.42-.07.75-.25.78-.17.02-.37-.19-.46-.67l-16-79.6c-1.28-6.36.08-12.32,2.91-12.73Z" fill="#f9c97d"/>
      </g>
    </g>
    <g id="ag" data-name="&amp;lt;径向重复&amp;gt;">
      <g id="ah" data-name="&amp;lt;径向重复&amp;gt;">
        <path d="M169.55,19.72c2.78.64,3.66,6.69,1.88,12.93-3.54,12.36-7.07,24.73-10.6,37.09-3.9,13.66-7.81,27.31-11.71,40.97-.11.4-.34.68-.52.63-.16-.04-.27-.31-.19-.8l13.84-80c1.1-6.39,4.53-11.46,7.31-10.82Z" fill="#f9c97d"/>
      </g>
    </g>
    <g id="ai" data-name="&amp;lt;径向重复&amp;gt;">
      <g id="aj" data-name="&amp;lt;径向重复&amp;gt;">
        <path d="M211.78,38.06c2.36,1.6.99,7.56-2.92,12.73-7.76,10.25-15.53,20.5-23.29,30.76-8.57,11.32-17.15,22.65-25.72,33.97-.25.33-.56.51-.71.4-.14-.09-.14-.39.11-.81l41.8-69.6c3.34-5.56,8.36-9.05,10.73-7.45Z" fill="#f9c97d"/>
      </g>
    </g>
    <g id="ak" data-name="&amp;lt;径向重复&amp;gt;">
      <g id="al" data-name="&amp;lt;径向重复&amp;gt;">
        <path d="M244.53,70.42c1.63,2.34-1.81,7.41-7.32,10.82-10.94,6.76-21.88,13.51-32.83,20.27-12.08,7.46-24.17,14.92-36.25,22.38-.36.22-.7.27-.81.12-.1-.14,0-.42.4-.72l64.12-49.8c5.12-3.98,11.07-5.42,12.69-3.08Z" fill="#f9c97d"/>
      </g>
    </g>
    <g id="am" data-name="&amp;lt;径向重复&amp;gt;">
      <g id="an" data-name="&amp;lt;径向重复&amp;gt;">
        <path d="M263.39,112.42c.67,2.77-4.36,6.26-10.73,7.44-12.64,2.35-25.29,4.69-37.93,7.04-13.96,2.59-27.93,5.18-41.89,7.78-.41.08-.76,0-.8-.18-.04-.16.16-.38.63-.52l77.78-23.27c6.21-1.86,12.28-1.05,12.95,1.72Z" fill="#f9c97d"/>
      </g>
    </g>
    <g id="ao" data-name="&amp;lt;径向重复&amp;gt;">
      <g id="ap" data-name="&amp;lt;径向重复&amp;gt;">
        <path d="M265.8,158.39c-.38,2.83-6.33,4.26-12.7,3.06-12.64-2.38-25.28-4.76-37.91-7.14-13.96-2.63-27.91-5.25-41.87-7.88-.41-.08-.7-.27-.68-.46.02-.17.29-.3.78-.26l80.93,6.4c6.46.51,11.83,3.45,11.45,6.28Z" fill="#f9c97d"/>
      </g>
    </g>
    <g id="aq" data-name="&amp;lt;径向重复&amp;gt;">
      <g id="ar" data-name="&amp;lt;径向重复&amp;gt;">
        <path d="M251.43,202.13c-1.37,2.5-7.44,1.69-12.95-1.73-10.92-6.78-21.85-13.57-32.77-20.35-12.07-7.49-24.13-14.98-36.2-22.48-.35-.22-.56-.51-.47-.67.08-.15.38-.18.82.04l73.16,35.2c5.84,2.81,9.78,7.49,8.41,9.99Z" fill="#f9c97d"/>
      </g>
    </g>
    <g id="as" data-name="&amp;lt;径向重复&amp;gt;">
      <g id="at" data-name="&amp;lt;径向重复&amp;gt;">
        <path d="M222.24,237.73c-2.18,1.83-7.55-1.11-11.45-6.29-7.74-10.27-15.47-20.54-23.21-30.82-8.54-11.34-17.09-22.69-25.63-34.03-.25-.33-.34-.68-.19-.79.13-.11.41-.03.75.33l55.5,59.25c4.43,4.73,6.42,10.52,4.23,12.36Z" fill="#f9c97d"/>
      </g>
    </g>
    <g id="au" data-name="&amp;lt;径向重复&amp;gt;">
      <g id="av" data-name="&amp;lt;径向重复&amp;gt;">
        <path d="M182.16,260.38c-2.7.92-6.63-3.76-8.4-10-3.5-12.37-7.01-24.75-10.51-37.12-3.87-13.67-7.74-27.33-11.61-41-.11-.4-.07-.75.11-.81.16-.05.4.12.58.58l30.35,75.3c2.42,6.01,2.18,12.13-.52,13.05Z" fill="#f9c97d"/>
      </g>
    </g>
    <g id="aw" data-name="&amp;lt;径向重复&amp;gt;">
      <g id="ax" data-name="&amp;lt;径向重复&amp;gt;">
        <path d="M136.6,267.02c-2.85-.11-4.83-5.91-4.22-12.36,1.2-12.8,2.41-25.61,3.61-38.41,1.33-14.14,2.66-28.28,3.99-42.42.04-.42.21-.73.39-.72.17,0,.33.26.33.75l1.1,81.18c.09,6.48-2.35,12.1-5.2,11.98Z" fill="#f9c97d"/>
      </g>
    </g>
    <g id="ay" data-name="&amp;lt;径向重复&amp;gt;">
      <g id="az" data-name="&amp;lt;径向重复&amp;gt;">
        <path d="M91.72,256.76c-2.62-1.14-2.37-7.25.53-13.05,5.75-11.5,11.49-23.01,17.24-34.51,6.35-12.71,12.69-25.41,19.04-38.12.19-.37.46-.6.62-.53.15.07.21.36.04.82l-28.3,76.09c-2.26,6.08-6.56,10.43-9.17,9.3Z" fill="#f9c97d"/>
      </g>
    </g>
  </g>
  <g>
    <g id="ba" data-name="&amp;lt;径向重复&amp;gt;">
      <g id="bb" data-name="&amp;lt;径向重复&amp;gt;">
        <polygon points="247.5 50.72 165.6 117.86 232.73 35.95 247.5 50.72" fill="#e9502d"/>
      </g>
    </g>
    <g id="bc" data-name="&amp;lt;径向重复&amp;gt;">
      <g id="bd" data-name="&amp;lt;径向重复&amp;gt;">
        <polygon points="273.27 95.12 172.64 128.14 264.84 76.01 273.27 95.12" fill="#e9502d"/>
      </g>
    </g>
    <g id="be" data-name="&amp;lt;径向重复&amp;gt;">
      <g id="bf" data-name="&amp;lt;径向重复&amp;gt;">
        <polygon points="281.26 145.83 175.5 140.27 280.3 124.97 281.26 145.83" fill="#e9502d"/>
      </g>
    </g>
    <g id="bg" data-name="&amp;lt;径向重复&amp;gt;">
      <g id="bh" data-name="&amp;lt;径向重复&amp;gt;">
        <polygon points="270.39 196.01 173.78 152.62 277.03 176.21 270.39 196.01" fill="#e9502d"/>
      </g>
    </g>
    <g id="bi" data-name="&amp;lt;径向重复&amp;gt;">
      <g id="bj" data-name="&amp;lt;径向重复&amp;gt;">
        <polygon points="242.13 238.87 167.72 163.51 255.47 222.8 242.13 238.87" fill="#e9502d"/>
      </g>
    </g>
    <g id="bk" data-name="&amp;lt;径向重复&amp;gt;">
      <g id="bl" data-name="&amp;lt;径向重复&amp;gt;">
        <polygon points="200.29 268.63 158.13 171.47 218.54 258.46 200.29 268.63" fill="#e9502d"/>
      </g>
    </g>
    <g id="bm" data-name="&amp;lt;径向重复&amp;gt;">
      <g id="bn" data-name="&amp;lt;径向重复&amp;gt;">
        <polygon points="150.53 281.26 146.31 175.44 171.22 278.38 150.53 281.26" fill="#e9502d"/>
      </g>
    </g>
    <g id="bo" data-name="&amp;lt;径向重复&amp;gt;">
      <g id="bp" data-name="&amp;lt;径向重复&amp;gt;">
        <polygon points="99.57 275.07 133.86 174.87 119.9 279.85 99.57 275.07" fill="#e9502d"/>
      </g>
    </g>
    <g id="bq" data-name="&amp;lt;径向重复&amp;gt;">
      <g id="br" data-name="&amp;lt;径向重复&amp;gt;">
        <polygon points="54.28 250.88 122.46 169.84 71.51 262.68 54.28 250.88" fill="#e9502d"/>
      </g>
    </g>
    <g id="bs" data-name="&amp;lt;径向重复&amp;gt;">
      <g id="bt" data-name="&amp;lt;径向重复&amp;gt;">
        <polygon points="20.79 211.97 113.64 161.02 32.6 229.2 20.79 211.97" fill="#e9502d"/>
      </g>
    </g>
    <g id="bu" data-name="&amp;lt;径向重复&amp;gt;">
      <g id="bv" data-name="&amp;lt;径向重复&amp;gt;">
        <polygon points="3.62 163.58 108.6 149.62 8.4 183.92 3.62 163.58" fill="#e9502d"/>
      </g>
    </g>
    <g id="bw" data-name="&amp;lt;径向重复&amp;gt;">
      <g id="bx" data-name="&amp;lt;径向重复&amp;gt;">
        <polygon points="5.09 112.26 108.02 137.17 2.2 132.95 5.09 112.26" fill="#e9502d"/>
      </g>
    </g>
    <g id="by" data-name="&amp;lt;径向重复&amp;gt;">
      <g id="bz" data-name="&amp;lt;径向重复&amp;gt;">
        <polygon points="24.99 64.94 111.98 125.35 14.83 83.19 24.99 64.94" fill="#e9502d"/>
      </g>
    </g>
    <g id="ca" data-name="&amp;lt;径向重复&amp;gt;">
      <g id="cb" data-name="&amp;lt;径向重复&amp;gt;">
        <polygon points="60.65 28 119.94 115.76 44.58 41.35 60.65 28" fill="#e9502d"/>
      </g>
    </g>
    <g id="cc" data-name="&amp;lt;径向重复&amp;gt;">
      <g id="cd" data-name="&amp;lt;径向重复&amp;gt;">
        <polygon points="107.24 6.44 130.83 109.69 87.44 13.08 107.24 6.44" fill="#e9502d"/>
      </g>
    </g>
    <g id="ce" data-name="&amp;lt;径向重复&amp;gt;">
      <g id="cf" data-name="&amp;lt;径向重复&amp;gt;">
        <polygon points="158.48 3.17 143.18 107.96 137.61 2.2 158.48 3.17" fill="#e9502d"/>
      </g>
    </g>
    <g id="cg" data-name="&amp;lt;径向重复&amp;gt;">
      <g id="ch" data-name="&amp;lt;径向重复&amp;gt;">
        <polygon points="207.44 18.62 155.31 110.81 188.33 10.18 207.44 18.62" fill="#e9502d"/>
      </g>
    </g>
  </g>
</svg>