<?xml version="1.0" encoding="UTF-8"?>
<svg id="a" data-name="图层 1" xmlns="http://www.w3.org/2000/svg" width="100mm" height="100mm" viewBox="0 0 283.46 283.46">
  <g>
    <g id="b" data-name="&amp;lt;径向重复&amp;gt;">
      <polygon points="138.67 283.46 141.73 184.76 144.8 283.46 138.67 283.46" fill="#e9502d"/>
    </g>
    <g id="c" data-name="&amp;lt;径向重复&amp;gt;">
      <polygon points="98.86 276.86 129.61 183.02 104.74 278.59 98.86 276.86" fill="#e9502d"/>
    </g>
    <g id="d" data-name="&amp;lt;径向重复&amp;gt;">
      <polygon points="62.53 259.31 118.47 177.93 67.68 262.62 62.53 259.31" fill="#e9502d"/>
    </g>
    <g id="e" data-name="&amp;lt;径向重复&amp;gt;">
      <polygon points="32.61 232.23 109.21 169.91 36.63 236.86 32.61 232.23" fill="#e9502d"/>
    </g>
    <g id="f" data-name="&amp;lt;径向重复&amp;gt;">
      <polygon points="11.53 197.82 102.59 159.61 14.08 203.4 11.53 197.82" fill="#e9502d"/>
    </g>
    <g id="g" data-name="&amp;lt;径向重复&amp;gt;">
      <polygon points="1.01 158.87 99.14 147.86 1.88 164.94 1.01 158.87" fill="#e9502d"/>
    </g>
    <g id="h" data-name="&amp;lt;径向重复&amp;gt;">
      <polygon points="1.88 118.53 99.14 135.61 1.01 124.6 1.88 118.53" fill="#e9502d"/>
    </g>
    <g id="i" data-name="&amp;lt;径向重复&amp;gt;">
      <polygon points="14.08 80.07 102.59 123.86 11.53 85.64 14.08 80.07" fill="#e9502d"/>
    </g>
    <g id="j" data-name="&amp;lt;径向重复&amp;gt;">
      <polygon points="36.63 46.6 109.21 113.55 32.61 51.23 36.63 46.6" fill="#e9502d"/>
    </g>
    <g id="k" data-name="&amp;lt;径向重复&amp;gt;">
      <polygon points="67.68 20.84 118.47 105.53 62.53 24.16 67.68 20.84" fill="#e9502d"/>
    </g>
    <g id="l" data-name="&amp;lt;径向重复&amp;gt;">
      <polygon points="104.74 4.88 129.61 100.44 98.86 6.6 104.74 4.88" fill="#e9502d"/>
    </g>
    <g id="m" data-name="&amp;lt;径向重复&amp;gt;">
      <polygon points="144.8 0 141.73 98.7 138.67 0 144.8 0" fill="#e9502d"/>
    </g>
    <g id="n" data-name="&amp;lt;径向重复&amp;gt;">
      <polygon points="184.6 6.6 153.86 100.44 178.72 4.88 184.6 6.6" fill="#e9502d"/>
    </g>
    <g id="o" data-name="&amp;lt;径向重复&amp;gt;">
      <polygon points="220.94 24.16 165 105.53 215.78 20.84 220.94 24.16" fill="#e9502d"/>
    </g>
    <g id="p" data-name="&amp;lt;径向重复&amp;gt;">
      <polygon points="250.85 51.23 174.25 113.55 246.84 46.6 250.85 51.23" fill="#e9502d"/>
    </g>
    <g id="q" data-name="&amp;lt;径向重复&amp;gt;">
      <polygon points="271.93 85.64 180.87 123.86 269.38 80.07 271.93 85.64" fill="#e9502d"/>
    </g>
    <g id="r" data-name="&amp;lt;径向重复&amp;gt;">
      <polygon points="282.46 124.6 184.33 135.61 281.59 118.53 282.46 124.6" fill="#e9502d"/>
    </g>
    <g id="s" data-name="&amp;lt;径向重复&amp;gt;">
      <polygon points="281.59 164.94 184.33 147.86 282.46 158.87 281.59 164.94" fill="#e9502d"/>
    </g>
    <g id="t" data-name="&amp;lt;径向重复&amp;gt;">
      <polygon points="269.38 203.4 180.87 159.61 271.93 197.82 269.38 203.4" fill="#e9502d"/>
    </g>
    <g id="u" data-name="&amp;lt;径向重复&amp;gt;">
      <polygon points="246.84 236.86 174.25 169.91 250.85 232.23 246.84 236.86" fill="#e9502d"/>
    </g>
    <g id="v" data-name="&amp;lt;径向重复&amp;gt;">
      <polygon points="215.78 262.62 165 177.93 220.94 259.31 215.78 262.62" fill="#e9502d"/>
    </g>
    <g id="w" data-name="&amp;lt;径向重复&amp;gt;">
      <polygon points="178.72 278.59 153.86 183.02 184.6 276.86 178.72 278.59" fill="#e9502d"/>
    </g>
  </g>
  <g>
    <g id="x" data-name="&amp;lt;径向重复&amp;gt;">
      <g id="y" data-name="&amp;lt;径向重复&amp;gt;">
        <path d="M141.73,180.72c-1.6,0-2.85-1.54-2.65-3.29.39-3.47.78-6.94,1.16-10.42.43-3.83.86-7.67,1.28-11.5.01-.11.1-.2.2-.2.09,0,.19.07.2.2l2.45,21.92c.2,1.75-1.05,3.29-2.65,3.29Z" fill="#ef7c2c"/>
      </g>
    </g>
    <g id="z" data-name="&amp;lt;径向重复&amp;gt;">
      <g id="aa" data-name="&amp;lt;径向重复&amp;gt;">
        <path d="M129.69,178.81c-1.53-.5-2.23-2.35-1.5-3.95,1.44-3.18,2.88-6.36,4.32-9.55,1.59-3.51,3.18-7.03,4.78-10.54.05-.1.16-.16.26-.13.09.03.16.12.13.25l-4.45,21.6c-.35,1.72-2.01,2.81-3.54,2.31Z" fill="#ef7c2c"/>
      </g>
    </g>
    <g id="ab" data-name="&amp;lt;径向重复&amp;gt;">
      <g id="ac" data-name="&amp;lt;径向重复&amp;gt;">
        <path d="M118.82,173.27c-1.3-.94-1.4-2.92-.21-4.22,2.35-2.58,4.71-5.16,7.06-7.74,2.6-2.85,5.2-5.7,7.8-8.55.08-.08.2-.1.28-.04.08.06.11.16.05.28l-10.9,19.17c-.87,1.53-2.78,2.05-4.08,1.11Z" fill="#ef7c2c"/>
      </g>
    </g>
    <g id="ad" data-name="&amp;lt;径向重复&amp;gt;">
      <g id="ae" data-name="&amp;lt;径向重复&amp;gt;">
        <path d="M110.19,164.65c-.94-1.3-.42-3.21,1.11-4.08,3.04-1.73,6.07-3.45,9.11-5.18,3.35-1.91,6.71-3.81,10.06-5.72.1-.06.22-.04.28.05.06.08.06.19-.04.28l-16.29,14.86c-1.3,1.19-3.28,1.09-4.22-.21Z" fill="#ef7c2c"/>
      </g>
    </g>
    <g id="af" data-name="&amp;lt;径向重复&amp;gt;">
      <g id="ag" data-name="&amp;lt;径向重复&amp;gt;">
        <path d="M104.66,153.78c-.5-1.53.59-3.18,2.31-3.54,3.42-.7,6.84-1.41,10.26-2.11,3.78-.78,7.56-1.56,11.34-2.33.11-.02.22.03.25.13.03.09,0,.2-.13.26l-20.09,9.1c-1.6.73-3.46.02-3.95-1.5Z" fill="#ef7c2c"/>
      </g>
    </g>
    <g id="ah" data-name="&amp;lt;径向重复&amp;gt;">
      <g id="ai" data-name="&amp;lt;径向重复&amp;gt;">
        <path d="M102.75,141.73c0-1.6,1.54-2.85,3.29-2.65,3.47.39,6.94.78,10.42,1.16,3.83.43,7.67.86,11.5,1.28.11.01.2.1.2.2,0,.09-.07.19-.2.2l-21.92,2.45c-1.75.2-3.29-1.05-3.29-2.65Z" fill="#ef7c2c"/>
      </g>
    </g>
    <g id="aj" data-name="&amp;lt;径向重复&amp;gt;">
      <g id="ak" data-name="&amp;lt;径向重复&amp;gt;">
        <path d="M104.66,129.69c.5-1.53,2.35-2.23,3.95-1.5,3.18,1.44,6.36,2.88,9.55,4.32,3.51,1.59,7.03,3.18,10.54,4.78.1.05.16.16.13.26-.03.09-.12.16-.25.13l-21.6-4.45c-1.72-.35-2.81-2.01-2.31-3.54Z" fill="#ef7c2c"/>
      </g>
    </g>
    <g id="al" data-name="&amp;lt;径向重复&amp;gt;">
      <g id="am" data-name="&amp;lt;径向重复&amp;gt;">
        <path d="M110.19,118.82c.94-1.3,2.92-1.4,4.22-.21,2.58,2.35,5.16,4.71,7.74,7.06,2.85,2.6,5.7,5.2,8.55,7.8.08.08.1.2.04.28-.06.08-.16.11-.28.05l-19.17-10.9c-1.53-.87-2.05-2.78-1.11-4.08Z" fill="#ef7c2c"/>
      </g>
    </g>
    <g id="an" data-name="&amp;lt;径向重复&amp;gt;">
      <g id="ao" data-name="&amp;lt;径向重复&amp;gt;">
        <path d="M118.82,110.19c1.3-.94,3.21-.42,4.08,1.11,1.73,3.04,3.45,6.07,5.18,9.11,1.91,3.35,3.81,6.71,5.72,10.06.06.1.04.22-.05.28-.08.06-.19.06-.28-.04l-14.86-16.29c-1.19-1.3-1.09-3.28.21-4.22Z" fill="#ef7c2c"/>
      </g>
    </g>
    <g id="ap" data-name="&amp;lt;径向重复&amp;gt;">
      <g id="aq" data-name="&amp;lt;径向重复&amp;gt;">
        <path d="M129.69,104.66c1.53-.5,3.18.59,3.54,2.31.7,3.42,1.41,6.84,2.11,10.26.78,3.78,1.56,7.56,2.33,11.34.02.11-.03.22-.13.25-.09.03-.2,0-.26-.13l-9.1-20.09c-.73-1.6-.02-3.46,1.5-3.95Z" fill="#ef7c2c"/>
      </g>
    </g>
    <g id="ar" data-name="&amp;lt;径向重复&amp;gt;">
      <g id="as" data-name="&amp;lt;径向重复&amp;gt;">
        <path d="M141.73,102.75c1.6,0,2.85,1.54,2.65,3.29-.39,3.47-.78,6.94-1.16,10.42-.43,3.83-.86,7.67-1.28,11.5-.01.11-.1.2-.2.2-.09,0-.19-.07-.2-.2l-2.45-21.92c-.2-1.75,1.05-3.29,2.65-3.29Z" fill="#ef7c2c"/>
      </g>
    </g>
    <g id="at" data-name="&amp;lt;径向重复&amp;gt;">
      <g id="au" data-name="&amp;lt;径向重复&amp;gt;">
        <path d="M153.78,104.66c1.53.5,2.23,2.35,1.5,3.95-1.44,3.18-2.88,6.36-4.32,9.55-1.59,3.51-3.18,7.03-4.78,10.54-.05.1-.16.16-.26.13-.09-.03-.16-.12-.13-.25l4.45-21.6c.35-1.72,2.01-2.81,3.54-2.31Z" fill="#ef7c2c"/>
      </g>
    </g>
    <g id="av" data-name="&amp;lt;径向重复&amp;gt;">
      <g id="aw" data-name="&amp;lt;径向重复&amp;gt;">
        <path d="M164.65,110.19c1.3.94,1.4,2.92.21,4.22-2.35,2.58-4.71,5.16-7.06,7.74-2.6,2.85-5.2,5.7-7.8,8.55-.08.08-.2.1-.28.04-.08-.06-.11-.16-.05-.28l10.9-19.17c.87-1.53,2.78-2.05,4.08-1.11Z" fill="#ef7c2c"/>
      </g>
    </g>
    <g id="ax" data-name="&amp;lt;径向重复&amp;gt;">
      <g id="ay" data-name="&amp;lt;径向重复&amp;gt;">
        <path d="M173.27,118.82c.94,1.3.42,3.21-1.11,4.08-3.04,1.73-6.07,3.45-9.11,5.18-3.35,1.91-6.71,3.81-10.06,5.72-.1.06-.22.04-.28-.05-.06-.08-.06-.19.04-.28l16.29-14.86c1.3-1.19,3.28-1.09,4.22.21Z" fill="#ef7c2c"/>
      </g>
    </g>
    <g id="az" data-name="&amp;lt;径向重复&amp;gt;">
      <g id="ba" data-name="&amp;lt;径向重复&amp;gt;">
        <path d="M178.81,129.69c.5,1.53-.59,3.18-2.31,3.54-3.42.7-6.84,1.41-10.26,2.11-3.78.78-7.56,1.56-11.34,2.33-.11.02-.22-.03-.25-.13-.03-.09,0-.2.13-.26l20.09-9.1c1.6-.73,3.46-.02,3.95,1.5Z" fill="#ef7c2c"/>
      </g>
    </g>
    <g id="bb" data-name="&amp;lt;径向重复&amp;gt;">
      <g id="bc" data-name="&amp;lt;径向重复&amp;gt;">
        <path d="M180.72,141.73c0,1.6-1.54,2.85-3.29,2.65-3.47-.39-6.94-.78-10.42-1.16-3.83-.43-7.67-.86-11.5-1.28-.11-.01-.2-.1-.2-.2,0-.09.07-.19.2-.2l21.92-2.45c1.75-.2,3.29,1.05,3.29,2.65Z" fill="#ef7c2c"/>
      </g>
    </g>
    <g id="bd" data-name="&amp;lt;径向重复&amp;gt;">
      <g id="be" data-name="&amp;lt;径向重复&amp;gt;">
        <path d="M178.81,153.78c-.5,1.53-2.35,2.23-3.95,1.5-3.18-1.44-6.36-2.88-9.55-4.32-3.51-1.59-7.03-3.18-10.54-4.78-.1-.05-.16-.16-.13-.26.03-.09.12-.16.25-.13l21.6,4.45c1.72.35,2.81,2.01,2.31,3.54Z" fill="#ef7c2c"/>
      </g>
    </g>
    <g id="bf" data-name="&amp;lt;径向重复&amp;gt;">
      <g id="bg" data-name="&amp;lt;径向重复&amp;gt;">
        <path d="M173.27,164.65c-.94,1.3-2.92,1.4-4.22.21-2.58-2.35-5.16-4.71-7.74-7.06-2.85-2.6-5.7-5.2-8.55-7.8-.08-.08-.1-.2-.04-.28.06-.08.16-.11.28-.05l19.17,10.9c1.53.87,2.05,2.78,1.11,4.08Z" fill="#ef7c2c"/>
      </g>
    </g>
    <g id="bh" data-name="&amp;lt;径向重复&amp;gt;">
      <g id="bi" data-name="&amp;lt;径向重复&amp;gt;">
        <path d="M164.65,173.27c-1.3.94-3.21.42-4.08-1.11-1.73-3.04-3.45-6.07-5.18-9.11-1.91-3.35-3.81-6.71-5.72-10.06-.06-.1-.04-.22.05-.28.08-.06.19-.06.28.04l14.86,16.29c1.19,1.3,1.09,3.28-.21,4.22Z" fill="#ef7c2c"/>
      </g>
    </g>
    <g id="bj" data-name="&amp;lt;径向重复&amp;gt;">
      <g id="bk" data-name="&amp;lt;径向重复&amp;gt;">
        <path d="M153.78,178.81c-1.53.5-3.18-.59-3.54-2.31-.7-3.42-1.41-6.84-2.11-10.26-.78-3.78-1.56-7.56-2.33-11.34-.02-.11.03-.22.13-.25.09-.03.2,0,.26.13l9.1,20.09c.73,1.6.02,3.46-1.5,3.95Z" fill="#ef7c2c"/>
      </g>
    </g>
  </g>
  <g>
    <g id="bl" data-name="&amp;lt;径向重复&amp;gt;">
      <g id="bm" data-name="&amp;lt;径向重复&amp;gt;">
        <path d="M281.26,141.73c0,6.76-5.39,12-11.49,11.18-12.11-1.63-24.23-3.27-36.34-4.9-13.38-1.8-26.76-3.61-40.14-5.41-.39-.05-.69-.42-.69-.86,0-.4.23-.8.69-.86l76.48-10.32c6.11-.82,11.49,4.41,11.49,11.18Z" fill="#f9c97d"/>
      </g>
    </g>
    <g id="bn" data-name="&amp;lt;径向重复&amp;gt;">
      <g id="bo" data-name="&amp;lt;径向重复&amp;gt;">
        <path d="M275.61,181.04c-1.91,6.49-8.55,10-14.18,7.49-11.16-4.98-22.32-9.96-33.49-14.94-12.33-5.5-24.66-11-36.98-16.5-.36-.16-.54-.6-.42-1.02.11-.38.45-.7.91-.63l76.28,11.65c6.09.93,9.78,7.47,7.88,13.96Z" fill="#f9c97d"/>
      </g>
    </g>
    <g id="bp" data-name="&amp;lt;径向重复&amp;gt;">
      <g id="bq" data-name="&amp;lt;径向重复&amp;gt;">
        <path d="M259.11,217.17c-3.66,5.69-11.02,7.18-15.71,3.19-9.31-7.92-18.61-15.85-27.92-23.77-10.28-8.75-20.56-17.5-30.84-26.25-.3-.26-.35-.73-.12-1.1.22-.34.63-.55,1.05-.35l69.91,32.67c5.58,2.61,7.28,9.93,3.62,15.62Z" fill="#f9c97d"/>
      </g>
    </g>
    <g id="br" data-name="&amp;lt;径向重复&amp;gt;">
      <g id="bs" data-name="&amp;lt;径向重复&amp;gt;">
        <path d="M233.11,247.18c-5.11,4.43-12.6,3.79-15.97-1.37-6.7-10.22-13.4-20.45-20.09-30.67-7.4-11.29-14.79-22.59-22.19-33.88-.22-.33-.13-.8.2-1.09.3-.26.75-.35,1.1-.04l57.88,51.04c4.62,4.08,4.19,11.58-.92,16Z" fill="#f9c97d"/>
      </g>
    </g>
    <g id="bt" data-name="&amp;lt;径向重复&amp;gt;">
      <g id="bu" data-name="&amp;lt;径向重复&amp;gt;">
        <path d="M199.69,268.65c-6.15,2.81-13.15.09-14.94-5.81-3.55-11.7-7.09-23.4-10.64-35.09-3.92-12.92-7.83-25.84-11.75-38.76-.12-.38.1-.81.49-.99.36-.17.82-.12,1.07.27l41.15,65.28c3.29,5.21.76,12.29-5.39,15.1Z" fill="#f9c97d"/>
      </g>
    </g>
    <g id="bv" data-name="&amp;lt;径向重复&amp;gt;">
      <g id="bw" data-name="&amp;lt;径向重复&amp;gt;">
        <path d="M161.59,279.84c-6.69.96-12.64-3.62-12.7-9.78-.11-12.22-.21-24.45-.32-36.67-.12-13.5-.23-27-.35-40.5,0-.4.32-.75.75-.81.4-.06.82.11.95.56l21.1,74.23c1.68,5.93-2.73,12-9.43,12.97Z" fill="#f9c97d"/>
      </g>
    </g>
    <g id="bx" data-name="&amp;lt;径向重复&amp;gt;">
      <g id="by" data-name="&amp;lt;径向重复&amp;gt;">
        <path d="M121.87,279.84c-6.69-.96-11.11-7.04-9.43-12.97,3.34-11.76,6.68-23.52,10.02-35.27,3.69-12.99,7.38-25.97,11.07-38.96.11-.38.52-.62.95-.56.4.06.76.34.75.81l-.67,77.17c-.05,6.16-6,10.75-12.7,9.78Z" fill="#f9c97d"/>
      </g>
    </g>
    <g id="bz" data-name="&amp;lt;径向重复&amp;gt;">
      <g id="ca" data-name="&amp;lt;径向重复&amp;gt;">
        <path d="M83.77,268.65c-6.15-2.81-8.68-9.88-5.39-15.1,6.52-10.34,13.04-20.68,19.56-31.02,7.2-11.42,14.4-22.84,21.6-34.26.21-.34.67-.45,1.07-.27.36.17.63.54.5.99l-22.38,73.85c-1.79,5.9-8.79,8.62-14.94,5.81Z" fill="#f9c97d"/>
      </g>
    </g>
    <g id="cb" data-name="&amp;lt;径向重复&amp;gt;">
      <g id="cc" data-name="&amp;lt;径向重复&amp;gt;">
        <path d="M50.36,247.18c-5.11-4.43-5.54-11.93-.92-16,9.17-8.08,18.34-16.17,27.5-24.25,10.12-8.93,20.25-17.86,30.37-26.79.3-.26.77-.25,1.1.04.3.26.45.7.2,1.09l-42.28,64.55c-3.38,5.15-10.86,5.79-15.97,1.37Z" fill="#f9c97d"/>
      </g>
    </g>
    <g id="cd" data-name="&amp;lt;径向重复&amp;gt;">
      <g id="ce" data-name="&amp;lt;径向重复&amp;gt;">
        <path d="M24.35,217.17c-3.66-5.69-1.96-13.01,3.63-15.62,11.07-5.17,22.15-10.35,33.22-15.52,12.23-5.71,24.46-11.43,36.69-17.14.36-.17.81-.02,1.05.35.22.34.24.8-.12,1.1l-58.76,50.02c-4.69,3.99-12.05,2.5-15.71-3.19Z" fill="#f9c97d"/>
      </g>
    </g>
    <g id="cf" data-name="&amp;lt;径向重复&amp;gt;">
      <g id="cg" data-name="&amp;lt;径向重复&amp;gt;">
        <path d="M7.85,181.04c-1.91-6.49,1.79-13.03,7.88-13.96,12.08-1.84,24.17-3.69,36.25-5.53,13.34-2.04,26.69-4.07,40.03-6.11.39-.06.78.21.91.63.11.38,0,.83-.42,1.02l-70.47,31.44c-5.63,2.51-12.27-1-14.18-7.49Z" fill="#f9c97d"/>
      </g>
    </g>
    <g id="ch" data-name="&amp;lt;径向重复&amp;gt;">
      <g id="ci" data-name="&amp;lt;径向重复&amp;gt;">
        <path d="M2.2,141.73c0-6.76,5.39-12,11.49-11.18,12.11,1.63,24.23,3.27,36.34,4.9,13.38,1.8,26.76,3.61,40.14,5.41.39.05.69.42.69.86,0,.4-.23.8-.69.86l-76.48,10.32c-6.11.82-11.49-4.41-11.49-11.18Z" fill="#f9c97d"/>
      </g>
    </g>
    <g id="cj" data-name="&amp;lt;径向重复&amp;gt;">
      <g id="ck" data-name="&amp;lt;径向重复&amp;gt;">
        <path d="M7.85,102.42c1.91-6.49,8.55-10,14.18-7.49,11.16,4.98,22.32,9.96,33.49,14.94,12.33,5.5,24.66,11,36.98,16.5.36.16.54.6.42,1.02-.11.38-.45.7-.91.63l-76.28-11.65c-6.09-.93-9.78-7.47-7.88-13.96Z" fill="#f9c97d"/>
      </g>
    </g>
    <g id="cl" data-name="&amp;lt;径向重复&amp;gt;">
      <g id="cm" data-name="&amp;lt;径向重复&amp;gt;">
        <path d="M24.35,66.3c3.66-5.69,11.02-7.18,15.71-3.19,9.31,7.92,18.61,15.85,27.92,23.77,10.28,8.75,20.56,17.5,30.84,26.25.3.26.35.73.12,1.1-.22.34-.63.55-1.05.35L27.98,81.91c-5.58-2.61-7.28-9.93-3.62-15.62Z" fill="#f9c97d"/>
      </g>
    </g>
    <g id="cn" data-name="&amp;lt;径向重复&amp;gt;">
      <g id="co" data-name="&amp;lt;径向重复&amp;gt;">
        <path d="M50.36,36.28c5.11-4.43,12.6-3.79,15.97,1.37,6.7,10.22,13.4,20.45,20.09,30.67,7.4,11.29,14.79,22.59,22.19,33.88.22.33.13.8-.2,1.09-.3.26-.75.35-1.1.04l-57.88-51.04c-4.62-4.08-4.19-11.58.92-16Z" fill="#f9c97d"/>
      </g>
    </g>
    <g id="cp" data-name="&amp;lt;径向重复&amp;gt;">
      <g id="cq" data-name="&amp;lt;径向重复&amp;gt;">
        <path d="M83.77,14.81c6.15-2.81,13.15-.09,14.94,5.81,3.55,11.7,7.09,23.4,10.64,35.09,3.92,12.92,7.83,25.84,11.75,38.76.12.38-.1.81-.49.99-.36.17-.82.12-1.07-.27L78.38,29.91c-3.29-5.21-.76-12.29,5.39-15.1Z" fill="#f9c97d"/>
      </g>
    </g>
    <g id="cr" data-name="&amp;lt;径向重复&amp;gt;">
      <g id="cs" data-name="&amp;lt;径向重复&amp;gt;">
        <path d="M121.88,3.62c6.69-.96,12.64,3.62,12.7,9.78.11,12.22.21,24.45.32,36.67.12,13.5.23,27,.35,40.5,0,.4-.32.75-.75.81-.4.06-.82-.11-.95-.56l-21.1-74.23c-1.68-5.93,2.73-12,9.43-12.97Z" fill="#f9c97d"/>
      </g>
    </g>
    <g id="ct" data-name="&amp;lt;径向重复&amp;gt;">
      <g id="cu" data-name="&amp;lt;径向重复&amp;gt;">
        <path d="M161.59,3.62c6.69.96,11.11,7.04,9.43,12.97-3.34,11.76-6.68,23.52-10.02,35.27-3.69,12.99-7.38,25.97-11.07,38.96-.11.38-.52.62-.95.56-.4-.06-.76-.34-.75-.81l.67-77.17c.05-6.16,6-10.75,12.7-9.78Z" fill="#f9c97d"/>
      </g>
    </g>
    <g id="cv" data-name="&amp;lt;径向重复&amp;gt;">
      <g id="cw" data-name="&amp;lt;径向重复&amp;gt;">
        <path d="M199.7,14.81c6.15,2.81,8.68,9.88,5.39,15.1-6.52,10.34-13.04,20.68-19.56,31.02-7.2,11.42-14.4,22.84-21.6,34.26-.21.34-.67.45-1.07.27-.36-.17-.63-.54-.5-.99l22.38-73.85c1.79-5.9,8.79-8.62,14.94-5.81Z" fill="#f9c97d"/>
      </g>
    </g>
    <g id="cx" data-name="&amp;lt;径向重复&amp;gt;">
      <g id="cy" data-name="&amp;lt;径向重复&amp;gt;">
        <path d="M233.11,36.28c5.11,4.43,5.54,11.93.92,16-9.17,8.08-18.34,16.17-27.5,24.25-10.12,8.93-20.25,17.86-30.37,26.79-.3.26-.77.25-1.1-.04-.3-.26-.45-.7-.2-1.09l42.28-64.55c3.38-5.15,10.86-5.79,15.97-1.37Z" fill="#f9c97d"/>
      </g>
    </g>
    <g id="cz" data-name="&amp;lt;径向重复&amp;gt;">
      <g id="da" data-name="&amp;lt;径向重复&amp;gt;">
        <path d="M259.11,66.3c3.66,5.69,1.96,13.01-3.63,15.62-11.07,5.17-22.15,10.35-33.22,15.52-12.23,5.71-24.46,11.43-36.69,17.14-.36.17-.81.02-1.05-.35-.22-.34-.24-.8.12-1.1l58.76-50.02c4.69-3.99,12.05-2.5,15.71,3.19Z" fill="#f9c97d"/>
      </g>
    </g>
    <g id="db" data-name="&amp;lt;径向重复&amp;gt;">
      <g id="dc" data-name="&amp;lt;径向重复&amp;gt;">
        <path d="M275.61,102.42c1.91,6.49-1.79,13.03-7.88,13.96-12.08,1.84-24.17,3.69-36.25,5.53-13.34,2.04-26.69,4.07-40.03,6.11-.39.06-.78-.21-.91-.63-.11-.38,0-.83.42-1.02l70.47-31.44c5.63-2.51,12.27,1,14.18,7.49Z" fill="#f9c97d"/>
      </g>
    </g>
  </g>
</svg>