<?xml version="1.0" encoding="UTF-8"?>
<svg id="a" data-name="图层 1" xmlns="http://www.w3.org/2000/svg" width="100mm" height="100mm" viewBox="0 0 283.46 283.46">
  <g>
    <g id="b" data-name="&amp;lt;径向重复&amp;gt;">
      <polygon points="138.93 259.92 141.73 177.62 144.53 259.92 138.93 259.92" fill="#e9502d"/>
    </g>
    <g id="c" data-name="&amp;lt;径向重复&amp;gt;">
      <polygon points="105.75 254.35 131.62 176.16 111.12 255.92 105.75 254.35" fill="#e9502d"/>
    </g>
    <g id="d" data-name="&amp;lt;径向重复&amp;gt;">
      <polygon points="75.48 239.65 122.33 171.92 80.19 242.67 75.48 239.65" fill="#e9502d"/>
    </g>
    <g id="e" data-name="&amp;lt;径向重复&amp;gt;">
      <polygon points="50.58 217.01 114.61 165.23 54.24 221.24 50.58 217.01" fill="#e9502d"/>
    </g>
    <g id="f" data-name="&amp;lt;径向重复&amp;gt;">
      <polygon points="33.06 188.28 109.09 156.64 35.39 193.38 33.06 188.28" fill="#e9502d"/>
    </g>
    <g id="g" data-name="&amp;lt;径向重复&amp;gt;">
      <polygon points="24.35 155.78 106.21 146.84 25.14 161.32 24.35 155.78" fill="#e9502d"/>
    </g>
    <g id="h" data-name="&amp;lt;径向重复&amp;gt;">
      <polygon points="25.14 122.14 106.21 136.63 24.35 127.68 25.14 122.14" fill="#e9502d"/>
    </g>
    <g id="i" data-name="&amp;lt;径向重复&amp;gt;">
      <polygon points="35.39 90.09 109.09 126.83 33.06 95.18 35.39 90.09" fill="#e9502d"/>
    </g>
    <g id="j" data-name="&amp;lt;径向重复&amp;gt;">
      <polygon points="54.24 62.22 114.61 118.23 50.58 66.45 54.24 62.22" fill="#e9502d"/>
    </g>
    <g id="k" data-name="&amp;lt;径向重复&amp;gt;">
      <polygon points="80.19 40.79 122.33 111.55 75.48 43.82 80.19 40.79" fill="#e9502d"/>
    </g>
    <g id="l" data-name="&amp;lt;径向重复&amp;gt;">
      <polygon points="111.12 27.54 131.62 107.3 105.75 29.12 111.12 27.54" fill="#e9502d"/>
    </g>
    <g id="m" data-name="&amp;lt;径向重复&amp;gt;">
      <polygon points="144.53 23.54 141.73 105.85 138.93 23.54 144.53 23.54" fill="#e9502d"/>
    </g>
    <g id="n" data-name="&amp;lt;径向重复&amp;gt;">
      <polygon points="177.72 29.12 151.84 107.3 172.34 27.54 177.72 29.12" fill="#e9502d"/>
    </g>
    <g id="o" data-name="&amp;lt;径向重复&amp;gt;">
      <polygon points="207.98 43.82 161.13 111.55 203.28 40.79 207.98 43.82" fill="#e9502d"/>
    </g>
    <g id="p" data-name="&amp;lt;径向重复&amp;gt;">
      <polygon points="232.89 66.45 168.85 118.23 229.22 62.22 232.89 66.45" fill="#e9502d"/>
    </g>
    <g id="q" data-name="&amp;lt;径向重复&amp;gt;">
      <polygon points="250.4 95.18 174.37 126.83 248.08 90.09 250.4 95.18" fill="#e9502d"/>
    </g>
    <g id="r" data-name="&amp;lt;径向重复&amp;gt;">
      <polygon points="259.12 127.68 177.25 136.63 258.32 122.14 259.12 127.68" fill="#e9502d"/>
    </g>
    <g id="s" data-name="&amp;lt;径向重复&amp;gt;">
      <polygon points="258.32 161.32 177.25 146.84 259.12 155.78 258.32 161.32" fill="#e9502d"/>
    </g>
    <g id="t" data-name="&amp;lt;径向重复&amp;gt;">
      <polygon points="248.08 193.38 174.37 156.64 250.4 188.28 248.08 193.38" fill="#e9502d"/>
    </g>
    <g id="u" data-name="&amp;lt;径向重复&amp;gt;">
      <polygon points="229.22 221.24 168.85 165.23 232.89 217.01 229.22 221.24" fill="#e9502d"/>
    </g>
    <g id="v" data-name="&amp;lt;径向重复&amp;gt;">
      <polygon points="203.28 242.67 161.13 171.92 207.98 239.65 203.28 242.67" fill="#e9502d"/>
    </g>
    <g id="w" data-name="&amp;lt;径向重复&amp;gt;">
      <polygon points="172.34 255.92 151.84 176.16 177.71 254.35 172.34 255.92" fill="#e9502d"/>
    </g>
  </g>
  <g>
    <g id="x" data-name="&amp;lt;径向重复&amp;gt;">
      <g id="y" data-name="&amp;lt;径向重复&amp;gt;">
        <path d="M2.2,141.73c0-3.29,5.98-5.83,12.75-5.43,13.44.79,26.88,1.59,40.32,2.38,14.84.88,29.69,1.75,44.53,2.63.44.03.77.21.77.42,0,.19-.26.39-.77.42l-84.85,5.01c-6.78.4-12.75-2.14-12.75-5.43Z" fill="#ef7c2c"/>
      </g>
    </g>
    <g id="z" data-name="&amp;lt;径向重复&amp;gt;">
      <g id="aa" data-name="&amp;lt;径向重复&amp;gt;">
        <path d="M7.85,102.42c.93-3.15,7.38-3.91,13.76-1.62,12.67,4.55,25.34,9.1,38.02,13.65,14,5.02,27.99,10.05,41.99,15.07.41.15.68.41.62.62-.05.19-.35.3-.85.18l-82.83-19.1c-6.61-1.52-11.63-5.65-10.7-8.8Z" fill="#ef7c2c"/>
      </g>
    </g>
    <g id="ab" data-name="&amp;lt;径向重复&amp;gt;">
      <g id="ac" data-name="&amp;lt;径向重复&amp;gt;">
        <path d="M24.35,66.3c1.78-2.76,8.18-1.68,13.66,2.32,10.88,7.93,21.76,15.87,32.63,23.8,12.01,8.76,24.03,17.53,36.04,26.29.35.26.53.59.42.77-.1.16-.43.19-.87-.06l-74.09-41.66c-5.92-3.33-9.57-8.7-7.79-11.46Z" fill="#ef7c2c"/>
      </g>
    </g>
    <g id="ad" data-name="&amp;lt;径向重复&amp;gt;">
      <g id="ae" data-name="&amp;lt;径向重复&amp;gt;">
        <path d="M50.36,36.28c2.48-2.15,8.32.7,12.45,6.08,8.2,10.68,16.4,21.36,24.6,32.03,9.06,11.79,18.12,23.59,27.17,35.38.27.35.35.72.19.85-.15.13-.46.06-.82-.31l-59.36-60.84c-4.74-4.86-6.73-11.04-4.25-13.19Z" fill="#ef7c2c"/>
      </g>
    </g>
    <g id="af" data-name="&amp;lt;径向重复&amp;gt;">
      <g id="ag" data-name="&amp;lt;径向重复&amp;gt;">
        <path d="M83.77,14.81c2.99-1.37,7.79,3.01,10.24,9.34,4.86,12.56,9.72,25.11,14.58,37.67,5.37,13.87,10.74,27.73,16.11,41.6.16.41.13.78-.06.87-.18.08-.46-.07-.7-.52L84.13,28.67c-3.18-6-3.35-12.49-.36-13.86Z" fill="#ef7c2c"/>
      </g>
    </g>
    <g id="ah" data-name="&amp;lt;径向重复&amp;gt;">
      <g id="ai" data-name="&amp;lt;径向重复&amp;gt;">
        <path d="M121.88,3.62c3.25-.47,6.62,5.08,7.19,11.85,1.13,13.42,2.25,26.83,3.38,40.25,1.24,14.82,2.49,29.64,3.73,44.45.04.44-.09.79-.3.82-.19.03-.42-.2-.52-.7l-17.04-83.28c-1.36-6.65.31-12.93,3.56-13.39Z" fill="#ef7c2c"/>
      </g>
    </g>
    <g id="aj" data-name="&amp;lt;径向重复&amp;gt;">
      <g id="ak" data-name="&amp;lt;径向重复&amp;gt;">
        <path d="M161.59,3.62c3.25.47,4.92,6.74,3.56,13.39-2.7,13.19-5.4,26.38-8.1,39.57-2.98,14.57-5.96,29.14-8.94,43.7-.09.43-.31.73-.52.7-.19-.03-.35-.31-.3-.82l7.11-84.7c.57-6.76,3.94-12.32,7.19-11.85Z" fill="#ef7c2c"/>
      </g>
    </g>
    <g id="al" data-name="&amp;lt;径向重复&amp;gt;">
      <g id="am" data-name="&amp;lt;径向重复&amp;gt;">
        <path d="M199.7,14.81c2.99,1.37,2.82,7.86-.36,13.85-6.31,11.9-12.61,23.79-18.92,35.69-6.96,13.14-13.93,26.28-20.89,39.41-.2.39-.51.61-.7.53-.18-.08-.25-.39-.06-.87l30.69-79.27c2.45-6.33,7.25-10.71,10.24-9.34Z" fill="#ef7c2c"/>
      </g>
    </g>
    <g id="an" data-name="&amp;lt;径向重复&amp;gt;">
      <g id="ao" data-name="&amp;lt;径向重复&amp;gt;">
        <path d="M233.11,36.28c2.48,2.15.49,8.33-4.25,13.19-9.4,9.64-18.8,19.28-28.21,28.91-10.38,10.64-20.77,21.29-31.15,31.93-.31.31-.66.45-.82.31-.15-.13-.13-.45.19-.85l51.78-67.41c4.13-5.38,9.97-8.23,12.45-6.08Z" fill="#ef7c2c"/>
      </g>
    </g>
    <g id="ap" data-name="&amp;lt;径向重复&amp;gt;">
      <g id="aq" data-name="&amp;lt;径向重复&amp;gt;">
        <path d="M259.11,66.3c1.78,2.76-1.87,8.14-7.79,11.46-11.74,6.6-23.47,13.2-35.21,19.8-12.96,7.29-25.92,14.57-38.89,21.86-.38.21-.76.24-.87.06-.1-.16,0-.46.42-.77l68.67-50.09c5.48-4,11.89-5.09,13.66-2.32Z" fill="#ef7c2c"/>
      </g>
    </g>
    <g id="ar" data-name="&amp;lt;径向重复&amp;gt;">
      <g id="as" data-name="&amp;lt;径向重复&amp;gt;">
        <path d="M275.61,102.42c.93,3.15-4.09,7.28-10.7,8.8-13.12,3.02-26.24,6.05-39.36,9.07-14.49,3.34-28.98,6.68-43.47,10.02-.43.1-.8.02-.85-.18-.05-.19.14-.44.62-.62l80-28.72c6.39-2.29,12.84-1.53,13.76,1.62Z" fill="#ef7c2c"/>
      </g>
    </g>
    <g id="at" data-name="&amp;lt;径向重复&amp;gt;">
      <g id="au" data-name="&amp;lt;径向重复&amp;gt;">
        <path d="M281.26,141.73c0,3.29-5.98,5.83-12.75,5.43-13.44-.79-26.88-1.59-40.32-2.38-14.84-.88-29.69-1.75-44.53-2.63-.44-.03-.77-.21-.77-.42,0-.19.26-.39.77-.42l84.85-5.01c6.78-.4,12.75,2.14,12.75,5.43Z" fill="#ef7c2c"/>
      </g>
    </g>
    <g id="av" data-name="&amp;lt;径向重复&amp;gt;">
      <g id="aw" data-name="&amp;lt;径向重复&amp;gt;">
        <path d="M275.61,181.04c-.93,3.15-7.38,3.91-13.76,1.62-12.67-4.55-25.34-9.1-38.02-13.65-14-5.02-27.99-10.05-41.99-15.07-.41-.15-.68-.41-.62-.62.05-.19.35-.3.85-.18l82.83,19.1c6.61,1.52,11.63,5.65,10.7,8.8Z" fill="#ef7c2c"/>
      </g>
    </g>
    <g id="ax" data-name="&amp;lt;径向重复&amp;gt;">
      <g id="ay" data-name="&amp;lt;径向重复&amp;gt;">
        <path d="M259.11,217.17c-1.78,2.76-8.18,1.68-13.66-2.32-10.88-7.93-21.76-15.87-32.63-23.8-12.01-8.76-24.03-17.53-36.04-26.29-.35-.26-.53-.59-.42-.77.1-.16.43-.19.87.06l74.09,41.66c5.92,3.33,9.57,8.7,7.79,11.46Z" fill="#ef7c2c"/>
      </g>
    </g>
    <g id="az" data-name="&amp;lt;径向重复&amp;gt;">
      <g id="ba" data-name="&amp;lt;径向重复&amp;gt;">
        <path d="M233.11,247.18c-2.48,2.15-8.32-.7-12.45-6.08-8.2-10.68-16.4-21.36-24.6-32.03-9.06-11.79-18.12-23.59-27.17-35.38-.27-.35-.35-.72-.19-.85.15-.13.46-.06.82.31l59.36,60.84c4.74,4.86,6.73,11.04,4.25,13.19Z" fill="#ef7c2c"/>
      </g>
    </g>
    <g id="bb" data-name="&amp;lt;径向重复&amp;gt;">
      <g id="bc" data-name="&amp;lt;径向重复&amp;gt;">
        <path d="M199.7,268.65c-2.99,1.37-7.79-3.01-10.24-9.34-4.86-12.56-9.72-25.11-14.58-37.67-5.37-13.87-10.74-27.73-16.11-41.6-.16-.41-.13-.78.06-.87.18-.08.46.07.7.52l39.81,75.1c3.18,6,3.35,12.49.36,13.86Z" fill="#ef7c2c"/>
      </g>
    </g>
    <g id="bd" data-name="&amp;lt;径向重复&amp;gt;">
      <g id="be" data-name="&amp;lt;径向重复&amp;gt;">
        <path d="M161.59,279.84c-3.25.47-6.62-5.08-7.19-11.85-1.13-13.42-2.25-26.83-3.38-40.25-1.24-14.82-2.49-29.64-3.73-44.45-.04-.44.09-.79.3-.82.19-.03.42.2.52.7l17.04,83.28c1.36,6.65-.31,12.93-3.56,13.39Z" fill="#ef7c2c"/>
      </g>
    </g>
    <g id="bf" data-name="&amp;lt;径向重复&amp;gt;">
      <g id="bg" data-name="&amp;lt;径向重复&amp;gt;">
        <path d="M121.88,279.84c-3.25-.47-4.92-6.74-3.56-13.39,2.7-13.19,5.4-26.38,8.1-39.57,2.98-14.57,5.96-29.14,8.94-43.7.09-.43.31-.73.52-.7.19.03.35.31.3.82l-7.11,84.7c-.57,6.76-3.94,12.32-7.19,11.85Z" fill="#ef7c2c"/>
      </g>
    </g>
    <g id="bh" data-name="&amp;lt;径向重复&amp;gt;">
      <g id="bi" data-name="&amp;lt;径向重复&amp;gt;">
        <path d="M83.77,268.65c-2.99-1.37-2.82-7.86.36-13.85,6.31-11.9,12.61-23.79,18.92-35.69,6.96-13.14,13.93-26.28,20.89-39.41.2-.39.51-.61.7-.53.18.08.25.39.06.87l-30.69,79.27c-2.45,6.33-7.25,10.71-10.24,9.34Z" fill="#ef7c2c"/>
      </g>
    </g>
    <g id="bj" data-name="&amp;lt;径向重复&amp;gt;">
      <g id="bk" data-name="&amp;lt;径向重复&amp;gt;">
        <path d="M50.36,247.18c-2.48-2.15-.49-8.33,4.25-13.19,9.4-9.64,18.8-19.28,28.21-28.91,10.38-10.64,20.77-21.29,31.15-31.93.31-.31.66-.45.82-.31.15.13.13.45-.19.85l-51.78,67.41c-4.13,5.38-9.97,8.23-12.45,6.08Z" fill="#ef7c2c"/>
      </g>
    </g>
    <g id="bl" data-name="&amp;lt;径向重复&amp;gt;">
      <g id="bm" data-name="&amp;lt;径向重复&amp;gt;">
        <path d="M24.35,217.17c-1.78-2.76,1.87-8.14,7.79-11.46,11.74-6.6,23.47-13.2,35.21-19.8,12.96-7.29,25.92-14.57,38.89-21.86.38-.21.76-.24.87-.06.1.16,0,.46-.42.77l-68.67,50.09c-5.48,4-11.89,5.09-13.66,2.32Z" fill="#ef7c2c"/>
      </g>
    </g>
    <g id="bn" data-name="&amp;lt;径向重复&amp;gt;">
      <g id="bo" data-name="&amp;lt;径向重复&amp;gt;">
        <path d="M7.85,181.04c-.93-3.15,4.09-7.28,10.7-8.8,13.12-3.02,26.24-6.05,39.36-9.07,14.49-3.34,28.98-6.68,43.47-10.02.43-.1.8-.02.85.18.05.19-.14.44-.62.62l-80,28.72c-6.39,2.29-12.84,1.53-13.76-1.62Z" fill="#ef7c2c"/>
      </g>
    </g>
  </g>
  <g>
    <g id="bp" data-name="&amp;lt;径向重复&amp;gt;">
      <g id="bq" data-name="&amp;lt;径向重复&amp;gt;">
        <path d="M141.73,196.24c-2.71,0-4.81-2.38-4.48-5.09.66-5.36,1.31-10.73,1.97-16.09.72-5.92,1.45-11.85,2.17-17.77.02-.17.17-.31.34-.31.16,0,.32.1.35.31l4.14,33.86c.33,2.7-1.77,5.09-4.48,5.09Z" fill="#f9c97d"/>
      </g>
    </g>
    <g id="br" data-name="&amp;lt;径向重复&amp;gt;">
      <g id="bs" data-name="&amp;lt;径向重复&amp;gt;">
        <path d="M126.38,194.03c-2.6-.76-3.95-3.64-2.87-6.14,2.14-4.96,4.28-9.92,6.42-14.88,2.36-5.48,4.73-10.96,7.09-16.44.07-.16.25-.25.42-.2.15.05.28.19.24.39l-5.57,33.65c-.44,2.69-3.13,4.38-5.74,3.62Z" fill="#f9c97d"/>
      </g>
    </g>
    <g id="bt" data-name="&amp;lt;径向重复&amp;gt;">
      <g id="bu" data-name="&amp;lt;径向重复&amp;gt;">
        <path d="M112.26,187.59c-2.28-1.47-2.76-4.61-1.02-6.7,3.45-4.16,6.9-8.31,10.35-12.47,3.81-4.59,7.62-9.18,11.43-13.77.11-.13.31-.17.46-.07.13.09.21.26.12.44l-14.82,30.72c-1.18,2.45-4.24,3.32-6.52,1.86Z" fill="#f9c97d"/>
      </g>
    </g>
    <g id="bv" data-name="&amp;lt;径向重复&amp;gt;">
      <g id="bw" data-name="&amp;lt;径向重复&amp;gt;">
        <path d="M100.54,177.43c-1.78-2.05-1.35-5.2.91-6.72,4.48-3.02,8.96-6.03,13.45-9.05,4.95-3.33,9.9-6.66,14.85-9.99.15-.1.34-.07.46.06.1.12.13.31,0,.46l-22.88,25.3c-1.83,2.02-5,1.99-6.78-.06Z" fill="#f9c97d"/>
      </g>
    </g>
    <g id="bx" data-name="&amp;lt;径向重复&amp;gt;">
      <g id="by" data-name="&amp;lt;径向重复&amp;gt;">
        <path d="M92.15,164.38c-1.13-2.47.17-5.37,2.77-6.19,5.15-1.63,10.3-3.26,15.45-4.89,5.69-1.8,11.38-3.6,17.06-5.41.17-.05.35.03.42.19.07.15.04.33-.14.44l-29.08,17.83c-2.32,1.42-5.36.5-6.49-1.97Z" fill="#f9c97d"/>
      </g>
    </g>
    <g id="bz" data-name="&amp;lt;径向重复&amp;gt;">
      <g id="ca" data-name="&amp;lt;径向重复&amp;gt;">
        <path d="M87.78,149.49c-.39-2.69,1.67-5.1,4.4-5.16,5.4-.11,10.8-.23,16.2-.34,5.97-.13,11.93-.25,17.9-.38.18,0,.33.12.35.3.02.16-.06.33-.25.39l-32.92,8.92c-2.63.71-5.29-1.03-5.67-3.71Z" fill="#f9c97d"/>
      </g>
    </g>
    <g id="cb" data-name="&amp;lt;径向重复&amp;gt;">
      <g id="cc" data-name="&amp;lt;径向重复&amp;gt;">
        <path d="M87.78,133.98c.39-2.69,3.04-4.43,5.67-3.71,5.21,1.41,10.43,2.82,15.64,4.24,5.76,1.56,11.52,3.12,17.28,4.68.17.05.28.21.25.39-.02.16-.15.3-.35.3l-34.1-.72c-2.72-.06-4.78-2.48-4.4-5.16Z" fill="#f9c97d"/>
      </g>
    </g>
    <g id="cd" data-name="&amp;lt;径向重复&amp;gt;">
      <g id="ce" data-name="&amp;lt;径向重复&amp;gt;">
        <path d="M92.15,119.09c1.13-2.47,4.17-3.39,6.49-1.97,4.61,2.82,9.21,5.65,13.82,8.47,5.09,3.12,10.17,6.24,15.26,9.36.15.09.21.28.14.44-.07.15-.23.25-.42.19l-32.52-10.3c-2.6-.82-3.89-3.72-2.77-6.19Z" fill="#f9c97d"/>
      </g>
    </g>
    <g id="cf" data-name="&amp;lt;径向重复&amp;gt;">
      <g id="cg" data-name="&amp;lt;径向重复&amp;gt;">
        <path d="M100.54,106.04c1.78-2.05,4.95-2.08,6.78-.06,3.62,4.01,7.25,8.01,10.87,12.02,4,4.43,8,8.85,12.01,13.28.12.13.12.33,0,.46-.1.12-.29.18-.46.06l-28.3-19.04c-2.26-1.52-2.69-4.67-.91-6.72Z" fill="#f9c97d"/>
      </g>
    </g>
    <g id="ch" data-name="&amp;lt;径向重复&amp;gt;">
      <g id="ci" data-name="&amp;lt;径向重复&amp;gt;">
        <path d="M112.26,95.88c2.28-1.47,5.34-.6,6.52,1.86,2.35,4.87,4.7,9.73,7.04,14.6,2.59,5.37,5.19,10.75,7.78,16.12.08.16.02.35-.12.44-.13.09-.32.09-.46-.07l-21.79-26.24c-1.74-2.1-1.26-5.24,1.02-6.7Z" fill="#f9c97d"/>
      </g>
    </g>
    <g id="cj" data-name="&amp;lt;径向重复&amp;gt;">
      <g id="ck" data-name="&amp;lt;径向重复&amp;gt;">
        <path d="M126.38,89.43c2.6-.76,5.29.93,5.74,3.62.88,5.33,1.76,10.66,2.65,15.99.97,5.89,1.95,11.77,2.92,17.66.03.17-.08.34-.24.39-.15.05-.34,0-.42-.2l-13.51-31.32c-1.08-2.5.27-5.38,2.87-6.14Z" fill="#f9c97d"/>
      </g>
    </g>
    <g id="cl" data-name="&amp;lt;径向重复&amp;gt;">
      <g id="cm" data-name="&amp;lt;径向重复&amp;gt;">
        <path d="M141.73,87.22c2.71,0,4.81,2.38,4.48,5.09-.66,5.36-1.31,10.73-1.97,16.09-.72,5.92-1.45,11.85-2.17,17.77-.02.17-.17.31-.34.31-.16,0-.32-.1-.35-.31l-4.14-33.86c-.33-2.7,1.77-5.09,4.48-5.09Z" fill="#f9c97d"/>
      </g>
    </g>
    <g id="cn" data-name="&amp;lt;径向重复&amp;gt;">
      <g id="co" data-name="&amp;lt;径向重复&amp;gt;">
        <path d="M157.09,89.43c2.6.76,3.95,3.64,2.87,6.14-2.14,4.96-4.28,9.92-6.42,14.88-2.36,5.48-4.73,10.96-7.09,16.44-.07.16-.25.25-.42.2-.15-.05-.28-.19-.24-.39l5.57-33.65c.44-2.69,3.13-4.38,5.74-3.62Z" fill="#f9c97d"/>
      </g>
    </g>
    <g id="cp" data-name="&amp;lt;径向重复&amp;gt;">
      <g id="cq" data-name="&amp;lt;径向重复&amp;gt;">
        <path d="M171.2,95.88c2.28,1.47,2.76,4.61,1.02,6.7-3.45,4.16-6.9,8.31-10.35,12.47-3.81,4.59-7.62,9.18-11.43,13.77-.11.13-.31.17-.46.07-.13-.09-.21-.26-.12-.44l14.82-30.72c1.18-2.45,4.24-3.32,6.52-1.86Z" fill="#f9c97d"/>
      </g>
    </g>
    <g id="cr" data-name="&amp;lt;径向重复&amp;gt;">
      <g id="cs" data-name="&amp;lt;径向重复&amp;gt;">
        <path d="M182.93,106.04c1.78,2.05,1.35,5.2-.91,6.72-4.48,3.02-8.96,6.03-13.45,9.05-4.95,3.33-9.9,6.66-14.85,9.99-.15.1-.34.07-.46-.06-.1-.12-.13-.31,0-.46l22.88-25.3c1.83-2.02,5-1.99,6.78.06Z" fill="#f9c97d"/>
      </g>
    </g>
    <g id="ct" data-name="&amp;lt;径向重复&amp;gt;">
      <g id="cu" data-name="&amp;lt;径向重复&amp;gt;">
        <path d="M191.31,119.09c1.13,2.47-.17,5.37-2.77,6.19-5.15,1.63-10.3,3.26-15.45,4.89-5.69,1.8-11.38,3.6-17.06,5.41-.17.05-.35-.03-.42-.19-.07-.15-.04-.33.14-.44l29.08-17.83c2.32-1.42,5.36-.5,6.49,1.97Z" fill="#f9c97d"/>
      </g>
    </g>
    <g id="cv" data-name="&amp;lt;径向重复&amp;gt;">
      <g id="cw" data-name="&amp;lt;径向重复&amp;gt;">
        <path d="M195.69,133.98c.39,2.69-1.67,5.1-4.4,5.16-5.4.11-10.8.23-16.2.34-5.97.13-11.93.25-17.9.38-.18,0-.33-.12-.35-.3-.02-.16.06-.33.25-.39l32.92-8.92c2.63-.71,5.29,1.03,5.67,3.71Z" fill="#f9c97d"/>
      </g>
    </g>
    <g id="cx" data-name="&amp;lt;径向重复&amp;gt;">
      <g id="cy" data-name="&amp;lt;径向重复&amp;gt;">
        <path d="M195.69,149.49c-.39,2.69-3.04,4.43-5.67,3.71-5.21-1.41-10.43-2.82-15.64-4.24-5.76-1.56-11.52-3.12-17.28-4.68-.17-.05-.28-.21-.25-.39.02-.16.15-.3.35-.3l34.1.72c2.72.06,4.78,2.48,4.4,5.16Z" fill="#f9c97d"/>
      </g>
    </g>
    <g id="cz" data-name="&amp;lt;径向重复&amp;gt;">
      <g id="da" data-name="&amp;lt;径向重复&amp;gt;">
        <path d="M191.31,164.38c-1.13,2.47-4.17,3.39-6.49,1.97-4.61-2.82-9.21-5.65-13.82-8.47-5.09-3.12-10.17-6.24-15.26-9.36-.15-.09-.21-.28-.14-.44.07-.15.23-.25.42-.19l32.52,10.3c2.6.82,3.89,3.72,2.77,6.19Z" fill="#f9c97d"/>
      </g>
    </g>
    <g id="db" data-name="&amp;lt;径向重复&amp;gt;">
      <g id="dc" data-name="&amp;lt;径向重复&amp;gt;">
        <path d="M182.93,177.43c-1.78,2.05-4.95,2.08-6.78.06-3.62-4.01-7.25-8.01-10.87-12.02-4-4.43-8-8.85-12.01-13.28-.12-.13-.12-.33,0-.46.1-.12.29-.18.46-.06l28.3,19.04c2.26,1.52,2.69,4.67.91,6.72Z" fill="#f9c97d"/>
      </g>
    </g>
    <g id="dd" data-name="&amp;lt;径向重复&amp;gt;">
      <g id="de" data-name="&amp;lt;径向重复&amp;gt;">
        <path d="M171.2,187.59c-2.28,1.47-5.34.6-6.52-1.86-2.35-4.87-4.7-9.73-7.04-14.6-2.59-5.37-5.19-10.75-7.78-16.12-.08-.16-.02-.35.12-.44.13-.09.32-.09.46.07l21.79,26.24c1.74,2.1,1.26,5.24-1.02,6.7Z" fill="#f9c97d"/>
      </g>
    </g>
    <g id="df" data-name="&amp;lt;径向重复&amp;gt;">
      <g id="dg" data-name="&amp;lt;径向重复&amp;gt;">
        <path d="M157.09,194.03c-2.6.76-5.29-.93-5.74-3.62-.88-5.33-1.76-10.66-2.65-15.99-.97-5.89-1.95-11.77-2.92-17.66-.03-.17.08-.34.24-.39.15-.05.34,0,.42.2l13.51,31.32c1.08,2.5-.27,5.38-2.87,6.14Z" fill="#f9c97d"/>
      </g>
    </g>
  </g>
</svg>