<?xml version="1.0" encoding="UTF-8"?>
<svg id="a" data-name="图层 1" xmlns="http://www.w3.org/2000/svg" width="100mm" height="100mm" viewBox="0 0 283.46 283.46">
  <g>
    <path d="M103.9,203.96c-1.64-.99-18.19,23.22-37.4,54.64-1.03,1.68-.49,3.88,1.2,4.9h0c1.69,1.02,3.9.48,4.92-1.21,19.05-31.51,32.92-57.34,31.28-58.33Z" fill="#5284c4"/>
    <path d="M80.55,181.44c-1.05-1.6-26.5,13.06-57.49,33.06-1.66,1.07-2.13,3.29-1.05,4.94h0c1.08,1.65,3.3,2.12,4.96,1.04,30.88-20.16,54.63-37.43,53.59-39.03Z" fill="#5284c4"/>
    <path d="M69.32,151.05c-.25-1.89-29.56.31-66.19,4.93-1.96.25-3.35,2.04-3.1,3.99h0c.25,1.96,2.05,3.34,4.02,3.08,36.6-4.81,65.52-10.1,65.28-12Z" fill="#5284c4"/>
    <path d="M72.43,118.83c.6-1.81-26.77-12.5-61.78-24.18-1.88-.63-3.91.39-4.53,2.26h0c-.62,1.87.4,3.89,2.28,4.51,35.07,11.49,63.43,19.22,64.04,17.41Z" fill="#5284c4"/>
    <path d="M89.27,91.13c1.33-1.37-18.67-22.84-45.14-48.49-1.42-1.38-3.69-1.34-5.07.08h0c-1.38,1.42-1.34,3.68.09,5.05,26.59,25.52,48.78,44.74,50.11,43.37Z" fill="#5284c4"/>
    <path d="M116.5,73.46c1.8-.66-6.88-28.65-19.55-63.21-.68-1.85-2.74-2.8-4.6-2.12h0c-1.86.68-2.81,2.74-2.12,4.59,12.85,34.49,24.47,61.4,26.26,60.74Z" fill="#5284c4"/>
    <path d="M148.72,69.31c1.91.18,6.28-28.79,9.91-65.4.19-1.96-1.25-3.71-3.22-3.9h0c-1.97-.19-3.72,1.25-3.9,3.22-3.44,36.63-4.69,65.9-2.79,66.08Z" fill="#5284c4"/>
    <path d="M179.57,79.51c1.64.99,18.19-23.22,37.4-54.64,1.03-1.68.49-3.88-1.2-4.9h0c-1.69-1.02-3.9-.48-4.92,1.21-19.05,31.51-32.92,57.34-31.28,58.33Z" fill="#5284c4"/>
    <path d="M202.91,102.03c1.05,1.6,26.5-13.06,57.49-33.06,1.66-1.07,2.13-3.29,1.05-4.94h0c-1.08-1.65-3.3-2.12-4.96-1.04-30.88,20.16-54.63,37.43-53.59,39.03Z" fill="#5284c4"/>
    <path d="M214.14,132.41c.25,1.89,29.56-.31,66.19-4.93,1.96-.25,3.35-2.04,3.1-3.99h0c-.25-1.96-2.05-3.34-4.02-3.08-36.6,4.81-65.52,10.1-65.28,12Z" fill="#5284c4"/>
    <path d="M211.03,164.64c-.6,1.81,26.77,12.5,61.78,24.18,1.88.63,3.91-.39,4.53-2.26h0c.62-1.87-.4-3.89-2.28-4.51-35.07-11.49-63.43-19.22-64.04-17.41Z" fill="#5284c4"/>
    <path d="M194.2,192.33c-1.33,1.37,18.67,22.84,45.14,48.49,1.42,1.38,3.69,1.34,5.07-.08h0c1.38-1.42,1.34-3.68-.09-5.05-26.59-25.52-48.78-44.74-50.11-43.37Z" fill="#5284c4"/>
    <path d="M166.97,210c-1.8.66,6.88,28.65,19.55,63.21.68,1.85,2.74,2.8,4.6,2.12h0c1.86-.68,2.81-2.74,2.12-4.59-12.85-34.49-24.47-61.4-26.26-60.74Z" fill="#5284c4"/>
    <path d="M134.74,214.15c-1.91-.18-6.28,28.79-9.91,65.4-.19,1.96,1.25,3.71,3.22,3.9h0c1.97.19,3.72-1.25,3.9-3.22,3.44-36.63,4.69-65.9,2.79-66.08Z" fill="#5284c4"/>
  </g>
  <path d="M232.04,108.23c2.22,5.94-21.81,18.32-21,24.35.83,6.22,27.24,11.92,26.67,18.03-.58,6.21-27.62,6.96-29.55,12.82-1.94,5.89,19.38,22.46,16.18,27.77-3.19,5.29-27.87-5.68-32.2-1.18-4.26,4.42,7.75,28.58,2.48,32.02-5.1,3.33-22.53-17.24-28.49-15.03-5.96,2.21-5.64,29.13-11.69,29.94-6.25.83-13.01-25.27-19.14-25.84-6.23-.58-17.7,23.8-23.59,21.88-5.91-1.94-.65-28.36-5.99-31.55-5.31-3.18-26.26,13.88-30.77,9.56-4.44-4.25,11.8-25.76,8.34-31.01-3.34-5.09-29.65,1.21-31.87-4.73-2.22-5.94,21.81-18.32,21-24.35-.83-6.22-27.24-11.92-26.67-18.03.58-6.21,27.62-6.96,29.55-12.82,1.94-5.89-19.38-22.46-16.18-27.77,3.19-5.29,27.87,5.68,32.2,1.18,4.26-4.42-7.75-28.58-2.48-32.02,5.1-3.33,22.53,17.24,28.49,15.03,5.96-2.21,5.64-29.13,11.69-29.94,6.25-.83,13.01,25.27,19.14,25.84s17.7-23.8,23.59-21.88c5.91,1.94.65,28.36,5.99,31.55,5.31,3.18,26.26-13.88,30.77-9.56,4.44,4.25-11.8,25.76-8.34,31.01,3.34,5.09,29.65-1.21,31.87,4.73Z" fill="#364093"/>
  <g>
    <path d="M141.31,145.83c-1.39-.14-4.7,20.88-7.51,47.46-.15,1.42.89,2.7,2.32,2.85h0c1.43.15,2.71-.89,2.85-2.32,2.67-26.59,3.72-47.84,2.34-47.99Z" fill="#4272b7"/>
    <path d="M140.41,145.63c-1.32-.45-9.24,19.32-17.92,44.6-.47,1.36.26,2.83,1.62,3.29h0c1.36.46,2.84-.27,3.3-1.63,8.54-25.33,14.32-45.82,13-46.26Z" fill="#4272b7"/>
    <path d="M139.57,145.24c-1.19-.73-13.32,16.78-27.43,39.51-.76,1.22-.38,2.82.85,3.57h0c1.22.75,2.83.37,3.58-.86,13.99-22.8,24.19-41.5,23-42.22Z" fill="#4272b7"/>
    <path d="M138.84,144.67c-.99-.97-16.74,13.41-35.57,32.44-1.01,1.02-1,2.66.03,3.67h0c1.03,1,2.68.98,3.68-.04,18.73-19.13,32.85-35.09,31.85-36.06Z" fill="#4272b7"/>
    <path d="M138.26,143.96c-.75-1.17-19.31,9.36-41.92,23.74-1.21.77-1.57,2.38-.79,3.58h0c.78,1.21,2.39,1.55,3.6.78,22.53-14.49,39.86-26.93,39.11-28.1Z" fill="#4272b7"/>
    <path d="M137.85,143.13c-.47-1.3-20.92,4.84-46.17,13.85-1.35.48-2.06,1.97-1.57,3.32h0c.49,1.35,1.98,2.04,3.33,1.55,25.2-9.14,44.88-17.41,44.4-18.72Z" fill="#4272b7"/>
    <path d="M137.63,142.23c-.17-1.38-21.48.08-48.1,3.26-1.43.17-2.44,1.46-2.27,2.89h0c.17,1.42,1.48,2.43,2.9,2.25,26.61-3.32,47.64-7.03,47.47-8.41Z" fill="#4272b7"/>
    <path d="M137.62,141.31c.14-1.38-20.96-4.68-47.63-7.48-1.43-.15-2.71.89-2.86,2.31h0c-.15,1.42.9,2.7,2.33,2.84,26.68,2.66,48.01,3.71,48.16,2.33Z" fill="#4272b7"/>
    <path d="M137.82,140.41c.45-1.31-19.39-9.21-44.76-17.86-1.36-.46-2.84.26-3.3,1.62h0c-.46,1.36.27,2.83,1.63,3.29,25.42,8.51,45.98,14.26,46.43,12.95Z" fill="#4272b7"/>
    <path d="M138.21,139.58c.73-1.18-16.84-13.28-39.65-27.33-1.22-.75-2.83-.37-3.58.85h0c-.75,1.22-.37,2.82.86,3.57,22.88,13.94,41.64,24.1,42.37,22.92Z" fill="#4272b7"/>
    <path d="M138.78,138.85c.97-.99-13.46-16.68-32.55-35.44-1.02-1.01-2.67-.99-3.68.03h0c-1.01,1.02-.99,2.67.04,3.67,19.2,18.66,35.22,32.73,36.19,31.74Z" fill="#4272b7"/>
    <path d="M139.5,138.27c1.17-.75-9.39-19.24-23.82-41.77-.77-1.21-2.38-1.56-3.59-.79h0c-1.21.77-1.56,2.38-.78,3.58,14.55,22.45,27.02,39.72,28.2,38.97Z" fill="#4272b7"/>
    <path d="M140.33,137.86c1.31-.47-4.86-20.84-13.9-46-.48-1.35-1.98-2.05-3.33-1.56h0c-1.35.49-2.05,1.97-1.56,3.32,9.17,25.11,17.48,44.72,18.79,44.24Z" fill="#4272b7"/>
    <path d="M141.23,137.65c1.38-.17-.08-21.4-3.28-47.93-.17-1.42-1.47-2.44-2.9-2.26h0c-1.43.17-2.44,1.47-2.26,2.89,3.33,26.51,7.05,47.47,8.44,47.3Z" fill="#4272b7"/>
    <path d="M142.16,137.64c1.39.14,4.7-20.88,7.51-47.46.15-1.42-.89-2.7-2.32-2.85h0c-1.43-.15-2.71.89-2.85,2.32-2.67,26.59-3.72,47.84-2.34,47.99Z" fill="#4272b7"/>
    <path d="M143.06,137.83c1.32.45,9.24-19.32,17.92-44.6.47-1.36-.26-2.83-1.62-3.29h0c-1.36-.46-2.84.27-3.3,1.63-8.54,25.33-14.32,45.82-13,46.26Z" fill="#4272b7"/>
    <path d="M143.9,138.22c1.19.73,13.32-16.78,27.43-39.51.76-1.22.38-2.82-.85-3.57h0c-1.22-.75-2.83-.37-3.58.86-13.99,22.8-24.19,41.5-23,42.22Z" fill="#4272b7"/>
    <path d="M144.63,138.79c.99.97,16.74-13.41,35.57-32.44,1.01-1.02,1-2.66-.03-3.67h0c-1.03-1-2.68-.98-3.68.04-18.73,19.13-32.85,35.09-31.85,36.06Z" fill="#4272b7"/>
    <path d="M145.21,139.51c.75,1.17,19.31-9.36,41.92-23.74,1.21-.77,1.57-2.38.79-3.58h0c-.78-1.21-2.39-1.55-3.6-.78-22.53,14.49-39.86,26.93-39.11,28.1Z" fill="#4272b7"/>
    <path d="M145.62,140.33c.47,1.3,20.92-4.84,46.17-13.85,1.35-.48,2.06-1.97,1.57-3.32h0c-.49-1.35-1.98-2.04-3.33-1.55-25.2,9.14-44.88,17.41-44.4,18.72Z" fill="#4272b7"/>
    <path d="M145.83,141.23c.17,1.38,21.48-.08,48.1-3.26,1.43-.17,2.44-1.46,2.27-2.89h0c-.17-1.42-1.48-2.43-2.9-2.25-26.61,3.32-47.64,7.03-47.47,8.41Z" fill="#4272b7"/>
    <path d="M145.84,142.15c-.14,1.38,20.96,4.68,47.63,7.48,1.43.15,2.71-.89,2.86-2.31h0c.15-1.42-.9-2.7-2.33-2.84-26.68-2.66-48.01-3.71-48.16-2.33Z" fill="#4272b7"/>
    <path d="M145.65,143.05c-.45,1.31,19.39,9.21,44.76,17.86,1.36.46,2.84-.26,3.3-1.62h0c.46-1.36-.27-2.83-1.63-3.29-25.42-8.51-45.98-14.26-46.43-12.95Z" fill="#4272b7"/>
    <path d="M145.25,143.89c-.73,1.18,16.84,13.28,39.65,27.33,1.22.75,2.83.37,3.58-.85h0c.75-1.22.37-2.82-.86-3.57-22.88-13.94-41.64-24.1-42.37-22.92Z" fill="#4272b7"/>
    <path d="M144.68,144.62c-.97.99,13.46,16.68,32.55,35.44,1.02,1.01,2.67.99,3.68-.03h0c1.01-1.02.99-2.67-.04-3.67-19.2-18.66-35.22-32.73-36.19-31.74Z" fill="#4272b7"/>
    <path d="M143.96,145.2c-1.17.75,9.39,19.24,23.82,41.77.77,1.21,2.38,1.56,3.59.79h0c1.21-.77,1.56-2.38.78-3.58-14.55-22.45-27.02-39.72-28.2-38.97Z" fill="#4272b7"/>
    <path d="M143.13,145.61c-1.31.47,4.86,20.84,13.9,46,.48,1.35,1.98,2.05,3.33,1.56h0c1.35-.49,2.05-1.97,1.56-3.32-9.17-25.11-17.48-44.72-18.79-44.24Z" fill="#4272b7"/>
    <path d="M142.24,145.82c-1.38.17.08,21.4,3.28,47.93.17,1.42,1.47,2.44,2.9,2.26h0c1.43-.17,2.44-1.47,2.26-2.89-3.33-26.51-7.05-47.47-8.44-47.3Z" fill="#4272b7"/>
  </g>
  <g>
    <path d="M141.57,143.34c-.54-.06-1.85,8.21-2.95,18.65-.06.56.35,1.06.91,1.12h0c.56.06,1.06-.35,1.12-.91,1.05-10.45,1.46-18.8.92-18.86Z" fill="#fff"/>
    <path d="M141.21,143.27c-.52-.18-3.63,7.59-7.04,17.53-.18.53.1,1.11.64,1.29h0c.54.18,1.12-.11,1.3-.64,3.36-9.95,5.63-18.01,5.11-18.18Z" fill="#fff"/>
    <path d="M140.88,143.11c-.47-.29-5.24,6.6-10.78,15.53-.3.48-.15,1.11.33,1.4h0c.48.29,1.11.14,1.41-.34,5.5-8.96,9.51-16.31,9.04-16.59Z" fill="#fff"/>
    <path d="M140.6,142.89c-.39-.38-6.58,5.27-13.98,12.75-.4.4-.39,1.05.01,1.44h0c.4.39,1.05.39,1.45-.02,7.36-7.52,12.91-13.79,12.52-14.17Z" fill="#fff"/>
    <path d="M140.37,142.61c-.3-.46-7.59,3.68-16.47,9.33-.48.3-.62.93-.31,1.41h0c.31.47.94.61,1.41.31,8.85-5.7,15.67-10.58,15.37-11.04Z" fill="#fff"/>
    <path d="M140.2,142.28c-.19-.51-8.22,1.9-18.14,5.44-.53.19-.81.77-.62,1.3h0c.19.53.78.8,1.31.61,9.9-3.59,17.64-6.84,17.45-7.36Z" fill="#fff"/>
    <path d="M140.12,141.93c-.07-.54-8.44.03-18.9,1.28-.56.07-.96.58-.89,1.13h0c.07.56.58.96,1.14.89,10.46-1.3,18.72-2.76,18.66-3.3Z" fill="#fff"/>
    <path d="M140.12,141.57c.06-.54-8.24-1.84-18.72-2.94-.56-.06-1.07.35-1.12.91h0c-.06.56.35,1.06.91,1.12,10.49,1.05,18.87,1.46,18.93.92Z" fill="#fff"/>
    <path d="M140.19,141.21c.18-.52-7.62-3.62-17.59-7.02-.53-.18-1.12.1-1.3.64h0c-.18.53.11,1.11.64,1.29,9.99,3.35,18.07,5.61,18.25,5.09Z" fill="#fff"/>
    <path d="M140.35,140.88c.29-.46-6.62-5.22-15.58-10.74-.48-.3-1.11-.15-1.41.33h0c-.3.48-.14,1.11.34,1.4,8.99,5.48,16.37,9.47,16.65,9.01Z" fill="#fff"/>
    <path d="M140.57,140.6c.38-.39-5.29-6.55-12.79-13.93-.4-.4-1.05-.39-1.45.01h0c-.4.4-.39,1.05.02,1.44,7.54,7.33,13.84,12.86,14.22,12.47Z" fill="#fff"/>
    <path d="M140.85,140.37c.46-.29-3.69-7.56-9.36-16.42-.3-.47-.94-.61-1.41-.31h0c-.48.3-.61.94-.31,1.41,5.72,8.82,10.62,15.61,11.08,15.32Z" fill="#fff"/>
    <path d="M141.18,140.21c.51-.19-1.91-8.19-5.46-18.08-.19-.53-.78-.81-1.31-.61h0c-.53.19-.81.78-.61,1.31,3.6,9.87,6.87,17.57,7.38,17.39Z" fill="#fff"/>
    <path d="M141.53,140.13c.54-.07-.03-8.41-1.29-18.84-.07-.56-.58-.96-1.14-.89h0c-.56.07-.96.58-.89,1.14,1.31,10.42,2.77,18.66,3.32,18.59Z" fill="#fff"/>
    <path d="M141.9,140.12c.54.06,1.85-8.21,2.95-18.65.06-.56-.35-1.06-.91-1.12h0c-.56-.06-1.06.35-1.12.91-1.05,10.45-1.46,18.8-.92,18.86Z" fill="#fff"/>
    <path d="M142.25,140.2c.52.18,3.63-7.59,7.04-17.53.18-.53-.1-1.11-.64-1.29h0c-.54-.18-1.12.11-1.3.64-3.36,9.95-5.63,18.01-5.11,18.18Z" fill="#fff"/>
    <path d="M142.58,140.35c.47.29,5.24-6.6,10.78-15.53.3-.48.15-1.11-.33-1.4h0c-.48-.29-1.11-.14-1.41.34-5.5,8.96-9.51,16.31-9.04,16.59Z" fill="#fff"/>
    <path d="M142.87,140.58c.39.38,6.58-5.27,13.98-12.75.4-.4.39-1.05-.01-1.44h0c-.4-.39-1.05-.39-1.45.02-7.36,7.52-12.91,13.79-12.52,14.17Z" fill="#fff"/>
    <path d="M143.1,140.86c.3.46,7.59-3.68,16.47-9.33.48-.3.62-.93.31-1.41h0c-.31-.47-.94-.61-1.41-.31-8.85,5.7-15.67,10.58-15.37,11.04Z" fill="#fff"/>
    <path d="M143.26,141.18c.19.51,8.22-1.9,18.14-5.44.53-.19.81-.77.62-1.3h0c-.19-.53-.78-.8-1.31-.61-9.9,3.59-17.64,6.84-17.45,7.36Z" fill="#fff"/>
    <path d="M143.34,141.54c.07.54,8.44-.03,18.9-1.28.56-.07.96-.58.89-1.13h0c-.07-.56-.58-.96-1.14-.89-10.46,1.3-18.72,2.76-18.66,3.3Z" fill="#fff"/>
    <path d="M143.35,141.9c-.06.54,8.24,1.84,18.72,2.94.56.06,1.07-.35,1.12-.91h0c.06-.56-.35-1.06-.91-1.12-10.49-1.05-18.87-1.46-18.93-.92Z" fill="#fff"/>
    <path d="M143.27,142.25c-.18.52,7.62,3.62,17.59,7.02.53.18,1.12-.1,1.3-.64h0c.18-.53-.11-1.11-.64-1.29-9.99-3.35-18.07-5.61-18.25-5.09Z" fill="#fff"/>
    <path d="M143.12,142.58c-.29.46,6.62,5.22,15.58,10.74.48.3,1.11.15,1.41-.33h0c.3-.48.14-1.11-.34-1.4-8.99-5.48-16.37-9.47-16.65-9.01Z" fill="#fff"/>
    <path d="M142.89,142.87c-.38.39,5.29,6.55,12.79,13.93.4.4,1.05.39,1.45-.01h0c.4-.4.39-1.05-.02-1.44-7.54-7.33-13.84-12.86-14.22-12.47Z" fill="#fff"/>
    <path d="M142.61,143.09c-.46.29,3.69,7.56,9.36,16.42.3.47.94.61,1.41.31h0c.48-.3.61-.94.31-1.41-5.72-8.82-10.62-15.61-11.08-15.32Z" fill="#fff"/>
    <path d="M142.28,143.25c-.51.19,1.91,8.19,5.46,18.08.19.53.78.81,1.31.61h0c.53-.19.81-.78.61-1.31-3.6-9.87-6.87-17.57-7.38-17.39Z" fill="#fff"/>
    <path d="M141.93,143.34c-.54.07.03,8.41,1.29,18.84.07.56.58.96,1.14.89h0c.56-.07.96-.58.89-1.14-1.31-10.42-2.77-18.66-3.32-18.59Z" fill="#fff"/>
  </g>
  <g>
    <path d="M142.08,169.96c-2.18.03-3.56,33.38-3.16,75.28.02,2.25,1.87,4.05,4.13,4.02h0c2.25-.03,4.06-1.87,4.03-4.12-.62-41.91-2.81-75.21-4.99-75.19Z" fill="#a4bee4"/>
    <path d="M135.76,169.33c-2.13-.46-10.93,31.75-19.89,72.7-.48,2.19.92,4.36,3.12,4.84h0c2.2.47,4.38-.93,4.85-3.12,8.76-40.99,14.06-73.95,11.93-74.41Z" fill="#a4bee4"/>
    <path d="M129.75,167.31c-1.98-.92-17.74,28.53-35.63,66.46-.96,2.03-.08,4.46,1.97,5.41h0c2.04.95,4.47.07,5.42-1.97,17.69-38.02,30.22-68.98,28.24-69.9Z" fill="#a4bee4"/>
    <path d="M124.34,164.01c-1.72-1.34-23.67,23.88-49.58,56.9-1.39,1.77-1.07,4.33.71,5.71h0c1.78,1.38,4.35,1.06,5.73-.72,25.74-33.15,44.87-60.55,43.14-61.88Z" fill="#a4bee4"/>
    <path d="M119.8,159.6c-1.38-1.68-28.41,18.03-61.04,44.48-1.75,1.42-2.01,3.98-.58,5.72h0c1.43,1.74,4,1.99,5.74.57,32.5-26.61,57.26-49.08,55.88-50.76Z" fill="#a4bee4"/>
    <path d="M116.36,154.29c-.97-1.95-31.72,11.28-69.44,29.83-2.02.99-2.85,3.44-1.85,5.45h0c1,2.01,3.46,2.83,5.47,1.83,37.62-18.74,66.79-35.15,65.82-37.1Z" fill="#a4bee4"/>
    <path d="M114.19,148.35c-.51-2.12-33.45,3.97-74.36,13.68-2.19.52-3.55,2.72-3.02,4.9h0c.53,2.18,2.74,3.53,4.93,2.99,40.86-9.93,72.96-19.46,72.45-21.58Z" fill="#a4bee4"/>
    <path d="M113.4,142.07c-.03-2.18-33.49-3.55-75.55-3.15-2.25.02-4.06,1.86-4.04,4.11h0c.03,2.25,1.88,4.04,4.14,4.01,42.06-.62,75.48-2.8,75.46-4.97Z" fill="#a4bee4"/>
    <path d="M114.04,135.78c.46-2.13-31.86-10.89-72.96-19.82-2.2-.48-4.38.92-4.85,3.11h0c-.48,2.2.93,4.36,3.14,4.83,41.14,8.72,74.21,14.01,74.67,11.88Z" fill="#a4bee4"/>
    <path d="M116.06,129.79c.92-1.97-28.63-17.68-66.7-35.5-2.04-.96-4.47-.08-5.43,1.96h0c-.95,2.04-.07,4.46,1.98,5.4,38.16,17.63,69.22,30.11,70.15,28.14Z" fill="#a4bee4"/>
    <path d="M119.37,124.4c1.34-1.72-23.97-23.58-57.1-49.4-1.78-1.38-4.34-1.07-5.73.71h0c-1.38,1.77-1.06,4.33.72,5.71,33.27,25.65,60.76,44.71,62.1,42.99Z" fill="#a4bee4"/>
    <path d="M123.8,119.88c1.69-1.38-18.1-28.31-44.64-60.82-1.42-1.74-4-2-5.74-.58h0c-1.75,1.42-2,3.99-.57,5.72,26.7,32.38,49.26,57.06,50.95,55.68Z" fill="#a4bee4"/>
    <path d="M129.13,116.45c1.96-.97-11.32-31.61-29.93-69.2-1-2.01-3.45-2.84-5.47-1.84h0c-2.02,1-2.84,3.44-1.83,5.45,18.8,37.49,35.28,66.55,37.23,65.58Z" fill="#a4bee4"/>
    <path d="M135.09,114.29c2.12-.51-3.98-33.33-13.73-74.1-.52-2.19-2.73-3.53-4.92-3.01h0c-2.19.53-3.54,2.73-3.01,4.91,9.96,40.72,19.53,72.7,21.65,72.19Z" fill="#a4bee4"/>
    <path d="M141.39,113.51c2.18-.03,3.56-33.38,3.16-75.28-.02-2.25-1.87-4.05-4.13-4.02h0c-2.25.03-4.06,1.87-4.03,4.12.62,41.91,2.81,75.21,4.99,75.19Z" fill="#a4bee4"/>
    <path d="M147.7,114.14c2.13.46,10.93-31.75,19.89-72.7.48-2.19-.92-4.36-3.12-4.84h0c-2.2-.47-4.38.93-4.85,3.12-8.76,40.99-14.06,73.95-11.93,74.41Z" fill="#a4bee4"/>
    <path d="M153.71,116.15c1.98.92,17.74-28.53,35.63-66.46.96-2.03.08-4.46-1.97-5.41h0c-2.04-.95-4.47-.07-5.42,1.97-17.69,38.02-30.22,68.98-28.24,69.9Z" fill="#a4bee4"/>
    <path d="M159.13,119.45c1.72,1.34,23.67-23.88,49.58-56.9,1.39-1.77,1.07-4.33-.71-5.71h0c-1.78-1.38-4.35-1.06-5.73.72-25.74,33.15-44.87,60.55-43.14,61.88Z" fill="#a4bee4"/>
    <path d="M163.67,123.87c1.38,1.68,28.41-18.03,61.04-44.48,1.75-1.42,2.01-3.98.58-5.72h0c-1.43-1.74-4-1.99-5.74-.57-32.5,26.61-57.26,49.08-55.88,50.76Z" fill="#a4bee4"/>
    <path d="M167.1,129.18c.97,1.95,31.72-11.28,69.44-29.83,2.02-.99,2.85-3.44,1.85-5.45h0c-1-2.01-3.46-2.83-5.47-1.83-37.62,18.74-66.79,35.15-65.82,37.1Z" fill="#a4bee4"/>
    <path d="M169.27,135.12c.51,2.12,33.45-3.97,74.36-13.68,2.19-.52,3.55-2.72,3.02-4.9h0c-.53-2.18-2.74-3.53-4.93-2.99-40.86,9.93-72.96,19.46-72.45,21.58Z" fill="#a4bee4"/>
    <path d="M170.06,141.39c.03,2.18,33.49,3.55,75.55,3.15,2.25-.02,4.06-1.86,4.04-4.11h0c-.03-2.25-1.88-4.04-4.14-4.01-42.06.62-75.48,2.8-75.46,4.97Z" fill="#a4bee4"/>
    <path d="M169.42,147.68c-.46,2.13,31.86,10.89,72.96,19.82,2.2.48,4.38-.92,4.85-3.11h0c.48-2.2-.93-4.36-3.14-4.83-41.14-8.72-74.21-14.01-74.67-11.88Z" fill="#a4bee4"/>
    <path d="M167.4,153.67c-.92,1.97,28.63,17.68,66.7,35.5,2.04.96,4.47.08,5.43-1.96h0c.95-2.04.07-4.46-1.98-5.4-38.16-17.63-69.22-30.11-70.15-28.14Z" fill="#a4bee4"/>
    <path d="M164.09,159.06c-1.34,1.72,23.97,23.58,57.1,49.4,1.78,1.38,4.34,1.07,5.73-.71h0c1.38-1.77,1.06-4.33-.72-5.71-33.27-25.65-60.76-44.71-62.1-42.99Z" fill="#a4bee4"/>
    <path d="M159.66,163.59c-1.69,1.38,18.1,28.31,44.64,60.82,1.42,1.74,4,2,5.74.58h0c1.75-1.42,2-3.99.57-5.72-26.7-32.38-49.26-57.06-50.95-55.68Z" fill="#a4bee4"/>
    <path d="M154.33,167.01c-1.96.97,11.32,31.61,29.93,69.2,1,2.01,3.45,2.84,5.47,1.84h0c2.02-1,2.84-3.44,1.83-5.45-18.8-37.49-35.28-66.55-37.23-65.58Z" fill="#a4bee4"/>
    <path d="M148.37,169.17c-2.12.51,3.98,33.33,13.73,74.1.52,2.19,2.73,3.53,4.92,3.01h0c2.19-.53,3.54-2.73,3.01-4.91-9.96-40.72-19.53-72.7-21.65-72.19Z" fill="#a4bee4"/>
  </g>
</svg>