<?xml version="1.0" encoding="UTF-8"?>
<svg id="a" data-name="图层 1" xmlns="http://www.w3.org/2000/svg" width="100mm" height="100mm" viewBox="0 0 283.46 283.46">
  <path d="M180.97,62.38c5.36,2.51-2.83,25.91,1.63,29.37,4.61,3.57,26.15-9.42,29.73-5.03,3.64,4.46-14.14,22.1-11.63,27.19,2.52,5.12,27.69,2.51,28.98,8.05,1.29,5.51-22.52,13.93-22.52,19.64,0,5.62,23.81,13.92,22.48,19.53-1.28,5.43-26.43,2.92-29.02,8.16-2.59,5.24,15.12,22.78,11.56,27.14-3.68,4.51-25.21-8.4-29.72-4.89-4.59,3.57,3.51,26.92-1.72,29.38-5.25,2.47-18.88-18.28-24.56-17-5.65,1.27-8.72,25.79-14.58,25.81-5.76.02-8.78-24.46-14.52-25.73-5.57-1.23-19.25,19.6-24.61,17.09-5.36-2.51,2.83-25.91-1.63-29.37-4.61-3.57-26.15,9.42-29.73,5.03-3.64-4.46,14.14-22.1,11.63-27.19-2.52-5.12-27.69-2.51-28.98-8.05-1.29-5.51,22.52-13.93,22.52-19.64,0-5.62-23.81-13.92-22.48-19.53,1.28-5.43,26.43-2.92,29.02-8.16,2.59-5.24-15.12-22.78-11.56-27.14,3.68-4.51,25.21,8.4,29.72,4.89,4.59-3.57-3.51-26.92,1.72-29.38,5.25-2.47,18.88,18.28,24.56,17,5.65-1.27,8.72-25.79,14.58-25.81,5.76-.02,8.78,24.46,14.52,25.73,5.57,1.23,19.25-19.6,24.61-17.09Z" fill="#364093"/>
  <g>
    <path d="M141.76,69.9c-1.97,0-3.59-29.38-3.71-66.31C138.05,1.61,139.7,0,141.73,0h0c2.04,0,3.69,1.61,3.68,3.59-.09,36.94-1.69,66.31-3.66,66.31Z" fill="#5284c4"/>
    <path d="M173.7,77.02c-1.78-.84,9.83-27.99,26.15-61.31.88-1.79,3.08-2.54,4.91-1.67h0c1.83.86,2.61,3.01,1.72,4.79-16.5,33.24-31.01,59.03-32.79,58.19Z" fill="#5284c4"/>
    <path d="M199.31,96.96c-1.23-1.51,21.3-21.06,50.83-44.17,1.58-1.24,3.9-.98,5.17.57h0c1.27,1.55,1.01,3.82-.58,5.05-29.65,22.96-54.19,40.06-55.42,38.55Z" fill="#5284c4"/>
    <path d="M213.52,125.77c-.44-1.88,28.56-9.95,65.44-18.28,1.98-.45,3.95.77,4.4,2.7h0c.45,1.94-.79,3.87-2.77,4.3-36.93,8.14-66.64,13.15-67.08,11.28Z" fill="#5284c4"/>
    <path d="M213.51,157.74c.44-1.88,30.16,3.12,67.09,11.23,1.98.43,3.22,2.36,2.77,4.3h0c-.45,1.94-2.43,3.15-4.41,2.7-36.89-8.3-65.89-16.36-65.45-18.24Z" fill="#5284c4"/>
    <path d="M199.28,186.54c1.23-1.5,25.78,15.57,55.45,38.52,1.59,1.23,1.85,3.49.58,5.04h0c-1.27,1.55-3.59,1.81-5.17.57-29.55-23.1-52.09-42.63-50.86-44.13Z" fill="#5284c4"/>
    <path d="M173.66,206.46c1.78-.83,16.3,24.95,32.83,58.18.89,1.78.11,3.93-1.72,4.79h0c-1.84.86-4.04.11-4.91-1.68-16.35-33.32-27.97-60.46-26.19-61.29Z" fill="#5284c4"/>
    <path d="M141.71,213.56c1.97,0,3.59,29.38,3.71,66.31,0,1.98-1.64,3.59-3.68,3.59h0c-2.04,0-3.69-1.61-3.68-3.59.09-36.94,1.69-66.31,3.66-66.31Z" fill="#5284c4"/>
    <path d="M109.76,206.44c1.78.84-9.83,27.99-26.15,61.31-.88,1.79-3.08,2.54-4.91,1.67h0c-1.83-.86-2.61-3.01-1.72-4.79,16.5-33.24,31.01-59.03,32.79-58.19Z" fill="#5284c4"/>
    <path d="M84.15,186.5c1.23,1.51-21.3,21.06-50.83,44.17-1.58,1.24-3.9.98-5.17-.57h0c-1.27-1.55-1.01-3.82.58-5.05,29.65-22.96,54.19-40.06,55.42-38.55Z" fill="#5284c4"/>
    <path d="M69.94,157.69c.44,1.88-28.56,9.95-65.44,18.28-1.98.45-3.95-.77-4.4-2.7h0c-.45-1.94.79-3.87,2.77-4.3,36.93-8.14,66.64-13.15,67.08-11.28Z" fill="#5284c4"/>
    <path d="M69.95,125.73c-.44,1.88-30.16-3.12-67.09-11.23-1.98-.43-3.22-2.36-2.77-4.3h0c.45-1.94,2.43-3.15,4.41-2.7,36.89,8.3,65.89,16.36,65.45,18.24Z" fill="#5284c4"/>
    <path d="M84.18,96.93c-1.23,1.5-25.78-15.57-55.45-38.52-1.59-1.23-1.85-3.49-.58-5.04h0c1.27-1.55,3.59-1.81,5.17-.57,29.55,23.1,52.09,42.63,50.86,44.13Z" fill="#5284c4"/>
    <path d="M109.81,77c-1.78.83-16.3-24.95-32.83-58.18-.89-1.78-.11-3.93,1.72-4.79h0c1.84-.86,4.04-.11,4.91,1.68,16.35,33.32,27.97,60.46,26.19,61.29Z" fill="#5284c4"/>
  </g>
  <g>
    <path d="M141.71,143.15c1.55,0,2.82,23.06,2.91,52.06,0,1.55-1.29,2.82-2.89,2.82h0c-1.6,0-2.9-1.26-2.89-2.82.07-29,1.32-52.06,2.87-52.06Z" fill="#4272b7"/>
    <path d="M141.39,143.11c1.51.34-2.51,23.1-9.04,51.39-.35,1.52-1.9,2.47-3.46,2.12h0c-1.56-.35-2.53-1.86-2.18-3.38,6.68-28.26,13.16-50.47,14.67-50.13Z" fill="#4272b7"/>
    <path d="M141.09,143c1.4.66-7.72,21.97-20.53,48.14-.69,1.4-2.42,1.99-3.86,1.31h0c-1.44-.68-2.05-2.36-1.35-3.76,12.96-26.1,24.35-46.35,25.74-45.69Z" fill="#4272b7"/>
    <path d="M140.81,142.83c1.21.94-12.53,19.75-31,42.48-.99,1.22-2.81,1.42-4.06.44h0c-1.25-.97-1.46-2.75-.46-3.96,18.59-22.63,34.31-39.9,35.52-38.96Z" fill="#4272b7"/>
    <path d="M140.59,142.6c.97,1.18-16.72,16.53-39.91,34.68-1.24.97-3.06.77-4.06-.45h0c-1-1.22-.79-3,.46-3.96,23.28-18.03,42.55-31.45,43.51-30.27Z" fill="#4272b7"/>
    <path d="M140.42,142.33c.67,1.36-20.08,12.49-46.82,25.15-1.43.68-3.16.09-3.85-1.32h0c-.69-1.41-.09-3.09,1.35-3.76,26.81-12.52,48.66-21.43,49.33-20.07Z" fill="#4272b7"/>
    <path d="M140.31,142.03c.34,1.47-22.42,7.82-51.38,14.35-1.55.35-3.1-.6-3.46-2.12h0c-.36-1.52.62-3.04,2.17-3.38,29-6.39,52.32-10.33,52.67-8.85Z" fill="#4272b7"/>
    <path d="M140.28,141.72c0,1.51-23.64,2.75-53.37,2.84-1.59,0-2.89-1.26-2.89-2.82h0c0-1.56,1.3-2.82,2.89-2.82,29.73.06,53.37,1.29,53.37,2.8Z" fill="#4272b7"/>
    <path d="M140.32,141.4c-.35,1.47-23.68-2.45-52.68-8.82-1.55-.34-2.53-1.85-2.17-3.38h0c.36-1.52,1.91-2.47,3.46-2.12,28.97,6.52,51.73,12.84,51.39,14.32Z" fill="#4272b7"/>
    <path d="M140.43,141.1c-.67,1.36-22.52-7.53-49.35-20.03-1.44-.67-2.04-2.36-1.35-3.76h0c.69-1.41,2.42-2,3.86-1.32,26.75,12.64,47.51,23.75,46.84,25.11Z" fill="#4272b7"/>
    <path d="M140.61,140.83c-.97,1.18-20.24-12.23-43.54-30.24-1.25-.97-1.45-2.74-.46-3.96h0c1-1.22,2.82-1.42,4.06-.45,23.2,18.13,40.9,33.47,39.93,34.65Z" fill="#4272b7"/>
    <path d="M140.84,140.62c-1.21.94-16.95-16.32-35.55-38.94-1-1.21-.79-2.99.46-3.96h0c1.25-.97,3.07-.77,4.06.44,18.48,22.71,32.24,41.51,31.03,42.45Z" fill="#4272b7"/>
    <path d="M141.12,140.45c-1.4.66-12.8-19.59-25.78-45.68-.7-1.4-.09-3.08,1.35-3.76h0c1.44-.68,3.17-.09,3.86,1.32,12.84,26.16,21.96,47.47,20.57,48.12Z" fill="#4272b7"/>
    <path d="M141.43,140.35c-1.51.34-8.01-21.87-14.71-50.13-.36-1.51.62-3.03,2.17-3.37h0c1.56-.35,3.11.6,3.46,2.12,6.55,28.29,10.59,51.04,9.08,51.38Z" fill="#4272b7"/>
    <path d="M141.75,140.32c-1.55,0-2.82-23.06-2.91-52.06,0-1.55,1.29-2.82,2.89-2.82h0c1.6,0,2.9,1.26,2.89,2.82-.07,29-1.32,52.06-2.87,52.06Z" fill="#4272b7"/>
    <path d="M142.07,140.36c-1.51-.34,2.51-23.1,9.04-51.39.35-1.52,1.9-2.47,3.46-2.12h0c1.56.35,2.53,1.86,2.18,3.38-6.68,28.26-13.16,50.47-14.67,50.13Z" fill="#4272b7"/>
    <path d="M142.38,140.47c-1.4-.66,7.72-21.97,20.53-48.14.69-1.4,2.42-1.99,3.86-1.31h0c1.44.68,2.05,2.36,1.35,3.76-12.96,26.1-24.35,46.35-25.74,45.69Z" fill="#4272b7"/>
    <path d="M142.65,140.64c-1.21-.94,12.53-19.75,31-42.48.99-1.22,2.81-1.42,4.06-.44h0c1.25.97,1.46,2.75.46,3.96-18.59,22.63-34.31,39.9-35.52,38.96Z" fill="#4272b7"/>
    <path d="M142.88,140.87c-.97-1.18,16.72-16.53,39.91-34.68,1.24-.97,3.06-.77,4.06.45h0c1,1.22.79,3-.46,3.96-23.28,18.03-42.55,31.45-43.51,30.27Z" fill="#4272b7"/>
    <path d="M143.05,141.14c-.67-1.36,20.08-12.49,46.82-25.15,1.43-.68,3.16-.09,3.85,1.32h0c.69,1.41.09,3.09-1.35,3.76-26.81,12.52-48.66,21.43-49.33,20.07Z" fill="#4272b7"/>
    <path d="M143.15,141.44c-.34-1.47,22.42-7.82,51.38-14.35,1.55-.35,3.1.6,3.46,2.12h0c.36,1.52-.62,3.04-2.17,3.38-29,6.39-52.32,10.33-52.67,8.85Z" fill="#4272b7"/>
    <path d="M143.18,141.75c0-1.51,23.64-2.75,53.37-2.84,1.59,0,2.89,1.26,2.89,2.82h0c0,1.56-1.3,2.82-2.89,2.82-29.73-.06-53.37-1.29-53.37-2.8Z" fill="#4272b7"/>
    <path d="M143.14,142.07c.35-1.47,23.68,2.45,52.68,8.82,1.55.34,2.53,1.85,2.17,3.38h0c-.36,1.52-1.91,2.47-3.46,2.12-28.97-6.52-51.73-12.84-51.39-14.32Z" fill="#4272b7"/>
    <path d="M143.03,142.36c.67-1.36,22.52,7.53,49.35,20.03,1.44.67,2.04,2.36,1.35,3.76h0c-.69,1.41-2.42,2-3.86,1.32-26.75-12.64-47.51-23.75-46.84-25.11Z" fill="#4272b7"/>
    <path d="M142.86,142.63c.97-1.18,20.24,12.23,43.54,30.24,1.25.97,1.45,2.74.46,3.96h0c-1,1.22-2.82,1.42-4.06.45-23.2-18.13-40.9-33.47-39.93-34.65Z" fill="#4272b7"/>
    <path d="M142.62,142.85c1.21-.94,16.95,16.32,35.55,38.94,1,1.21.79,2.99-.46,3.96h0c-1.25.97-3.07.77-4.06-.44-18.48-22.71-32.24-41.51-31.03-42.45Z" fill="#4272b7"/>
    <path d="M142.34,143.01c1.4-.66,12.8,19.59,25.78,45.68.7,1.4.09,3.08-1.35,3.76h0c-1.44.68-3.17.09-3.86-1.32-12.84-26.16-21.96-47.47-20.57-48.12Z" fill="#4272b7"/>
    <path d="M142.03,143.12c1.51-.34,8.01,21.87,14.71,50.13.36,1.51-.62,3.03-2.17,3.37h0c-1.56.35-3.11-.6-3.46-2.12-6.55-28.29-10.59-51.04-9.08-51.38Z" fill="#4272b7"/>
  </g>
  <g>
    <path d="M141.73,142.16c.47,0,.86,7.05.89,15.91,0,.47-.39.86-.88.86h0c-.49,0-.88-.39-.88-.86.02-8.86.4-15.91.88-15.91Z" fill="#fff"/>
    <path d="M141.63,142.15c.46.1-.77,7.06-2.76,15.7-.11.46-.58.75-1.06.65h0c-.48-.11-.77-.57-.66-1.03,2.04-8.63,4.02-15.42,4.48-15.32Z" fill="#fff"/>
    <path d="M141.54,142.12c.43.2-2.36,6.71-6.27,14.71-.21.43-.74.61-1.18.4h0c-.44-.21-.63-.72-.41-1.15,3.96-7.97,7.44-14.16,7.86-13.96Z" fill="#fff"/>
    <path d="M141.45,142.07c.37.29-3.83,6.03-9.47,12.98-.3.37-.86.43-1.24.14h0c-.38-.3-.44-.84-.14-1.21,5.68-6.91,10.48-12.19,10.85-11.9Z" fill="#fff"/>
    <path d="M141.38,142c.29.36-5.11,5.05-12.19,10.6-.38.3-.94.24-1.24-.14h0c-.3-.37-.24-.92.14-1.21,7.11-5.51,13-9.61,13.29-9.25Z" fill="#fff"/>
    <path d="M141.33,141.92c.21.42-6.13,3.82-14.3,7.68-.44.21-.97.03-1.18-.4h0c-.21-.43-.03-.95.41-1.15,8.19-3.83,14.86-6.55,15.07-6.13Z" fill="#fff"/>
    <path d="M141.3,141.82c.11.45-6.85,2.39-15.7,4.39-.47.11-.95-.18-1.06-.65h0c-.11-.46.19-.93.66-1.03,8.86-1.95,15.99-3.16,16.09-2.71Z" fill="#fff"/>
    <path d="M141.29,141.73c0,.46-7.22.84-16.3.87-.49,0-.88-.38-.88-.86h0c0-.48.4-.86.88-.86,9.08.02,16.3.39,16.3.86Z" fill="#fff"/>
    <path d="M141.3,141.63c-.11.45-7.23-.75-16.09-2.69-.47-.1-.77-.57-.66-1.03h0c.11-.46.58-.76,1.06-.65,8.85,1.99,15.81,3.92,15.7,4.37Z" fill="#fff"/>
    <path d="M141.34,141.54c-.21.42-6.88-2.3-15.08-6.12-.44-.2-.62-.72-.41-1.15h0c.21-.43.74-.61,1.18-.4,8.17,3.86,14.51,7.26,14.31,7.67Z" fill="#fff"/>
    <path d="M141.39,141.46c-.3.36-6.18-3.74-13.3-9.24-.38-.29-.44-.84-.14-1.21h0c.3-.37.86-.43,1.24-.14,7.09,5.54,12.5,10.23,12.2,10.59Z" fill="#fff"/>
    <path d="M141.46,141.39c-.37.29-5.18-4.98-10.86-11.9-.3-.37-.24-.91.14-1.21h0c.38-.3.94-.24,1.24.14,5.65,6.94,9.85,12.68,9.48,12.97Z" fill="#fff"/>
    <path d="M141.54,141.34c-.43.2-3.91-5.98-7.88-13.95-.21-.43-.03-.94.41-1.15h0c.44-.21.97-.03,1.18.4,3.92,7.99,6.71,14.5,6.28,14.7Z" fill="#fff"/>
    <path d="M141.64,141.31c-.46.1-2.45-6.68-4.49-15.31-.11-.46.19-.92.66-1.03h0c.48-.11.95.18,1.06.65,2,8.64,3.23,15.59,2.77,15.7Z" fill="#fff"/>
    <path d="M141.74,141.3c-.47,0-.86-7.05-.89-15.91,0-.47.39-.86.88-.86h0c.49,0,.88.39.88.86-.02,8.86-.4,15.91-.88,15.91Z" fill="#fff"/>
    <path d="M141.84,141.31c-.46-.1.77-7.06,2.76-15.7.11-.46.58-.75,1.06-.65h0c.48.11.77.57.66,1.03-2.04,8.63-4.02,15.42-4.48,15.32Z" fill="#fff"/>
    <path d="M141.93,141.35c-.43-.2,2.36-6.71,6.27-14.71.21-.43.74-.61,1.18-.4h0c.44.21.63.72.41,1.15-3.96,7.97-7.44,14.16-7.86,13.96Z" fill="#fff"/>
    <path d="M142.01,141.4c-.37-.29,3.83-6.03,9.47-12.98.3-.37.86-.43,1.24-.14h0c.38.3.44.84.14,1.21-5.68,6.91-10.48,12.19-10.85,11.9Z" fill="#fff"/>
    <path d="M142.08,141.47c-.29-.36,5.11-5.05,12.19-10.6.38-.3.94-.24,1.24.14h0c.3.37.24.92-.14,1.21-7.11,5.51-13,9.61-13.29,9.25Z" fill="#fff"/>
    <path d="M142.13,141.55c-.21-.42,6.13-3.82,14.3-7.68.44-.21.97-.03,1.18.4h0c.21.43.03.95-.41,1.15-8.19,3.83-14.86,6.55-15.07,6.13Z" fill="#fff"/>
    <path d="M142.16,141.64c-.11-.45,6.85-2.39,15.7-4.39.47-.11.95.18,1.06.65h0c.11.46-.19.93-.66,1.03-8.86,1.95-15.99,3.16-16.09,2.71Z" fill="#fff"/>
    <path d="M142.18,141.74c0-.46,7.22-.84,16.3-.87.49,0,.88.38.88.86h0c0,.48-.4.86-.88.86-9.08-.02-16.3-.39-16.3-.86Z" fill="#fff"/>
    <path d="M142.16,141.83c.11-.45,7.23.75,16.09,2.69.47.1.77.57.66,1.03h0c-.11.46-.58.76-1.06.65-8.85-1.99-15.81-3.92-15.7-4.37Z" fill="#fff"/>
    <path d="M142.13,141.93c.21-.42,6.88,2.3,15.08,6.12.44.2.62.72.41,1.15h0c-.21.43-.74.61-1.18.4-8.17-3.86-14.51-7.26-14.31-7.67Z" fill="#fff"/>
    <path d="M142.08,142.01c.3-.36,6.18,3.74,13.3,9.24.38.29.44.84.14,1.21h0c-.3.37-.86.43-1.24.14-7.09-5.54-12.5-10.23-12.2-10.59Z" fill="#fff"/>
    <path d="M142,142.07c.37-.29,5.18,4.98,10.86,11.9.3.37.24.91-.14,1.21h0c-.38.3-.94.24-1.24-.14-5.65-6.94-9.85-12.68-9.48-12.97Z" fill="#fff"/>
    <path d="M141.92,142.12c.43-.2,3.91,5.98,7.88,13.95.21.43.03.94-.41,1.15h0c-.44.21-.97.03-1.18-.4-3.92-7.99-6.71-14.5-6.28-14.7Z" fill="#fff"/>
    <path d="M141.82,142.16c.46-.1,2.45,6.68,4.49,15.31.11.46-.19.92-.66,1.03h0c-.48.11-.95-.18-1.06-.65-2-8.64-3.23-15.59-2.77-15.7Z" fill="#fff"/>
  </g>
  <g>
    <path d="M164.92,164.35c1.72-1.68,29.34,22.53,62.39,54.61,1.77,1.72,1.77,4.52,0,6.25h0c-1.77,1.73-4.65,1.73-6.41,0-32.88-32.25-57.69-59.19-55.98-60.87Z" fill="#a4bee4"/>
    <path d="M159.18,168.82c2.06-1.26,23.46,28.34,48.37,66.79,1.33,2.06.69,4.79-1.43,6.1h0c-2.12,1.3-4.92.68-6.25-1.39-24.7-38.58-42.75-70.23-40.69-71.49Z" fill="#a4bee4"/>
    <path d="M152.57,171.92c2.29-.78,16.41,32.72,31.92,75.61.83,2.3-.42,4.82-2.78,5.63h0c-2.37.81-4.96-.41-5.78-2.71-15.28-42.97-25.65-77.75-23.36-78.53Z" fill="#a4bee4"/>
    <path d="M145.41,173.52c2.41-.27,8.53,35.46,13.87,80.65.29,2.42-1.51,4.61-4,4.89h0c-2.49.27-4.74-1.47-5.01-3.9-5.1-45.21-7.28-81.37-4.86-81.64Z" fill="#a4bee4"/>
    <path d="M138.07,173.52c2.41.27.23,36.43-4.87,81.64-.27,2.42-2.52,4.17-5.01,3.9h0c-2.49-.27-4.28-2.46-4-4.89,5.34-45.18,11.47-80.91,13.88-80.65Z" fill="#a4bee4"/>
    <path d="M130.91,171.93c2.29.78-8.08,35.56-23.37,78.53-.82,2.3-3.41,3.52-5.78,2.71h0c-2.37-.81-3.62-3.33-2.78-5.63,15.51-42.89,29.63-76.39,31.93-75.61Z" fill="#a4bee4"/>
    <path d="M124.29,168.82c2.06,1.26-15.99,32.92-40.69,71.49-1.32,2.07-4.13,2.69-6.25,1.39h0c-2.12-1.3-2.76-4.03-1.43-6.09,24.91-38.45,46.32-68.04,48.37-66.78Z" fill="#a4bee4"/>
    <path d="M118.55,164.36c1.72,1.68-23.1,28.62-55.98,60.86-1.76,1.73-4.64,1.73-6.41,0h0c-1.77-1.73-1.77-4.53,0-6.25,33.05-32.08,60.68-56.28,62.39-54.61Z" fill="#a4bee4"/>
    <path d="M113.97,158.75c1.29,2.01-29.05,22.89-68.46,47.19-2.11,1.3-4.91.68-6.25-1.39h0c-1.33-2.07-.7-4.8,1.42-6.1,39.54-24.1,71.99-41.7,73.28-39.69Z" fill="#a4bee4"/>
    <path d="M110.79,152.3c.8,2.24-33.54,16.01-77.51,31.14-2.36.81-4.94-.41-5.77-2.72h0c-.83-2.31.42-4.84,2.78-5.63,44.05-14.91,79.7-25.03,80.5-22.79Z" fill="#a4bee4"/>
    <path d="M109.15,145.32c.27,2.35-36.35,8.33-82.67,13.53-2.48.28-4.73-1.47-5.01-3.9h0c-.28-2.43,1.51-4.62,3.99-4.89,46.34-4.97,83.41-7.1,83.68-4.74Z" fill="#a4bee4"/>
    <path d="M109.15,138.16c-.27,2.36-37.34.23-83.68-4.75-2.48-.27-4.27-2.46-3.99-4.89h0c.28-2.43,2.53-4.18,5.01-3.9,46.32,5.21,82.94,11.19,82.66,13.54Z" fill="#a4bee4"/>
    <path d="M110.78,131.17c-.8,2.24-36.45-7.88-80.5-22.8-2.36-.8-3.61-3.33-2.78-5.63h0c.83-2.31,3.42-3.53,5.77-2.72,43.97,15.14,78.31,28.91,77.5,31.15Z" fill="#a4bee4"/>
    <path d="M113.97,124.72c-1.29,2.01-33.74-15.6-73.28-39.7-2.12-1.29-2.76-4.02-1.42-6.1h0c1.33-2.07,4.13-2.7,6.25-1.39,39.41,24.3,69.75,45.18,68.46,47.19Z" fill="#a4bee4"/>
    <path d="M118.55,119.12c-1.72,1.68-29.34-22.53-62.39-54.61-1.77-1.72-1.77-4.52,0-6.25h0c1.77-1.73,4.65-1.73,6.41,0,32.88,32.25,57.69,59.19,55.98,60.87Z" fill="#a4bee4"/>
    <path d="M124.28,114.65c-2.06,1.26-23.46-28.34-48.37-66.79-1.33-2.06-.69-4.79,1.43-6.1h0c2.12-1.3,4.92-.68,6.25,1.39,24.7,38.58,42.75,70.23,40.69,71.49Z" fill="#a4bee4"/>
    <path d="M130.9,111.54c-2.29.78-16.41-32.72-31.92-75.61-.83-2.3.42-4.82,2.78-5.63h0c2.37-.81,4.96.41,5.78,2.71,15.28,42.97,25.65,77.75,23.36,78.53Z" fill="#a4bee4"/>
    <path d="M138.06,109.95c-2.41.27-8.53-35.46-13.87-80.65-.29-2.42,1.51-4.61,4-4.89h0c2.49-.27,4.74,1.47,5.01,3.9,5.1,45.21,7.28,81.37,4.86,81.64Z" fill="#a4bee4"/>
    <path d="M145.4,109.95c-2.41-.27-.23-36.43,4.87-81.64.27-2.42,2.52-4.17,5.01-3.9h0c2.49.27,4.28,2.46,4,4.89-5.34,45.18-11.47,80.91-13.88,80.65Z" fill="#a4bee4"/>
    <path d="M152.56,111.54c-2.29-.78,8.08-35.56,23.37-78.53.82-2.3,3.41-3.52,5.78-2.71h0c2.37.81,3.62,3.33,2.78,5.63-15.51,42.89-29.63,76.39-31.93,75.61Z" fill="#a4bee4"/>
    <path d="M159.17,114.65c-2.06-1.26,15.99-32.92,40.69-71.49,1.32-2.07,4.13-2.69,6.25-1.39h0c2.12,1.3,2.76,4.03,1.43,6.09-24.91,38.45-46.32,68.04-48.37,66.78Z" fill="#a4bee4"/>
    <path d="M164.92,119.11c-1.72-1.68,23.1-28.62,55.98-60.86,1.76-1.73,4.64-1.73,6.41,0h0c1.77,1.73,1.77,4.53,0,6.25-33.05,32.08-60.68,56.28-62.39,54.61Z" fill="#a4bee4"/>
    <path d="M169.49,124.71c-1.29-2.01,29.05-22.89,68.46-47.19,2.11-1.3,4.91-.68,6.25,1.39h0c1.33,2.07.7,4.8-1.42,6.1-39.54,24.1-71.99,41.7-73.28,39.69Z" fill="#a4bee4"/>
    <path d="M172.68,131.17c-.8-2.24,33.54-16.01,77.51-31.14,2.36-.81,4.94.41,5.77,2.72h0c.83,2.31-.42,4.84-2.78,5.63-44.05,14.91-79.7,25.03-80.5,22.79Z" fill="#a4bee4"/>
    <path d="M174.32,138.15c-.27-2.35,36.35-8.33,82.67-13.53,2.48-.28,4.73,1.47,5.01,3.9h0c.28,2.43-1.51,4.62-3.99,4.89-46.34,4.97-83.41,7.1-83.68,4.74Z" fill="#a4bee4"/>
    <path d="M174.31,145.31c.27-2.36,37.34-.23,83.68,4.75,2.48.27,4.27,2.46,3.99,4.89h0c-.28,2.43-2.53,4.18-5.01,3.9-46.32-5.21-82.94-11.19-82.66-13.54Z" fill="#a4bee4"/>
    <path d="M172.68,152.29c.8-2.24,36.45,7.88,80.5,22.8,2.36.8,3.61,3.33,2.78,5.63h0c-.83,2.31-3.42,3.53-5.77,2.72-43.97-15.14-78.31-28.91-77.5-31.15Z" fill="#a4bee4"/>
    <path d="M169.49,158.75c1.29-2.01,33.74,15.6,73.28,39.7,2.12,1.29,2.76,4.02,1.42,6.1h0c-1.33,2.07-4.13,2.7-6.25,1.39-39.41-24.3-69.75-45.18-68.46-47.19Z" fill="#a4bee4"/>
  </g>
</svg>