<?xml version="1.0" encoding="UTF-8"?>
<svg id="a" data-name="图层 1" xmlns="http://www.w3.org/2000/svg" width="100mm" height="100mm" viewBox="0 0 283.46 283.46">
  <g>
    <path d="M169.05,169.05c2.02-2.02,34.57,27.22,73.51,65.96,2.09,2.08,2.09,5.46,0,7.55h0c-2.09,2.09-5.47,2.09-7.55,0-38.74-38.95-67.98-71.49-65.96-73.52Z" fill="#a4bee4"/>
    <path d="M162.29,174.44c2.42-1.52,27.64,34.23,56.99,80.67,1.57,2.49.82,5.79-1.68,7.36h0c-2.5,1.57-5.8.82-7.36-1.68-29.1-46.59-50.37-84.83-47.94-86.35Z" fill="#a4bee4"/>
    <path d="M154.5,178.2c2.7-.95,19.34,39.52,37.61,91.33.98,2.78-.49,5.83-3.28,6.8h0c-2.79.98-5.84-.49-6.81-3.27-18.01-51.9-30.23-93.91-27.53-94.85Z" fill="#a4bee4"/>
    <path d="M146.06,180.12c2.84-.32,10.06,42.83,16.35,97.41.34,2.93-1.78,5.57-4.71,5.9h0c-2.94.33-5.58-1.78-5.91-4.71-6.01-54.61-8.57-98.28-5.73-98.6Z" fill="#a4bee4"/>
    <path d="M137.41,180.12c2.84.32.27,43.99-5.74,98.6-.32,2.93-2.97,5.04-5.91,4.71h0c-2.94-.33-5.05-2.98-4.71-5.9,6.3-54.57,13.51-97.73,16.36-97.4Z" fill="#a4bee4"/>
    <path d="M128.97,178.2c2.7.95-9.52,42.95-27.53,94.85-.97,2.78-4.02,4.25-6.81,3.27h0c-2.79-.98-4.26-4.03-3.28-6.8,18.28-51.8,34.92-92.27,37.62-91.32Z" fill="#a4bee4"/>
    <path d="M121.18,174.45c2.42,1.52-18.84,39.76-47.95,86.35-1.56,2.5-4.86,3.25-7.36,1.68h0c-2.5-1.57-3.26-4.87-1.68-7.36,29.35-46.44,54.57-82.18,57-80.66Z" fill="#a4bee4"/>
    <path d="M114.42,169.05c2.02,2.02-27.22,34.57-65.96,73.51-2.08,2.09-5.46,2.09-7.55,0h0c-2.09-2.09-2.09-5.47,0-7.55,38.95-38.74,71.49-67.98,73.52-65.96Z" fill="#a4bee4"/>
    <path d="M109.02,162.29c1.52,2.42-34.23,27.64-80.67,56.99-2.49,1.57-5.79.82-7.36-1.68h0c-1.57-2.5-.82-5.8,1.68-7.36,46.59-29.1,84.83-50.37,86.35-47.94Z" fill="#a4bee4"/>
    <path d="M105.27,154.5c.95,2.7-39.52,19.34-91.33,37.61-2.78.98-5.83-.49-6.8-3.28h0c-.98-2.79.49-5.84,3.27-6.81,51.9-18.01,93.91-30.23,94.85-27.53Z" fill="#a4bee4"/>
    <path d="M103.34,146.06c.32,2.84-42.83,10.06-97.4,16.35-2.93.34-5.57-1.78-5.9-4.71h0c-.33-2.94,1.78-5.58,4.71-5.91,54.61-6.01,98.28-8.57,98.6-5.73Z" fill="#a4bee4"/>
    <path d="M103.34,137.41c-.32,2.84-43.99.27-98.6-5.74-2.93-.32-5.04-2.97-4.71-5.91h0c.33-2.94,2.98-5.05,5.9-4.71,54.57,6.3,97.72,13.51,97.4,16.36Z" fill="#a4bee4"/>
    <path d="M105.26,128.98c-.95,2.7-42.95-9.52-94.85-27.53-2.78-.97-4.25-4.02-3.27-6.81h0c.98-2.79,4.03-4.26,6.8-3.28,51.8,18.28,92.27,34.92,91.32,37.62Z" fill="#a4bee4"/>
    <path d="M109.02,121.18c-1.52,2.42-39.76-18.84-86.35-47.95-2.5-1.56-3.25-4.86-1.68-7.36h0c1.57-2.5,4.87-3.26,7.36-1.68,46.44,29.35,82.18,54.57,80.66,57Z" fill="#a4bee4"/>
    <path d="M114.41,114.42c-2.02,2.02-34.57-27.22-73.51-65.96-2.09-2.08-2.09-5.46,0-7.55h0c2.09-2.09,5.47-2.09,7.55,0,38.74,38.95,67.98,71.49,65.96,73.52Z" fill="#a4bee4"/>
    <path d="M121.17,109.02c-2.42,1.52-27.64-34.23-56.99-80.67-1.57-2.49-.82-5.79,1.68-7.36h0c2.5-1.57,5.8-.82,7.36,1.68,29.1,46.59,50.37,84.83,47.94,86.35Z" fill="#a4bee4"/>
    <path d="M128.97,105.27c-2.7.95-19.34-39.52-37.61-91.33-.98-2.78.49-5.83,3.28-6.8h0c2.79-.98,5.84.49,6.81,3.27,18.01,51.9,30.23,93.91,27.53,94.85Z" fill="#a4bee4"/>
    <path d="M137.4,103.34c-2.84.32-10.06-42.83-16.35-97.41-.34-2.93,1.78-5.57,4.71-5.9h0c2.94-.33,5.58,1.78,5.91,4.71,6.01,54.61,8.57,98.28,5.73,98.6Z" fill="#a4bee4"/>
    <path d="M146.05,103.34c-2.84-.32-.27-43.99,5.74-98.6.32-2.93,2.97-5.04,5.91-4.71h0c2.94.33,5.05,2.98,4.71,5.9-6.3,54.57-13.51,97.73-16.36,97.4Z" fill="#a4bee4"/>
    <path d="M154.49,105.26c-2.7-.95,9.52-42.95,27.53-94.85.97-2.78,4.02-4.25,6.81-3.27h0c2.79.98,4.26,4.03,3.28,6.8-18.28,51.8-34.92,92.27-37.62,91.32Z" fill="#a4bee4"/>
    <path d="M162.28,109.02c-2.42-1.52,18.84-39.76,47.95-86.35,1.56-2.5,4.86-3.25,7.36-1.68h0c2.5,1.57,3.26,4.87,1.68,7.36-29.35,46.44-54.57,82.18-57,80.66Z" fill="#a4bee4"/>
    <path d="M169.05,114.41c-2.02-2.02,27.22-34.57,65.96-73.51,2.08-2.09,5.46-2.09,7.55,0h0c2.09,2.09,2.09,5.47,0,7.55-38.95,38.74-71.49,67.98-73.52,65.96Z" fill="#a4bee4"/>
    <path d="M174.44,121.17c-1.52-2.42,34.23-27.64,80.67-56.99,2.49-1.57,5.79-.82,7.36,1.68h0c1.57,2.5.82,5.8-1.68,7.36-46.59,29.1-84.83,50.37-86.35,47.94Z" fill="#a4bee4"/>
    <path d="M178.2,128.97c-.95-2.7,39.52-19.34,91.33-37.61,2.78-.98,5.83.49,6.8,3.28h0c.98,2.79-.49,5.84-3.27,6.81-51.9,18.01-93.91,30.23-94.85,27.53Z" fill="#a4bee4"/>
    <path d="M180.12,137.4c-.32-2.84,42.83-10.06,97.4-16.35,2.93-.34,5.57,1.78,5.9,4.71h0c.33,2.94-1.78,5.58-4.71,5.91-54.61,6.01-98.28,8.57-98.6,5.73Z" fill="#a4bee4"/>
    <path d="M180.12,146.05c.32-2.84,43.99-.27,98.6,5.74,2.93.32,5.04,2.97,4.71,5.91h0c-.33,2.94-2.98,5.05-5.9,4.71-54.57-6.3-97.72-13.51-97.4-16.36Z" fill="#a4bee4"/>
    <path d="M178.2,154.49c.95-2.7,42.95,9.52,94.85,27.53,2.78.97,4.25,4.02,3.27,6.81h0c-.98,2.79-4.03,4.26-6.8,3.28-51.8-18.28-92.27-34.92-91.32-37.62Z" fill="#a4bee4"/>
    <path d="M174.45,162.28c1.52-2.42,39.76,18.84,86.35,47.95,2.5,1.56,3.25,4.86,1.68,7.36h0c-1.57,2.5-4.87,3.26-7.36,1.68-46.44-29.35-82.18-54.57-80.66-57Z" fill="#a4bee4"/>
  </g>
  <path d="M261.22,99.94c2.74,7.92-29.15,23.62-28.26,31.62.92,8.26,35.42,16.54,34.49,24.6-.94,8.2-36.45,8.43-39.15,16.13-2.72,7.74,24.8,30.26,20.45,37.2-4.33,6.91-36.42-8.29-42.24-2.47-5.72,5.73,9.36,38.02,2.35,42.43-6.79,4.26-29.08-23.44-36.97-20.69-7.89,2.76-8.23,38.38-16.19,39.28-8.22.93-16.36-33.79-24.39-34.72-8.16-.94-23.91,30.99-31.58,28.28-7.71-2.73-.05-37.54-6.97-41.92-6.88-4.35-34.86,17.62-40.66,11.78-5.71-5.74,16.21-33.75,11.83-40.8-4.24-6.82-38.95.76-41.7-7.16-2.74-7.92,29.15-23.62,28.26-31.62-.92-8.26-35.42-16.54-34.49-24.6.94-8.2,36.45-8.43,39.15-16.13,2.72-7.74-24.8-30.26-20.45-37.2,4.33-6.91,36.42,8.29,42.24,2.47,5.72-5.73-9.36-38.02-2.35-42.43,6.79-4.26,29.08,23.44,36.97,20.69,7.89-2.76,8.23-38.38,16.19-39.28,8.22-.93,16.36,33.79,24.39,34.72,8.16.94,23.91-30.99,31.58-28.28,7.71,2.73.05,37.54,6.97,41.92,6.88,4.35,34.86-17.62,40.66-11.78,5.71,5.74-16.21,33.75-11.83,40.8,4.24,6.82,38.95-.76,41.7,7.16Z" fill="#364093"/>
  <g>
    <path d="M185.23,185.26c1.17-1.17,19.92,15.67,42.36,37.98,1.2,1.2,1.2,3.15,0,4.35h0c-1.2,1.2-3.15,1.2-4.35,0-22.32-22.43-39.17-41.16-38.01-42.33Z" fill="#5284c4"/>
    <path d="M162.04,199.82c1.56-.54,11.15,22.76,21.68,52.6.56,1.6-.28,3.36-1.89,3.92h0c-1.61.56-3.36-.28-3.92-1.89-10.38-29.89-17.43-54.08-15.88-54.63Z" fill="#5284c4"/>
    <path d="M134.82,202.88c1.64.19.17,25.34-3.28,56.8-.18,1.69-1.71,2.9-3.4,2.71h0c-1.69-.19-2.91-1.72-2.71-3.4,3.61-31.44,7.76-56.29,9.4-56.11Z" fill="#5284c4"/>
    <path d="M108.98,193.83c1.4.88-10.85,22.91-27.6,49.75-.9,1.44-2.8,1.87-4.24.97h0c-1.44-.91-1.88-2.81-.97-4.24,16.9-26.75,31.42-47.35,32.81-46.47Z" fill="#5284c4"/>
    <path d="M89.62,174.45c.88,1.4-19.71,15.93-46.45,32.85-1.43.91-3.33.47-4.24-.97h0c-.91-1.44-.47-3.34.97-4.24,26.83-16.77,48.85-29.03,49.72-27.63Z" fill="#5284c4"/>
    <path d="M80.58,148.6c.18,1.64-24.67,5.8-56.1,9.44-1.68.19-3.21-1.02-3.4-2.71h0c-.19-1.69,1.03-3.22,2.71-3.4,31.45-3.47,56.61-4.96,56.79-3.32Z" fill="#5284c4"/>
    <path d="M83.65,121.39c-.55,1.56-24.74-5.48-54.64-15.84-1.6-.56-2.45-2.31-1.88-3.92h0c.56-1.61,2.32-2.45,3.92-1.89,29.84,10.52,53.15,20.09,52.61,21.65Z" fill="#5284c4"/>
    <path d="M98.23,98.21c-1.17,1.17-19.92-15.67-42.36-37.98-1.2-1.2-1.2-3.15,0-4.35h0c1.2-1.2,3.15-1.2,4.35,0,22.32,22.43,39.17,41.16,38.01,42.33Z" fill="#5284c4"/>
    <path d="M121.43,83.64c-1.56.54-11.15-22.76-21.68-52.6-.56-1.6.28-3.36,1.89-3.92h0c1.61-.56,3.36.28,3.92,1.89,10.38,29.89,17.43,54.08,15.88,54.63Z" fill="#5284c4"/>
    <path d="M148.64,80.59c-1.64-.19-.17-25.34,3.28-56.8.18-1.69,1.71-2.9,3.4-2.71h0c1.69.19,2.91,1.72,2.71,3.4-3.61,31.44-7.76,56.29-9.4,56.11Z" fill="#5284c4"/>
    <path d="M174.49,89.64c-1.4-.88,10.85-22.91,27.6-49.75.9-1.44,2.8-1.87,4.24-.97h0c1.44.91,1.88,2.81.97,4.24-16.9,26.75-31.42,47.35-32.81,46.47Z" fill="#5284c4"/>
    <path d="M193.84,109.01c-.88-1.4,19.71-15.93,46.45-32.85,1.43-.91,3.33-.47,4.24.97h0c.91,1.44.47,3.34-.97,4.24-26.83,16.77-48.85,29.03-49.72,27.63Z" fill="#5284c4"/>
    <path d="M202.88,134.86c-.18-1.64,24.67-5.8,56.1-9.44,1.68-.19,3.21,1.02,3.4,2.71h0c.19,1.69-1.03,3.22-2.71,3.4-31.45,3.47-56.61,4.96-56.79,3.32Z" fill="#5284c4"/>
    <path d="M199.81,162.07c.55-1.56,24.74,5.48,54.64,15.84,1.6.56,2.45,2.31,1.88,3.92h0c-.56,1.61-2.32,2.45-3.92,1.89-29.84-10.52-53.15-20.09-52.61-21.65Z" fill="#5284c4"/>
  </g>
  <g>
    <path d="M141.71,174.78c1.65,0,3.01,25.18,3.1,56.84,0,1.7-1.37,3.08-3.08,3.08h0c-1.7,0-3.08-1.38-3.08-3.08.07-31.66,1.41-56.84,3.06-56.84Z" fill="#4272b7"/>
    <path d="M134.36,173.95c1.61.37-2.67,25.22-9.63,56.11-.37,1.66-2.02,2.69-3.69,2.31h0c-1.66-.38-2.7-2.03-2.32-3.69,7.11-30.85,14.02-55.1,15.63-54.74Z" fill="#4272b7"/>
    <path d="M127.37,171.5c1.49.72-8.22,23.99-21.87,52.56-.73,1.53-2.57,2.17-4.11,1.44h0c-1.53-.74-2.18-2.58-1.44-4.11,13.8-28.5,25.93-50.6,27.42-49.89Z" fill="#4272b7"/>
    <path d="M121.11,167.56c1.29,1.03-13.35,21.56-33.02,46.38-1.05,1.33-2.99,1.55-4.32.49h0c-1.33-1.06-1.55-3-.49-4.33,19.8-24.71,36.54-43.56,37.83-42.53Z" fill="#4272b7"/>
    <path d="M115.88,162.32c1.03,1.29-17.81,18.05-42.51,37.87-1.32,1.06-3.26.84-4.32-.49h0c-1.06-1.33-.84-3.27.49-4.33,24.8-19.69,45.32-34.34,46.35-33.05Z" fill="#4272b7"/>
    <path d="M111.95,156.05c.72,1.49-21.38,13.63-49.87,27.46-1.53.74-3.37.1-4.11-1.44h0c-.74-1.53-.09-3.38,1.44-4.11,28.56-13.67,51.82-23.39,52.54-21.91Z" fill="#4272b7"/>
    <path d="M109.51,149.07c.37,1.61-23.88,8.53-54.73,15.67-1.65.38-3.3-.66-3.68-2.32h0c-.38-1.66.66-3.31,2.31-3.69,30.88-6.98,55.73-11.28,56.1-9.67Z" fill="#4272b7"/>
    <path d="M108.68,141.71c0,1.65-25.18,3.01-56.84,3.1-1.7,0-3.08-1.37-3.08-3.08h0c0-1.7,1.38-3.08,3.08-3.08,31.66.07,56.84,1.41,56.84,3.06Z" fill="#4272b7"/>
    <path d="M109.52,134.36c-.37,1.61-25.22-2.67-56.11-9.63-1.66-.37-2.69-2.02-2.31-3.69h0c.38-1.66,2.03-2.7,3.69-2.32,30.85,7.11,55.1,14.02,54.74,15.63Z" fill="#4272b7"/>
    <path d="M111.96,127.37c-.72,1.49-23.99-8.22-52.56-21.87-1.53-.73-2.17-2.57-1.44-4.11h0c.74-1.53,2.58-2.18,4.11-1.44,28.5,13.8,50.6,25.93,49.89,27.42Z" fill="#4272b7"/>
    <path d="M115.91,121.11c-1.03,1.29-21.56-13.35-46.37-33.02-1.33-1.05-1.55-2.99-.49-4.32h0c1.06-1.33,3-1.55,4.33-.49,24.71,19.8,43.56,36.54,42.53,37.83Z" fill="#4272b7"/>
    <path d="M121.14,115.88c-1.29,1.03-18.05-17.81-37.87-42.51-1.06-1.32-.84-3.26.49-4.32h0c1.33-1.06,3.27-.84,4.33.49,19.69,24.8,34.34,45.32,33.05,46.35Z" fill="#4272b7"/>
    <path d="M127.41,111.95c-1.49.72-13.63-21.38-27.46-49.87-.74-1.53-.1-3.37,1.44-4.11h0c1.53-.74,3.38-.09,4.11,1.44,13.67,28.56,23.39,51.82,21.91,52.54Z" fill="#4272b7"/>
    <path d="M134.4,109.51c-1.61.37-8.53-23.88-15.67-54.73-.38-1.65.66-3.3,2.32-3.68h0c1.66-.38,3.31.66,3.69,2.31,6.98,30.88,11.28,55.73,9.67,56.1Z" fill="#4272b7"/>
    <path d="M141.75,108.68c-1.65,0-3.01-25.18-3.1-56.84,0-1.7,1.37-3.08,3.08-3.08h0c1.7,0,3.08,1.38,3.08,3.08-.07,31.66-1.41,56.84-3.06,56.84Z" fill="#4272b7"/>
    <path d="M149.11,109.52c-1.61-.37,2.67-25.22,9.63-56.11.37-1.66,2.02-2.69,3.69-2.31h0c1.66.38,2.7,2.03,2.32,3.69-7.11,30.85-14.02,55.1-15.63,54.74Z" fill="#4272b7"/>
    <path d="M156.09,111.96c-1.49-.72,8.22-23.99,21.87-52.56.73-1.53,2.57-2.17,4.11-1.44h0c1.53.74,2.18,2.58,1.44,4.11-13.8,28.5-25.93,50.6-27.42,49.89Z" fill="#4272b7"/>
    <path d="M162.35,115.91c-1.29-1.03,13.35-21.56,33.02-46.38,1.05-1.33,2.99-1.55,4.32-.49h0c1.33,1.06,1.55,3,.49,4.33-19.8,24.71-36.54,43.56-37.83,42.53Z" fill="#4272b7"/>
    <path d="M167.58,121.14c-1.03-1.29,17.81-18.05,42.51-37.87,1.32-1.06,3.26-.84,4.32.49h0c1.06,1.33.84,3.27-.49,4.33-24.8,19.69-45.32,34.34-46.35,33.05Z" fill="#4272b7"/>
    <path d="M171.52,127.41c-.72-1.49,21.38-13.63,49.87-27.46,1.53-.74,3.37-.1,4.11,1.44h0c.74,1.53.09,3.38-1.44,4.11-28.56,13.67-51.82,23.39-52.54,21.91Z" fill="#4272b7"/>
    <path d="M173.96,134.4c-.37-1.61,23.88-8.53,54.73-15.67,1.65-.38,3.3.66,3.68,2.32h0c.38,1.66-.66,3.31-2.31,3.69-30.88,6.98-55.73,11.28-56.1,9.67Z" fill="#4272b7"/>
    <path d="M174.78,141.75c0-1.65,25.18-3.01,56.84-3.1,1.7,0,3.08,1.37,3.08,3.08h0c0,1.7-1.38,3.08-3.08,3.08-31.66-.07-56.84-1.41-56.84-3.06Z" fill="#4272b7"/>
    <path d="M173.95,149.11c.37-1.61,25.22,2.67,56.11,9.63,1.66.37,2.69,2.02,2.31,3.69h0c-.38,1.66-2.03,2.7-3.69,2.32-30.85-7.11-55.1-14.02-54.74-15.63Z" fill="#4272b7"/>
    <path d="M171.5,156.09c.72-1.49,23.99,8.22,52.56,21.87,1.53.73,2.17,2.57,1.44,4.11h0c-.74,1.53-2.58,2.18-4.11,1.44-28.5-13.8-50.6-25.93-49.89-27.42Z" fill="#4272b7"/>
    <path d="M167.56,162.35c1.03-1.29,21.56,13.35,46.37,33.02,1.33,1.05,1.55,2.99.49,4.32h0c-1.06,1.33-3,1.55-4.33.49-24.71-19.8-43.56-36.54-42.53-37.83Z" fill="#4272b7"/>
    <path d="M162.32,167.58c1.29-1.03,18.05,17.81,37.87,42.51,1.06,1.32.84,3.26-.49,4.32h0c-1.33,1.06-3.27.84-4.33-.49-19.69-24.8-34.34-45.32-33.05-46.35Z" fill="#4272b7"/>
    <path d="M156.05,171.52c1.49-.72,13.63,21.38,27.46,49.87.74,1.53.1,3.37-1.44,4.11h0c-1.53.74-3.38.09-4.11-1.44-13.67-28.56-23.39-51.82-21.91-52.54Z" fill="#4272b7"/>
    <path d="M149.06,173.96c1.61-.37,8.53,23.88,15.67,54.73.38,1.65-.66,3.3-2.32,3.68h0c-1.66.38-3.31-.66-3.69-2.31-6.98-30.88-11.28-55.73-9.67-56.1Z" fill="#4272b7"/>
  </g>
  <g>
    <path d="M141.72,151.48c.5,0,.92,7.69.95,17.37,0,.52-.42.94-.94.94h0c-.52,0-.94-.42-.94-.94.02-9.67.43-17.37.93-17.37Z" fill="#fff"/>
    <path d="M139.56,151.24c.49.11-.82,7.7-2.94,17.14-.11.51-.62.82-1.13.71h0c-.51-.12-.82-.62-.71-1.13,2.17-9.43,4.28-16.83,4.78-16.72Z" fill="#fff"/>
    <path d="M137.5,150.51c.45.22-2.51,7.33-6.68,16.06-.22.47-.79.66-1.25.44h0c-.47-.23-.67-.79-.44-1.26,4.22-8.71,7.92-15.46,8.38-15.24Z" fill="#fff"/>
    <path d="M135.65,149.35c.39.31-4.08,6.59-10.09,14.17-.32.41-.91.47-1.32.15h0c-.41-.32-.47-.92-.15-1.32,6.05-7.55,11.16-13.31,11.56-12.99Z" fill="#fff"/>
    <path d="M134.11,147.81c.31.39-5.44,5.51-12.99,11.57-.4.32-1,.26-1.32-.15h0c-.32-.41-.26-1,.15-1.32,7.58-6.01,13.85-10.49,14.16-10.1Z" fill="#fff"/>
    <path d="M132.94,145.95c.22.45-6.53,4.17-15.24,8.39-.47.23-1.03.03-1.25-.44h0c-.23-.47-.03-1.03.44-1.26,8.72-4.18,15.83-7.15,16.05-6.69Z" fill="#fff"/>
    <path d="M132.23,143.9c.11.49-7.3,2.61-16.72,4.79-.51.12-1.01-.2-1.13-.71h0c-.12-.51.2-1.01.71-1.13,9.44-2.13,17.03-3.44,17.14-2.95Z" fill="#fff"/>
    <path d="M131.98,141.73c0,.5-7.69.92-17.37.95-.52,0-.94-.42-.94-.94h0c0-.52.42-.94.94-.94,9.67.02,17.37.43,17.37.93Z" fill="#fff"/>
    <path d="M132.23,139.55c-.11.49-7.7-.82-17.14-2.94-.51-.11-.82-.62-.71-1.13h0c.12-.51.62-.82,1.13-.71,9.43,2.17,16.83,4.28,16.72,4.78Z" fill="#fff"/>
    <path d="M132.95,137.5c-.22.45-7.33-2.51-16.06-6.68-.47-.22-.66-.79-.44-1.25h0c.23-.47.79-.67,1.26-.44,8.71,4.22,15.46,7.92,15.24,8.38Z" fill="#fff"/>
    <path d="M134.11,135.65c-.31.39-6.59-4.08-14.17-10.09-.41-.32-.47-.91-.15-1.32h0c.32-.41.92-.47,1.32-.15,7.55,6.05,13.31,11.16,12.99,11.56Z" fill="#fff"/>
    <path d="M135.66,134.11c-.39.31-5.51-5.44-11.57-12.99-.32-.4-.26-1,.15-1.32h0c.41-.32,1-.26,1.32.15,6.01,7.58,10.49,13.85,10.1,14.16Z" fill="#fff"/>
    <path d="M137.51,132.95c-.45.22-4.17-6.53-8.39-15.24-.23-.47-.03-1.03.44-1.25h0c.47-.23,1.03-.03,1.26.44,4.18,8.72,7.15,15.83,6.69,16.05Z" fill="#fff"/>
    <path d="M139.57,132.23c-.49.11-2.61-7.3-4.79-16.72-.12-.51.2-1.01.71-1.13h0c.51-.12,1.01.2,1.13.71,2.13,9.44,3.44,17.03,2.95,17.14Z" fill="#fff"/>
    <path d="M141.74,131.98c-.5,0-.92-7.69-.95-17.37,0-.52.42-.94.94-.94h0c.52,0,.94.42.94.94-.02,9.67-.43,17.37-.93,17.37Z" fill="#fff"/>
    <path d="M143.91,132.23c-.49-.11.82-7.7,2.94-17.14.11-.51.62-.82,1.13-.71h0c.51.12.82.62.71,1.13-2.17,9.43-4.28,16.83-4.78,16.72Z" fill="#fff"/>
    <path d="M145.97,132.95c-.45-.22,2.51-7.33,6.68-16.06.22-.47.79-.66,1.25-.44h0c.47.23.67.79.44,1.26-4.22,8.71-7.92,15.46-8.38,15.24Z" fill="#fff"/>
    <path d="M147.82,134.11c-.39-.31,4.08-6.59,10.09-14.17.32-.41.91-.47,1.32-.15h0c.41.32.47.92.15,1.32-6.05,7.55-11.16,13.31-11.56,12.99Z" fill="#fff"/>
    <path d="M149.36,135.66c-.31-.39,5.44-5.51,12.99-11.57.4-.32,1-.26,1.32.15h0c.32.41.26,1-.15,1.32-7.58,6.01-13.85,10.49-14.16,10.1Z" fill="#fff"/>
    <path d="M150.52,137.51c-.22-.45,6.53-4.17,15.24-8.39.47-.23,1.03-.03,1.25.44h0c.23.47.03,1.03-.44,1.26-8.72,4.18-15.83,7.15-16.05,6.69Z" fill="#fff"/>
    <path d="M151.24,139.57c-.11-.49,7.3-2.61,16.72-4.79.51-.12,1.01.2,1.13.71h0c.12.51-.2,1.01-.71,1.13-9.44,2.13-17.03,3.44-17.14,2.95Z" fill="#fff"/>
    <path d="M151.48,141.74c0-.5,7.69-.92,17.37-.95.52,0,.94.42.94.94h0c0,.52-.42.94-.94.94-9.67-.02-17.37-.43-17.37-.93Z" fill="#fff"/>
    <path d="M151.23,143.91c.11-.49,7.7.82,17.14,2.94.51.11.82.62.71,1.13h0c-.12.51-.62.82-1.13.71-9.43-2.17-16.83-4.28-16.72-4.78Z" fill="#fff"/>
    <path d="M150.51,145.97c.22-.45,7.33,2.51,16.06,6.68.47.22.66.79.44,1.25h0c-.23.47-.79.67-1.26.44-8.71-4.22-15.46-7.92-15.24-8.38Z" fill="#fff"/>
    <path d="M149.35,147.82c.31-.39,6.59,4.08,14.17,10.09.41.32.47.91.15,1.32h0c-.32.41-.92.47-1.32.15-7.55-6.05-13.31-11.16-12.99-11.56Z" fill="#fff"/>
    <path d="M147.8,149.36c.39-.31,5.51,5.44,11.57,12.99.32.4.26,1-.15,1.32h0c-.41.32-1,.26-1.32-.15-6.01-7.58-10.49-13.85-10.1-14.16Z" fill="#fff"/>
    <path d="M145.96,150.52c.45-.22,4.17,6.53,8.39,15.24.23.47.03,1.03-.44,1.25h0c-.47.23-1.03.03-1.26-.44-4.18-8.72-7.15-15.83-6.69-16.05Z" fill="#fff"/>
    <path d="M143.89,151.24c.49-.11,2.61,7.3,4.79,16.72.12.51-.2,1.01-.71,1.13h0c-.51.12-1.01-.2-1.13-.71-2.13-9.44-3.44-17.03-2.95-17.14Z" fill="#fff"/>
  </g>
</svg>