<?xml version="1.0" encoding="UTF-8"?>
<svg id="a" data-name="图层 1" xmlns="http://www.w3.org/2000/svg" width="100mm" height="100mm" viewBox="0 0 283.46 283.46">
  <g>
    <path d="M169.05,169.05c2.02-2.02,34.57,27.22,73.51,65.96,2.09,2.08,2.09,5.46,0,7.55h0c-2.09,2.09-5.47,2.09-7.55,0-38.74-38.95-67.98-71.49-65.96-73.52Z" fill="#a4bee4"/>
    <path d="M162.29,174.44c2.42-1.52,27.64,34.23,56.99,80.67,1.57,2.49.82,5.79-1.68,7.36h0c-2.5,1.57-5.8.82-7.36-1.68-29.1-46.59-50.37-84.83-47.94-86.35Z" fill="#a4bee4"/>
    <path d="M154.5,178.2c2.7-.95,19.34,39.52,37.61,91.33.98,2.78-.49,5.83-3.28,6.8h0c-2.79.98-5.84-.49-6.81-3.27-18.01-51.9-30.23-93.91-27.53-94.86Z" fill="#a4bee4"/>
    <path d="M146.06,180.12c2.84-.32,10.06,42.83,16.35,97.41.34,2.93-1.78,5.57-4.71,5.9h0c-2.94.33-5.58-1.78-5.91-4.71-6.01-54.61-8.57-98.28-5.73-98.6Z" fill="#a4bee4"/>
    <path d="M137.41,180.12c2.84.32.27,43.99-5.74,98.6-.32,2.93-2.97,5.04-5.91,4.71h0c-2.94-.33-5.05-2.98-4.71-5.9,6.3-54.57,13.51-97.73,16.36-97.4Z" fill="#a4bee4"/>
    <path d="M128.98,178.2c2.7.95-9.52,42.95-27.53,94.85-.97,2.78-4.02,4.25-6.81,3.27h0c-2.79-.98-4.26-4.03-3.28-6.8,18.28-51.8,34.92-92.27,37.62-91.32Z" fill="#a4bee4"/>
    <path d="M121.18,174.45c2.42,1.52-18.84,39.76-47.95,86.35-1.56,2.5-4.86,3.25-7.36,1.68h0c-2.5-1.57-3.26-4.87-1.68-7.36,29.35-46.44,54.57-82.19,57-80.66Z" fill="#a4bee4"/>
    <path d="M114.42,169.05c2.02,2.02-27.22,34.57-65.96,73.51-2.08,2.09-5.46,2.09-7.55,0h0c-2.09-2.09-2.09-5.47,0-7.55,38.95-38.74,71.49-67.98,73.52-65.96Z" fill="#a4bee4"/>
    <path d="M109.02,162.29c1.52,2.42-34.23,27.64-80.67,56.99-2.49,1.57-5.79.82-7.36-1.68h0c-1.57-2.5-.82-5.8,1.68-7.36,46.59-29.1,84.83-50.37,86.35-47.94Z" fill="#a4bee4"/>
    <path d="M105.27,154.5c.95,2.7-39.52,19.34-91.33,37.61-2.78.98-5.83-.49-6.8-3.28h0c-.98-2.79.49-5.84,3.27-6.81,51.9-18.01,93.91-30.23,94.85-27.53Z" fill="#a4bee4"/>
    <path d="M103.34,146.06c.32,2.84-42.83,10.06-97.41,16.35-2.93.34-5.57-1.78-5.9-4.71h0c-.33-2.94,1.78-5.58,4.71-5.91,54.61-6.01,98.28-8.57,98.6-5.73Z" fill="#a4bee4"/>
    <path d="M103.34,137.41c-.32,2.84-43.99.27-98.6-5.74-2.93-.32-5.04-2.97-4.71-5.91h0c.33-2.94,2.98-5.05,5.9-4.71,54.57,6.3,97.72,13.51,97.4,16.36Z" fill="#a4bee4"/>
    <path d="M105.26,128.98c-.95,2.7-42.95-9.52-94.85-27.53-2.78-.97-4.25-4.02-3.27-6.81h0c.98-2.79,4.03-4.26,6.8-3.28,51.8,18.28,92.27,34.92,91.32,37.62Z" fill="#a4bee4"/>
    <path d="M109.02,121.18c-1.52,2.42-39.76-18.84-86.35-47.95-2.5-1.56-3.25-4.86-1.68-7.36h0c1.57-2.5,4.87-3.26,7.36-1.68,46.44,29.35,82.18,54.57,80.66,57Z" fill="#a4bee4"/>
    <path d="M114.41,114.42c-2.02,2.02-34.57-27.22-73.51-65.96-2.09-2.08-2.09-5.46,0-7.55h0c2.09-2.09,5.47-2.09,7.55,0,38.74,38.95,67.98,71.49,65.96,73.52Z" fill="#a4bee4"/>
    <path d="M121.17,109.02c-2.42,1.52-27.64-34.23-56.99-80.67-1.57-2.49-.82-5.79,1.68-7.36h0c2.5-1.57,5.8-.82,7.36,1.68,29.1,46.59,50.37,84.83,47.94,86.35Z" fill="#a4bee4"/>
    <path d="M128.97,105.27c-2.7.95-19.34-39.52-37.61-91.33-.98-2.78.49-5.83,3.28-6.8h0c2.79-.98,5.84.49,6.81,3.27,18.01,51.9,30.23,93.91,27.53,94.86Z" fill="#a4bee4"/>
    <path d="M137.4,103.34c-2.84.32-10.06-42.83-16.35-97.41-.34-2.93,1.78-5.57,4.71-5.9h0c2.94-.33,5.58,1.78,5.91,4.71,6.01,54.61,8.57,98.28,5.73,98.6Z" fill="#a4bee4"/>
    <path d="M146.05,103.34c-2.84-.32-.27-43.99,5.74-98.6.32-2.93,2.97-5.04,5.91-4.71h0c2.94.33,5.05,2.98,4.71,5.9-6.3,54.57-13.51,97.73-16.36,97.4Z" fill="#a4bee4"/>
    <path d="M154.49,105.26c-2.7-.95,9.52-42.95,27.53-94.85.97-2.78,4.02-4.25,6.81-3.27h0c2.79.98,4.26,4.03,3.28,6.8-18.28,51.8-34.92,92.27-37.62,91.32Z" fill="#a4bee4"/>
    <path d="M162.28,109.02c-2.42-1.52,18.84-39.76,47.95-86.35,1.56-2.5,4.86-3.25,7.36-1.68h0c2.5,1.57,3.26,4.87,1.68,7.36-29.35,46.44-54.57,82.19-57,80.66Z" fill="#a4bee4"/>
    <path d="M169.05,114.41c-2.02-2.02,27.22-34.57,65.96-73.51,2.08-2.09,5.46-2.09,7.55,0h0c2.09,2.09,2.09,5.47,0,7.55-38.95,38.74-71.49,67.98-73.52,65.96Z" fill="#a4bee4"/>
    <path d="M174.44,121.17c-1.52-2.42,34.23-27.64,80.67-56.99,2.49-1.57,5.79-.82,7.36,1.68h0c1.57,2.5.82,5.8-1.68,7.36-46.59,29.1-84.83,50.37-86.35,47.94Z" fill="#a4bee4"/>
    <path d="M178.2,128.97c-.95-2.7,39.52-19.34,91.33-37.61,2.78-.98,5.83.49,6.8,3.28h0c.98,2.79-.49,5.84-3.27,6.81-51.9,18.01-93.91,30.23-94.85,27.53Z" fill="#a4bee4"/>
    <path d="M180.12,137.4c-.32-2.84,42.83-10.06,97.41-16.35,2.93-.34,5.57,1.78,5.9,4.71h0c.33,2.94-1.78,5.58-4.71,5.91-54.61,6.01-98.28,8.57-98.6,5.73Z" fill="#a4bee4"/>
    <path d="M180.12,146.05c.32-2.84,43.99-.27,98.6,5.74,2.93.32,5.04,2.97,4.71,5.91h0c-.33,2.94-2.98,5.05-5.9,4.71-54.57-6.3-97.72-13.51-97.4-16.36Z" fill="#a4bee4"/>
    <path d="M178.2,154.49c.95-2.7,42.95,9.52,94.85,27.53,2.78.97,4.25,4.02,3.27,6.81h0c-.98,2.79-4.03,4.26-6.8,3.28-51.8-18.28-92.27-34.92-91.32-37.62Z" fill="#a4bee4"/>
    <path d="M174.45,162.28c1.52-2.42,39.76,18.84,86.35,47.95,2.5,1.56,3.25,4.86,1.68,7.36h0c-1.57,2.5-4.87,3.26-7.36,1.68-46.44-29.35-82.18-54.57-80.66-57Z" fill="#a4bee4"/>
  </g>
  <path d="M224.53,112.78c1.9,5.49-20.2,16.37-19.58,21.91.64,5.72,24.54,11.46,23.9,17.05-.65,5.68-25.25,5.84-27.13,11.18-1.88,5.36,17.19,20.96,14.17,25.78-3,4.79-25.24-5.75-29.26-1.71-3.96,3.97,6.49,26.35,1.63,29.4-4.71,2.95-20.15-16.24-25.62-14.33-5.46,1.91-5.7,26.59-11.22,27.22-5.7.64-11.34-23.42-16.9-24.06-5.65-.65-16.57,21.48-21.88,19.6-5.34-1.89-.04-26.01-4.83-29.04-4.77-3.02-24.15,12.21-28.17,8.16-3.96-3.98,11.23-23.39,8.2-28.27-2.94-4.73-26.99.53-28.89-4.96-1.9-5.49,20.2-16.37,19.58-21.91s-24.54-11.46-23.9-17.05c.65-5.68,25.25-5.84,27.13-11.18,1.88-5.36-17.19-20.96-14.17-25.78,3-4.79,25.24,5.75,29.26,1.71,3.96-3.97-6.49-26.35-1.63-29.4,4.71-2.95,20.15,16.24,25.62,14.33,5.46-1.91,5.7-26.59,11.22-27.22,5.7-.64,11.34,23.42,16.9,24.06,5.65.65,16.57-21.48,21.88-19.6,5.34,1.89.04,26.01,4.83,29.04,4.77,3.02,24.15-12.21,28.17-8.16s-11.23,23.39-8.2,28.27c2.94,4.73,26.99-.53,28.89,4.96Z" fill="#364093"/>
  <g>
    <path d="M182.56,182.59c1.09-1.09,18.69,14.71,39.76,35.65,1.13,1.12,1.13,2.95,0,4.08h0c-1.13,1.13-2.96,1.13-4.08,0-20.95-21.05-36.77-38.64-35.67-39.73Z" fill="#5284c4"/>
    <path d="M160.79,196.25c1.46-.51,10.46,21.36,20.35,49.37.53,1.5-.26,3.15-1.77,3.68h0c-1.51.53-3.16-.27-3.68-1.77-9.75-28.05-16.36-50.76-14.9-51.27Z" fill="#5284c4"/>
    <path d="M135.25,199.12c1.54.17.16,23.79-3.08,53.31-.17,1.58-1.6,2.72-3.19,2.54h0c-1.59-.18-2.73-1.61-2.55-3.19,3.39-29.5,7.28-52.83,8.82-52.66Z" fill="#5284c4"/>
    <path d="M110.99,190.63c1.31.82-10.18,21.5-25.91,46.69-.84,1.35-2.63,1.76-3.98.91h0c-1.35-.85-1.76-2.64-.91-3.98,15.86-25.11,29.49-44.44,30.8-43.62Z" fill="#5284c4"/>
    <path d="M92.82,172.44c.82,1.31-18.5,14.95-43.6,30.83-1.35.85-3.13.44-3.98-.91h0c-.85-1.35-.44-3.14.91-3.98,25.18-15.74,45.85-27.25,46.67-25.94Z" fill="#5284c4"/>
    <path d="M84.34,148.18c.17,1.54-23.15,5.45-52.66,8.86-1.58.18-3.01-.96-3.19-2.55h0c-.18-1.59.96-3.02,2.54-3.19,29.52-3.26,53.13-4.66,53.3-3.12Z" fill="#5284c4"/>
    <path d="M87.22,122.64c-.51,1.46-23.22-5.14-51.29-14.87-1.5-.52-2.3-2.17-1.77-3.68h0c.53-1.51,2.18-2.3,3.68-1.77,28.01,9.87,49.89,18.86,49.38,20.32Z" fill="#5284c4"/>
    <path d="M100.91,100.88c-1.09,1.09-18.69-14.71-39.76-35.65-1.13-1.12-1.13-2.95,0-4.08h0c1.13-1.13,2.96-1.13,4.08,0,20.95,21.05,36.77,38.64,35.67,39.73Z" fill="#5284c4"/>
    <path d="M122.67,87.21c-1.46.51-10.46-21.36-20.35-49.37-.53-1.5.26-3.15,1.77-3.68h0c1.51-.53,3.16.27,3.68,1.77,9.75,28.05,16.36,50.76,14.9,51.27Z" fill="#5284c4"/>
    <path d="M148.22,84.34c-1.54-.17-.16-23.79,3.08-53.31.17-1.58,1.6-2.72,3.19-2.54h0c1.59.18,2.73,1.61,2.55,3.19-3.39,29.5-7.28,52.83-8.82,52.66Z" fill="#5284c4"/>
    <path d="M172.48,92.84c-1.31-.82,10.18-21.5,25.91-46.69.84-1.35,2.63-1.76,3.98-.91h0c1.35.85,1.76,2.64.91,3.98-15.86,25.11-29.49,44.44-30.8,43.62Z" fill="#5284c4"/>
    <path d="M190.64,111.02c-.82-1.31,18.5-14.95,43.6-30.83,1.35-.85,3.13-.44,3.98.91h0c.85,1.35.44,3.14-.91,3.98-25.18,15.74-45.85,27.25-46.67,25.94Z" fill="#5284c4"/>
    <path d="M199.13,135.28c-.17-1.54,23.15-5.45,52.66-8.86,1.58-.18,3.01.96,3.19,2.55h0c.18,1.59-.96,3.02-2.54,3.19-29.52,3.26-53.13,4.66-53.3,3.12Z" fill="#5284c4"/>
    <path d="M196.24,160.83c.51-1.46,23.22,5.14,51.29,14.87,1.5.52,2.3,2.17,1.77,3.68h0c-.53,1.51-2.18,2.3-3.68,1.77-28.01-9.87-49.89-18.86-49.38-20.32Z" fill="#5284c4"/>
  </g>
  <g>
    <path d="M141.71,174.78c1.65,0,3.01,25.18,3.1,56.84,0,1.7-1.37,3.08-3.08,3.08h0c-1.7,0-3.08-1.38-3.08-3.08.07-31.66,1.41-56.84,3.06-56.84Z" fill="#4272b7"/>
    <path d="M134.36,173.95c1.61.37-2.67,25.22-9.63,56.11-.37,1.66-2.02,2.69-3.69,2.31h0c-1.66-.38-2.7-2.03-2.32-3.69,7.11-30.85,14.02-55.1,15.63-54.74Z" fill="#4272b7"/>
    <path d="M127.37,171.5c1.49.72-8.22,23.99-21.87,52.56-.73,1.53-2.57,2.17-4.11,1.44h0c-1.53-.74-2.18-2.58-1.44-4.11,13.8-28.5,25.93-50.6,27.42-49.89Z" fill="#4272b7"/>
    <path d="M121.11,167.56c1.29,1.03-13.35,21.56-33.02,46.38-1.05,1.33-2.99,1.55-4.32.49h0c-1.33-1.06-1.55-3-.49-4.33,19.8-24.71,36.54-43.56,37.83-42.53Z" fill="#4272b7"/>
    <path d="M115.88,162.32c1.03,1.29-17.81,18.05-42.51,37.87-1.32,1.06-3.26.84-4.32-.49h0c-1.06-1.33-.84-3.27.49-4.33,24.8-19.69,45.32-34.34,46.35-33.05Z" fill="#4272b7"/>
    <path d="M111.95,156.05c.72,1.49-21.38,13.63-49.87,27.46-1.53.74-3.37.1-4.11-1.44h0c-.74-1.53-.09-3.38,1.44-4.11,28.56-13.67,51.82-23.39,52.54-21.91Z" fill="#4272b7"/>
    <path d="M109.51,149.07c.37,1.61-23.88,8.53-54.73,15.67-1.65.38-3.3-.66-3.68-2.32h0c-.38-1.66.66-3.31,2.31-3.69,30.88-6.98,55.73-11.28,56.1-9.67Z" fill="#4272b7"/>
    <path d="M108.68,141.71c0,1.65-25.18,3.01-56.84,3.1-1.7,0-3.08-1.37-3.08-3.08h0c0-1.7,1.38-3.08,3.08-3.08,31.66.07,56.84,1.41,56.84,3.06Z" fill="#4272b7"/>
    <path d="M109.52,134.36c-.37,1.61-25.22-2.67-56.11-9.63-1.66-.37-2.69-2.02-2.31-3.69h0c.38-1.66,2.03-2.7,3.69-2.32,30.85,7.11,55.1,14.02,54.74,15.63Z" fill="#4272b7"/>
    <path d="M111.96,127.37c-.72,1.49-23.99-8.22-52.56-21.87-1.53-.73-2.17-2.57-1.44-4.11h0c.74-1.53,2.58-2.18,4.11-1.44,28.5,13.8,50.6,25.93,49.89,27.42Z" fill="#4272b7"/>
    <path d="M115.91,121.11c-1.03,1.29-21.56-13.35-46.37-33.02-1.33-1.05-1.55-2.99-.49-4.32h0c1.06-1.33,3-1.55,4.33-.49,24.71,19.8,43.56,36.54,42.53,37.83Z" fill="#4272b7"/>
    <path d="M121.14,115.88c-1.29,1.03-18.05-17.81-37.87-42.51-1.06-1.32-.84-3.26.49-4.32h0c1.33-1.06,3.27-.84,4.33.49,19.69,24.8,34.34,45.32,33.05,46.35Z" fill="#4272b7"/>
    <path d="M127.41,111.95c-1.49.72-13.63-21.38-27.46-49.87-.74-1.53-.1-3.37,1.44-4.11h0c1.53-.74,3.38-.09,4.11,1.44,13.67,28.56,23.39,51.82,21.91,52.54Z" fill="#4272b7"/>
    <path d="M134.4,109.51c-1.61.37-8.53-23.88-15.67-54.73-.38-1.65.66-3.3,2.32-3.68h0c1.66-.38,3.31.66,3.69,2.31,6.98,30.88,11.28,55.73,9.67,56.1Z" fill="#4272b7"/>
    <path d="M141.75,108.68c-1.65,0-3.01-25.18-3.1-56.84,0-1.7,1.37-3.08,3.08-3.08h0c1.7,0,3.08,1.38,3.08,3.08-.07,31.66-1.41,56.84-3.06,56.84Z" fill="#4272b7"/>
    <path d="M149.11,109.52c-1.61-.37,2.67-25.22,9.63-56.11.37-1.66,2.02-2.69,3.69-2.31h0c1.66.38,2.7,2.03,2.32,3.69-7.11,30.85-14.02,55.1-15.63,54.74Z" fill="#4272b7"/>
    <path d="M156.09,111.96c-1.49-.72,8.22-23.99,21.87-52.56.73-1.53,2.57-2.17,4.11-1.44h0c1.53.74,2.18,2.58,1.44,4.11-13.8,28.5-25.93,50.6-27.42,49.89Z" fill="#4272b7"/>
    <path d="M162.35,115.91c-1.29-1.03,13.35-21.56,33.02-46.38,1.05-1.33,2.99-1.55,4.32-.49h0c1.33,1.06,1.55,3,.49,4.33-19.8,24.71-36.54,43.56-37.83,42.53Z" fill="#4272b7"/>
    <path d="M167.58,121.14c-1.03-1.29,17.81-18.05,42.51-37.87,1.32-1.06,3.26-.84,4.32.49h0c1.06,1.33.84,3.27-.49,4.33-24.8,19.69-45.32,34.34-46.35,33.05Z" fill="#4272b7"/>
    <path d="M171.52,127.41c-.72-1.49,21.38-13.63,49.87-27.46,1.53-.74,3.37-.1,4.11,1.44h0c.74,1.53.09,3.38-1.44,4.11-28.56,13.67-51.82,23.39-52.54,21.91Z" fill="#4272b7"/>
    <path d="M173.96,134.4c-.37-1.61,23.88-8.53,54.73-15.67,1.65-.38,3.3.66,3.68,2.32h0c.38,1.66-.66,3.31-2.31,3.69-30.88,6.98-55.73,11.28-56.1,9.67Z" fill="#4272b7"/>
    <path d="M174.78,141.75c0-1.65,25.18-3.01,56.84-3.1,1.7,0,3.08,1.37,3.08,3.08h0c0,1.7-1.38,3.08-3.08,3.08-31.66-.07-56.84-1.41-56.84-3.06Z" fill="#4272b7"/>
    <path d="M173.95,149.11c.37-1.61,25.22,2.67,56.11,9.63,1.66.37,2.69,2.02,2.31,3.69h0c-.38,1.66-2.03,2.7-3.69,2.32-30.85-7.11-55.1-14.02-54.74-15.63Z" fill="#4272b7"/>
    <path d="M171.5,156.09c.72-1.49,23.99,8.22,52.56,21.87,1.53.73,2.17,2.57,1.44,4.11h0c-.74,1.53-2.58,2.18-4.11,1.44-28.5-13.8-50.6-25.93-49.89-27.42Z" fill="#4272b7"/>
    <path d="M167.56,162.35c1.03-1.29,21.56,13.35,46.37,33.02,1.33,1.05,1.55,2.99.49,4.32h0c-1.06,1.33-3,1.55-4.33.49-24.71-19.8-43.56-36.54-42.53-37.83Z" fill="#4272b7"/>
    <path d="M162.32,167.58c1.29-1.03,18.05,17.81,37.87,42.51,1.06,1.32.84,3.26-.49,4.32h0c-1.33,1.06-3.27.84-4.33-.49-19.69-24.8-34.34-45.32-33.05-46.35Z" fill="#4272b7"/>
    <path d="M156.05,171.52c1.49-.72,13.63,21.38,27.46,49.87.74,1.53.1,3.37-1.44,4.11h0c-1.53.74-3.38.09-4.11-1.44-13.67-28.56-23.39-51.82-21.91-52.54Z" fill="#4272b7"/>
    <path d="M149.07,173.96c1.61-.37,8.53,23.88,15.67,54.73.38,1.65-.66,3.3-2.32,3.68h0c-1.66.38-3.31-.66-3.69-2.31-6.98-30.88-11.28-55.73-9.67-56.1Z" fill="#4272b7"/>
  </g>
  <g>
    <g id="b" data-name="&amp;lt;径向重复&amp;gt;">
      <path d="M141.72,161.9c.97,0,1.77,14.83,1.83,33.47,0,1-.81,1.81-1.81,1.81h0c-1,0-1.82-.81-1.81-1.81.04-18.64.83-33.47,1.8-33.47Z" fill="#fff"/>
    </g>
    <g id="c" data-name="&amp;lt;径向重复&amp;gt;">
      <path d="M137.23,161.39c.95.22-1.57,14.85-5.67,33.04-.22.97-1.19,1.59-2.17,1.36h0c-.98-.22-1.59-1.2-1.36-2.17,4.19-18.17,8.26-32.44,9.2-32.23Z" fill="#fff"/>
    </g>
    <g id="d" data-name="&amp;lt;径向重复&amp;gt;">
      <path d="M132.97,159.9c.87.42-4.84,14.13-12.88,30.95-.43.9-1.52,1.28-2.42.84h0c-.9-.44-1.28-1.52-.85-2.42,8.13-16.78,15.27-29.79,16.14-29.37Z" fill="#fff"/>
    </g>
    <g id="e" data-name="&amp;lt;径向重复&amp;gt;">
      <path d="M129.15,157.49c.76.61-7.86,12.69-19.44,27.3-.62.78-1.76.91-2.55.29h0c-.78-.63-.91-1.77-.29-2.55,11.66-14.55,21.52-25.65,22.27-25.04Z" fill="#fff"/>
    </g>
    <g id="f" data-name="&amp;lt;径向重复&amp;gt;">
      <path d="M125.96,154.29c.61.76-10.49,10.63-25.03,22.29-.78.63-1.92.5-2.55-.29h0c-.62-.78-.5-1.93.29-2.55,14.6-11.59,26.68-20.22,27.29-19.46Z" fill="#fff"/>
    </g>
    <g id="g" data-name="&amp;lt;径向重复&amp;gt;">
      <path d="M123.56,150.47c.42.88-12.59,8.03-29.36,16.17-.9.44-1.98.06-2.42-.85h0c-.43-.9-.06-1.99.85-2.42,16.81-8.05,30.51-13.77,30.93-12.9Z" fill="#fff"/>
    </g>
    <g id="h" data-name="&amp;lt;径向重复&amp;gt;">
      <path d="M122.07,146.21c.22.95-14.06,5.02-32.22,9.23-.97.23-1.95-.39-2.17-1.36h0c-.22-.98.39-1.95,1.36-2.17,18.18-4.11,32.81-6.64,33.03-5.69Z" fill="#fff"/>
    </g>
    <g id="i" data-name="&amp;lt;径向重复&amp;gt;">
      <path d="M121.57,141.72c0,.97-14.83,1.77-33.47,1.83-1,0-1.81-.81-1.81-1.81h0c0-1,.81-1.82,1.81-1.81,18.64.04,33.47.83,33.47,1.8Z" fill="#fff"/>
    </g>
    <g id="j" data-name="&amp;lt;径向重复&amp;gt;">
      <path d="M122.07,137.23c-.22.95-14.85-1.57-33.04-5.67-.97-.22-1.59-1.19-1.36-2.17h0c.22-.98,1.2-1.59,2.17-1.36,18.17,4.19,32.44,8.26,32.23,9.2Z" fill="#fff"/>
    </g>
    <g id="k" data-name="&amp;lt;径向重复&amp;gt;">
      <path d="M123.57,132.97c-.42.87-14.13-4.84-30.95-12.88-.9-.43-1.28-1.52-.84-2.42h0c.44-.9,1.52-1.28,2.42-.85,16.78,8.13,29.79,15.27,29.37,16.14Z" fill="#fff"/>
    </g>
    <g id="l" data-name="&amp;lt;径向重复&amp;gt;">
      <path d="M125.97,129.15c-.61.76-12.69-7.86-27.3-19.44-.78-.62-.91-1.76-.29-2.55h0c.63-.78,1.77-.91,2.55-.29,14.55,11.66,25.65,21.52,25.04,22.27Z" fill="#fff"/>
    </g>
    <g id="m" data-name="&amp;lt;径向重复&amp;gt;">
      <path d="M129.17,125.96c-.76.61-10.63-10.49-22.29-25.03-.63-.78-.5-1.92.29-2.55h0c.78-.62,1.93-.5,2.55.29,11.59,14.6,20.22,26.68,19.46,27.29Z" fill="#fff"/>
    </g>
    <g id="n" data-name="&amp;lt;径向重复&amp;gt;">
      <path d="M132.99,123.56c-.88.42-8.03-12.59-16.17-29.36-.44-.9-.06-1.98.85-2.42h0c.9-.43,1.99-.06,2.42.85,8.05,16.81,13.77,30.51,12.9,30.93Z" fill="#fff"/>
    </g>
    <g id="o" data-name="&amp;lt;径向重复&amp;gt;">
      <path d="M137.26,122.07c-.95.22-5.02-14.06-9.23-32.22-.23-.97.39-1.95,1.36-2.17h0c.98-.22,1.95.39,2.17,1.36,4.11,18.18,6.64,32.81,5.69,33.03Z" fill="#fff"/>
    </g>
    <g id="p" data-name="&amp;lt;径向重复&amp;gt;">
      <path d="M141.74,121.57c-.97,0-1.77-14.83-1.83-33.47,0-1,.81-1.81,1.81-1.81h0c1,0,1.82.81,1.81,1.81-.04,18.64-.83,33.47-1.8,33.47Z" fill="#fff"/>
    </g>
    <g id="q" data-name="&amp;lt;径向重复&amp;gt;">
      <path d="M146.23,122.07c-.95-.22,1.57-14.85,5.67-33.04.22-.97,1.19-1.59,2.17-1.36h0c.98.22,1.59,1.2,1.36,2.17-4.19,18.17-8.26,32.44-9.2,32.23Z" fill="#fff"/>
    </g>
    <g id="r" data-name="&amp;lt;径向重复&amp;gt;">
      <path d="M150.49,123.57c-.87-.42,4.84-14.13,12.88-30.95.43-.9,1.52-1.28,2.42-.84h0c.9.44,1.28,1.52.85,2.42-8.13,16.78-15.27,29.79-16.14,29.37Z" fill="#fff"/>
    </g>
    <g id="s" data-name="&amp;lt;径向重复&amp;gt;">
      <path d="M154.31,125.97c-.76-.61,7.86-12.69,19.44-27.3.62-.78,1.76-.91,2.55-.29h0c.78.63.91,1.77.29,2.55-11.66,14.55-21.52,25.65-22.27,25.04Z" fill="#fff"/>
    </g>
    <g id="t" data-name="&amp;lt;径向重复&amp;gt;">
      <path d="M157.5,129.17c-.61-.76,10.49-10.63,25.03-22.29.78-.63,1.92-.5,2.55.29h0c.62.78.5,1.93-.29,2.55-14.6,11.59-26.68,20.22-27.29,19.46Z" fill="#fff"/>
    </g>
    <g id="u" data-name="&amp;lt;径向重复&amp;gt;">
      <path d="M159.91,132.99c-.42-.88,12.59-8.03,29.36-16.17.9-.44,1.98-.06,2.42.85h0c.43.9.06,1.99-.85,2.42-16.81,8.05-30.51,13.77-30.93,12.9Z" fill="#fff"/>
    </g>
    <g id="v" data-name="&amp;lt;径向重复&amp;gt;">
      <path d="M161.4,137.26c-.22-.95,14.06-5.02,32.22-9.23.97-.23,1.95.39,2.17,1.36h0c.22.98-.39,1.95-1.36,2.17-18.18,4.11-32.81,6.64-33.03,5.69Z" fill="#fff"/>
    </g>
    <g id="w" data-name="&amp;lt;径向重复&amp;gt;">
      <path d="M161.9,141.74c0-.97,14.83-1.77,33.47-1.83,1,0,1.81.81,1.81,1.81h0c0,1-.81,1.82-1.81,1.81-18.64-.04-33.47-.83-33.47-1.8Z" fill="#fff"/>
    </g>
    <g id="x" data-name="&amp;lt;径向重复&amp;gt;">
      <path d="M161.39,146.23c.22-.95,14.85,1.57,33.04,5.67.97.22,1.59,1.19,1.36,2.17h0c-.22.98-1.2,1.59-2.17,1.36-18.17-4.19-32.44-8.26-32.23-9.2Z" fill="#fff"/>
    </g>
    <g id="y" data-name="&amp;lt;径向重复&amp;gt;">
      <path d="M159.9,150.49c.42-.87,14.13,4.84,30.95,12.88.9.43,1.28,1.52.84,2.42h0c-.44.9-1.52,1.28-2.42.85-16.78-8.13-29.79-15.27-29.37-16.14Z" fill="#fff"/>
    </g>
    <g id="z" data-name="&amp;lt;径向重复&amp;gt;">
      <path d="M157.49,154.31c.61-.76,12.69,7.86,27.3,19.44.78.62.91,1.76.29,2.55h0c-.63.78-1.77.91-2.55.29-14.55-11.66-25.65-21.52-25.04-22.27Z" fill="#fff"/>
    </g>
    <g id="aa" data-name="&amp;lt;径向重复&amp;gt;">
      <path d="M154.29,157.51c.76-.61,10.63,10.49,22.29,25.03.63.78.5,1.92-.29,2.55h0c-.78.62-1.93.5-2.55-.29-11.59-14.6-20.22-26.68-19.46-27.29Z" fill="#fff"/>
    </g>
    <g id="ab" data-name="&amp;lt;径向重复&amp;gt;">
      <path d="M150.47,159.91c.88-.42,8.03,12.59,16.17,29.36.44.9.06,1.98-.85,2.42h0c-.9.43-1.99.06-2.42-.85-8.05-16.81-13.77-30.51-12.9-30.93Z" fill="#fff"/>
    </g>
    <g id="ac" data-name="&amp;lt;径向重复&amp;gt;">
      <path d="M146.21,161.4c.95-.22,5.02,14.06,9.23,32.22.23.97-.39,1.95-1.36,2.17h0c-.98.22-1.95-.39-2.17-1.36-4.11-18.18-6.64-32.81-5.69-33.03Z" fill="#fff"/>
    </g>
  </g>
</svg>