<?xml version="1.0" encoding="UTF-8"?>
<svg id="a" data-name="图层 1" xmlns="http://www.w3.org/2000/svg" width="100mm" height="100mm" viewBox="0 0 283.46 283.46">
  <g>
    <polygon points="141.73 165.36 138.64 259.89 144.83 259.89 141.73 165.36" fill="#a4d9eb"/>
    <polygon points="138.03 165.07 120.19 257.95 126.3 258.92 138.03 165.07" fill="#a4d9eb"/>
    <polygon points="134.43 164.21 102.28 253.15 108.16 255.06 134.43 164.21" fill="#a4d9eb"/>
    <polygon points="131 162.78 85.33 245.6 90.85 248.41 131 162.78" fill="#a4d9eb"/>
    <polygon points="127.84 160.85 69.78 235.5 74.78 239.14 127.84 160.85" fill="#a4d9eb"/>
    <polygon points="125.02 158.44 55.99 223.1 60.37 227.47 125.02 158.44" fill="#a4d9eb"/>
    <polygon points="122.61 155.62 44.32 208.68 47.96 213.69 122.61 155.62" fill="#a4d9eb"/>
    <polygon points="120.68 152.46 35.05 192.62 37.86 198.13 120.68 152.46" fill="#a4d9eb"/>
    <polygon points="119.26 149.03 28.4 175.3 30.31 181.19 119.26 149.03" fill="#a4d9eb"/>
    <polygon points="118.39 145.43 24.55 157.16 25.51 163.27 118.39 145.43" fill="#a4d9eb"/>
    <polygon points="118.1 141.73 23.57 138.64 23.57 144.82 118.1 141.73" fill="#a4d9eb"/>
    <polygon points="118.39 138.03 25.51 120.19 24.55 126.3 118.39 138.03" fill="#a4d9eb"/>
    <polygon points="119.26 134.43 30.31 102.28 28.4 108.16 119.26 134.43" fill="#a4d9eb"/>
    <polygon points="120.68 131 37.86 85.33 35.05 90.84 120.68 131" fill="#a4d9eb"/>
    <polygon points="122.61 127.84 47.96 69.77 44.32 74.78 122.61 127.84" fill="#a4d9eb"/>
    <polygon points="125.02 125.02 60.37 55.99 55.99 60.37 125.02 125.02" fill="#a4d9eb"/>
    <polygon points="127.84 122.61 74.78 44.32 69.78 47.96 127.84 122.61" fill="#a4d9eb"/>
    <polygon points="131 120.68 90.85 35.05 85.33 37.86 131 120.68" fill="#a4d9eb"/>
    <polygon points="134.43 119.26 108.16 28.4 102.28 30.31 134.43 119.26" fill="#a4d9eb"/>
    <polygon points="138.04 118.39 126.3 24.54 120.19 25.51 138.04 118.39" fill="#a4d9eb"/>
    <polygon points="141.73 118.1 144.83 23.57 138.64 23.57 141.73 118.1" fill="#a4d9eb"/>
    <polygon points="145.43 118.39 163.27 25.51 157.16 24.54 145.43 118.39" fill="#a4d9eb"/>
    <polygon points="149.03 119.26 181.19 30.31 175.3 28.4 149.03 119.26" fill="#a4d9eb"/>
    <polygon points="152.46 120.68 198.13 37.86 192.62 35.05 152.46 120.68" fill="#a4d9eb"/>
    <polygon points="155.62 122.61 213.69 47.96 208.68 44.32 155.62 122.61" fill="#a4d9eb"/>
    <polygon points="158.44 125.02 227.47 60.37 223.09 55.99 158.44 125.02" fill="#a4d9eb"/>
    <polygon points="160.85 127.84 239.14 74.78 235.5 69.78 160.85 127.84" fill="#a4d9eb"/>
    <polygon points="162.79 131 248.42 90.84 245.61 85.33 162.79 131" fill="#a4d9eb"/>
    <polygon points="164.21 134.43 255.06 108.16 253.15 102.28 164.21 134.43" fill="#a4d9eb"/>
    <polygon points="165.07 138.03 258.92 126.3 257.95 120.19 165.07 138.03" fill="#a4d9eb"/>
    <polygon points="165.36 141.73 259.89 144.82 259.89 138.64 165.36 141.73" fill="#a4d9eb"/>
    <polygon points="165.07 145.43 257.95 163.27 258.92 157.16 165.07 145.43" fill="#a4d9eb"/>
    <polygon points="164.21 149.03 253.15 181.19 255.06 175.3 164.21 149.03" fill="#a4d9eb"/>
    <polygon points="162.79 152.46 245.61 198.13 248.42 192.62 162.79 152.46" fill="#a4d9eb"/>
    <polygon points="160.85 155.62 235.51 213.69 239.14 208.68 160.85 155.62" fill="#a4d9eb"/>
    <polygon points="158.44 158.44 223.1 227.47 227.47 223.09 158.44 158.44" fill="#a4d9eb"/>
    <polygon points="155.62 160.85 208.68 239.14 213.69 235.5 155.62 160.85" fill="#a4d9eb"/>
    <polygon points="152.46 162.79 192.62 248.41 198.13 245.61 152.46 162.79" fill="#a4d9eb"/>
    <polygon points="149.04 164.21 175.3 255.06 181.19 253.15 149.04 164.21" fill="#a4d9eb"/>
    <polygon points="145.43 165.07 157.16 258.92 163.27 257.95 145.43 165.07" fill="#a4d9eb"/>
  </g>
  <g>
    <polygon points="140.35 159.74 132.47 231.6 137.19 231.97 140.35 159.74" fill="#0084b7"/>
    <polygon points="137.55 159.3 118.53 229.05 123.13 230.14 137.55 159.3" fill="#0084b7"/>
    <polygon points="134.85 158.43 105.15 224.34 109.53 226.15 134.85 158.43" fill="#0084b7"/>
    <polygon points="132.33 157.15 92.68 217.61 96.72 220.07 132.33 157.15" fill="#0084b7"/>
    <polygon points="130.03 155.49 81.42 209 85.02 212.06 130.03 155.49" fill="#0084b7"/>
    <polygon points="128.02 153.49 71.64 198.73 74.71 202.32 128.02 153.49" fill="#0084b7"/>
    <polygon points="126.35 151.2 63.58 187.07 66.06 191.09 126.35 151.2" fill="#0084b7"/>
    <polygon points="125.06 148.68 57.45 174.28 59.27 178.65 125.06 148.68" fill="#0084b7"/>
    <polygon points="124.18 145.98 53.4 160.7 54.51 165.29 124.18 145.98" fill="#0084b7"/>
    <polygon points="123.73 143.19 51.52 146.65 51.9 151.36 123.73 143.19" fill="#0084b7"/>
    <polygon points="123.72 140.35 51.86 132.47 51.5 137.19 123.72 140.35" fill="#0084b7"/>
    <polygon points="124.16 137.55 54.41 118.53 53.32 123.13 124.16 137.55" fill="#0084b7"/>
    <polygon points="125.03 134.85 59.12 105.15 57.32 109.53 125.03 134.85" fill="#0084b7"/>
    <polygon points="126.31 132.32 65.86 92.68 63.4 96.72 126.31 132.32" fill="#0084b7"/>
    <polygon points="127.97 130.03 74.47 81.41 71.4 85.02 127.97 130.03" fill="#0084b7"/>
    <polygon points="129.97 128.02 84.73 71.63 81.14 74.71 129.97 128.02" fill="#0084b7"/>
    <polygon points="132.26 126.35 96.4 63.58 92.37 66.06 132.26 126.35" fill="#0084b7"/>
    <polygon points="134.79 125.06 109.18 57.45 104.81 59.27 134.79 125.06" fill="#0084b7"/>
    <polygon points="137.48 124.18 122.77 53.4 118.17 54.51 137.48 124.18" fill="#0084b7"/>
    <polygon points="140.28 123.73 136.82 51.52 132.1 51.9 140.28 123.73" fill="#0084b7"/>
    <polygon points="143.11 123.72 150.99 51.86 146.28 51.5 143.11 123.72" fill="#0084b7"/>
    <polygon points="145.91 124.16 164.94 54.41 160.34 53.32 145.91 124.16" fill="#0084b7"/>
    <polygon points="148.61 125.03 178.31 59.12 173.94 57.32 148.61 125.03" fill="#0084b7"/>
    <polygon points="151.14 126.31 190.78 65.86 186.75 63.39 151.14 126.31" fill="#0084b7"/>
    <polygon points="153.44 127.97 202.05 74.46 198.45 71.4 153.44 127.97" fill="#0084b7"/>
    <polygon points="155.44 129.97 211.83 84.73 208.75 81.14 155.44 129.97" fill="#0084b7"/>
    <polygon points="157.11 132.26 219.88 96.4 217.4 92.37 157.11 132.26" fill="#0084b7"/>
    <polygon points="158.41 134.78 226.01 109.18 224.19 104.81 158.41 134.78" fill="#0084b7"/>
    <polygon points="159.29 137.48 230.07 122.76 228.95 118.17 159.29 137.48" fill="#0084b7"/>
    <polygon points="159.74 140.28 231.95 136.82 231.57 132.1 159.74 140.28" fill="#0084b7"/>
    <polygon points="159.74 143.11 231.61 150.99 231.97 146.27 159.74 143.11" fill="#0084b7"/>
    <polygon points="159.31 145.91 229.05 164.94 230.15 160.33 159.31 145.91" fill="#0084b7"/>
    <polygon points="158.43 148.61 224.35 178.31 226.15 173.94 158.43 148.61" fill="#0084b7"/>
    <polygon points="157.15 151.14 217.61 190.78 220.07 186.75 157.15 151.14" fill="#0084b7"/>
    <polygon points="155.49 153.43 209 202.05 212.06 198.45 155.49 153.43" fill="#0084b7"/>
    <polygon points="153.49 155.44 198.74 211.83 202.33 208.75 153.49 155.44" fill="#0084b7"/>
    <polygon points="151.2 157.11 187.07 219.88 191.1 217.4 151.2 157.11" fill="#0084b7"/>
    <polygon points="148.68 158.41 174.28 226.01 178.65 224.19 148.68 158.41" fill="#0084b7"/>
    <polygon points="145.99 159.29 160.7 230.07 165.3 228.95 145.99 159.29" fill="#0084b7"/>
    <polygon points="143.19 159.74 146.65 231.95 151.36 231.57 143.19 159.74" fill="#0084b7"/>
  </g>
  <g>
    <path d="M134.67,233.41l-6.66,47.2c-.2,1.39.82,2.65,2.22,2.76l1.19.09c1.4.11,2.59-.99,2.61-2.39l.64-47.66Z" fill="#4dbfd6"/>
    <path d="M120.42,231.17l-13.96,45.58c-.41,1.34.4,2.75,1.76,3.07l1.16.28c1.36.32,2.72-.57,2.95-1.95l8.09-46.98Z" fill="#4dbfd6"/>
    <path d="M106.69,226.74l-20.92,42.83c-.61,1.26-.04,2.78,1.26,3.31l1.11.46c1.3.53,2.77-.14,3.22-1.46l15.34-45.13Z" fill="#4dbfd6"/>
    <path d="M93.82,220.21l-27.36,39.03c-.8,1.15-.47,2.73.72,3.46l1.02.62c1.2.73,2.76.3,3.41-.94l22.21-42.18Z" fill="#4dbfd6"/>
    <path d="M82.14,211.75l-33.13,34.27c-.97,1.01-.89,2.63.17,3.54l.91.77c1.07.91,2.68.73,3.52-.4l28.53-38.18Z" fill="#4dbfd6"/>
    <path d="M71.92,201.57l-38.09,28.66c-1.12.84-1.29,2.45-.38,3.52l.78.91c.91,1.06,2.53,1.14,3.54.16l34.16-33.25Z" fill="#4dbfd6"/>
    <path d="M63.42,189.91l-42.1,22.35c-1.24.66-1.66,2.22-.93,3.42l.63,1.02c.73,1.19,2.32,1.52,3.47.71l38.94-27.5Z" fill="#4dbfd6"/>
    <path d="M56.85,177.06l-45.08,15.49c-1.32.46-1.99,1.93-1.45,3.23l.46,1.1c.54,1.29,2.06,1.86,3.31,1.24l42.76-21.07Z" fill="#4dbfd6"/>
    <path d="M52.36,163.35l-46.95,8.25c-1.38.24-2.27,1.6-1.94,2.96l.28,1.16c.33,1.36,1.74,2.16,3.08,1.75l45.53-14.12Z" fill="#4dbfd6"/>
    <path d="M50.08,149.1l-47.66.8c-1.4.02-2.49,1.22-2.38,2.62l.1,1.19c.11,1.4,1.38,2.41,2.77,2.21l47.18-6.82Z" fill="#4dbfd6"/>
    <path d="M50.06,134.67l-47.2-6.66c-1.39-.2-2.65.82-2.76,2.22l-.09,1.19c-.11,1.4.99,2.59,2.39,2.61l47.66.64Z" fill="#4dbfd6"/>
    <path d="M52.29,120.42l-45.58-13.96c-1.34-.41-2.75.4-3.07,1.76l-.28,1.16c-.32,1.36.57,2.72,1.95,2.95l46.98,8.09Z" fill="#4dbfd6"/>
    <path d="M56.73,106.69l-42.83-20.92c-1.26-.61-2.78-.04-3.31,1.26l-.46,1.11c-.53,1.3.14,2.77,1.46,3.22l45.13,15.34Z" fill="#4dbfd6"/>
    <path d="M63.25,93.82l-39.03-27.36c-1.15-.8-2.73-.47-3.46.72l-.62,1.02c-.73,1.2-.3,2.76.94,3.41l42.18,22.21Z" fill="#4dbfd6"/>
    <path d="M71.71,82.14l-34.27-33.13c-1.01-.97-2.63-.89-3.54.17l-.77.91c-.91,1.07-.73,2.68.4,3.52l38.18,28.53Z" fill="#4dbfd6"/>
    <path d="M81.9,71.92l-28.66-38.09c-.84-1.12-2.45-1.29-3.52-.38l-.91.78c-1.06.91-1.14,2.53-.16,3.54l33.25,34.16Z" fill="#4dbfd6"/>
    <path d="M93.56,63.42l-22.35-42.1c-.66-1.24-2.22-1.66-3.42-.93l-1.02.63c-1.19.73-1.52,2.32-.71,3.47l27.5,38.94Z" fill="#4dbfd6"/>
    <path d="M106.4,56.85l-15.49-45.08c-.46-1.32-1.93-1.99-3.23-1.45l-1.1.46c-1.29.54-1.86,2.06-1.24,3.31l21.07,42.76Z" fill="#4dbfd6"/>
    <path d="M120.11,52.36l-8.25-46.95c-.24-1.38-1.6-2.27-2.96-1.94l-1.16.28c-1.36.33-2.16,1.74-1.75,3.08l14.12,45.53Z" fill="#4dbfd6"/>
    <path d="M134.36,50.08l-.8-47.66c-.02-1.4-1.22-2.49-2.62-2.38l-1.19.1c-1.4.11-2.41,1.38-2.21,2.77l6.82,47.18Z" fill="#4dbfd6"/>
    <path d="M148.79,50.06l6.66-47.2c.2-1.39-.82-2.65-2.22-2.76l-1.19-.09c-1.4-.11-2.59.99-2.61,2.39l-.64,47.66Z" fill="#4dbfd6"/>
    <path d="M163.04,52.29l13.96-45.58c.41-1.34-.4-2.75-1.76-3.07l-1.16-.28c-1.36-.32-2.72.57-2.95,1.95l-8.09,46.98Z" fill="#4dbfd6"/>
    <path d="M176.77,56.73l20.92-42.83c.61-1.26.04-2.78-1.26-3.31l-1.11-.46c-1.3-.53-2.77.14-3.22,1.46l-15.34,45.13Z" fill="#4dbfd6"/>
    <path d="M189.64,63.25l27.36-39.03c.8-1.15.47-2.73-.72-3.46l-1.02-.62c-1.2-.73-2.76-.3-3.41.94l-22.21,42.18Z" fill="#4dbfd6"/>
    <path d="M201.32,71.71l33.13-34.27c.97-1.01.89-2.63-.17-3.54l-.91-.77c-1.07-.91-2.68-.73-3.52.4l-28.53,38.18Z" fill="#4dbfd6"/>
    <path d="M211.54,81.9l38.09-28.66c1.12-.84,1.29-2.45.38-3.52l-.78-.91c-.91-1.06-2.53-1.14-3.54-.16l-34.16,33.25Z" fill="#4dbfd6"/>
    <path d="M220.04,93.56l42.1-22.35c1.24-.66,1.66-2.22.93-3.42l-.63-1.02c-.73-1.19-2.32-1.52-3.47-.71l-38.94,27.5Z" fill="#4dbfd6"/>
    <path d="M226.62,106.4l45.08-15.49c1.32-.46,1.99-1.93,1.45-3.23l-.46-1.1c-.54-1.29-2.06-1.86-3.31-1.24l-42.76,21.07Z" fill="#4dbfd6"/>
    <path d="M231.1,120.11l46.95-8.25c1.38-.24,2.27-1.6,1.94-2.96l-.28-1.16c-.33-1.36-1.74-2.16-3.08-1.75l-45.53,14.12Z" fill="#4dbfd6"/>
    <path d="M233.38,134.36l47.66-.8c1.4-.02,2.49-1.22,2.38-2.62l-.1-1.19c-.11-1.4-1.38-2.41-2.77-2.21l-47.18,6.82Z" fill="#4dbfd6"/>
    <path d="M233.41,148.79l47.2,6.66c1.39.2,2.65-.82,2.76-2.22l.09-1.19c.11-1.4-.99-2.59-2.39-2.61l-47.66-.64Z" fill="#4dbfd6"/>
    <path d="M231.17,163.04l45.58,13.96c1.34.41,2.75-.4,3.07-1.76l.28-1.16c.32-1.36-.57-2.72-1.95-2.95l-46.98-8.09Z" fill="#4dbfd6"/>
    <path d="M226.74,176.77l42.83,20.92c1.26.61,2.78.04,3.31-1.26l.46-1.11c.53-1.3-.14-2.77-1.46-3.22l-45.13-15.34Z" fill="#4dbfd6"/>
    <path d="M220.21,189.64l39.03,27.36c1.15.8,2.73.47,3.46-.72l.62-1.02c.73-1.2.3-2.76-.94-3.41l-42.18-22.21Z" fill="#4dbfd6"/>
    <path d="M211.75,201.32l34.27,33.13c1.01.97,2.63.89,3.54-.17l.77-.91c.91-1.07.73-2.68-.4-3.52l-38.18-28.53Z" fill="#4dbfd6"/>
    <path d="M201.57,211.54l28.66,38.09c.84,1.12,2.45,1.29,3.52.38l.91-.78c1.06-.91,1.14-2.53.16-3.54l-33.25-34.16Z" fill="#4dbfd6"/>
    <path d="M189.91,220.04l22.35,42.1c.66,1.24,2.22,1.66,3.42.93l1.02-.63c1.19-.73,1.52-2.32.71-3.47l-27.5-38.94Z" fill="#4dbfd6"/>
    <path d="M177.06,226.62l15.49,45.08c.46,1.32,1.93,1.99,3.23,1.45l1.1-.46c1.29-.54,1.86-2.06,1.24-3.31l-21.07-42.76Z" fill="#4dbfd6"/>
    <path d="M163.35,231.1l8.25,46.95c.24,1.38,1.6,2.27,2.96,1.94l1.16-.28c1.36-.33,2.16-1.74,1.75-3.08l-14.12-45.53Z" fill="#4dbfd6"/>
    <path d="M149.1,233.38l.8,47.66c.02,1.4,1.22,2.49,2.62,2.38l1.19-.1c1.4-.11,2.41-1.38,2.21-2.77l-6.82-47.18Z" fill="#4dbfd6"/>
  </g>
</svg>