<?xml version="1.0" encoding="UTF-8"?>
<svg id="a" data-name="图层 1" xmlns="http://www.w3.org/2000/svg" width="100mm" height="100mm" viewBox="0 0 283.46 283.46">
  <g>
    <g id="b" data-name="&amp;lt;径向重复&amp;gt;">
      <polygon points="141.73 166.75 145.55 283.46 137.91 283.46 141.73 166.75" fill="#0084b7"/>
    </g>
    <g id="c" data-name="&amp;lt;径向重复&amp;gt;">
      <polygon points="137.82 166.44 123.33 282.32 115.79 281.12 137.82 166.44" fill="#0084b7"/>
    </g>
    <g id="d" data-name="&amp;lt;径向重复&amp;gt;">
      <polygon points="134 165.52 101.57 277.71 94.3 275.35 134 165.52" fill="#0084b7"/>
    </g>
    <g id="e" data-name="&amp;lt;径向重复&amp;gt;">
      <polygon points="130.38 164.02 80.79 269.75 73.98 266.28 130.38 164.02" fill="#0084b7"/>
    </g>
    <g id="f" data-name="&amp;lt;径向重复&amp;gt;">
      <polygon points="127.03 161.97 61.51 258.64 55.33 254.15 127.03 161.97" fill="#0084b7"/>
    </g>
    <g id="g" data-name="&amp;lt;径向重复&amp;gt;">
      <polygon points="124.04 159.42 44.21 244.66 38.81 239.25 124.04 159.42" fill="#0084b7"/>
    </g>
    <g id="h" data-name="&amp;lt;径向重复&amp;gt;">
      <polygon points="121.5 156.43 29.31 228.13 24.82 221.95 121.5 156.43" fill="#0084b7"/>
    </g>
    <g id="i" data-name="&amp;lt;径向重复&amp;gt;">
      <polygon points="119.45 153.09 17.18 209.48 13.71 202.67 119.45 153.09" fill="#0084b7"/>
    </g>
    <g id="j" data-name="&amp;lt;径向重复&amp;gt;">
      <polygon points="117.94 149.46 8.12 189.16 5.76 181.9 117.94 149.46" fill="#0084b7"/>
    </g>
    <g id="k" data-name="&amp;lt;径向重复&amp;gt;">
      <polygon points="117.03 145.65 2.34 167.68 1.15 160.13 117.03 145.65" fill="#0084b7"/>
    </g>
    <g id="l" data-name="&amp;lt;径向重复&amp;gt;">
      <polygon points="116.72 141.73 0 145.55 0 137.91 116.72 141.73" fill="#0084b7"/>
    </g>
    <g id="m" data-name="&amp;lt;径向重复&amp;gt;">
      <polygon points="117.03 137.82 1.15 123.33 2.34 115.79 117.03 137.82" fill="#0084b7"/>
    </g>
    <g id="n" data-name="&amp;lt;径向重复&amp;gt;">
      <polygon points="117.94 134 5.76 101.57 8.12 94.3 117.94 134" fill="#0084b7"/>
    </g>
    <g id="o" data-name="&amp;lt;径向重复&amp;gt;">
      <polygon points="119.45 130.38 13.71 80.79 17.18 73.98 119.45 130.38" fill="#0084b7"/>
    </g>
    <g id="p" data-name="&amp;lt;径向重复&amp;gt;">
      <polygon points="121.5 127.03 24.82 61.51 29.31 55.33 121.5 127.03" fill="#0084b7"/>
    </g>
    <g id="q" data-name="&amp;lt;径向重复&amp;gt;">
      <polygon points="124.04 124.05 38.81 44.21 44.21 38.81 124.04 124.05" fill="#0084b7"/>
    </g>
    <g id="r" data-name="&amp;lt;径向重复&amp;gt;">
      <polygon points="127.03 121.5 55.33 29.31 61.51 24.82 127.03 121.5" fill="#0084b7"/>
    </g>
    <g id="s" data-name="&amp;lt;径向重复&amp;gt;">
      <polygon points="130.38 119.45 73.98 17.18 80.79 13.71 130.38 119.45" fill="#0084b7"/>
    </g>
    <g id="t" data-name="&amp;lt;径向重复&amp;gt;">
      <polygon points="134 117.94 94.3 8.12 101.57 5.76 134 117.94" fill="#0084b7"/>
    </g>
    <g id="u" data-name="&amp;lt;径向重复&amp;gt;">
      <polygon points="137.82 117.03 115.79 2.34 123.33 1.15 137.82 117.03" fill="#0084b7"/>
    </g>
    <g id="v" data-name="&amp;lt;径向重复&amp;gt;">
      <polygon points="141.73 116.72 137.91 0 145.55 0 141.73 116.72" fill="#0084b7"/>
    </g>
    <g id="w" data-name="&amp;lt;径向重复&amp;gt;">
      <polygon points="145.65 117.03 160.13 1.15 167.68 2.34 145.65 117.03" fill="#0084b7"/>
    </g>
    <g id="x" data-name="&amp;lt;径向重复&amp;gt;">
      <polygon points="149.46 117.94 181.9 5.76 189.16 8.12 149.46 117.94" fill="#0084b7"/>
    </g>
    <g id="y" data-name="&amp;lt;径向重复&amp;gt;">
      <polygon points="153.09 119.45 202.67 13.71 209.48 17.18 153.09 119.45" fill="#0084b7"/>
    </g>
    <g id="z" data-name="&amp;lt;径向重复&amp;gt;">
      <polygon points="156.44 121.5 221.95 24.82 228.13 29.31 156.44 121.5" fill="#0084b7"/>
    </g>
    <g id="aa" data-name="&amp;lt;径向重复&amp;gt;">
      <polygon points="159.42 124.04 239.25 38.81 244.65 44.21 159.42 124.04" fill="#0084b7"/>
    </g>
    <g id="ab" data-name="&amp;lt;径向重复&amp;gt;">
      <polygon points="161.97 127.03 254.15 55.33 258.64 61.51 161.97 127.03" fill="#0084b7"/>
    </g>
    <g id="ac" data-name="&amp;lt;径向重复&amp;gt;">
      <polygon points="164.02 130.38 266.28 73.98 269.75 80.79 164.02 130.38" fill="#0084b7"/>
    </g>
    <g id="ad" data-name="&amp;lt;径向重复&amp;gt;">
      <polygon points="165.52 134 275.35 94.3 277.71 101.57 165.52 134" fill="#0084b7"/>
    </g>
    <g id="ae" data-name="&amp;lt;径向重复&amp;gt;">
      <polygon points="166.44 137.82 281.12 115.79 282.32 123.33 166.44 137.82" fill="#0084b7"/>
    </g>
    <g id="af" data-name="&amp;lt;径向重复&amp;gt;">
      <polygon points="166.75 141.73 283.46 137.91 283.46 145.55 166.75 141.73" fill="#0084b7"/>
    </g>
    <g id="ag" data-name="&amp;lt;径向重复&amp;gt;">
      <polygon points="166.44 145.65 282.32 160.13 281.12 167.68 166.44 145.65" fill="#0084b7"/>
    </g>
    <g id="ah" data-name="&amp;lt;径向重复&amp;gt;">
      <polygon points="165.52 149.46 277.71 181.9 275.35 189.16 165.52 149.46" fill="#0084b7"/>
    </g>
    <g id="ai" data-name="&amp;lt;径向重复&amp;gt;">
      <polygon points="164.02 153.09 269.75 202.67 266.28 209.48 164.02 153.09" fill="#0084b7"/>
    </g>
    <g id="aj" data-name="&amp;lt;径向重复&amp;gt;">
      <polygon points="161.97 156.44 258.64 221.95 254.15 228.13 161.97 156.44" fill="#0084b7"/>
    </g>
    <g id="ak" data-name="&amp;lt;径向重复&amp;gt;">
      <polygon points="159.42 159.42 244.66 239.25 239.25 244.65 159.42 159.42" fill="#0084b7"/>
    </g>
    <g id="al" data-name="&amp;lt;径向重复&amp;gt;">
      <polygon points="156.43 161.97 228.13 254.15 221.95 258.64 156.43 161.97" fill="#0084b7"/>
    </g>
    <g id="am" data-name="&amp;lt;径向重复&amp;gt;">
      <polygon points="153.09 164.02 209.48 266.28 202.67 269.75 153.09 164.02" fill="#0084b7"/>
    </g>
    <g id="an" data-name="&amp;lt;径向重复&amp;gt;">
      <polygon points="149.46 165.52 189.16 275.35 181.9 277.71 149.46 165.52" fill="#0084b7"/>
    </g>
    <g id="ao" data-name="&amp;lt;径向重复&amp;gt;">
      <polygon points="145.65 166.44 167.68 281.12 160.13 282.32 145.65 166.44" fill="#0084b7"/>
    </g>
  </g>
  <g>
    <polygon points="142.36 146.78 150.63 220.8 145.77 221.19 142.36 146.78" fill="#a4d9eb"/>
    <polygon points="141.56 146.82 138.15 221.22 133.29 220.84 141.56 146.82" fill="#a4d9eb"/>
    <polygon points="140.77 146.73 125.76 219.68 121.02 218.55 140.77 146.73" fill="#a4d9eb"/>
    <polygon points="140 146.52 113.76 216.22 109.26 214.36 140 146.52" fill="#a4d9eb"/>
    <polygon points="139.27 146.19 102.45 210.93 98.3 208.39 139.27 146.19" fill="#a4d9eb"/>
    <polygon points="138.6 145.75 92.11 203.93 88.41 200.77 138.6 145.75" fill="#a4d9eb"/>
    <polygon points="138.02 145.21 82.99 195.41 79.83 191.7 138.02 145.21" fill="#a4d9eb"/>
    <polygon points="137.52 144.58 75.32 185.56 72.77 181.4 137.52 144.58" fill="#a4d9eb"/>
    <polygon points="137.12 143.89 69.28 174.63 67.42 170.13 137.12 143.89" fill="#a4d9eb"/>
    <polygon points="136.84 143.14 65.03 162.89 63.89 158.15 136.84 143.14" fill="#a4d9eb"/>
    <polygon points="136.68 142.36 62.66 150.63 62.28 145.77 136.68 142.36" fill="#a4d9eb"/>
    <polygon points="136.64 141.56 62.24 138.15 62.62 133.3 136.64 141.56" fill="#a4d9eb"/>
    <polygon points="136.73 140.77 63.78 125.76 64.92 121.02 136.73 140.77" fill="#a4d9eb"/>
    <polygon points="136.95 140 67.24 113.76 69.11 109.26 136.95 140" fill="#a4d9eb"/>
    <polygon points="137.28 139.27 72.53 102.45 75.08 98.3 137.28 139.27" fill="#a4d9eb"/>
    <polygon points="137.72 138.6 79.53 92.11 82.69 88.41 137.72 138.6" fill="#a4d9eb"/>
    <polygon points="138.26 138.02 88.06 82.99 91.76 79.83 138.26 138.02" fill="#a4d9eb"/>
    <polygon points="138.88 137.52 97.91 75.32 102.06 72.77 138.88 137.52" fill="#a4d9eb"/>
    <polygon points="139.57 137.12 108.84 69.28 113.34 67.42 139.57 137.12" fill="#a4d9eb"/>
    <polygon points="140.32 136.84 120.58 65.03 125.31 63.89 140.32 136.84" fill="#a4d9eb"/>
    <polygon points="141.1 136.68 132.84 62.66 137.69 62.28 141.1 136.68" fill="#a4d9eb"/>
    <polygon points="141.9 136.64 145.31 62.24 150.17 62.62 141.9 136.64" fill="#a4d9eb"/>
    <polygon points="142.7 136.73 157.71 63.78 162.44 64.92 142.7 136.73" fill="#a4d9eb"/>
    <polygon points="143.47 136.95 169.7 67.24 174.21 69.11 143.47 136.95" fill="#a4d9eb"/>
    <polygon points="144.19 137.28 181.01 72.53 185.17 75.08 144.19 137.28" fill="#a4d9eb"/>
    <polygon points="144.86 137.72 191.35 79.53 195.06 82.69 144.86 137.72" fill="#a4d9eb"/>
    <polygon points="145.45 138.26 200.47 88.06 203.64 91.76 145.45 138.26" fill="#a4d9eb"/>
    <polygon points="145.95 138.88 208.15 97.91 210.69 102.06 145.95 138.88" fill="#a4d9eb"/>
    <polygon points="146.34 139.57 214.18 108.84 216.05 113.34 146.34 139.57" fill="#a4d9eb"/>
    <polygon points="146.62 140.32 218.44 120.58 219.57 125.31 146.62 140.32" fill="#a4d9eb"/>
    <polygon points="146.78 141.1 220.8 132.84 221.19 137.69 146.78 141.1" fill="#a4d9eb"/>
    <polygon points="146.82 141.9 221.22 145.31 220.84 150.17 146.82 141.9" fill="#a4d9eb"/>
    <polygon points="146.73 142.7 219.68 157.71 218.55 162.44 146.73 142.7" fill="#a4d9eb"/>
    <polygon points="146.52 143.47 216.22 169.7 214.36 174.21 146.52 143.47" fill="#a4d9eb"/>
    <polygon points="146.19 144.19 210.93 181.01 208.39 185.17 146.19 144.19" fill="#a4d9eb"/>
    <polygon points="145.75 144.86 203.93 191.35 200.77 195.06 145.75 144.86" fill="#a4d9eb"/>
    <polygon points="145.21 145.45 195.41 200.47 191.7 203.64 145.21 145.45" fill="#a4d9eb"/>
    <polygon points="144.58 145.95 185.56 208.15 181.4 210.69 144.58 145.95" fill="#a4d9eb"/>
    <polygon points="143.89 146.34 174.63 214.18 170.13 216.05 143.89 146.34" fill="#a4d9eb"/>
    <polygon points="143.14 146.62 162.89 218.44 158.15 219.57 143.14 146.62" fill="#a4d9eb"/>
  </g>
  <g>
    <g id="ap" data-name="&amp;lt;径向重复&amp;gt;">
      <path d="M153.12,279.91l-1.14-47.73c-.03-1.4-1.24-2.49-2.64-2.36l-1.19.1c-1.4.12-2.4,1.4-2.19,2.79l7.17,47.21Z" fill="#4dbfd6"/>
    </g>
    <g id="aq" data-name="&amp;lt;径向重复&amp;gt;">
      <path d="M131.36,279.99l6.34-47.32c.19-1.39-.84-2.65-2.24-2.75l-1.19-.08c-1.4-.1-2.59,1.01-2.6,2.41l-.31,47.75Z" fill="#4dbfd6"/>
    </g>
    <g id="ar" data-name="&amp;lt;径向重复&amp;gt;">
      <path d="M109.86,276.66l13.67-45.75c.4-1.34-.42-2.75-1.78-3.06l-1.17-.27c-1.37-.32-2.72.59-2.95,1.97l-7.77,47.11Z" fill="#4dbfd6"/>
    </g>
    <g id="as" data-name="&amp;lt;径向重复&amp;gt;">
      <path d="M89.15,270.01l20.66-43.05c.61-1.27.02-2.78-1.28-3.31l-1.11-.45c-1.3-.53-2.78.16-3.22,1.49l-15.05,45.32Z" fill="#4dbfd6"/>
    </g>
    <g id="at" data-name="&amp;lt;径向重复&amp;gt;">
      <path d="M69.73,260.21l27.14-39.29c.8-1.15.45-2.74-.75-3.47l-1.03-.62c-1.2-.72-2.77-.28-3.41.97l-21.95,42.4Z" fill="#4dbfd6"/>
    </g>
    <g id="au" data-name="&amp;lt;径向重复&amp;gt;">
      <path d="M52.08,247.49l32.95-34.56c.97-1.02.88-2.64-.2-3.54l-.92-.77c-1.07-.9-2.69-.71-3.52.42l-28.31,38.45Z" fill="#4dbfd6"/>
    </g>
    <g id="av" data-name="&amp;lt;径向重复&amp;gt;">
      <path d="M36.64,232.16l37.95-28.98c1.12-.85,1.28-2.47.36-3.53l-.79-.9c-.92-1.06-2.54-1.12-3.54-.14l-33.98,33.55Z" fill="#4dbfd6"/>
    </g>
    <g id="aw" data-name="&amp;lt;径向重复&amp;gt;">
      <path d="M23.79,214.6l42.01-22.69c1.23-.67,1.65-2.24.91-3.43l-.63-1.02c-.74-1.19-2.34-1.51-3.48-.69l-38.81,27.82Z" fill="#4dbfd6"/>
    </g>
    <g id="ax" data-name="&amp;lt;径向重复&amp;gt;">
      <path d="M13.84,195.26l45.05-15.83c1.32-.47,1.98-1.95,1.43-3.24l-.47-1.1c-.55-1.29-2.07-1.85-3.33-1.22l-42.68,21.4Z" fill="#4dbfd6"/>
    </g>
    <g id="ay" data-name="&amp;lt;径向重复&amp;gt;">
      <path d="M7.04,174.59l46.97-8.59c1.38-.25,2.26-1.62,1.92-2.98l-.29-1.16c-.34-1.36-1.76-2.15-3.1-1.73l-45.5,14.46Z" fill="#4dbfd6"/>
    </g>
    <g id="az" data-name="&amp;lt;径向重复&amp;gt;">
      <path d="M3.56,153.12l47.73-1.14c1.4-.03,2.49-1.24,2.36-2.64l-.1-1.19c-.12-1.4-1.4-2.4-2.79-2.19l-47.21,7.17Z" fill="#4dbfd6"/>
    </g>
    <g id="ba" data-name="&amp;lt;径向重复&amp;gt;">
      <path d="M3.48,131.36l47.32,6.34c1.39.19,2.65-.84,2.75-2.24l.08-1.19c.1-1.4-1.01-2.59-2.41-2.6l-47.75-.31Z" fill="#4dbfd6"/>
    </g>
    <g id="bb" data-name="&amp;lt;径向重复&amp;gt;">
      <path d="M6.8,109.86l45.75,13.67c1.34.4,2.75-.42,3.06-1.78l.27-1.17c.32-1.37-.59-2.72-1.97-2.95l-47.11-7.77Z" fill="#4dbfd6"/>
    </g>
    <g id="bc" data-name="&amp;lt;径向重复&amp;gt;">
      <path d="M13.45,89.15l43.05,20.66c1.27.61,2.78.02,3.31-1.28l.45-1.11c.53-1.3-.16-2.78-1.49-3.22l-45.32-15.05Z" fill="#4dbfd6"/>
    </g>
    <g id="bd" data-name="&amp;lt;径向重复&amp;gt;">
      <path d="M23.26,69.73l39.29,27.14c1.15.8,2.74.45,3.47-.75l.62-1.03c.72-1.2.28-2.77-.97-3.41l-42.4-21.95Z" fill="#4dbfd6"/>
    </g>
    <g id="be" data-name="&amp;lt;径向重复&amp;gt;">
      <path d="M35.98,52.08l34.56,32.95c1.02.97,2.64.88,3.54-.2l.77-.92c.9-1.07.71-2.69-.42-3.52l-38.45-28.31Z" fill="#4dbfd6"/>
    </g>
    <g id="bf" data-name="&amp;lt;径向重复&amp;gt;">
      <path d="M51.31,36.64l28.98,37.95c.85,1.12,2.47,1.28,3.53.36l.9-.79c1.06-.92,1.12-2.54.14-3.54l-33.55-33.98Z" fill="#4dbfd6"/>
    </g>
    <g id="bg" data-name="&amp;lt;径向重复&amp;gt;">
      <path d="M68.86,23.79l22.69,42.01c.67,1.23,2.24,1.65,3.43.91l1.02-.63c1.19-.74,1.51-2.34.69-3.48l-27.82-38.81Z" fill="#4dbfd6"/>
    </g>
    <g id="bh" data-name="&amp;lt;径向重复&amp;gt;">
      <path d="M88.21,13.84l15.83,45.05c.47,1.32,1.95,1.98,3.24,1.43l1.1-.47c1.29-.55,1.85-2.07,1.22-3.33l-21.4-42.68Z" fill="#4dbfd6"/>
    </g>
    <g id="bi" data-name="&amp;lt;径向重复&amp;gt;">
      <path d="M108.87,7.04l8.59,46.97c.25,1.38,1.62,2.26,2.98,1.92l1.16-.29c1.36-.34,2.15-1.76,1.73-3.1l-14.46-45.5Z" fill="#4dbfd6"/>
    </g>
    <g id="bj" data-name="&amp;lt;径向重复&amp;gt;">
      <path d="M130.35,3.56l1.14,47.73c.03,1.4,1.24,2.49,2.64,2.36l1.19-.1c1.4-.12,2.4-1.4,2.19-2.79l-7.17-47.21Z" fill="#4dbfd6"/>
    </g>
    <g id="bk" data-name="&amp;lt;径向重复&amp;gt;">
      <path d="M152.1,3.48l-6.34,47.32c-.19,1.39.84,2.65,2.24,2.75l1.19.08c1.4.1,2.59-1.01,2.6-2.41l.31-47.75Z" fill="#4dbfd6"/>
    </g>
    <g id="bl" data-name="&amp;lt;径向重复&amp;gt;">
      <path d="M173.6,6.8l-13.67,45.75c-.4,1.34.42,2.75,1.78,3.06l1.17.27c1.37.32,2.72-.59,2.95-1.97l7.77-47.11Z" fill="#4dbfd6"/>
    </g>
    <g id="bm" data-name="&amp;lt;径向重复&amp;gt;">
      <path d="M194.32,13.45l-20.66,43.05c-.61,1.27-.02,2.78,1.28,3.31l1.11.45c1.3.53,2.78-.16,3.22-1.49l15.05-45.32Z" fill="#4dbfd6"/>
    </g>
    <g id="bn" data-name="&amp;lt;径向重复&amp;gt;">
      <path d="M213.74,23.26l-27.14,39.29c-.8,1.15-.45,2.74.75,3.47l1.03.62c1.2.72,2.77.28,3.41-.97l21.95-42.4Z" fill="#4dbfd6"/>
    </g>
    <g id="bo" data-name="&amp;lt;径向重复&amp;gt;">
      <path d="M231.38,35.98l-32.95,34.56c-.97,1.02-.88,2.64.2,3.54l.92.77c1.07.9,2.69.71,3.52-.42l28.31-38.45Z" fill="#4dbfd6"/>
    </g>
    <g id="bp" data-name="&amp;lt;径向重复&amp;gt;">
      <path d="M246.82,51.31l-37.95,28.98c-1.12.85-1.28,2.47-.36,3.53l.79.9c.92,1.06,2.54,1.12,3.54.14l33.98-33.55Z" fill="#4dbfd6"/>
    </g>
    <g id="bq" data-name="&amp;lt;径向重复&amp;gt;">
      <path d="M259.67,68.86l-42.01,22.69c-1.23.67-1.65,2.24-.91,3.43l.63,1.02c.74,1.19,2.34,1.51,3.48.69l38.81-27.82Z" fill="#4dbfd6"/>
    </g>
    <g id="br" data-name="&amp;lt;径向重复&amp;gt;">
      <path d="M269.62,88.21l-45.05,15.83c-1.32.47-1.98,1.95-1.43,3.24l.47,1.1c.55,1.29,2.07,1.85,3.33,1.22l42.68-21.4Z" fill="#4dbfd6"/>
    </g>
    <g id="bs" data-name="&amp;lt;径向重复&amp;gt;">
      <path d="M276.42,108.87l-46.97,8.59c-1.38.25-2.26,1.62-1.92,2.98l.29,1.16c.34,1.36,1.76,2.15,3.1,1.73l45.5-14.46Z" fill="#4dbfd6"/>
    </g>
    <g id="bt" data-name="&amp;lt;径向重复&amp;gt;">
      <path d="M279.91,130.35l-47.73,1.14c-1.4.03-2.49,1.24-2.36,2.64l.1,1.19c.12,1.4,1.4,2.4,2.79,2.19l47.21-7.17Z" fill="#4dbfd6"/>
    </g>
    <g id="bu" data-name="&amp;lt;径向重复&amp;gt;">
      <path d="M279.99,152.1l-47.32-6.34c-1.39-.19-2.65.84-2.75,2.24l-.08,1.19c-.1,1.4,1.01,2.59,2.41,2.6l47.75.31Z" fill="#4dbfd6"/>
    </g>
    <g id="bv" data-name="&amp;lt;径向重复&amp;gt;">
      <path d="M276.66,173.6l-45.75-13.67c-1.34-.4-2.75.42-3.06,1.78l-.27,1.17c-.32,1.37.59,2.72,1.97,2.95l47.11,7.77Z" fill="#4dbfd6"/>
    </g>
    <g id="bw" data-name="&amp;lt;径向重复&amp;gt;">
      <path d="M270.01,194.31l-43.05-20.66c-1.27-.61-2.78-.02-3.31,1.28l-.45,1.11c-.53,1.3.16,2.78,1.49,3.22l45.32,15.05Z" fill="#4dbfd6"/>
    </g>
    <g id="bx" data-name="&amp;lt;径向重复&amp;gt;">
      <path d="M260.21,213.74l-39.29-27.14c-1.15-.8-2.74-.45-3.47.75l-.62,1.03c-.72,1.2-.28,2.77.97,3.41l42.4,21.95Z" fill="#4dbfd6"/>
    </g>
    <g id="by" data-name="&amp;lt;径向重复&amp;gt;">
      <path d="M247.49,231.38l-34.56-32.95c-1.02-.97-2.64-.88-3.54.2l-.77.92c-.9,1.07-.71,2.69.42,3.52l38.45,28.31Z" fill="#4dbfd6"/>
    </g>
    <g id="bz" data-name="&amp;lt;径向重复&amp;gt;">
      <path d="M232.16,246.82l-28.98-37.95c-.85-1.12-2.47-1.28-3.53-.36l-.9.79c-1.06.92-1.12,2.54-.14,3.54l33.55,33.98Z" fill="#4dbfd6"/>
    </g>
    <g id="ca" data-name="&amp;lt;径向重复&amp;gt;">
      <path d="M214.6,259.67l-22.69-42.01c-.67-1.23-2.24-1.65-3.43-.91l-1.02.63c-1.19.74-1.51,2.34-.69,3.48l27.82,38.81Z" fill="#4dbfd6"/>
    </g>
    <g id="cb" data-name="&amp;lt;径向重复&amp;gt;">
      <path d="M195.26,269.62l-15.83-45.05c-.47-1.32-1.95-1.98-3.24-1.43l-1.1.47c-1.29.55-1.85,2.07-1.22,3.33l21.4,42.68Z" fill="#4dbfd6"/>
    </g>
    <g id="cc" data-name="&amp;lt;径向重复&amp;gt;">
      <path d="M174.59,276.42l-8.59-46.97c-.25-1.38-1.62-2.26-2.98-1.92l-1.16.29c-1.36.34-2.15,1.76-1.73,3.1l14.46,45.5Z" fill="#4dbfd6"/>
    </g>
  </g>
</svg>