<?xml version="1.0" encoding="UTF-8"?>
<svg id="a" data-name="图层 1" xmlns="http://www.w3.org/2000/svg" width="100mm" height="100mm" viewBox="0 0 283.46 283.46">
  <g>
    <path d="M136.23,213.19l-5.19,36.79c-.15,1.08.64,2.07,1.73,2.15l.93.07c1.09.08,2.02-.77,2.04-1.86l.5-37.15Z" fill="#4dbfd6"/>
    <path d="M125.11,211.44l-10.89,35.52c-.32,1.04.31,2.14,1.37,2.39l.91.22c1.06.25,2.12-.44,2.3-1.52l6.31-36.62Z" fill="#4dbfd6"/>
    <path d="M114.41,207.99l-16.31,33.38c-.48.98-.03,2.16.98,2.58l.86.36c1.01.42,2.16-.11,2.51-1.14l11.96-35.18Z" fill="#4dbfd6"/>
    <path d="M104.38,202.9l-21.34,30.42c-.63.89-.37,2.13.56,2.7l.8.49c.93.57,2.15.23,2.66-.73l17.32-32.88Z" fill="#4dbfd6"/>
    <path d="M95.27,196.31l-25.83,26.71c-.76.78-.7,2.05.13,2.76l.71.6c.83.71,2.09.57,2.74-.31l22.25-29.76Z" fill="#4dbfd6"/>
    <path d="M87.3,188.37l-29.7,22.34c-.87.66-1.01,1.91-.3,2.74l.61.71c.71.83,1.97.89,2.76.12l26.63-25.92Z" fill="#4dbfd6"/>
    <path d="M80.67,179.28l-32.83,17.42c-.96.51-1.3,1.73-.72,2.66l.49.79c.57.93,1.81,1.18,2.7.55l30.36-21.43Z" fill="#4dbfd6"/>
    <path d="M75.55,169.27l-35.15,12.08c-1.03.35-1.55,1.51-1.13,2.52l.36.86c.42,1.01,1.6,1.45,2.58.97l33.34-16.42Z" fill="#4dbfd6"/>
    <path d="M72.05,158.58l-36.61,6.43c-1.08.19-1.77,1.25-1.51,2.31l.22.91c.26,1.06,1.36,1.69,2.4,1.36l35.5-11.01Z" fill="#4dbfd6"/>
    <path d="M70.27,147.48l-37.16.63c-1.09.02-1.94.95-1.85,2.04l.07.93c.09,1.09,1.08,1.88,2.16,1.72l36.78-5.32Z" fill="#4dbfd6"/>
    <path d="M70.25,136.23l-36.8-5.19c-1.08-.15-2.07.64-2.15,1.73l-.07.93c-.08,1.09.77,2.02,1.86,2.04l37.16.5Z" fill="#4dbfd6"/>
    <path d="M71.99,125.12l-35.54-10.88c-1.04-.32-2.14.31-2.4,1.37l-.22.91c-.25,1.06.44,2.12,1.52,2.3l36.63,6.3Z" fill="#4dbfd6"/>
    <path d="M75.45,114.42l-33.4-16.31c-.98-.48-2.16-.03-2.58.98l-.36.86c-.42,1.01.11,2.16,1.14,2.51l35.19,11.95Z" fill="#4dbfd6"/>
    <path d="M80.54,104.39l-30.43-21.33c-.89-.63-2.13-.37-2.7.56l-.49.8c-.57.93-.23,2.15.73,2.66l32.89,17.31Z" fill="#4dbfd6"/>
    <path d="M87.14,95.28l-26.72-25.83c-.79-.76-2.05-.7-2.76.13l-.6.71c-.71.83-.57,2.09.31,2.74l29.77,22.24Z" fill="#4dbfd6"/>
    <path d="M95.08,87.32l-22.35-29.69c-.66-.87-1.91-1.01-2.74-.3l-.71.61c-.83.71-.89,1.97-.12,2.76l25.93,26.62Z" fill="#4dbfd6"/>
    <path d="M104.17,80.69l-17.43-32.82c-.51-.96-1.73-1.3-2.66-.72l-.79.49c-.93.57-1.18,1.81-.55,2.7l21.44,30.35Z" fill="#4dbfd6"/>
    <path d="M114.18,75.57l-12.08-35.14c-.35-1.03-1.51-1.55-2.52-1.13l-.86.36c-1.01.42-1.45,1.6-.97,2.58l16.43,33.33Z" fill="#4dbfd6"/>
    <path d="M124.88,72.08l-6.43-36.59c-.19-1.08-1.25-1.77-2.31-1.51l-.91.22c-1.06.26-1.69,1.36-1.36,2.4l11.01,35.49Z" fill="#4dbfd6"/>
    <path d="M135.98,70.3l-.63-37.15c-.02-1.09-.95-1.94-2.04-1.85l-.93.07c-1.09.09-1.88,1.08-1.72,2.16l5.32,36.77Z" fill="#4dbfd6"/>
    <path d="M147.23,70.28l5.19-36.79c.15-1.08-.64-2.07-1.73-2.15l-.93-.07c-1.09-.08-2.02.77-2.04,1.86l-.5,37.15Z" fill="#4dbfd6"/>
    <path d="M158.35,72.02l10.89-35.52c.32-1.04-.31-2.14-1.37-2.39l-.91-.22c-1.06-.25-2.12.44-2.3,1.52l-6.31,36.62Z" fill="#4dbfd6"/>
    <path d="M169.05,75.48l16.31-33.38c.48-.98.03-2.16-.98-2.58l-.86-.36c-1.01-.42-2.16.11-2.51,1.14l-11.96,35.18Z" fill="#4dbfd6"/>
    <path d="M179.08,80.56l21.34-30.42c.63-.89.37-2.13-.56-2.7l-.8-.49c-.93-.57-2.15-.23-2.66.73l-17.32,32.88Z" fill="#4dbfd6"/>
    <path d="M188.2,87.16l25.83-26.71c.76-.78.7-2.05-.13-2.76l-.71-.6c-.83-.71-2.09-.57-2.74.31l-22.25,29.76Z" fill="#4dbfd6"/>
    <path d="M196.16,95.1l29.7-22.34c.87-.66,1.01-1.91.3-2.74l-.61-.71c-.71-.83-1.97-.89-2.76-.12l-26.63,25.92Z" fill="#4dbfd6"/>
    <path d="M202.79,104.18l32.83-17.42c.96-.51,1.3-1.73.72-2.66l-.49-.79c-.57-.93-1.81-1.18-2.7-.55l-30.36,21.43Z" fill="#4dbfd6"/>
    <path d="M207.92,114.19l35.15-12.08c1.03-.35,1.55-1.51,1.13-2.52l-.36-.86c-.42-1.01-1.6-1.45-2.58-.97l-33.34,16.42Z" fill="#4dbfd6"/>
    <path d="M211.41,124.88l36.61-6.43c1.08-.19,1.77-1.25,1.51-2.31l-.22-.91c-.26-1.06-1.36-1.69-2.4-1.36l-35.5,11.01Z" fill="#4dbfd6"/>
    <path d="M213.19,135.99l37.16-.63c1.09-.02,1.94-.95,1.85-2.04l-.07-.93c-.09-1.09-1.08-1.88-2.16-1.72l-36.78,5.32Z" fill="#4dbfd6"/>
    <path d="M213.21,147.23l36.8,5.19c1.08.15,2.07-.64,2.15-1.73l.07-.93c.08-1.09-.77-2.02-1.86-2.04l-37.16-.5Z" fill="#4dbfd6"/>
    <path d="M211.47,158.34l35.54,10.88c1.04.32,2.14-.31,2.4-1.37l.22-.91c.25-1.06-.44-2.12-1.52-2.3l-36.63-6.3Z" fill="#4dbfd6"/>
    <path d="M208.01,169.04l33.4,16.31c.98.48,2.16.03,2.58-.98l.36-.86c.42-1.01-.11-2.16-1.14-2.51l-35.19-11.95Z" fill="#4dbfd6"/>
    <path d="M202.92,179.07l30.43,21.33c.89.63,2.13.37,2.7-.56l.49-.8c.57-.93.23-2.15-.73-2.66l-32.89-17.31Z" fill="#4dbfd6"/>
    <path d="M196.32,188.18l26.72,25.83c.79.76,2.05.7,2.76-.13l.6-.71c.71-.83.57-2.09-.31-2.74l-29.77-22.24Z" fill="#4dbfd6"/>
    <path d="M188.38,196.15l22.35,29.69c.66.87,1.91,1.01,2.74.3l.71-.61c.83-.71.89-1.97.12-2.76l-25.93-26.62Z" fill="#4dbfd6"/>
    <path d="M179.29,202.77l17.43,32.82c.51.96,1.73,1.3,2.66.72l.79-.49c.93-.57,1.18-1.81.55-2.7l-21.44-30.35Z" fill="#4dbfd6"/>
    <path d="M169.28,207.89l12.08,35.14c.35,1.03,1.51,1.55,2.52,1.13l.86-.36c1.01-.42,1.45-1.6.97-2.58l-16.43-33.33Z" fill="#4dbfd6"/>
    <path d="M158.59,211.39l6.43,36.59c.19,1.08,1.25,1.77,2.31,1.51l.91-.22c1.06-.26,1.69-1.36,1.36-2.4l-11.01-35.49Z" fill="#4dbfd6"/>
    <path d="M147.48,213.17l.63,37.15c.02,1.09.95,1.94,2.04,1.85l.93-.07c1.09-.09,1.88-1.08,1.72-2.16l-5.32-36.77Z" fill="#4dbfd6"/>
  </g>
  <g>
    <g id="b" data-name="&amp;lt;径向重复&amp;gt;">
      <polygon points="137.36 283.46 146.11 283.46 141.73 196.14 137.36 283.46" fill="#a4d9eb"/>
    </g>
    <g id="c" data-name="&amp;lt;径向重复&amp;gt;">
      <polygon points="115.24 281.03 123.88 282.4 133.22 195.47 115.24 281.03" fill="#a4d9eb"/>
    </g>
    <g id="d" data-name="&amp;lt;径向重复&amp;gt;">
      <polygon points="93.78 275.18 102.1 277.88 124.92 193.48 93.78 275.18" fill="#a4d9eb"/>
    </g>
    <g id="e" data-name="&amp;lt;径向重复&amp;gt;">
      <polygon points="73.49 266.03 81.29 270.01 117.03 190.22 73.49 266.03" fill="#a4d9eb"/>
    </g>
    <g id="f" data-name="&amp;lt;径向重复&amp;gt;">
      <polygon points="54.89 253.83 61.97 258.97 109.75 185.75 54.89 253.83" fill="#a4d9eb"/>
    </g>
    <g id="g" data-name="&amp;lt;径向重复&amp;gt;">
      <polygon points="38.42 238.86 44.61 245.05 103.26 180.21 38.42 238.86" fill="#a4d9eb"/>
    </g>
    <g id="h" data-name="&amp;lt;径向重复&amp;gt;">
      <polygon points="24.5 221.51 29.64 228.58 97.71 173.72 24.5 221.51" fill="#a4d9eb"/>
    </g>
    <g id="i" data-name="&amp;lt;径向重复&amp;gt;">
      <polygon points="13.46 202.18 17.44 209.98 93.25 166.44 13.46 202.18" fill="#a4d9eb"/>
    </g>
    <g id="j" data-name="&amp;lt;径向重复&amp;gt;">
      <polygon points="5.59 181.38 8.29 189.7 89.98 158.55 5.59 181.38" fill="#a4d9eb"/>
    </g>
    <g id="k" data-name="&amp;lt;径向重复&amp;gt;">
      <polygon points="1.06 159.59 2.43 168.23 87.99 150.25 1.06 159.59" fill="#a4d9eb"/>
    </g>
    <g id="l" data-name="&amp;lt;径向重复&amp;gt;">
      <polygon points="0 137.36 0 146.11 87.32 141.74 0 137.36" fill="#a4d9eb"/>
    </g>
    <g id="m" data-name="&amp;lt;径向重复&amp;gt;">
      <polygon points="2.43 115.24 1.06 123.88 87.99 133.22 2.43 115.24" fill="#a4d9eb"/>
    </g>
    <g id="n" data-name="&amp;lt;径向重复&amp;gt;">
      <polygon points="8.29 93.78 5.58 102.1 89.98 124.92 8.29 93.78" fill="#a4d9eb"/>
    </g>
    <g id="o" data-name="&amp;lt;径向重复&amp;gt;">
      <polygon points="17.43 73.49 13.46 81.29 93.25 117.03 17.43 73.49" fill="#a4d9eb"/>
    </g>
    <g id="p" data-name="&amp;lt;径向重复&amp;gt;">
      <polygon points="29.64 54.89 24.5 61.97 97.71 109.75 29.64 54.89" fill="#a4d9eb"/>
    </g>
    <g id="q" data-name="&amp;lt;径向重复&amp;gt;">
      <polygon points="44.6 38.42 38.42 44.61 103.25 103.26 44.6 38.42" fill="#a4d9eb"/>
    </g>
    <g id="r" data-name="&amp;lt;径向重复&amp;gt;">
      <polygon points="61.96 24.5 54.88 29.64 109.75 97.72 61.96 24.5" fill="#a4d9eb"/>
    </g>
    <g id="s" data-name="&amp;lt;径向重复&amp;gt;">
      <polygon points="81.28 13.46 73.49 17.44 117.03 93.25 81.28 13.46" fill="#a4d9eb"/>
    </g>
    <g id="t" data-name="&amp;lt;径向重复&amp;gt;">
      <polygon points="102.09 5.59 93.77 8.29 124.91 89.98 102.09 5.59" fill="#a4d9eb"/>
    </g>
    <g id="u" data-name="&amp;lt;径向重复&amp;gt;">
      <polygon points="123.88 1.06 115.24 2.43 133.22 87.99 123.88 1.06" fill="#a4d9eb"/>
    </g>
    <g id="v" data-name="&amp;lt;径向重复&amp;gt;">
      <polygon points="146.1 0 137.35 0 141.73 87.32 146.1 0" fill="#a4d9eb"/>
    </g>
    <g id="w" data-name="&amp;lt;径向重复&amp;gt;">
      <polygon points="168.22 2.43 159.58 1.06 150.24 87.99 168.22 2.43" fill="#a4d9eb"/>
    </g>
    <g id="x" data-name="&amp;lt;径向重复&amp;gt;">
      <polygon points="189.69 8.29 181.37 5.58 158.54 89.98 189.69 8.29" fill="#a4d9eb"/>
    </g>
    <g id="y" data-name="&amp;lt;径向重复&amp;gt;">
      <polygon points="209.97 17.43 202.18 13.46 166.43 93.25 209.97 17.43" fill="#a4d9eb"/>
    </g>
    <g id="z" data-name="&amp;lt;径向重复&amp;gt;">
      <polygon points="228.58 29.64 221.5 24.5 173.71 97.71 228.58 29.64" fill="#a4d9eb"/>
    </g>
    <g id="aa" data-name="&amp;lt;径向重复&amp;gt;">
      <polygon points="245.04 44.6 238.85 38.42 180.2 103.25 245.04 44.6" fill="#a4d9eb"/>
    </g>
    <g id="ab" data-name="&amp;lt;径向重复&amp;gt;">
      <polygon points="258.96 61.96 253.82 54.88 185.75 109.75 258.96 61.96" fill="#a4d9eb"/>
    </g>
    <g id="ac" data-name="&amp;lt;径向重复&amp;gt;">
      <polygon points="270 81.28 266.03 73.49 190.21 117.03 270 81.28" fill="#a4d9eb"/>
    </g>
    <g id="ad" data-name="&amp;lt;径向重复&amp;gt;">
      <polygon points="277.88 102.09 275.17 93.77 193.48 124.91 277.88 102.09" fill="#a4d9eb"/>
    </g>
    <g id="ae" data-name="&amp;lt;径向重复&amp;gt;">
      <polygon points="282.4 123.88 281.04 115.24 195.48 133.22 282.4 123.88" fill="#a4d9eb"/>
    </g>
    <g id="af" data-name="&amp;lt;径向重复&amp;gt;">
      <polygon points="283.46 146.1 283.46 137.35 196.15 141.73 283.46 146.1" fill="#a4d9eb"/>
    </g>
    <g id="ag" data-name="&amp;lt;径向重复&amp;gt;">
      <polygon points="281.03 168.22 282.4 159.58 195.47 150.24 281.03 168.22" fill="#a4d9eb"/>
    </g>
    <g id="ah" data-name="&amp;lt;径向重复&amp;gt;">
      <polygon points="275.18 189.69 277.88 181.37 193.48 158.54 275.18 189.69" fill="#a4d9eb"/>
    </g>
    <g id="ai" data-name="&amp;lt;径向重复&amp;gt;">
      <polygon points="266.03 209.97 270 202.18 190.21 166.43 266.03 209.97" fill="#a4d9eb"/>
    </g>
    <g id="aj" data-name="&amp;lt;径向重复&amp;gt;">
      <polygon points="253.83 228.58 258.97 221.5 185.76 173.71 253.83 228.58" fill="#a4d9eb"/>
    </g>
    <g id="ak" data-name="&amp;lt;径向重复&amp;gt;">
      <polygon points="238.86 245.04 245.05 238.86 180.21 180.21 238.86 245.04" fill="#a4d9eb"/>
    </g>
    <g id="al" data-name="&amp;lt;径向重复&amp;gt;">
      <polygon points="221.5 258.97 228.58 253.82 173.72 185.75 221.5 258.97" fill="#a4d9eb"/>
    </g>
    <g id="am" data-name="&amp;lt;径向重复&amp;gt;">
      <polygon points="202.18 270 209.98 266.03 166.44 190.21 202.18 270" fill="#a4d9eb"/>
    </g>
    <g id="an" data-name="&amp;lt;径向重复&amp;gt;">
      <polygon points="181.37 277.88 189.69 275.18 158.55 193.48 181.37 277.88" fill="#a4d9eb"/>
    </g>
    <g id="ao" data-name="&amp;lt;径向重复&amp;gt;">
      <polygon points="159.58 282.4 168.23 281.04 150.24 195.47 159.58 282.4" fill="#a4d9eb"/>
    </g>
  </g>
  <g>
    <g id="ap" data-name="&amp;lt;径向重复&amp;gt;">
      <polygon points="142.99 166.2 140.47 166.2 141.73 208.79 142.99 166.2" fill="#0084b7"/>
    </g>
    <g id="aq" data-name="&amp;lt;径向重复&amp;gt;">
      <polygon points="139.15 166.1 136.66 165.7 131.24 207.97 139.15 166.1" fill="#0084b7"/>
    </g>
    <g id="ar" data-name="&amp;lt;径向重复&amp;gt;">
      <polygon points="135.37 165.4 132.97 164.62 121.01 205.51 135.37 165.4" fill="#0084b7"/>
    </g>
    <g id="as" data-name="&amp;lt;径向重复&amp;gt;">
      <polygon points="131.75 164.11 129.5 162.97 111.29 201.49 131.75 164.11" fill="#0084b7"/>
    </g>
    <g id="at" data-name="&amp;lt;径向重复&amp;gt;">
      <polygon points="128.37 162.27 126.33 160.79 102.31 195.99 128.37 162.27" fill="#0084b7"/>
    </g>
    <g id="au" data-name="&amp;lt;径向重复&amp;gt;">
      <polygon points="125.32 159.93 123.54 158.15 94.31 189.15 125.32 159.93" fill="#0084b7"/>
    </g>
    <g id="av" data-name="&amp;lt;径向重复&amp;gt;">
      <polygon points="122.67 157.14 121.19 155.1 87.48 181.15 122.67 157.14" fill="#0084b7"/>
    </g>
    <g id="aw" data-name="&amp;lt;径向重复&amp;gt;">
      <polygon points="120.5 153.97 119.35 151.72 81.98 172.18 120.5 153.97" fill="#0084b7"/>
    </g>
    <g id="ax" data-name="&amp;lt;径向重复&amp;gt;">
      <polygon points="118.85 150.49 118.07 148.09 77.95 162.45 118.85 150.49" fill="#0084b7"/>
    </g>
    <g id="ay" data-name="&amp;lt;径向重复&amp;gt;">
      <polygon points="117.76 146.8 117.36 144.31 75.5 152.22 117.76 146.8" fill="#0084b7"/>
    </g>
    <g id="az" data-name="&amp;lt;径向重复&amp;gt;">
      <polygon points="117.26 142.99 117.26 140.47 74.67 141.73 117.26 142.99" fill="#0084b7"/>
    </g>
    <g id="ba" data-name="&amp;lt;径向重复&amp;gt;">
      <polygon points="117.36 139.15 117.76 136.66 75.5 131.24 117.36 139.15" fill="#0084b7"/>
    </g>
    <g id="bb" data-name="&amp;lt;径向重复&amp;gt;">
      <polygon points="118.07 135.37 118.85 132.97 77.95 121.01 118.07 135.37" fill="#0084b7"/>
    </g>
    <g id="bc" data-name="&amp;lt;径向重复&amp;gt;">
      <polygon points="119.35 131.74 120.5 129.5 81.98 111.29 119.35 131.74" fill="#0084b7"/>
    </g>
    <g id="bd" data-name="&amp;lt;径向重复&amp;gt;">
      <polygon points="121.19 128.37 122.67 126.33 87.48 102.32 121.19 128.37" fill="#0084b7"/>
    </g>
    <g id="be" data-name="&amp;lt;径向重复&amp;gt;">
      <polygon points="123.53 125.32 125.32 123.54 94.31 94.31 123.53 125.32" fill="#0084b7"/>
    </g>
    <g id="bf" data-name="&amp;lt;径向重复&amp;gt;">
      <polygon points="126.33 122.68 128.37 121.19 102.31 87.48 126.33 122.68" fill="#0084b7"/>
    </g>
    <g id="bg" data-name="&amp;lt;径向重复&amp;gt;">
      <polygon points="129.5 120.5 131.74 119.35 111.29 81.98 129.5 120.5" fill="#0084b7"/>
    </g>
    <g id="bh" data-name="&amp;lt;径向重复&amp;gt;">
      <polygon points="132.97 118.85 135.37 118.07 121.01 77.95 132.97 118.85" fill="#0084b7"/>
    </g>
    <g id="bi" data-name="&amp;lt;径向重复&amp;gt;">
      <polygon points="136.66 117.76 139.15 117.36 131.24 75.5 136.66 117.76" fill="#0084b7"/>
    </g>
    <g id="bj" data-name="&amp;lt;径向重复&amp;gt;">
      <polygon points="140.47 117.26 142.99 117.26 141.73 74.67 140.47 117.26" fill="#0084b7"/>
    </g>
    <g id="bk" data-name="&amp;lt;径向重复&amp;gt;">
      <polygon points="144.31 117.36 146.81 117.76 152.22 75.5 144.31 117.36" fill="#0084b7"/>
    </g>
    <g id="bl" data-name="&amp;lt;径向重复&amp;gt;">
      <polygon points="148.09 118.07 150.49 118.85 162.45 77.95 148.09 118.07" fill="#0084b7"/>
    </g>
    <g id="bm" data-name="&amp;lt;径向重复&amp;gt;">
      <polygon points="151.72 119.35 153.97 120.5 172.18 81.98 151.72 119.35" fill="#0084b7"/>
    </g>
    <g id="bn" data-name="&amp;lt;径向重复&amp;gt;">
      <polygon points="155.1 121.19 157.14 122.68 181.15 87.48 155.1 121.19" fill="#0084b7"/>
    </g>
    <g id="bo" data-name="&amp;lt;径向重复&amp;gt;">
      <polygon points="158.15 123.54 159.93 125.32 189.15 94.31 158.15 123.54" fill="#0084b7"/>
    </g>
    <g id="bp" data-name="&amp;lt;径向重复&amp;gt;">
      <polygon points="160.79 126.33 162.27 128.37 195.98 102.32 160.79 126.33" fill="#0084b7"/>
    </g>
    <g id="bq" data-name="&amp;lt;径向重复&amp;gt;">
      <polygon points="162.96 129.5 164.11 131.75 201.48 111.29 162.96 129.5" fill="#0084b7"/>
    </g>
    <g id="br" data-name="&amp;lt;径向重复&amp;gt;">
      <polygon points="164.62 132.97 165.39 135.37 205.51 121.01 164.62 132.97" fill="#0084b7"/>
    </g>
    <g id="bs" data-name="&amp;lt;径向重复&amp;gt;">
      <polygon points="165.71 136.66 166.1 139.15 207.97 131.24 165.71 136.66" fill="#0084b7"/>
    </g>
    <g id="bt" data-name="&amp;lt;径向重复&amp;gt;">
      <polygon points="166.2 140.47 166.2 142.99 208.79 141.73 166.2 140.47" fill="#0084b7"/>
    </g>
    <g id="bu" data-name="&amp;lt;径向重复&amp;gt;">
      <polygon points="166.1 144.32 165.71 146.81 207.97 152.22 166.1 144.32" fill="#0084b7"/>
    </g>
    <g id="bv" data-name="&amp;lt;径向重复&amp;gt;">
      <polygon points="165.4 148.1 164.62 150.49 205.51 162.46 165.4 148.1" fill="#0084b7"/>
    </g>
    <g id="bw" data-name="&amp;lt;径向重复&amp;gt;">
      <polygon points="164.11 151.72 162.96 153.97 201.48 172.18 164.11 151.72" fill="#0084b7"/>
    </g>
    <g id="bx" data-name="&amp;lt;径向重复&amp;gt;">
      <polygon points="162.27 155.1 160.79 157.14 195.99 181.15 162.27 155.1" fill="#0084b7"/>
    </g>
    <g id="by" data-name="&amp;lt;径向重复&amp;gt;">
      <polygon points="159.93 158.14 158.15 159.93 189.15 189.15 159.93 158.14" fill="#0084b7"/>
    </g>
    <g id="bz" data-name="&amp;lt;径向重复&amp;gt;">
      <polygon points="157.14 160.79 155.09 162.27 181.15 195.99 157.14 160.79" fill="#0084b7"/>
    </g>
    <g id="ca" data-name="&amp;lt;径向重复&amp;gt;">
      <polygon points="153.97 162.97 151.72 164.11 172.18 201.48 153.97 162.97" fill="#0084b7"/>
    </g>
    <g id="cb" data-name="&amp;lt;径向重复&amp;gt;">
      <polygon points="150.49 164.62 148.09 165.4 162.45 205.51 150.49 164.62" fill="#0084b7"/>
    </g>
    <g id="cc" data-name="&amp;lt;径向重复&amp;gt;">
      <polygon points="146.8 165.71 144.31 166.1 152.22 207.97 146.8 165.71" fill="#0084b7"/>
    </g>
  </g>
</svg>