<?xml version="1.0" encoding="UTF-8"?>
<svg id="a" data-name="图层 1" xmlns="http://www.w3.org/2000/svg" width="100mm" height="100mm" viewBox="0 0 283.46 283.46">
  <g>
    <g id="b" data-name="&amp;lt;径向重复&amp;gt;">
      <path d="M141.73,157.81l1.13,17.86c.03.53-.38.97-.91.97h-.45c-.53,0-.94-.44-.91-.97l1.13-17.86Z" fill="#4dbfd6"/>
    </g>
    <g id="c" data-name="&amp;lt;径向重复&amp;gt;">
      <path d="M139.22,157.61l-1.67,17.82c-.05.52-.53.9-1.05.81l-.44-.07c-.52-.08-.86-.59-.75-1.1l3.91-17.47Z" fill="#4dbfd6"/>
    </g>
    <g id="d" data-name="&amp;lt;径向重复&amp;gt;">
      <path d="M136.76,157.03l-4.44,17.34c-.13.51-.66.8-1.16.64l-.43-.14c-.5-.16-.76-.71-.57-1.2l6.6-16.64Z" fill="#4dbfd6"/>
    </g>
    <g id="e" data-name="&amp;lt;径向重复&amp;gt;">
      <path d="M134.43,156.06l-7.1,16.43c-.21.48-.78.69-1.25.45l-.4-.2c-.47-.24-.64-.82-.37-1.28l9.12-15.4Z" fill="#4dbfd6"/>
    </g>
    <g id="f" data-name="&amp;lt;径向重复&amp;gt;">
      <path d="M132.28,154.74l-9.58,15.12c-.28.44-.88.56-1.31.25l-.36-.26c-.43-.31-.5-.91-.17-1.32l11.42-13.79Z" fill="#4dbfd6"/>
    </g>
    <g id="g" data-name="&amp;lt;径向重复&amp;gt;">
      <path d="M130.36,153.11l-11.83,13.43c-.35.39-.96.41-1.33.04l-.32-.32c-.37-.37-.35-.98.04-1.33l13.43-11.83Z" fill="#4dbfd6"/>
    </g>
    <g id="h" data-name="&amp;lt;径向重复&amp;gt;">
      <path d="M128.72,151.19l-13.79,11.42c-.41.34-1.01.26-1.32-.17l-.26-.36c-.31-.43-.19-1.02.25-1.31l15.12-9.58Z" fill="#4dbfd6"/>
    </g>
    <g id="i" data-name="&amp;lt;径向重复&amp;gt;">
      <path d="M127.4,149.03l-15.4,9.12c-.45.27-1.04.1-1.28-.37l-.2-.4c-.24-.47-.03-1.04.45-1.25l16.43-7.1Z" fill="#4dbfd6"/>
    </g>
    <g id="j" data-name="&amp;lt;径向重复&amp;gt;">
      <path d="M126.44,146.7l-16.64,6.6c-.49.19-1.04-.07-1.2-.57l-.14-.43c-.16-.5.13-1.03.64-1.16l17.34-4.44Z" fill="#4dbfd6"/>
    </g>
    <g id="k" data-name="&amp;lt;径向重复&amp;gt;">
      <path d="M125.85,144.25l-17.47,3.91c-.51.12-1.02-.23-1.1-.75l-.07-.44c-.08-.52.29-1,.81-1.05l17.82-1.67Z" fill="#4dbfd6"/>
    </g>
    <g id="l" data-name="&amp;lt;径向重复&amp;gt;">
      <path d="M125.65,141.73l-17.86,1.13c-.53.03-.97-.38-.97-.91v-.45c0-.53.44-.94.97-.91l17.86,1.13Z" fill="#4dbfd6"/>
    </g>
    <g id="m" data-name="&amp;lt;径向重复&amp;gt;">
      <path d="M125.85,139.21l-17.82-1.67c-.52-.05-.9-.53-.81-1.05l.07-.44c.08-.52.59-.86,1.1-.75l17.47,3.91Z" fill="#4dbfd6"/>
    </g>
    <g id="n" data-name="&amp;lt;径向重复&amp;gt;">
      <path d="M126.44,136.76l-17.34-4.44c-.51-.13-.8-.66-.64-1.16l.14-.43c.16-.5.71-.76,1.2-.57l16.64,6.6Z" fill="#4dbfd6"/>
    </g>
    <g id="o" data-name="&amp;lt;径向重复&amp;gt;">
      <path d="M127.4,134.43l-16.43-7.1c-.48-.21-.69-.78-.45-1.25l.2-.4c.24-.47.82-.64,1.28-.37l15.4,9.12Z" fill="#4dbfd6"/>
    </g>
    <g id="p" data-name="&amp;lt;径向重复&amp;gt;">
      <path d="M128.72,132.28l-15.12-9.58c-.44-.28-.56-.88-.25-1.31l.26-.36c.31-.43.91-.5,1.32-.17l13.79,11.42Z" fill="#4dbfd6"/>
    </g>
    <g id="q" data-name="&amp;lt;径向重复&amp;gt;">
      <path d="M130.36,130.36l-13.43-11.83c-.39-.35-.41-.96-.04-1.33l.32-.32c.37-.37.98-.35,1.33.04l11.83,13.43Z" fill="#4dbfd6"/>
    </g>
    <g id="r" data-name="&amp;lt;径向重复&amp;gt;">
      <path d="M132.28,128.72l-11.42-13.79c-.34-.41-.26-1.01.17-1.32l.36-.26c.43-.31,1.02-.19,1.31.25l9.58,15.12Z" fill="#4dbfd6"/>
    </g>
    <g id="s" data-name="&amp;lt;径向重复&amp;gt;">
      <path d="M134.43,127.4l-9.12-15.4c-.27-.45-.1-1.04.37-1.28l.4-.2c.47-.24,1.04-.03,1.25.45l7.1,16.43Z" fill="#4dbfd6"/>
    </g>
    <g id="t" data-name="&amp;lt;径向重复&amp;gt;">
      <path d="M136.76,126.44l-6.6-16.64c-.19-.49.07-1.04.57-1.2l.43-.14c.5-.16,1.03.13,1.16.64l4.44,17.34Z" fill="#4dbfd6"/>
    </g>
    <g id="u" data-name="&amp;lt;径向重复&amp;gt;">
      <path d="M139.22,125.85l-3.91-17.47c-.12-.51.23-1.02.75-1.1l.44-.07c.52-.08,1,.29,1.05.81l1.67,17.82Z" fill="#4dbfd6"/>
    </g>
    <g id="v" data-name="&amp;lt;径向重复&amp;gt;">
      <path d="M141.73,125.65l-1.13-17.86c-.03-.53.38-.97.91-.97h.45c.53,0,.94.44.91.97l-1.13,17.86Z" fill="#4dbfd6"/>
    </g>
    <g id="w" data-name="&amp;lt;径向重复&amp;gt;">
      <path d="M144.25,125.85l1.67-17.82c.05-.52.53-.9,1.05-.81l.44.07c.52.08.86.59.75,1.1l-3.91,17.47Z" fill="#4dbfd6"/>
    </g>
    <g id="x" data-name="&amp;lt;径向重复&amp;gt;">
      <path d="M146.7,126.44l4.44-17.34c.13-.51.66-.8,1.16-.64l.43.14c.5.16.76.71.57,1.2l-6.6,16.64Z" fill="#4dbfd6"/>
    </g>
    <g id="y" data-name="&amp;lt;径向重复&amp;gt;">
      <path d="M149.03,127.4l7.1-16.43c.21-.48.78-.69,1.25-.45l.4.2c.47.24.64.82.37,1.28l-9.12,15.4Z" fill="#4dbfd6"/>
    </g>
    <g id="z" data-name="&amp;lt;径向重复&amp;gt;">
      <path d="M151.19,128.72l9.58-15.12c.28-.44.88-.56,1.31-.25l.36.26c.43.31.5.91.17,1.32l-11.42,13.79Z" fill="#4dbfd6"/>
    </g>
    <g id="aa" data-name="&amp;lt;径向重复&amp;gt;">
      <path d="M153.1,130.36l11.83-13.43c.35-.39.96-.41,1.33-.04l.32.32c.37.37.35.98-.04,1.33l-13.43,11.83Z" fill="#4dbfd6"/>
    </g>
    <g id="ab" data-name="&amp;lt;径向重复&amp;gt;">
      <path d="M154.74,132.28l13.79-11.42c.41-.34,1.01-.26,1.32.17l.26.36c.31.43.19,1.02-.25,1.31l-15.12,9.58Z" fill="#4dbfd6"/>
    </g>
    <g id="ac" data-name="&amp;lt;径向重复&amp;gt;">
      <path d="M156.06,134.43l15.4-9.12c.45-.27,1.04-.1,1.28.37l.2.4c.24.47.03,1.04-.45,1.25l-16.43,7.1Z" fill="#4dbfd6"/>
    </g>
    <g id="ad" data-name="&amp;lt;径向重复&amp;gt;">
      <path d="M157.03,136.76l16.64-6.6c.49-.19,1.04.07,1.2.57l.14.43c.16.5-.13,1.03-.64,1.16l-17.34,4.44Z" fill="#4dbfd6"/>
    </g>
    <g id="ae" data-name="&amp;lt;径向重复&amp;gt;">
      <path d="M157.62,139.22l17.47-3.91c.51-.12,1.02.23,1.1.75l.07.44c.08.52-.29,1-.81,1.05l-17.82,1.67Z" fill="#4dbfd6"/>
    </g>
    <g id="af" data-name="&amp;lt;径向重复&amp;gt;">
      <path d="M157.81,141.73l17.86-1.13c.53-.03.97.38.97.91v.45c0,.53-.44.94-.97.91l-17.86-1.13Z" fill="#4dbfd6"/>
    </g>
    <g id="ag" data-name="&amp;lt;径向重复&amp;gt;">
      <path d="M157.61,144.25l17.82,1.67c.52.05.9.53.81,1.05l-.07.44c-.08.52-.59.86-1.1.75l-17.47-3.91Z" fill="#4dbfd6"/>
    </g>
    <g id="ah" data-name="&amp;lt;径向重复&amp;gt;">
      <path d="M157.03,146.7l17.34,4.44c.51.13.8.66.64,1.16l-.14.43c-.16.5-.71.76-1.2.57l-16.64-6.6Z" fill="#4dbfd6"/>
    </g>
    <g id="ai" data-name="&amp;lt;径向重复&amp;gt;">
      <path d="M156.06,149.03l16.43,7.1c.48.21.69.78.45,1.25l-.2.4c-.24.47-.82.64-1.28.37l-15.4-9.12Z" fill="#4dbfd6"/>
    </g>
    <g id="aj" data-name="&amp;lt;径向重复&amp;gt;">
      <path d="M154.74,151.19l15.12,9.58c.44.28.56.88.25,1.31l-.26.36c-.31.43-.91.5-1.32.17l-13.79-11.42Z" fill="#4dbfd6"/>
    </g>
    <g id="ak" data-name="&amp;lt;径向重复&amp;gt;">
      <path d="M153.11,153.11l13.43,11.83c.39.35.41.96.04,1.33l-.32.32c-.37.37-.98.35-1.33-.04l-11.83-13.43Z" fill="#4dbfd6"/>
    </g>
    <g id="al" data-name="&amp;lt;径向重复&amp;gt;">
      <path d="M151.19,154.74l11.42,13.79c.34.41.26,1.01-.17,1.32l-.36.26c-.43.31-1.02.19-1.31-.25l-9.58-15.12Z" fill="#4dbfd6"/>
    </g>
    <g id="am" data-name="&amp;lt;径向重复&amp;gt;">
      <path d="M149.03,156.06l9.12,15.4c.27.45.1,1.04-.37,1.28l-.4.2c-.47.24-1.04.03-1.25-.45l-7.1-16.43Z" fill="#4dbfd6"/>
    </g>
    <g id="an" data-name="&amp;lt;径向重复&amp;gt;">
      <path d="M146.7,157.03l6.6,16.64c.19.49-.07,1.04-.57,1.2l-.43.14c-.5.16-1.03-.13-1.16-.64l-4.44-17.34Z" fill="#4dbfd6"/>
    </g>
    <g id="ao" data-name="&amp;lt;径向重复&amp;gt;">
      <path d="M144.25,157.62l3.91,17.47c.12.51-.23,1.02-.75,1.1l-.44.07c-.52.08-1-.29-1.05-.81l-1.67-17.82Z" fill="#4dbfd6"/>
    </g>
  </g>
  <g>
    <g id="ap" data-name="&amp;lt;径向重复&amp;gt;">
      <polygon points="218.83 260.9 213.11 264.42 156.58 165.92 218.83 260.9" fill="#a4d9eb"/>
    </g>
    <g id="aq" data-name="&amp;lt;径向重复&amp;gt;">
      <polygon points="199.24 271.5 193.03 274.07 152.61 167.94 199.24 271.5" fill="#a4d9eb"/>
    </g>
    <g id="ar" data-name="&amp;lt;径向重复&amp;gt;">
      <polygon points="178.23 278.9 171.7 280.47 148.38 169.32 178.23 278.9" fill="#a4d9eb"/>
    </g>
    <g id="as" data-name="&amp;lt;径向重复&amp;gt;">
      <polygon points="156.33 282.92 149.63 283.45 143.98 170.02 156.33 282.92" fill="#a4d9eb"/>
    </g>
    <g id="at" data-name="&amp;lt;径向重复&amp;gt;">
      <polygon points="134.06 283.46 127.36 282.94 139.53 170.03 134.06 283.46" fill="#a4d9eb"/>
    </g>
    <g id="au" data-name="&amp;lt;径向重复&amp;gt;">
      <polygon points="111.98 280.52 105.45 278.96 135.13 169.33 111.98 280.52" fill="#a4d9eb"/>
    </g>
    <g id="av" data-name="&amp;lt;径向重复&amp;gt;">
      <polygon points="90.64 274.16 84.43 271.59 130.89 167.96 90.64 274.16" fill="#a4d9eb"/>
    </g>
    <g id="aw" data-name="&amp;lt;径向重复&amp;gt;">
      <polygon points="70.55 264.53 64.82 261.02 126.92 165.94 70.55 264.53" fill="#a4d9eb"/>
    </g>
    <g id="ax" data-name="&amp;lt;径向重复&amp;gt;">
      <polygon points="52.22 251.89 47.1 247.53 123.32 163.33 52.22 251.89" fill="#a4d9eb"/>
    </g>
    <g id="ay" data-name="&amp;lt;径向重复&amp;gt;">
      <polygon points="36.09 236.53 31.72 231.42 120.17 160.18 36.09 236.53" fill="#a4d9eb"/>
    </g>
    <g id="az" data-name="&amp;lt;径向重复&amp;gt;">
      <polygon points="22.56 218.83 19.04 213.11 117.55 156.58 22.56 218.83" fill="#a4d9eb"/>
    </g>
    <g id="ba" data-name="&amp;lt;径向重复&amp;gt;">
      <polygon points="11.96 199.24 9.39 193.03 115.52 152.61 11.96 199.24" fill="#a4d9eb"/>
    </g>
    <g id="bb" data-name="&amp;lt;径向重复&amp;gt;">
      <polygon points="4.57 178.23 2.99 171.7 114.14 148.38 4.57 178.23" fill="#a4d9eb"/>
    </g>
    <g id="bc" data-name="&amp;lt;径向重复&amp;gt;">
      <polygon points=".54 156.33 .01 149.63 113.44 143.98 .54 156.33" fill="#a4d9eb"/>
    </g>
    <g id="bd" data-name="&amp;lt;径向重复&amp;gt;">
      <polygon points="0 134.06 .52 127.36 113.44 139.53 0 134.06" fill="#a4d9eb"/>
    </g>
    <g id="be" data-name="&amp;lt;径向重复&amp;gt;">
      <polygon points="2.94 111.98 4.51 105.45 114.13 135.13 2.94 111.98" fill="#a4d9eb"/>
    </g>
    <g id="bf" data-name="&amp;lt;径向重复&amp;gt;">
      <polygon points="9.31 90.64 11.87 84.43 115.5 130.89 9.31 90.64" fill="#a4d9eb"/>
    </g>
    <g id="bg" data-name="&amp;lt;径向重复&amp;gt;">
      <polygon points="18.93 70.55 22.44 64.82 117.52 126.92 18.93 70.55" fill="#a4d9eb"/>
    </g>
    <g id="bh" data-name="&amp;lt;径向重复&amp;gt;">
      <polygon points="31.58 52.22 35.94 47.1 120.14 123.32 31.58 52.22" fill="#a4d9eb"/>
    </g>
    <g id="bi" data-name="&amp;lt;径向重复&amp;gt;">
      <polygon points="46.94 36.09 52.04 31.72 123.28 120.17 46.94 36.09" fill="#a4d9eb"/>
    </g>
    <g id="bj" data-name="&amp;lt;径向重复&amp;gt;">
      <polygon points="64.63 22.56 70.36 19.04 126.88 117.55 64.63 22.56" fill="#a4d9eb"/>
    </g>
    <g id="bk" data-name="&amp;lt;径向重复&amp;gt;">
      <polygon points="84.22 11.97 90.43 9.39 130.85 115.52 84.22 11.97" fill="#a4d9eb"/>
    </g>
    <g id="bl" data-name="&amp;lt;径向重复&amp;gt;">
      <polygon points="105.23 4.57 111.76 2.99 135.09 114.14 105.23 4.57" fill="#a4d9eb"/>
    </g>
    <g id="bm" data-name="&amp;lt;径向重复&amp;gt;">
      <polygon points="127.14 .54 133.84 .01 139.48 113.44 127.14 .54" fill="#a4d9eb"/>
    </g>
    <g id="bn" data-name="&amp;lt;径向重复&amp;gt;">
      <polygon points="149.4 0 156.1 .52 143.94 113.44 149.4 0" fill="#a4d9eb"/>
    </g>
    <g id="bo" data-name="&amp;lt;径向重复&amp;gt;">
      <polygon points="171.48 2.94 178.02 4.51 148.34 114.13 171.48 2.94" fill="#a4d9eb"/>
    </g>
    <g id="bp" data-name="&amp;lt;径向重复&amp;gt;">
      <polygon points="192.82 9.31 199.04 11.87 152.57 115.5 192.82 9.31" fill="#a4d9eb"/>
    </g>
    <g id="bq" data-name="&amp;lt;径向重复&amp;gt;">
      <polygon points="212.91 18.93 218.65 22.44 156.54 117.52 212.91 18.93" fill="#a4d9eb"/>
    </g>
    <g id="br" data-name="&amp;lt;径向重复&amp;gt;">
      <polygon points="231.25 31.58 236.36 35.94 160.15 120.14 231.25 31.58" fill="#a4d9eb"/>
    </g>
    <g id="bs" data-name="&amp;lt;径向重复&amp;gt;">
      <polygon points="247.38 46.94 251.75 52.04 163.3 123.28 247.38 46.94" fill="#a4d9eb"/>
    </g>
    <g id="bt" data-name="&amp;lt;径向重复&amp;gt;">
      <polygon points="260.9 64.63 264.42 70.36 165.92 126.88 260.9 64.63" fill="#a4d9eb"/>
    </g>
    <g id="bu" data-name="&amp;lt;径向重复&amp;gt;">
      <polygon points="271.5 84.22 274.07 90.43 167.94 130.85 271.5 84.22" fill="#a4d9eb"/>
    </g>
    <g id="bv" data-name="&amp;lt;径向重复&amp;gt;">
      <polygon points="278.9 105.23 280.47 111.77 169.32 135.09 278.9 105.23" fill="#a4d9eb"/>
    </g>
    <g id="bw" data-name="&amp;lt;径向重复&amp;gt;">
      <polygon points="282.92 127.14 283.45 133.84 170.02 139.48 282.92 127.14" fill="#a4d9eb"/>
    </g>
    <g id="bx" data-name="&amp;lt;径向重复&amp;gt;">
      <polygon points="283.46 149.4 282.94 156.1 170.03 143.94 283.46 149.4" fill="#a4d9eb"/>
    </g>
    <g id="by" data-name="&amp;lt;径向重复&amp;gt;">
      <polygon points="280.52 171.48 278.96 178.02 169.33 148.34 280.52 171.48" fill="#a4d9eb"/>
    </g>
    <g id="bz" data-name="&amp;lt;径向重复&amp;gt;">
      <polygon points="274.16 192.82 271.59 199.04 167.96 152.57 274.16 192.82" fill="#a4d9eb"/>
    </g>
    <g id="ca" data-name="&amp;lt;径向重复&amp;gt;">
      <polygon points="264.53 212.91 261.02 218.65 165.94 156.54 264.53 212.91" fill="#a4d9eb"/>
    </g>
    <g id="cb" data-name="&amp;lt;径向重复&amp;gt;">
      <polygon points="251.89 231.25 247.53 236.36 163.33 160.15 251.89 231.25" fill="#a4d9eb"/>
    </g>
    <g id="cc" data-name="&amp;lt;径向重复&amp;gt;">
      <polygon points="236.53 247.38 231.42 251.75 160.18 163.3 236.53 247.38" fill="#a4d9eb"/>
    </g>
  </g>
  <g>
    <g id="cd" data-name="&amp;lt;径向重复&amp;gt;">
      <polygon points="143.89 183.78 139.58 183.78 141.73 256.57 143.89 183.78" fill="#0084b7"/>
    </g>
    <g id="ce" data-name="&amp;lt;径向重复&amp;gt;">
      <polygon points="137.28 183.6 133.03 182.93 123.77 255.15 137.28 183.6" fill="#0084b7"/>
    </g>
    <g id="cf" data-name="&amp;lt;径向重复&amp;gt;">
      <polygon points="130.79 182.39 126.69 181.06 106.24 250.94 130.79 182.39" fill="#0084b7"/>
    </g>
    <g id="cg" data-name="&amp;lt;径向重复&amp;gt;">
      <polygon points="124.56 180.18 120.72 178.22 89.6 244.05 124.56 180.18" fill="#0084b7"/>
    </g>
    <g id="ch" data-name="&amp;lt;径向重复&amp;gt;">
      <polygon points="118.76 177.02 115.27 174.49 74.23 234.64 118.76 177.02" fill="#0084b7"/>
    </g>
    <g id="ci" data-name="&amp;lt;径向重复&amp;gt;">
      <polygon points="113.52 172.99 110.47 169.94 60.53 222.93 113.52 172.99" fill="#0084b7"/>
    </g>
    <g id="cj" data-name="&amp;lt;径向重复&amp;gt;">
      <polygon points="108.98 168.19 106.45 164.71 48.83 209.23 108.98 168.19" fill="#0084b7"/>
    </g>
    <g id="ck" data-name="&amp;lt;径向重复&amp;gt;">
      <polygon points="105.24 162.74 103.29 158.9 39.41 193.86 105.24 162.74" fill="#0084b7"/>
    </g>
    <g id="cl" data-name="&amp;lt;径向重复&amp;gt;">
      <polygon points="102.4 156.78 101.07 152.68 32.52 177.22 102.4 156.78" fill="#0084b7"/>
    </g>
    <g id="cm" data-name="&amp;lt;径向重复&amp;gt;">
      <polygon points="100.54 150.44 99.86 146.18 28.31 159.7 100.54 150.44" fill="#0084b7"/>
    </g>
    <g id="cn" data-name="&amp;lt;径向重复&amp;gt;">
      <polygon points="99.68 143.89 99.68 139.58 26.9 141.73 99.68 143.89" fill="#0084b7"/>
    </g>
    <g id="co" data-name="&amp;lt;径向重复&amp;gt;">
      <polygon points="99.86 137.28 100.54 133.02 28.31 123.77 99.86 137.28" fill="#0084b7"/>
    </g>
    <g id="cp" data-name="&amp;lt;径向重复&amp;gt;">
      <polygon points="101.07 130.79 102.41 126.69 32.52 106.25 101.07 130.79" fill="#0084b7"/>
    </g>
    <g id="cq" data-name="&amp;lt;径向重复&amp;gt;">
      <polygon points="103.29 124.56 105.24 120.72 39.41 89.6 103.29 124.56" fill="#0084b7"/>
    </g>
    <g id="cr" data-name="&amp;lt;径向重复&amp;gt;">
      <polygon points="106.45 118.76 108.98 115.27 48.83 74.23 106.45 118.76" fill="#0084b7"/>
    </g>
    <g id="cs" data-name="&amp;lt;径向重复&amp;gt;">
      <polygon points="110.47 113.52 113.52 110.47 60.53 60.53 110.47 113.52" fill="#0084b7"/>
    </g>
    <g id="ct" data-name="&amp;lt;径向重复&amp;gt;">
      <polygon points="115.27 108.98 118.76 106.45 74.23 48.83 115.27 108.98" fill="#0084b7"/>
    </g>
    <g id="cu" data-name="&amp;lt;径向重复&amp;gt;">
      <polygon points="120.72 105.24 124.56 103.29 89.6 39.41 120.72 105.24" fill="#0084b7"/>
    </g>
    <g id="cv" data-name="&amp;lt;径向重复&amp;gt;">
      <polygon points="126.69 102.4 130.79 101.07 106.25 32.52 126.69 102.4" fill="#0084b7"/>
    </g>
    <g id="cw" data-name="&amp;lt;径向重复&amp;gt;">
      <polygon points="133.03 100.54 137.28 99.86 123.77 28.31 133.03 100.54" fill="#0084b7"/>
    </g>
    <g id="cx" data-name="&amp;lt;径向重复&amp;gt;">
      <polygon points="139.58 99.68 143.89 99.68 141.73 26.9 139.58 99.68" fill="#0084b7"/>
    </g>
    <g id="cy" data-name="&amp;lt;径向重复&amp;gt;">
      <polygon points="146.18 99.86 150.44 100.54 159.7 28.31 146.18 99.86" fill="#0084b7"/>
    </g>
    <g id="cz" data-name="&amp;lt;径向重复&amp;gt;">
      <polygon points="152.68 101.07 156.78 102.41 177.22 32.52 152.68 101.07" fill="#0084b7"/>
    </g>
    <g id="da" data-name="&amp;lt;径向重复&amp;gt;">
      <polygon points="158.9 103.29 162.74 105.24 193.87 39.41 158.9 103.29" fill="#0084b7"/>
    </g>
    <g id="db" data-name="&amp;lt;径向重复&amp;gt;">
      <polygon points="164.71 106.45 168.19 108.98 209.23 48.83 164.71 106.45" fill="#0084b7"/>
    </g>
    <g id="dc" data-name="&amp;lt;径向重复&amp;gt;">
      <polygon points="169.94 110.47 172.99 113.52 222.93 60.53 169.94 110.47" fill="#0084b7"/>
    </g>
    <g id="dd" data-name="&amp;lt;径向重复&amp;gt;">
      <polygon points="174.48 115.27 177.02 118.76 234.63 74.23 174.48 115.27" fill="#0084b7"/>
    </g>
    <g id="de" data-name="&amp;lt;径向重复&amp;gt;">
      <polygon points="178.22 120.72 180.18 124.56 244.05 89.6 178.22 120.72" fill="#0084b7"/>
    </g>
    <g id="df" data-name="&amp;lt;径向重复&amp;gt;">
      <polygon points="181.06 126.69 182.39 130.79 250.95 106.25 181.06 126.69" fill="#0084b7"/>
    </g>
    <g id="dg" data-name="&amp;lt;径向重复&amp;gt;">
      <polygon points="182.93 133.03 183.6 137.28 255.15 123.77 182.93 133.03" fill="#0084b7"/>
    </g>
    <g id="dh" data-name="&amp;lt;径向重复&amp;gt;">
      <polygon points="183.78 139.58 183.78 143.89 256.57 141.73 183.78 139.58" fill="#0084b7"/>
    </g>
    <g id="di" data-name="&amp;lt;径向重复&amp;gt;">
      <polygon points="183.6 146.18 182.93 150.44 255.15 159.7 183.6 146.18" fill="#0084b7"/>
    </g>
    <g id="dj" data-name="&amp;lt;径向重复&amp;gt;">
      <polygon points="182.39 152.68 181.06 156.78 250.94 177.22 182.39 152.68" fill="#0084b7"/>
    </g>
    <g id="dk" data-name="&amp;lt;径向重复&amp;gt;">
      <polygon points="180.18 158.9 178.22 162.74 244.05 193.87 180.18 158.9" fill="#0084b7"/>
    </g>
    <g id="dl" data-name="&amp;lt;径向重复&amp;gt;">
      <polygon points="177.02 164.71 174.49 168.19 234.64 209.23 177.02 164.71" fill="#0084b7"/>
    </g>
    <g id="dm" data-name="&amp;lt;径向重复&amp;gt;">
      <polygon points="172.99 169.94 169.94 172.99 222.93 222.93 172.99 169.94" fill="#0084b7"/>
    </g>
    <g id="dn" data-name="&amp;lt;径向重复&amp;gt;">
      <polygon points="168.19 174.48 164.71 177.02 209.23 234.63 168.19 174.48" fill="#0084b7"/>
    </g>
    <g id="do" data-name="&amp;lt;径向重复&amp;gt;">
      <polygon points="162.74 178.22 158.9 180.18 193.86 244.05 162.74 178.22" fill="#0084b7"/>
    </g>
    <g id="dp" data-name="&amp;lt;径向重复&amp;gt;">
      <polygon points="156.78 181.06 152.68 182.39 177.22 250.95 156.78 181.06" fill="#0084b7"/>
    </g>
    <g id="dq" data-name="&amp;lt;径向重复&amp;gt;">
      <polygon points="150.44 182.93 146.18 183.6 159.7 255.15 150.44 182.93" fill="#0084b7"/>
    </g>
  </g>
</svg>