<?xml version="1.0" encoding="UTF-8"?>
<svg id="a" data-name="图层 1" xmlns="http://www.w3.org/2000/svg" width="100mm" height="100mm" viewBox="0 0 283.46 283.46">
  <g>
    <path d="M141.73,283.46c-2.87,0-5.12-3.98-4.86-8.59,1.69-59.89,3.32-85.91,4.86-85.91s3.17,26.02,4.86,85.91c.26,4.61-1.99,8.59-4.86,8.59Z" fill="#d6d981"/>
    <path d="M90.32,273.81c-2.68-1.04-3.34-5.57-1.44-9.77,23.12-55.23,34-78.91,35.44-78.35,1.44.56-6.41,25.41-26.37,81.87-1.42,4.4-4.95,7.29-7.62,6.25Z" fill="#d6d981"/>
    <path d="M45.85,246.16c-2.12-1.94-1.11-6.4,2.17-9.64,41.43-43.12,60.09-61.25,61.23-60.2,1.14,1.04-15.12,21.37-54.05,66.78-2.9,3.59-7.23,5-9.36,3.06Z" fill="#d6d981"/>
    <path d="M14.33,204.25c-1.28-2.58,1.26-6.38,5.49-8.2,54.15-25.17,78.06-35.31,78.75-33.93.69,1.39-21.78,14.44-74.42,42.66-4,2.29-8.55,2.04-9.83-.54Z" fill="#d6d981"/>
    <path d="M.01,153.73c-.26-2.87,3.47-5.49,8.07-5.65,59.55-3.83,85.49-4.61,85.64-3.07.14,1.54-25.51,5.57-84.74,12.79-4.55.69-8.7-1.2-8.97-4.07Z" fill="#d6d981"/>
    <path d="M4.84,101.43c.79-2.77,5.21-3.86,9.56-2.34,56.9,18.03,81.38,26.71,80.96,28.2-.42,1.49-25.79-4.06-83.62-18.82-4.49-1.01-7.69-4.27-6.9-7.04Z" fill="#d6d981"/>
    <path d="M28.15,54.41c1.73-2.3,6.25-1.71,9.76,1.28,46.58,37.45,66.28,54.43,65.34,55.67s-22.58-13.14-71.2-47.88c-3.82-2.57-5.63-6.77-3.9-9.07Z" fill="#d6d981"/>
    <path d="M66.81,19.03h0c2.44-1.52,6.44.68,8.64,4.74,29.96,51.82,42.22,74.8,40.91,75.61s-16.33-20.45-49.17-70.47c-2.64-3.78-2.81-8.36-.37-9.87Z" fill="#d6d981"/>
    <path d="M115.58.05h0c2.82-.53,5.76,2.97,6.35,7.55,9.29,59.19,12.46,85.06,10.94,85.35-1.52.28-7.87-24.99-20.5-83.55-1.1-4.49.38-8.81,3.2-9.34Z" fill="#d6d981"/>
    <path d="M167.88.05h0c2.82.53,4.3,4.86,3.2,9.34-12.62,58.56-18.98,83.84-20.5,83.55-1.52-.28,1.65-26.16,10.94-85.35.59-4.58,3.53-8.08,6.35-7.55Z" fill="#d6d981"/>
    <path d="M216.66,19.03c2.44,1.52,2.27,6.09-.37,9.87-32.84,50.03-47.86,71.29-49.17,70.47s10.95-23.79,40.91-75.61c2.2-4.06,6.2-6.25,8.64-4.74Z" fill="#d6d981"/>
    <path d="M255.31,54.41h0c1.73,2.3-.08,6.5-3.9,9.07-48.62,34.74-70.27,49.12-71.2,47.88s18.77-18.22,65.34-55.67c3.51-2.99,8.03-3.58,9.76-1.28Z" fill="#d6d981"/>
    <path d="M278.62,101.43c.79,2.77-2.41,6.03-6.9,7.04-57.83,14.75-83.19,20.31-83.62,18.82s24.05-10.18,80.96-28.2c4.35-1.51,8.77-.43,9.56,2.34Z" fill="#d6d981"/>
    <path d="M283.45,153.73h0c-.26,2.87-4.42,4.75-8.97,4.07-59.23-7.22-84.88-11.24-84.74-12.79s26.09-.76,85.64,3.07c4.6.16,8.34,2.78,8.07,5.65Z" fill="#d6d981"/>
    <path d="M269.14,204.25c-1.28,2.58-5.83,2.83-9.83.54-52.64-28.22-75.11-41.27-74.42-42.66.69-1.39,24.6,8.75,78.75,33.93,4.23,1.82,6.77,5.62,5.49,8.2Z" fill="#d6d981"/>
    <path d="M237.62,246.16c-2.12,1.94-6.45.52-9.36-3.06-38.93-45.41-55.19-65.73-54.05-66.78,1.14-1.04,19.79,17.09,61.23,60.2,3.29,3.23,4.29,7.7,2.17,9.64Z" fill="#d6d981"/>
    <path d="M193.15,273.81c-2.68,1.04-6.21-1.85-7.62-6.25-19.97-56.46-27.81-81.31-26.37-81.87,1.44-.56,12.31,23.11,35.44,78.35,1.9,4.21,1.24,8.73-1.44,9.77Z" fill="#d6d981"/>
  </g>
  <g>
    <path d="M141.73,2.92c1.85,0,3.29,2.56,3.12,5.52-1.09,38.51-2.13,55.23-3.12,55.23s-2.04-16.73-3.12-55.23c-.17-2.97,1.28-5.52,3.12-5.52Z" fill="#79b829"/>
    <path d="M192.09,12.37c1.72.67,2.15,3.58.93,6.28-14.87,35.51-21.86,50.73-22.78,50.37-.93-.36,4.12-16.34,16.96-52.64.91-2.83,3.18-4.69,4.9-4.02Z" fill="#79b829"/>
    <path d="M235.65,39.45c1.36,1.25.72,4.12-1.4,6.2-26.64,27.72-38.63,39.38-39.36,38.71s9.72-13.74,34.75-42.93c1.87-2.31,4.65-3.22,6.01-1.97Z" fill="#79b829"/>
    <path d="M266.52,80.51c.82,1.66-.81,4.1-3.53,5.27-34.81,16.19-50.19,22.7-50.63,21.81-.44-.89,14-9.29,47.84-27.43,2.57-1.47,5.49-1.31,6.32.35Z" fill="#79b829"/>
    <path d="M280.54,129.99c.17,1.84-2.23,3.53-5.19,3.63-38.28,2.46-54.97,2.97-55.06,1.97-.09-.99,16.4-3.58,54.48-8.22,2.93-.44,5.6.77,5.77,2.61Z" fill="#79b829"/>
    <path d="M275.82,181.22c-.5,1.78-3.35,2.48-6.15,1.51-36.58-11.59-52.32-17.17-52.05-18.13s16.58,2.61,53.76,12.1c2.89.65,4.94,2.75,4.44,4.53Z" fill="#79b829"/>
    <path d="M252.98,227.27c-1.11,1.48-4.02,1.1-6.27-.83-29.94-24.08-42.61-34.99-42.01-35.79.6-.8,14.52,8.45,45.78,30.78,2.46,1.65,3.62,4.35,2.51,5.83Z" fill="#79b829"/>
    <path d="M215.12,261.93c-1.57.98-4.14-.43-5.55-3.05-19.26-33.31-27.14-48.09-26.3-48.61.84-.52,10.5,13.15,31.61,45.31,1.7,2.43,1.81,5.37.24,6.35Z" fill="#79b829"/>
    <path d="M167.35,280.51c-1.81.34-3.7-1.91-4.08-4.85-5.98-38.05-8.01-54.69-7.04-54.87.98-.18,5.06,16.07,13.18,53.72.71,2.88-.25,5.67-2.06,6.01Z" fill="#79b829"/>
    <path d="M116.12,280.51c-1.81-.34-2.77-3.12-2.06-6.01,8.12-37.65,12.2-53.9,13.18-53.72.98.18-1.06,16.82-7.04,54.87-.38,2.95-2.27,5.19-4.08,4.85Z" fill="#79b829"/>
    <path d="M68.35,261.93c-1.57-.98-1.46-3.91.24-6.35,21.11-32.16,30.77-45.83,31.61-45.31s-7.04,15.3-26.3,48.61c-1.41,2.61-3.98,4.02-5.55,3.05Z" fill="#79b829"/>
    <path d="M30.48,227.27c-1.11-1.48.05-4.18,2.51-5.83,31.26-22.33,45.18-31.58,45.78-30.78.6.8-12.07,11.71-42.01,35.79-2.26,1.92-5.16,2.3-6.27.83Z" fill="#79b829"/>
    <path d="M7.65,181.22c-.5-1.78,1.55-3.88,4.44-4.53,37.18-9.49,53.49-13.06,53.76-12.1.27.96-15.47,6.54-52.05,18.13-2.8.97-5.64.28-6.15-1.51Z" fill="#79b829"/>
    <path d="M2.92,129.99c.17-1.85,2.84-3.06,5.77-2.61,38.08,4.64,54.57,7.23,54.48,8.22-.09.99-16.77.49-55.06-1.97-2.96-.11-5.36-1.79-5.19-3.63Z" fill="#79b829"/>
    <path d="M16.94,80.51c.82-1.66,3.75-1.82,6.32-.35,33.84,18.14,48.29,26.54,47.84,27.43-.44.89-15.82-5.63-50.63-21.81-2.72-1.17-4.35-3.61-3.53-5.27Z" fill="#79b829"/>
    <path d="M47.81,39.45c1.36-1.25,4.15-.34,6.01,1.97,25.03,29.19,35.48,42.26,34.75,42.93-.73.67-12.73-10.99-39.36-38.71-2.11-2.08-2.76-4.95-1.4-6.2Z" fill="#79b829"/>
    <path d="M91.37,12.37c1.72-.67,3.99,1.19,4.9,4.02,12.84,36.3,17.88,52.28,16.96,52.64-.93.36-7.92-14.86-22.78-50.37-1.22-2.7-.79-5.62.93-6.28Z" fill="#79b829"/>
  </g>
  <g>
    <ellipse cx="141.73" cy="95.92" rx="5.54" ry="28.12" fill="#9fc534"/>
    <ellipse cx="158.44" cy="99.06" rx="28.1" ry="5.54" transform="translate(9 211.24) rotate(-68.91)" fill="#9fc534"/>
    <ellipse cx="172.89" cy="108.04" rx="28.06" ry="5.55" transform="translate(-23.31 163.46) rotate(-47.78)" fill="#9fc534"/>
    <ellipse cx="183.13" cy="121.66" rx="28.02" ry="5.56" transform="translate(-35.08 94.77) rotate(-26.57)" fill="#9fc534"/>
    <ellipse cx="187.78" cy="138.07" rx="28" ry="5.56" transform="translate(-11.99 18) rotate(-5.32)" fill="#9fc534"/>
    <ellipse cx="186.21" cy="155.06" rx="5.56" ry="28.01" transform="translate(-14.06 291.49) rotate(-74.05)" fill="#9fc534"/>
    <ellipse cx="178.63" cy="170.34" rx="5.56" ry="28.04" transform="translate(-65.04 209.71) rotate(-52.82)" fill="#9fc534"/>
    <ellipse cx="166.08" cy="181.84" rx="5.55" ry="28.08" transform="translate(-70.71 114.18) rotate(-31.65)" fill="#9fc534"/>
    <ellipse cx="150.23" cy="188" rx="5.54" ry="28.11" transform="translate(-31.86 30.66) rotate(-10.54)" fill="#9fc534"/>
    <ellipse cx="133.24" cy="188" rx="28.11" ry="5.54" transform="translate(-75.97 284.59) rotate(-79.46)" fill="#9fc534"/>
    <ellipse cx="117.39" cy="181.84" rx="28.08" ry="5.55" transform="translate(-99 186.36) rotate(-58.35)" fill="#9fc534"/>
    <ellipse cx="104.83" cy="170.34" rx="28.04" ry="5.56" transform="translate(-81.64 97.99) rotate(-37.18)" fill="#9fc534"/>
    <ellipse cx="97.26" cy="155.06" rx="28.01" ry="5.56" transform="translate(-38.87 32.7) rotate(-15.95)" fill="#9fc534"/>
    <ellipse cx="95.69" cy="138.07" rx="5.56" ry="28" transform="translate(-50.66 220.55) rotate(-84.68)" fill="#9fc534"/>
    <ellipse cx="100.34" cy="121.66" rx="5.56" ry="28.02" transform="translate(-53.36 156.97) rotate(-63.43)" fill="#9fc534"/>
    <ellipse cx="110.58" cy="108.04" rx="5.55" ry="28.06" transform="translate(-43.91 102.35) rotate(-42.22)" fill="#9fc534"/>
    <ellipse cx="125.03" cy="99.06" rx="5.54" ry="28.1" transform="translate(-27.27 51.62) rotate(-21.09)" fill="#9fc534"/>
  </g>
</svg>