<?xml version="1.0" encoding="UTF-8"?>
<svg id="a" data-name="图层 1" xmlns="http://www.w3.org/2000/svg" width="100mm" height="100mm" viewBox="0 0 283.46 283.46">
  <g>
    <ellipse cx="141.73" cy="178.32" rx="4.51" ry="22.99" fill="#9fc534"/>
    <ellipse cx="129" cy="175.93" rx="22.98" ry="4.51" transform="translate(-81.56 232.98) rotate(-68.91)" fill="#9fc534"/>
    <ellipse cx="117.99" cy="169.08" rx="22.95" ry="4.52" transform="translate(-86.51 142.82) rotate(-47.78)" fill="#9fc534"/>
    <ellipse cx="110.18" cy="158.7" rx="22.92" ry="4.53" transform="translate(-59.35 66.05) rotate(-26.57)" fill="#9fc534"/>
    <ellipse cx="106.64" cy="146.19" rx="22.9" ry="4.53" transform="translate(-13.09 10.51) rotate(-5.32)" fill="#9fc534"/>
    <ellipse cx="107.83" cy="133.23" rx="4.53" ry="22.9" transform="translate(-49.91 200.3) rotate(-74.05)" fill="#9fc534"/>
    <ellipse cx="113.6" cy="121.59" rx="4.52" ry="22.93" transform="translate(-51.93 138.61) rotate(-52.82)" fill="#9fc534"/>
    <ellipse cx="123.18" cy="112.83" rx="4.52" ry="22.97" transform="translate(-40.88 81.41) rotate(-31.65)" fill="#9fc534"/>
    <ellipse cx="135.26" cy="108.13" rx="4.51" ry="22.99" transform="translate(-17.5 26.57) rotate(-10.54)" fill="#9fc534"/>
    <ellipse cx="148.21" cy="108.13" rx="22.99" ry="4.51" transform="translate(14.79 234.05) rotate(-79.46)" fill="#9fc534"/>
    <ellipse cx="160.29" cy="112.83" rx="22.97" ry="4.52" transform="translate(-19.86 190.08) rotate(-58.35)" fill="#9fc534"/>
    <ellipse cx="169.86" cy="121.59" rx="22.93" ry="4.52" transform="translate(-38.95 127.38) rotate(-37.18)" fill="#9fc534"/>
    <ellipse cx="175.64" cy="133.23" rx="22.9" ry="4.53" transform="translate(-29.85 53.4) rotate(-15.95)" fill="#9fc534"/>
    <ellipse cx="176.83" cy="146.19" rx="4.53" ry="22.9" transform="translate(14.88 308.71) rotate(-84.68)" fill="#9fc534"/>
    <ellipse cx="173.28" cy="158.7" rx="4.53" ry="22.92" transform="translate(-46.17 242.68) rotate(-63.43)" fill="#9fc534"/>
    <ellipse cx="165.48" cy="169.08" rx="4.52" ry="22.95" transform="translate(-70.69 155.08) rotate(-42.22)" fill="#9fc534"/>
    <ellipse cx="154.47" cy="175.92" rx="4.51" ry="22.98" transform="translate(-52.96 67.36) rotate(-21.09)" fill="#9fc534"/>
  </g>
  <g>
    <g id="b" data-name="&amp;lt;径向重复&amp;gt;">
      <path d="M141.73,0C144.83,0,147.25,4.31,146.97,9.3c-1.83,64.84-3.57,93.01-5.24,93.01s-3.41-28.17-5.24-93.01C136.21,4.31,138.64,0,141.73,0Z" fill="#d6d981"/>
    </g>
    <g id="c" data-name="&amp;lt;径向重复&amp;gt;">
      <path d="M193.15,9.65c2.88,1.12,3.6,6.02,1.54,10.57-25.03,59.8-36.79,85.43-38.34,84.83-1.55-.6,6.95-27.5,28.57-88.63,1.53-4.76,5.35-7.9,8.23-6.77Z" fill="#d6d981"/>
    </g>
    <g id="d" data-name="&amp;lt;径向重复&amp;gt;">
      <path d="M237.62,37.3c2.29,2.09,1.19,6.92-2.37,10.42-44.85,46.68-65.04,66.32-66.27,65.19-1.23-1.13,16.38-23.13,58.53-72.28,3.14-3.88,7.83-5.42,10.11-3.33Z" fill="#d6d981"/>
    </g>
    <g id="e" data-name="&amp;lt;径向重复&amp;gt;">
      <path d="M269.14,79.22c1.38,2.78-1.38,6.88-5.96,8.86-58.62,27.26-84.51,38.25-85.25,36.75-.74-1.5,23.59-15.62,80.58-46.17,4.33-2.48,9.25-2.22,10.63.56Z" fill="#d6d981"/>
    </g>
    <g id="f" data-name="&amp;lt;径向重复&amp;gt;">
      <path d="M283.45,129.73c.29,3.09-3.76,5.92-8.74,6.1-64.46,4.16-92.56,5.01-92.71,3.34-.15-1.66,27.62-6.01,91.74-13.82,4.93-.74,9.42,1.29,9.71,4.38Z" fill="#d6d981"/>
    </g>
    <g id="g" data-name="&amp;lt;径向重复&amp;gt;">
      <path d="M278.63,182.03c-.85,2.99-5.64,4.15-10.34,2.51-61.61-19.51-88.11-28.91-87.65-30.51s27.91,4.41,90.52,20.39c4.86,1.1,8.32,4.62,7.48,7.61Z" fill="#d6d981"/>
    </g>
    <g id="h" data-name="&amp;lt;径向重复&amp;gt;">
      <path d="M255.31,229.05c-1.86,2.48-6.75,1.83-10.55-1.41-50.43-40.54-71.76-58.91-70.76-60.25,1-1.33,24.44,14.24,77.07,51.85,4.14,2.78,6.1,7.32,4.24,9.8Z" fill="#d6d981"/>
    </g>
    <g id="i" data-name="&amp;lt;径向重复&amp;gt;">
      <path d="M216.66,264.43c-2.63,1.64-6.95-.74-9.33-5.14-32.44-56.09-45.72-80.97-44.31-81.85,1.42-.88,17.67,22.14,53.21,76.31,2.86,4.1,3.05,9.04.42,10.68Z" fill="#d6d981"/>
    </g>
    <g id="j" data-name="&amp;lt;径向重复&amp;gt;">
      <path d="M167.89,283.41c-3.04.57-6.21-3.22-6.85-8.18-10.07-64.07-13.51-92.09-11.87-92.39,1.64-.31,8.51,27.06,22.17,90.46,1.19,4.86-.41,9.54-3.45,10.11Z" fill="#d6d981"/>
    </g>
    <g id="k" data-name="&amp;lt;径向重复&amp;gt;">
      <path d="M115.58,283.41c-3.04-.57-4.64-5.25-3.45-10.11,13.66-63.4,20.53-90.77,22.17-90.46s-1.8,28.32-11.87,92.39c-.64,4.96-3.81,8.75-6.85,8.18Z" fill="#d6d981"/>
    </g>
    <g id="l" data-name="&amp;lt;径向重复&amp;gt;">
      <path d="M66.81,264.43c-2.63-1.64-2.43-6.58.42-10.68,35.54-54.16,51.8-77.19,53.21-76.31,1.42.88-11.87,25.75-44.31,81.85-2.38,4.4-6.7,6.78-9.33,5.14Z" fill="#d6d981"/>
    </g>
    <g id="m" data-name="&amp;lt;径向重复&amp;gt;">
      <path d="M28.16,229.05c-1.86-2.48.1-7.02,4.24-9.8,52.63-37.61,76.07-53.19,77.07-51.85s-20.33,19.71-70.76,60.25c-3.8,3.24-8.68,3.89-10.55,1.41Z" fill="#d6d981"/>
    </g>
    <g id="n" data-name="&amp;lt;径向重复&amp;gt;">
      <path d="M4.84,182.03c-.85-2.99,2.62-6.51,7.48-7.61,62.61-15.98,90.06-22,90.52-20.39.46,1.61-26.05,11-87.65,30.51-4.71,1.64-9.5.47-10.34-2.51Z" fill="#d6d981"/>
    </g>
    <g id="o" data-name="&amp;lt;径向重复&amp;gt;">
      <path d="M.01,129.73c.29-3.09,4.78-5.12,9.71-4.38,64.13,7.81,91.9,12.16,91.74,13.82-.15,1.66-28.25.81-92.71-3.34-4.98-.18-9.03-3-8.74-6.1Z" fill="#d6d981"/>
    </g>
    <g id="p" data-name="&amp;lt;径向重复&amp;gt;">
      <path d="M14.33,79.22c1.38-2.78,6.3-3.04,10.63-.56,56.99,30.54,81.32,44.67,80.58,46.17s-26.63-9.49-85.25-36.75c-4.58-1.97-7.34-6.07-5.96-8.86Z" fill="#d6d981"/>
    </g>
    <g id="q" data-name="&amp;lt;径向重复&amp;gt;">
      <path d="M45.85,37.3c2.29-2.09,6.97-.55,10.11,3.33,42.15,49.15,59.76,71.15,58.53,72.28-1.23,1.13-21.42-18.51-66.27-65.19-3.56-3.5-4.66-8.33-2.37-10.42Z" fill="#d6d981"/>
    </g>
    <g id="r" data-name="&amp;lt;径向重复&amp;gt;">
      <path d="M90.32,9.65c2.88-1.12,6.7,2.01,8.23,6.77,21.62,61.13,30.13,88.03,28.57,88.63-1.55.6-13.32-25.03-38.34-84.83-2.06-4.56-1.35-9.45,1.54-10.57Z" fill="#d6d981"/>
    </g>
  </g>
  <g>
    <path d="M141.73,253.11c-1.46,0-2.61-2.03-2.47-4.39.86-30.62,1.69-43.92,2.47-43.92s1.61,13.3,2.47,43.92c.13,2.36-1.01,4.39-2.47,4.39Z" fill="#79b829"/>
    <path d="M102.1,245.66c-1.36-.53-1.7-2.84-.73-4.99,11.82-28.24,17.37-40.34,18.1-40.05s-3.28,12.99-13.49,41.85c-.72,2.25-2.52,3.73-3.89,3.2Z" fill="#79b829"/>
    <path d="M67.81,224.35c-1.08-.99-.56-3.27,1.12-4.92,21.18-22.04,30.71-31.31,31.29-30.78.58.53-7.73,10.92-27.64,34.13-1.48,1.83-3.69,2.56-4.77,1.57Z" fill="#79b829"/>
    <path d="M43.51,192.03c-.65-1.31.65-3.25,2.81-4.18,27.68-12.87,39.9-18.06,40.25-17.35s-11.14,7.38-38.05,21.8c-2.04,1.17-4.37,1.05-5.02-.27Z" fill="#79b829"/>
    <path d="M32.48,153.09c-.13-1.46,1.78-2.79,4.13-2.88,30.44-1.96,43.7-2.36,43.78-1.58.07.79-13.04,2.84-43.32,6.53-2.33.35-4.45-.61-4.58-2.07Z" fill="#79b829"/>
    <path d="M36.2,112.77c.4-1.41,2.66-1.96,4.88-1.19,29.09,9.21,41.6,13.65,41.39,14.41s-13.18-2.08-42.74-9.63c-2.3-.52-3.93-2.18-3.53-3.59Z" fill="#79b829"/>
    <path d="M54.17,76.52c.88-1.17,3.19-.86,4.98.66,23.81,19.14,33.88,27.82,33.41,28.45s-11.54-6.72-36.39-24.48c-1.95-1.31-2.88-3.46-2-4.63Z" fill="#79b829"/>
    <path d="M83.97,49.24c1.24-.77,3.28.35,4.41,2.43,15.32,26.49,21.59,38.23,20.92,38.65s-8.34-10.46-25.13-36.03c-1.35-1.93-1.44-4.27-.2-5.04Z" fill="#79b829"/>
    <path d="M121.57,34.61c1.44-.27,2.93,1.52,3.24,3.86,4.75,30.25,6.38,43.48,5.6,43.63-.77.14-4.02-12.78-10.47-42.71-.56-2.29.19-4.5,1.63-4.77Z" fill="#79b829"/>
    <path d="M161.9,34.61c1.44.27,2.19,2.48,1.63,4.77-6.45,29.94-9.7,42.86-10.47,42.71s.85-13.37,5.6-43.63c.3-2.34,1.8-4.13,3.24-3.86Z" fill="#79b829"/>
    <path d="M199.5,49.24c1.24.77,1.15,3.11-.2,5.04-16.78,25.57-24.46,36.45-25.13,36.03-.67-.42,5.6-12.16,20.92-38.65,1.12-2.08,3.16-3.2,4.41-2.43Z" fill="#79b829"/>
    <path d="M229.3,76.52c.88,1.17-.05,3.31-2,4.63-24.85,17.76-35.92,25.11-36.39,24.48-.47-.63,9.6-9.31,33.41-28.45,1.79-1.53,4.1-1.84,4.98-.66Z" fill="#79b829"/>
    <path d="M247.27,112.77c.4,1.41-1.23,3.07-3.53,3.59-29.56,7.55-42.53,10.39-42.74,9.63s12.3-5.2,41.39-14.41c2.22-.77,4.48-.22,4.88,1.19Z" fill="#79b829"/>
    <path d="M250.99,153.09c-.13,1.46-2.26,2.42-4.58,2.07-30.28-3.69-43.39-5.74-43.32-6.53s13.34-.38,43.78,1.58c2.35.08,4.26,1.42,4.13,2.88Z" fill="#79b829"/>
    <path d="M239.95,192.03c-.65,1.31-2.97,1.44-5.02.27-26.91-14.42-38.4-21.09-38.05-21.8.35-.71,12.57,4.48,40.25,17.35,2.16.93,3.46,2.87,2.81,4.18Z" fill="#79b829"/>
    <path d="M215.65,224.35c-1.08.99-3.29.26-4.77-1.57-19.9-23.21-28.22-33.6-27.64-34.13.58-.53,10.11,8.74,31.29,30.78,1.68,1.65,2.2,3.93,1.12,4.92Z" fill="#79b829"/>
    <path d="M181.37,245.66c-1.36.53-3.16-.95-3.89-3.2-10.21-28.86-14.22-41.56-13.49-41.85.73-.29,6.29,11.82,18.1,40.05.97,2.15.64,4.46-.73,4.99Z" fill="#79b829"/>
  </g>
</svg>