<?xml version="1.0" encoding="UTF-8"?>
<svg id="a" data-name="图层 1" xmlns="http://www.w3.org/2000/svg" width="100mm" height="100mm" viewBox="0 0 283.46 283.46">
  <g>
    <ellipse cx="141.73" cy="252.58" rx="5.75" ry="29.31" fill="#9fc534"/>
    <ellipse cx="102.29" cy="245.17" rx="29.29" ry="5.75" transform="translate(-163.27 252.39) rotate(-68.91)" fill="#9fc534"/>
    <ellipse cx="68.17" cy="223.96" rx="29.25" ry="5.76" transform="translate(-143.49 123.93) rotate(-47.78)" fill="#9fc534"/>
    <ellipse cx="43.98" cy="191.8" rx="29.21" ry="5.77" transform="translate(-81.16 39.94) rotate(-26.57)" fill="#9fc534"/>
    <ellipse cx="33" cy="153.04" rx="29.19" ry="5.78" transform="translate(-14.04 3.72) rotate(-5.32)" fill="#9fc534"/>
    <ellipse cx="36.7" cy="112.91" rx="5.77" ry="29.2" transform="translate(-81.95 117.17) rotate(-74.05)" fill="#9fc534"/>
    <ellipse cx="54.59" cy="76.84" rx="5.77" ry="29.23" transform="translate(-39.62 73.89) rotate(-52.82)" fill="#9fc534"/>
    <ellipse cx="84.25" cy="49.69" rx="5.76" ry="29.27" transform="translate(-13.54 51.6) rotate(-31.65)" fill="#9fc534"/>
    <ellipse cx="121.67" cy="35.13" rx="5.75" ry="29.3" transform="translate(-4.37 22.85) rotate(-10.54)" fill="#9fc534"/>
    <ellipse cx="161.8" cy="35.13" rx="29.3" ry="5.75" transform="translate(97.66 187.77) rotate(-79.46)" fill="#9fc534"/>
    <ellipse cx="199.22" cy="49.69" rx="29.27" ry="5.76" transform="translate(52.39 193.21) rotate(-58.35)" fill="#9fc534"/>
    <ellipse cx="228.88" cy="76.84" rx="29.23" ry="5.77" transform="translate(.09 153.95) rotate(-37.18)" fill="#9fc534"/>
    <ellipse cx="246.76" cy="112.91" rx="29.2" ry="5.77" transform="translate(-21.53 72.16) rotate(-15.95)" fill="#9fc534"/>
    <ellipse cx="250.47" cy="153.04" rx="5.78" ry="29.19" transform="translate(74.87 388.24) rotate(-84.68)" fill="#9fc534"/>
    <ellipse cx="239.48" cy="191.8" rx="5.77" ry="29.21" transform="translate(-39.19 320.18) rotate(-63.43)" fill="#9fc534"/>
    <ellipse cx="215.3" cy="223.96" rx="5.76" ry="29.25" transform="translate(-94.64 202.8) rotate(-42.22)" fill="#9fc534"/>
    <ellipse cx="181.18" cy="245.17" rx="5.75" ry="29.29" transform="translate(-76.08 81.61) rotate(-21.09)" fill="#9fc534"/>
  </g>
  <g>
    <path d="M141.73,0C144.63,0,146.9,4.03,146.64,8.71c-1.71,60.7-3.35,87.07-4.9,87.07s-3.19-26.37-4.9-87.07C136.57,4.03,138.84,0,141.73,0Z" fill="#d6d981"/>
    <path d="M193.15,9.65c2.7,1.05,3.37,5.63,1.44,9.9-23.43,55.98-34.44,79.98-35.89,79.41-1.45-.57,6.51-25.75,26.75-82.97,1.44-4.46,5-7.39,7.71-6.34Z" fill="#d6d981"/>
    <path d="M237.62,37.3c2.14,1.96,1.11,6.48-2.22,9.75-41.99,43.7-60.89,62.08-62.04,61.03-1.15-1.05,15.33-21.65,54.79-67.66,2.94-3.63,7.33-5.08,9.47-3.12Z" fill="#d6d981"/>
    <path d="M269.14,79.21c1.29,2.6-1.29,6.44-5.58,8.29-54.87,25.52-79.11,35.8-79.8,34.4s22.08-14.63,75.43-43.22c4.05-2.32,8.66-2.08,9.95.53Z" fill="#d6d981"/>
    <path d="M283.45,129.73c.27,2.9-3.52,5.54-8.18,5.71-60.35,3.89-86.64,4.69-86.79,3.13s25.85-5.63,85.88-12.94c4.61-.69,8.82,1.2,9.09,4.1Z" fill="#d6d981"/>
    <path d="M278.63,182.03c-.79,2.8-5.28,3.89-9.68,2.35-57.67-18.26-82.48-27.06-82.05-28.56s26.13,4.13,84.74,19.09c4.55,1.03,7.79,4.32,7,7.12Z" fill="#d6d981"/>
    <path d="M255.31,229.05c-1.75,2.32-6.32,1.71-9.88-1.32-47.21-37.95-67.18-55.15-66.24-56.4.94-1.25,22.88,13.33,72.15,48.54,3.87,2.61,5.71,6.86,3.96,9.18Z" fill="#d6d981"/>
    <path d="M216.66,264.44c-2.46,1.53-6.51-.7-8.73-4.81-30.37-52.51-42.8-75.8-41.47-76.62s16.54,20.73,49.81,71.43c2.67,3.84,2.86,8.47.4,10Z" fill="#d6d981"/>
    <path d="M167.88,283.41c-2.85.53-5.82-3.01-6.41-7.65-9.43-59.98-12.64-86.2-11.11-86.49s7.97,25.33,20.75,84.68c1.11,4.55-.38,8.93-3.23,9.46Z" fill="#d6d981"/>
    <path d="M115.58,283.41c-2.85-.53-4.34-4.92-3.23-9.46,12.79-59.35,19.22-84.97,20.75-84.68,1.53.29-1.68,26.51-11.11,86.49-.6,4.64-3.57,8.19-6.41,7.65Z" fill="#d6d981"/>
    <path d="M66.81,264.44c-2.46-1.53-2.28-6.16.4-10,33.27-50.7,48.49-72.26,49.81-71.43,1.32.82-11.11,24.11-41.47,76.62-2.23,4.11-6.27,6.34-8.73,4.81Z" fill="#d6d981"/>
    <path d="M28.15,229.05c-1.75-2.32.09-6.57,3.96-9.18,49.27-35.21,71.21-49.79,72.15-48.54.94,1.25-19.03,18.45-66.24,56.4-3.56,3.03-8.13,3.64-9.88,1.32Z" fill="#d6d981"/>
    <path d="M4.84,182.03c-.79-2.8,2.45-6.09,7-7.12,58.61-14.96,84.31-20.6,84.74-19.09.43,1.5-24.38,10.3-82.05,28.56-4.41,1.53-8.89.44-9.68-2.35Z" fill="#d6d981"/>
    <path d="M.01,129.73c.27-2.9,4.48-4.79,9.09-4.1,60.03,7.31,86.03,11.38,85.88,12.94-.14,1.56-26.44.76-86.79-3.13-4.66-.17-8.45-2.81-8.18-5.71Z" fill="#d6d981"/>
    <path d="M14.33,79.22c1.29-2.6,5.9-2.85,9.95-.53,53.35,28.59,76.12,41.82,75.43,43.22-.69,1.4-24.93-8.88-79.8-34.4-4.29-1.85-6.87-5.69-5.58-8.29Z" fill="#d6d981"/>
    <path d="M45.85,37.3c2.14-1.96,6.52-.52,9.47,3.12,39.46,46.01,55.94,66.61,54.79,67.66-1.15,1.05-20.05-17.33-62.04-61.03-3.33-3.28-4.36-7.79-2.22-9.75Z" fill="#d6d981"/>
    <path d="M90.32,9.65c2.7-1.05,6.27,1.89,7.71,6.34,20.24,57.22,28.2,82.4,26.75,82.97-1.45.57-12.46-23.43-35.89-79.41-1.93-4.26-1.26-8.85,1.44-9.9Z" fill="#d6d981"/>
  </g>
  <g>
    <path d="M141.73,217.57c-1.86,0-3.32-2.59-3.15-5.6,1.1-39.02,2.15-55.98,3.15-55.98s2.05,16.95,3.15,55.98c.17,3.01-1.29,5.6-3.15,5.6Z" fill="#79b829"/>
    <path d="M114.88,212.53c-1.74-.68-2.16-3.62-.93-6.36,15.06-35.99,22.14-51.42,23.08-51.05.93.36-4.18,16.55-17.2,53.34-.92,2.86-3.22,4.75-4.95,4.08Z" fill="#79b829"/>
    <path d="M91.65,198.09c-1.38-1.26-.72-4.16,1.43-6.27,26.99-28.1,39.14-39.91,39.88-39.24s-9.86,13.92-35.22,43.5c-1.89,2.34-4.71,3.26-6.09,2Z" fill="#79b829"/>
    <path d="M75.19,176.19c-.83-1.67.83-4.14,3.59-5.33,35.28-16.41,50.86-23.02,51.31-22.12.45.9-14.2,9.4-48.49,27.79-2.6,1.49-5.57,1.34-6.4-.34Z" fill="#79b829"/>
    <path d="M67.71,149.81c-.17-1.86,2.26-3.56,5.26-3.67,38.8-2.5,55.71-3.01,55.8-2.01s-16.62,3.62-55.22,8.32c-2.97.45-5.67-.77-5.84-2.64Z" fill="#79b829"/>
    <path d="M70.23,122.49c.51-1.8,3.39-2.5,6.23-1.51,37.08,11.74,53.03,17.4,52.75,18.36s-16.8-2.66-54.48-12.27c-2.93-.66-5.01-2.78-4.5-4.58Z" fill="#79b829"/>
    <path d="M82.41,97.93c1.12-1.49,4.06-1.1,6.35.85,30.35,24.4,43.19,35.46,42.58,36.26-.6.8-14.71-8.57-46.38-31.21-2.49-1.68-3.67-4.41-2.55-5.9Z" fill="#79b829"/>
    <path d="M102.6,79.45c1.58-.98,4.18.45,5.62,3.09,19.52,33.76,27.52,48.73,26.67,49.26-.85.53-10.63-13.33-32.03-45.93-1.72-2.47-1.84-5.44-.25-6.43Z" fill="#79b829"/>
    <path d="M128.07,69.54c1.83-.34,3.74,1.94,4.12,4.92,6.06,38.56,8.13,55.42,7.14,55.61-.98.18-5.12-16.29-13.34-54.44-.72-2.92.24-5.74,2.07-6.09Z" fill="#79b829"/>
    <path d="M155.39,69.54c1.83.34,2.79,3.16,2.07,6.09-8.22,38.16-12.36,54.63-13.34,54.44-.98-.18,1.08-17.04,7.14-55.61.38-2.99,2.29-5.27,4.12-4.92Z" fill="#79b829"/>
    <path d="M180.87,79.45c1.58.98,1.47,3.96-.25,6.43-21.39,32.6-31.17,46.46-32.03,45.93s7.14-15.5,26.67-49.26c1.43-2.65,4.03-4.08,5.62-3.09Z" fill="#79b829"/>
    <path d="M201.06,97.93c1.12,1.49-.06,4.22-2.55,5.9-31.67,22.64-45.78,32.01-46.38,31.21s12.23-11.86,42.58-36.26c2.29-1.95,5.23-2.34,6.35-.85Z" fill="#79b829"/>
    <path d="M213.23,122.49c.51,1.8-1.57,3.92-4.5,4.58-37.68,9.62-54.21,13.24-54.48,12.27-.27-.97,15.68-6.62,52.75-18.36,2.83-.99,5.72-.29,6.23,1.51Z" fill="#79b829"/>
    <path d="M215.76,149.81c-.17,1.86-2.88,3.08-5.84,2.64-38.59-4.7-55.31-7.32-55.22-8.32s17-.49,55.8,2.01c3,.11,5.43,1.81,5.26,3.67Z" fill="#79b829"/>
    <path d="M208.28,176.2c-.83,1.67-3.79,1.83-6.4.34-34.3-18.38-48.94-26.89-48.49-27.79s16.03,5.71,51.31,22.12c2.76,1.19,4.42,3.66,3.59,5.33Z" fill="#79b829"/>
    <path d="M191.82,198.09c-1.38,1.26-4.19.33-6.09-2-25.37-29.58-35.96-42.82-35.22-43.5.74-.68,12.89,11.14,39.88,39.24,2.14,2.11,2.8,5.01,1.43,6.27Z" fill="#79b829"/>
    <path d="M168.59,212.53c-1.74.68-4.03-1.21-4.95-4.08-13.01-36.79-18.13-52.98-17.2-53.34s8.01,15.06,23.08,51.05c1.24,2.74.81,5.69-.93,6.36Z" fill="#79b829"/>
  </g>
</svg>