<?xml version="1.0" encoding="UTF-8"?>
<svg id="a" data-name="图层 1" xmlns="http://www.w3.org/2000/svg" width="100mm" height="100mm" viewBox="0 0 283.46 283.46">
  <path d="M278.44,141.73c0,3.21-66.22,3.38-66.51,6.52-.29,3.19,64.79,15.37,64.21,18.47-.59,3.15-65.71-8.79-66.58-5.75-.88,3.07,60.82,27.01,59.68,29.96-1.16,2.97-62.94-20.75-64.36-17.92-1.43,2.85,54.77,37.73,53.09,40.42-1.69,2.71-58.03-31.95-59.95-29.41-1.93,2.54,46.9,47.09,44.75,49.44-2.15,2.35-51.18-41.98-53.54-39.84-2.36,2.14,37.47,54.83,34.92,56.75-2.54,1.91-42.6-50.6-45.32-48.92-2.71,1.67,26.74,60.74,23.88,62.16-2.85,1.41-32.51-57.54-35.5-56.39-2.96,1.14,15.02,64.61,11.94,65.49-3.05.86-21.25-62.54-24.41-61.96-3.11.58,2.79,66.26-.42,66.56-3.15.29-9.35-65.37-12.58-65.37-3.22,0-9.43,65.66-12.58,65.37-3.2-.29,2.7-65.98-.42-66.56-3.16-.58-21.36,62.82-24.41,61.96-3.09-.87,14.9-64.34,11.94-65.49-2.99-1.15-32.65,57.8-35.5,56.39-2.86-1.42,26.58-60.49,23.88-62.16-2.72-1.68-42.78,50.83-45.32,48.92-2.55-1.92,37.28-54.61,34.92-56.75-2.36-2.14-51.39,42.19-53.54,39.84-2.15-2.35,46.67-46.9,44.75-49.44-1.92-2.53-58.27,32.12-59.95,29.41-1.68-2.69,54.52-37.57,53.09-40.42-1.42-2.83-63.21,20.89-64.36,17.92-1.15-2.95,60.55-26.89,59.68-29.96-.87-3.04-65.99,8.9-66.58,5.75-.58-3.1,64.5-15.28,64.21-18.47-.29-3.14-66.51-3.31-66.51-6.52s66.22-3.38,66.51-6.52S6.75,119.85,7.33,116.75c.59-3.15,65.71,8.79,66.58,5.75.88-3.07-60.82-27.01-59.68-29.96,1.16-2.97,62.94,20.75,64.36,17.92,1.43-2.85-54.77-37.73-53.09-40.42,1.69-2.71,58.03,31.95,59.95,29.41,1.93-2.54-46.9-47.09-44.75-49.44,2.15-2.35,51.18,41.98,53.54,39.84,2.36-2.14-37.47-54.83-34.92-56.75,2.54-1.91,42.6,50.6,45.32,48.92,2.71-1.67-26.74-60.74-23.88-62.16,2.85-1.41,32.51,57.54,35.5,56.39,2.96-1.14-15.02-64.61-11.94-65.49,3.05-.86,21.25,62.54,24.41,61.96,3.11-.58-2.79-66.26.42-66.56,3.15-.29,9.35,65.37,12.58,65.37,3.22,0,9.43-65.66,12.58-65.37,3.2.29-2.7,65.98.42,66.56,3.16.58,21.36-62.82,24.41-61.96,3.09.87-14.9,64.34-11.94,65.49,2.99,1.15,32.65-57.8,35.5-56.39,2.86,1.42-26.58,60.49-23.88,62.16,2.72,1.68,42.78-50.83,45.32-48.92,2.55,1.92-37.28,54.61-34.92,56.75,2.36,2.14,51.39-42.19,53.54-39.84,2.15,2.35-46.67,46.9-44.75,49.44,1.92,2.53,58.27-32.12,59.95-29.41s-54.52,37.57-53.09,40.42c1.42,2.83,63.21-20.89,64.36-17.92,1.15,2.95-60.55,26.89-59.68,29.96.87,3.04,65.99-8.9,66.58-5.75.58,3.1-64.5,15.28-64.21,18.47.29,3.14,66.51,3.31,66.51,6.52Z" fill="#653a8e"/>
  <path d="M237.77,37.13c2.89,2.63-17.85,28.69-15.26,31.52,2.63,2.88,30.62-15.24,32.93-12.19,2.35,3.1-22.83,24.93-20.81,28.19,2.05,3.3,32.91-9.35,34.63-5.92,1.73,3.47-27.08,20.28-25.69,23.87,1.39,3.61,34.08-3.15,35.13.56,1.05,3.72-30.36,14.96-29.66,18.75.7,3.8,34.08,3.12,34.43,6.96.35,3.84-32.6,9.17-32.61,13.03,0,3.85,32.93,9.27,32.57,13.11-.36,3.83-33.73,3.07-34.45,6.87-.71,3.78,30.67,15.12,29.61,18.84-1.06,3.7-33.72-3.17-35.13.44s27.34,20.49,25.6,23.96c-1.72,3.43-32.54-9.34-34.6-6.04-2.03,3.25,23.08,25.16,20.72,28.26-2.32,3.04-30.27-15.14-32.91-12.27-2.64,2.88,18.04,28.97,15.2,31.55-2.89,2.62-27.04-20.33-30.11-18.03-3.11,2.34,12.41,31.77,9.13,33.79s-22.8-24.96-26.25-23.26c-3.48,1.72,6.3,33.5,2.7,34.88-3.62,1.39-17.76-28.73-21.48-27.68-3.73,1.05,0,34.08-3.8,34.78-3.81.7-12.17-31.49-16.02-31.14-3.86.35-6.25,33.51-10.12,33.51-3.87,0-6.18-33.17-10.04-33.53-3.85-.36-12.29,31.81-16.1,31.1-3.8-.71.04-33.73-3.69-34.79s-17.95,29.02-21.58,27.61c-3.59-1.39,6.31-33.14,2.83-34.87-3.44-1.72-23.02,25.21-26.33,23.16-3.26-2.02,12.36-31.4,9.25-33.76-3.06-2.31-27.27,20.58-30.16,17.95-2.89-2.63,17.85-28.69,15.26-31.52-2.63-2.88-30.62,15.24-32.93,12.19-2.35-3.1,22.83-24.93,20.81-28.19-2.05-3.3-32.91,9.35-34.63,5.92-1.73-3.47,27.08-20.28,25.69-23.87s-34.08,3.15-35.13-.56c-1.05-3.72,30.36-14.96,29.66-18.75S.35,158.43,0,154.59c-.35-3.84,32.6-9.17,32.61-13.03,0-3.85-32.93-9.27-32.57-13.11.36-3.83,33.73-3.07,34.45-6.87.71-3.78-30.67-15.12-29.61-18.84,1.06-3.7,33.72,3.17,35.13-.44,1.4-3.58-27.34-20.49-25.6-23.96,1.72-3.43,32.54,9.34,34.6,6.04,2.03-3.25-23.08-25.16-20.72-28.26,2.32-3.04,30.27,15.14,32.91,12.27,2.64-2.88-18.04-28.97-15.2-31.55,2.89-2.62,27.04,20.33,30.11,18.03,3.11-2.34-12.41-31.77-9.13-33.79,3.31-2.04,22.8,24.96,26.25,23.26,3.48-1.72-6.3-33.5-2.7-34.88s17.76,28.73,21.48,27.68c3.73-1.05,0-34.08,3.8-34.78,3.81-.7,12.17,31.49,16.02,31.14C135.68,33.16,138.07,0,141.94,0c3.87,0,6.18,33.17,10.04,33.53,3.85.36,12.29-31.81,16.1-31.1,3.8.71-.04,33.73,3.69,34.79,3.71,1.05,17.95-29.02,21.58-27.61,3.59,1.39-6.31,33.14-2.83,34.87,3.44,1.72,23.02-25.21,26.33-23.16,3.26,2.02-12.36,31.4-9.25,33.76,3.06,2.31,27.27-20.58,30.16-17.95Z" fill="#9074b2"/>
  <path d="M246.54,151.43c-.23,2.45-51.01-2.12-51.45.26s48.57,16.33,47.91,18.65c-.67,2.36-49.75-11.37-50.63-9.11-.89,2.28,44.71,24.94,43.62,27.11-1.1,2.19-46.78-20.31-48.07-18.24-1.3,2.08,39.3,32.69,37.82,34.63-1.48,1.95-42.21-28.5-43.87-26.71-1.66,1.8,32.6,39.28,30.78,40.91-1.82,1.64-36.25-35.68-38.21-34.21-1.96,1.47,24.82,44.51,22.73,45.8-2.08,1.28-29.06-41.65-31.26-40.56s16.18,48.27,13.88,49.15c-2.28.88-20.83-46.23-23.2-45.57-2.35.66,6.92,50.39,4.49,50.84-2.4.44-11.84-49.25-14.3-49.03-2.43.22-2.58,50.78-5.06,50.78s-2.52-50.57-4.99-50.8c-2.47-.23-11.9,49.45-14.3,49.01-2.44-.45,6.77-50.18,4.42-50.84-2.38-.67-20.85,46.44-23.13,45.57-2.3-.89,16-48.06,13.81-49.15-2.21-1.09-29.15,41.81-31.23,40.53-2.09-1.29,24.69-44.29,22.73-45.76-1.96-1.47-36.41,35.77-38.23,34.13s32.47-39.04,30.81-40.84c-1.66-1.8-42.4,28.56-43.88,26.62-1.48-1.94,39.12-32.49,37.83-34.57-1.29-2.07-46.96,20.39-48.06,18.2-1.09-2.18,44.47-24.82,43.58-27.09-.89-2.26-49.94,11.47-50.62,9.11s48.34-16.23,47.88-18.64c-.45-2.38-51.23,2.11-51.45-.33-.22-2.41,50.54-7.09,50.54-9.54,0-2.41-50.76-7.24-50.53-9.69.23-2.45,51.01,2.12,51.45-.26.45-2.42-48.57-16.33-47.91-18.65.67-2.36,49.75,11.37,50.63,9.11.89-2.28-44.71-24.94-43.62-27.11,1.1-2.19,46.78,20.31,48.07,18.24,1.3-2.08-39.3-32.69-37.82-34.63,1.48-1.95,42.21,28.5,43.87,26.71,1.66-1.8-32.6-39.28-30.78-40.91,1.82-1.64,36.25,35.68,38.21,34.21,1.96-1.47-24.82-44.51-22.73-45.8,2.08-1.28,29.06,41.65,31.26,40.56,2.19-1.08-16.18-48.27-13.88-49.15,2.28-.88,20.83,46.23,23.2,45.57,2.35-.66-6.92-50.39-4.49-50.84s11.84,49.25,14.3,49.03c2.43-.22,2.58-50.78,5.06-50.78,2.43,0,2.52,50.57,4.99,50.8,2.47.23,11.9-49.45,14.3-49.01,2.44.45-6.77,50.18-4.42,50.84,2.38.67,20.85-46.44,23.13-45.57,2.3.89-16,48.06-13.81,49.15,2.21,1.09,29.15-41.81,31.23-40.53,2.09,1.29-24.69,44.29-22.73,45.76,1.96,1.47,36.41-35.77,38.23-34.13,1.82,1.65-32.47,39.04-30.81,40.84,1.66,1.8,42.4-28.56,43.88-26.62,1.48,1.94-39.12,32.49-37.83,34.57s46.96-20.39,48.06-18.2c1.09,2.18-44.47,24.82-43.58,27.09s49.94-11.47,50.62-9.11c.67,2.33-48.34,16.23-47.88,18.64.45,2.38,51.23-2.11,51.45.33.22,2.41-50.54,7.09-50.54,9.54,0,2.41,50.76,7.24,50.53,9.69Z" fill="#b39aca"/>
  <path d="M180.52,106.64c.97,1.06-7.52,9.91-6.67,11.04.87,1.14,11.75-4.55,12.49-3.35.75,1.22-9.22,8.36-8.59,9.63.64,1.28,12.39-2.31,12.9-.99.51,1.33-10.62,6.52-10.23,7.88.39,1.37,12.6,0,12.86,1.4.26,1.4-11.64,4.46-11.52,5.87.13,1.42,12.39,2.3,12.38,3.72,0,1.42-12.27,2.26-12.4,3.67-.13,1.41,11.76,4.51,11.49,5.91-.26,1.39-12.47-.02-12.86,1.35-.39,1.36,10.73,6.58,10.21,7.91-.51,1.32-12.25-2.31-12.89-1.03-.63,1.26,9.32,8.44,8.57,9.65-.75,1.2-11.61-4.53-12.48-3.39s7.6,10.01,6.63,11.06c-.95,1.04-10.58-6.58-11.64-5.61-1.07.96,5.62,11.23,4.5,12.08-1.15.86-9.22-8.37-10.42-7.63-1.22.75,3.46,12.07,2.19,12.7-1.28.63-7.5-9.92-8.83-9.42-1.34.51,1.16,12.5-.2,12.88-1.38.39-5.53-11.13-6.93-10.88-1.4.26-1.16,12.5-2.58,12.62-1.42.13-3.38-11.96-4.81-11.96-1.43,0-3.44,12.07-4.86,11.94s-1.13-12.37-2.53-12.63-5.59,11.24-6.97,10.85,1.17-12.37-.16-12.88c-1.32-.51-7.57,10.03-8.85,9.39-1.27-.63,3.45-11.94,2.23-12.69-1.2-.75-9.3,8.46-10.45,7.6-1.13-.85,5.6-11.09,4.54-12.06-1.04-.95-10.7,6.62-11.67,5.56-.97-1.06,7.52-9.91,6.67-11.04-.87-1.14-11.75,4.55-12.49,3.35-.75-1.22,9.22-8.36,8.59-9.63-.64-1.28-12.39,2.31-12.9.99-.51-1.33,10.62-6.52,10.23-7.88-.39-1.37-12.6,0-12.86-1.4-.26-1.4,11.64-4.46,11.52-5.87-.13-1.42-12.39-2.3-12.38-3.72,0-1.42,12.27-2.26,12.4-3.67.13-1.41-11.76-4.51-11.49-5.91.26-1.39,12.47.02,12.86-1.35.39-1.36-10.73-6.58-10.21-7.91.51-1.32,12.25,2.31,12.89,1.03.63-1.26-9.32-8.44-8.57-9.65s11.61,4.53,12.48,3.39c.86-1.12-7.6-10.01-6.63-11.06.95-1.04,10.58,6.58,11.64,5.61s-5.62-11.23-4.5-12.08c1.15-.86,9.22,8.37,10.42,7.63,1.22-.75-3.46-12.07-2.19-12.7,1.28-.63,7.5,9.92,8.83,9.42,1.34-.51-1.16-12.5.2-12.88,1.38-.39,5.53,11.13,6.93,10.88,1.4-.26,1.16-12.5,2.58-12.62,1.42-.13,3.38,11.96,4.81,11.96,1.43,0,3.44-12.07,4.86-11.94,1.42.13,1.13,12.37,2.53,12.63,1.4.26,5.59-11.24,6.97-10.85,1.37.39-1.17,12.37.16,12.88,1.32.51,7.57-10.03,8.85-9.39,1.27.63-3.45,11.94-2.23,12.69,1.2.75,9.3-8.46,10.45-7.6,1.13.85-5.6,11.09-4.54,12.06,1.04.95,10.7-6.62,11.67-5.56Z" fill="#cfbbdc"/>
</svg>