<?xml version="1.0" encoding="UTF-8"?>
<svg id="a" data-name="图层 1" xmlns="http://www.w3.org/2000/svg" width="100mm" height="100mm" viewBox="0 0 283.46 283.46">
  <path d="M234.9,57.09c2.33,2.56-18.07,23.91-16.03,26.62,2.08,2.76,28.22-10.97,30.01-8.08,1.81,2.93-22.16,20.18-20.64,23.23,1.53,3.08,29.76-5.58,30.98-2.4,1.24,3.21-25.51,15.72-24.59,19.01.93,3.31,30.27,0,30.89,3.37.62,3.37-27.97,10.75-27.66,14.15.31,3.41,29.76,5.55,29.75,8.97,0,3.43-29.47,5.44-29.79,8.86-.32,3.41,28.24,10.89,27.61,14.26-.63,3.36-29.96-.04-30.9,3.26-.94,3.29,25.77,15.88,24.53,19.08-1.24,3.18-29.44-5.56-30.97-2.49-1.52,3.05,22.4,20.36,20.58,23.28-1.8,2.89-27.89-10.92-29.98-8.18-2.06,2.71,18.26,24.14,15.92,26.68-2.29,2.5-25.41-15.87-27.97-13.54-2.56,2.33,13.51,27.1,10.8,29.14-2.76,2.08-22.15-20.19-25.04-18.4-2.93,1.81,8.32,29.11,5.27,30.63-3.08,1.53-18.03-23.94-21.21-22.71-3.21,1.24,2.8,30.14-.49,31.07-3.31.93-13.29-26.86-16.65-26.24-3.37.62-2.79,30.14-6.2,30.45-3.41.31-8.13-28.84-11.55-28.85-3.43,0-8.26,29.12-11.67,28.8-3.41-.32-2.71-29.84-6.08-30.47-3.36-.63-13.44,27.12-16.74,26.18-3.29-.94,2.81-29.83-.39-31.07-3.18-1.24-18.2,24.19-21.27,22.65-3.05-1.52,8.28-28.79,5.35-30.61-2.89-1.8-22.35,20.41-25.09,18.33-2.71-2.06,13.46-26.76,10.92-29.1-2.5-2.29-25.71,15.97-28.03,13.41-2.33-2.56,18.07-23.91,16.03-26.62-2.08-2.76-28.22,10.97-30.01,8.08-1.81-2.93,22.16-20.18,20.64-23.23-1.53-3.08-29.76,5.58-30.98,2.4-1.24-3.21,25.51-15.72,24.59-19.01-.93-3.31-30.27,0-30.89-3.37-.62-3.37,27.97-10.75,27.66-14.15-.31-3.41-29.76-5.55-29.75-8.97,0-3.43,29.47-5.44,29.79-8.86.32-3.41-28.24-10.89-27.61-14.26.63-3.36,29.96.04,30.9-3.26.94-3.29-25.77-15.88-24.53-19.08,1.24-3.18,29.44,5.56,30.97,2.49,1.52-3.05-22.4-20.36-20.58-23.28s27.89,10.92,29.98,8.18c2.06-2.71-18.26-24.14-15.92-26.68,2.29-2.5,25.41,15.87,27.97,13.54,2.56-2.33-13.51-27.1-10.8-29.14,2.76-2.08,22.15,20.19,25.04,18.4s-8.32-29.11-5.27-30.63c3.08-1.53,18.03,23.94,21.21,22.71,3.21-1.24-2.8-30.14.49-31.07,3.31-.93,13.29,26.86,16.65,26.24,3.37-.62,2.79-30.14,6.2-30.45,3.41-.31,8.13,28.84,11.55,28.85,3.43,0,8.26-29.12,11.67-28.8,3.41.32,2.71,29.84,6.08,30.47,3.36.63,13.44-27.12,16.74-26.18,3.29.94-2.81,29.83.39,31.07,3.18,1.24,18.2-24.19,21.27-22.65,3.05,1.52-8.28,28.79-5.35,30.61,2.89,1.8,22.35-20.41,25.09-18.33,2.71,2.06-13.46,26.76-10.92,29.1,2.5,2.29,25.71-15.97,28.03-13.41Z" fill="#cfbbdc"/>
  <path d="M283.45,154.9c-.31,3.33-68.97-2.87-69.58.35-.61,3.28,65.68,22.17,64.78,25.32-.91,3.2-67.28-15.44-68.47-12.37-1.2,3.1,60.45,33.86,58.98,36.8-1.49,2.97-63.25-27.57-65-24.77-1.76,2.82,53.14,44.38,51.14,47.01-2.01,2.64-57.08-38.7-59.32-36.26-2.24,2.44,44.08,53.33,41.63,55.55-2.46,2.23-49.01-48.44-51.66-46.45-2.65,1.99,33.56,60.44,30.74,62.18-2.82,1.74-39.29-56.55-42.27-55.07-2.97,1.47,21.87,65.53,18.77,66.73-3.09,1.19-28.16-62.77-31.37-61.87-3.18.9,9.35,68.42,6.07,69.03-3.25.6-16.01-66.87-19.34-66.57-3.28.3-3.49,68.95-6.84,68.94-3.29,0-3.4-68.66-6.74-68.97-3.34-.31-16.1,67.15-19.33,66.55-3.29-.61,9.15-68.13,5.98-69.02-3.22-.91-28.19,63.06-31.27,61.87-3.12-1.2,21.64-65.26,18.68-66.73-2.99-1.48-39.42,56.77-42.23,55.03-2.83-1.75,33.38-60.14,30.74-62.13-2.65-2-49.24,48.57-51.69,46.34-2.46-2.23,43.9-53.01,41.67-55.46-2.24-2.45-57.33,38.78-59.34,36.14-2-2.64,52.9-44.12,51.15-46.93-1.75-2.81-63.49,27.68-64.98,24.71-1.48-2.95,60.14-33.69,58.93-36.79-1.2-3.07-67.53,15.57-68.45,12.38-.91-3.17,65.36-22.04,64.75-25.31-.61-3.23-69.27,2.87-69.57-.45-.3-3.27,68.34-9.62,68.34-12.96,0-3.28-68.63-9.83-68.32-13.16.31-3.33,68.97,2.87,69.58-.35.61-3.28-65.68-22.17-64.78-25.32.91-3.2,67.28,15.44,68.47,12.37,1.2-3.1-60.45-33.86-58.98-36.8,1.49-2.97,63.25,27.57,65,24.77S26.15,58.85,28.15,56.22c2.01-2.64,57.08,38.7,59.32,36.26,2.24-2.44-44.08-53.33-41.63-55.55,2.46-2.23,49.01,48.44,51.66,46.45,2.65-1.99-33.56-60.44-30.74-62.18,2.82-1.74,39.29,56.55,42.27,55.07,2.97-1.47-21.87-65.53-18.77-66.73,3.09-1.19,28.16,62.77,31.37,61.87,3.18-.9-9.35-68.42-6.07-69.03,3.25-.6,16.01,66.87,19.34,66.57C138.19,68.65,138.4,0,141.75,0c3.29,0,3.4,68.66,6.74,68.97,3.34.31,16.1-67.15,19.33-66.55,3.29.61-9.15,68.13-5.98,69.02,3.22.91,28.19-63.06,31.27-61.87,3.12,1.2-21.64,65.26-18.68,66.73,2.99,1.48,39.42-56.77,42.23-55.03,2.83,1.75-33.38,60.14-30.74,62.13,2.65,2,49.24-48.57,51.69-46.34,2.46,2.23-43.9,53.01-41.67,55.46,2.24,2.45,57.33-38.78,59.34-36.14,2,2.64-52.9,44.12-51.15,46.93,1.75,2.81,63.49-27.68,64.98-24.71,1.48,2.95-60.14,33.69-58.93,36.79,1.2,3.07,67.53-15.57,68.45-12.38.91,3.17-65.36,22.04-64.75,25.31.61,3.23,69.27-2.87,69.57.45.3,3.27-68.34,9.62-68.34,12.96,0,3.28,68.63,9.83,68.32,13.16Z" fill="#b39aca"/>
  <path d="M199.05,79.05c1.72,1.58-10.65,17.19-9.11,18.89,1.57,1.72,18.27-9.13,19.66-7.3,1.4,1.86-13.63,14.94-12.42,16.89,1.22,1.98,19.64-5.61,20.67-3.55,1.03,2.08-16.16,12.15-15.33,14.3.83,2.16,20.34-1.89,20.97.33.63,2.23-18.12,8.97-17.7,11.24.42,2.28,20.34,1.87,20.55,4.17s-19.46,5.5-19.46,7.81c0,2.31,19.66,5.55,19.44,7.86-.21,2.3-20.13,1.84-20.56,4.12-.42,2.27,18.31,9.06,17.67,11.29-.63,2.21-20.13-1.9-20.97.26-.83,2.14,16.32,12.28,15.28,14.36-1.03,2.05-19.42-5.6-20.65-3.62-1.21,1.95,13.77,15.08,12.36,16.93-1.38,1.82-18.06-9.07-19.64-7.35-1.58,1.72,10.77,17.36,9.07,18.9-1.72,1.57-16.14-12.18-17.97-10.8-1.86,1.4,7.4,19.04,5.45,20.25-1.98,1.22-13.6-14.96-15.67-13.94-2.08,1.03,3.76,20.08,1.61,20.91-2.16.83-10.6-17.22-12.82-16.59-2.23.63,0,20.43-2.27,20.85-2.28.42-7.26-18.87-9.56-18.66-2.3.21-3.73,20.08-6.04,20.08-2.31,0-3.69-19.88-5.99-20.09-2.3-.21-7.34,19.06-9.61,18.64-2.27-.42.03-20.22-2.2-20.85s-10.72,17.39-12.88,16.55c-2.14-.83,3.76-19.86,1.69-20.9-2.05-1.03-13.74,15.11-15.72,13.88s7.37-18.82,5.52-20.23c-1.82-1.38-16.27,12.33-18,10.76-1.72-1.58,10.65-17.19,9.11-18.89-1.57-1.72-18.27,9.13-19.66,7.3-1.4-1.86,13.63-14.94,12.42-16.89-1.22-1.98-19.64,5.61-20.67,3.55-1.03-2.08,16.16-12.15,15.33-14.3-.83-2.16-20.34,1.89-20.97-.33-.63-2.23,18.12-8.97,17.7-11.24-.42-2.28-20.34-1.87-20.55-4.17-.21-2.3,19.46-5.5,19.46-7.81,0-2.31-19.66-5.55-19.44-7.86.21-2.3,20.13-1.84,20.56-4.12.42-2.27-18.31-9.06-17.67-11.29.63-2.21,20.13,1.9,20.97-.26.83-2.14-16.32-12.28-15.28-14.36,1.03-2.05,19.42,5.6,20.65,3.62,1.21-1.95-13.77-15.08-12.36-16.93,1.38-1.82,18.06,9.07,19.64,7.35,1.58-1.72-10.77-17.36-9.07-18.9,1.72-1.57,16.14,12.18,17.97,10.8,1.86-1.4-7.4-19.04-5.45-20.25,1.98-1.22,13.6,14.96,15.67,13.94,2.08-1.03-3.76-20.08-1.61-20.91s10.6,17.22,12.82,16.59c2.23-.63,0-20.43,2.27-20.85,2.28-.42,7.26,18.87,9.56,18.66,2.3-.21,3.73-20.08,6.04-20.08,2.31,0,3.69,19.88,5.99,20.09,2.3.21,7.34-19.06,9.61-18.64,2.27.42-.03,20.22,2.2,20.85,2.21.63,10.72-17.39,12.88-16.55,2.14.83-3.76,19.86-1.69,20.9,2.05,1.03,13.74-15.11,15.72-13.88,1.95,1.21-7.37,18.82-5.52,20.23,1.82,1.38,16.27-12.33,18-10.76Z" fill="#9074b2"/>
  <path d="M222.88,141.73c0,1.91-39.31,2.02-39.48,3.88-.17,1.9,38.46,9.16,38.11,11.01-.35,1.88-39.01-5.24-39.52-3.43-.52,1.83,36.11,16.1,35.42,17.86-.69,1.77-37.36-12.37-38.21-10.68-.85,1.7,32.51,22.49,31.52,24.1-1,1.61-34.45-19.04-35.59-17.53s27.84,28.07,26.56,29.47c-1.28,1.4-30.38-25.02-31.78-23.75-1.4,1.28,22.24,32.68,20.73,33.83-1.51,1.14-25.29-30.16-26.9-29.16-1.61,1,15.87,36.21,14.17,37.05-1.69.84-19.3-34.3-21.07-33.61s8.92,38.51,7.09,39.03c-1.81.51-12.61-37.28-14.49-36.93-1.85.34,1.66,39.5-.25,39.67-1.87.17-5.55-38.96-7.47-38.96-1.91,0-5.6,39.14-7.47,38.96-1.9-.17,1.6-39.33-.25-39.67-1.88-.35-12.68,37.45-14.49,36.93-1.83-.52,8.84-38.35,7.09-39.03-1.77-.69-19.38,34.45-21.07,33.61-1.7-.85,15.78-36.06,14.17-37.05-1.61-1-25.39,30.3-26.9,29.16-1.51-1.14,22.13-32.55,20.73-33.83-1.4-1.28-30.5,25.15-31.78,23.75-1.28-1.4,27.71-27.95,26.56-29.47-1.14-1.51-34.59,19.14-35.59,17.53-1-1.61,32.36-22.4,31.52-24.09-.84-1.69-37.52,12.45-38.21,10.68s35.94-16.03,35.42-17.86c-.51-1.81-39.17,5.3-39.52,3.43s38.29-9.11,38.11-11.01c-.17-1.87-39.48-1.97-39.48-3.88,0-1.91,39.31-2.02,39.48-3.88.17-1.9-38.46-9.16-38.11-11.01.35-1.88,39.01,5.24,39.52,3.43.52-1.83-36.11-16.1-35.42-17.86.69-1.77,37.36,12.37,38.21,10.68.85-1.7-32.51-22.49-31.52-24.1,1-1.61,34.45,19.04,35.59,17.53s-27.84-28.07-26.56-29.47c1.28-1.4,30.38,25.02,31.78,23.75,1.4-1.28-22.24-32.68-20.73-33.83,1.51-1.14,25.29,30.16,26.9,29.16s-15.87-36.21-14.17-37.05c1.69-.84,19.3,34.3,21.07,33.61,1.76-.68-8.92-38.51-7.09-39.03,1.81-.51,12.61,37.28,14.49,36.93s-1.66-39.5.25-39.67c1.87-.17,5.55,38.96,7.47,38.96,1.91,0,5.6-39.14,7.47-38.96,1.9.17-1.6,39.33.25,39.67,1.88.35,12.68-37.45,14.49-36.93,1.83.52-8.84,38.35-7.09,39.03,1.77.69,19.38-34.45,21.07-33.61,1.7.85-15.78,36.06-14.17,37.05,1.61,1,25.39-30.3,26.9-29.16,1.51,1.14-22.13,32.55-20.73,33.83,1.4,1.28,30.5-25.15,31.78-23.75s-27.71,27.95-26.56,29.47c1.14,1.51,34.59-19.14,35.59-17.53,1,1.61-32.36,22.4-31.52,24.09.84,1.69,37.52-12.45,38.21-10.68.68,1.76-35.94,16.03-35.42,17.86.51,1.81,39.17-5.3,39.52-3.43.34,1.85-38.29,9.11-38.11,11.01.17,1.87,39.48,1.97,39.48,3.88Z" fill="#653a8e"/>
</svg>