<?xml version="1.0" encoding="UTF-8"?>
<svg id="a" data-name="图层 1" xmlns="http://www.w3.org/2000/svg" width="100mm" height="100mm" viewBox="0 0 283.46 283.46">
  <path d="M283.45,154.9c-.31,3.33-68.97-2.87-69.58.35-.61,3.28,65.68,22.17,64.78,25.32-.91,3.2-67.28-15.44-68.47-12.37-1.2,3.1,60.45,33.86,58.98,36.8-1.49,2.97-63.25-27.57-65-24.77-1.76,2.82,53.14,44.38,51.14,47.01-2.01,2.64-57.08-38.7-59.32-36.26-2.24,2.44,44.08,53.33,41.63,55.55-2.46,2.23-49.01-48.44-51.66-46.45-2.65,1.99,33.56,60.44,30.74,62.18-2.82,1.74-39.29-56.55-42.27-55.07-2.97,1.47,21.87,65.53,18.77,66.73-3.09,1.19-28.16-62.77-31.37-61.87-3.18.9,9.35,68.42,6.07,69.03-3.25.6-16.01-66.87-19.34-66.57-3.28.3-3.49,68.95-6.84,68.94-3.29,0-3.4-68.66-6.74-68.97-3.34-.31-16.1,67.15-19.33,66.55-3.29-.61,9.15-68.13,5.98-69.02-3.22-.91-28.19,63.06-31.27,61.87-3.12-1.2,21.64-65.26,18.68-66.73-2.99-1.48-39.42,56.77-42.23,55.03-2.83-1.75,33.38-60.14,30.74-62.13-2.65-2-49.24,48.57-51.69,46.34-2.46-2.23,43.9-53.01,41.67-55.46-2.24-2.45-57.33,38.78-59.34,36.14-2-2.64,52.9-44.12,51.15-46.93-1.75-2.81-63.49,27.68-64.98,24.71-1.48-2.95,60.14-33.69,58.93-36.79-1.2-3.07-67.53,15.57-68.45,12.38-.91-3.17,65.36-22.04,64.75-25.31-.61-3.23-69.27,2.87-69.57-.45-.3-3.27,68.34-9.62,68.34-12.96,0-3.28-68.63-9.83-68.32-13.16.31-3.33,68.97,2.87,69.58-.35.61-3.28-65.68-22.17-64.78-25.32.91-3.2,67.28,15.44,68.47,12.37,1.2-3.1-60.45-33.86-58.98-36.8,1.49-2.97,63.25,27.57,65,24.77,1.76-2.82-53.14-44.38-51.14-47.01,2.01-2.64,57.08,38.7,59.32,36.26,2.24-2.44-44.08-53.33-41.63-55.55,2.46-2.23,49.01,48.44,51.66,46.45,2.65-1.99-33.56-60.44-30.74-62.18,2.82-1.74,39.29,56.55,42.27,55.07,2.97-1.47-21.87-65.53-18.77-66.73,3.09-1.19,28.16,62.77,31.37,61.87,3.18-.9-9.35-68.42-6.07-69.03,3.25-.6,16.01,66.87,19.34,66.57C138.19,68.65,138.4,0,141.75,0c3.29,0,3.4,68.66,6.74,68.97,3.34.31,16.1-67.15,19.33-66.55,3.29.61-9.15,68.13-5.98,69.02,3.22.91,28.19-63.06,31.27-61.87,3.12,1.2-21.64,65.26-18.68,66.73,2.99,1.48,39.42-56.77,42.23-55.03,2.83,1.75-33.38,60.14-30.74,62.13,2.65,2,49.24-48.57,51.69-46.34,2.46,2.23-43.9,53.01-41.67,55.46,2.24,2.45,57.33-38.78,59.34-36.14,2,2.64-52.9,44.12-51.15,46.93,1.75,2.81,63.49-27.68,64.98-24.71,1.48,2.95-60.14,33.69-58.93,36.79,1.2,3.07,67.53-15.57,68.45-12.38.91,3.17-65.36,22.04-64.75,25.31.61,3.23,69.27-2.87,69.57.45.3,3.27-68.34,9.62-68.34,12.96,0,3.28,68.63,9.83,68.32,13.16Z" fill="#b39aca"/>
  <path d="M234.27,57.67c2.31,2.54-17.95,23.75-15.92,26.44,2.07,2.74,28.03-10.9,29.8-8.03,1.8,2.91-22.01,20.04-20.5,23.07,1.52,3.06,29.55-5.54,30.77-2.38,1.23,3.19-25.34,15.61-24.42,18.88.93,3.28,30.07,0,30.68,3.34.62,3.35-27.78,10.67-27.48,14.06.31,3.39,29.55,5.51,29.55,8.91,0,3.4-29.26,5.41-29.58,8.79-.32,3.38,28.05,10.82,27.42,14.16-.63,3.34-29.76-.04-30.69,3.23-.93,3.26,25.59,15.77,24.36,18.95-1.23,3.16-29.24-5.53-30.76-2.47-1.51,3.03,22.25,20.22,20.44,23.12-1.79,2.87-27.7-10.85-29.78-8.12-2.04,2.69,18.13,23.97,15.81,26.5-2.28,2.48-25.24-15.76-27.78-13.45-2.54,2.31,13.42,26.91,10.73,28.94-2.74,2.07-22-20.05-24.87-18.28-2.91,1.8,8.26,28.91,5.23,30.42-3.06,1.52-17.9-23.78-21.06-22.56-3.19,1.23,2.78,29.94-.49,30.86-3.28.93-13.2-26.68-16.53-26.06-3.35.62-2.78,29.94-6.16,30.24-3.39.31-8.07-28.65-11.47-28.65-3.4,0-8.2,28.92-11.59,28.61-3.38-.32-2.7-29.64-6.04-30.27-3.34-.63-13.35,26.94-16.62,26-3.26-.93,2.79-29.62-.39-30.86-3.16-1.23-18.07,24.03-21.13,22.5-3.03-1.51,8.22-28.59,5.32-30.4-2.87-1.79-22.2,20.27-24.92,18.2-2.69-2.04,13.37-26.58,10.84-28.9-2.48-2.28-25.53,15.86-27.84,13.32-2.31-2.54,17.95-23.75,15.92-26.44-2.07-2.74-28.03,10.9-29.8,8.03-1.8-2.91,22.01-20.04,20.5-23.07-1.52-3.06-29.55,5.54-30.77,2.38-1.23-3.19,25.34-15.61,24.42-18.88-.93-3.28-30.07,0-30.68-3.34-.62-3.35,27.78-10.67,27.48-14.06-.31-3.39-29.55-5.51-29.55-8.91,0-3.4,29.26-5.41,29.58-8.79.32-3.38-28.05-10.82-27.42-14.16.63-3.34,29.76.04,30.69-3.23.93-3.26-25.59-15.77-24.36-18.95,1.23-3.16,29.24,5.53,30.76,2.47,1.51-3.03-22.25-20.22-20.44-23.12,1.79-2.87,27.7,10.85,29.78,8.12,2.04-2.69-18.13-23.97-15.81-26.5,2.28-2.48,25.24,15.76,27.78,13.45,2.54-2.31-13.42-26.91-10.73-28.94,2.74-2.07,22,20.05,24.87,18.28s-8.26-28.91-5.23-30.42c3.06-1.52,17.9,23.78,21.06,22.56,3.19-1.23-2.78-29.94.49-30.86,3.28-.93,13.2,26.68,16.53,26.06,3.35-.62,2.78-29.94,6.16-30.24,3.39-.31,8.07,28.65,11.47,28.65,3.4,0,8.2-28.92,11.59-28.61s2.7,29.64,6.04,30.27c3.34.63,13.35-26.94,16.62-26,3.26.93-2.79,29.62.39,30.86,3.16,1.23,18.07-24.03,21.13-22.5,3.03,1.51-8.22,28.59-5.32,30.4,2.87,1.79,22.2-20.27,24.92-18.2,2.69,2.04-13.37,26.58-10.84,28.9,2.48,2.28,25.53-15.86,27.84-13.32Z" fill="#cfbbdc"/>
  <path d="M253.85,141.73c0,2.64-54.31,2.78-54.55,5.37s53.13,12.66,52.66,15.21c-.48,2.59-53.89-7.24-54.61-4.73-.72,2.53,49.88,22.25,48.94,24.67s-51.62-17.09-52.79-14.76c-1.17,2.35,44.92,31.07,43.54,33.29-1.38,2.23-47.59-26.31-49.17-24.22-1.58,2.09,38.46,38.78,36.7,40.71-1.76,1.93-41.97-34.57-43.91-32.81-1.93,1.76,30.73,45.15,28.64,46.73-2.08,1.58-34.94-41.67-37.17-40.29-2.22,1.38,21.93,50.02,19.58,51.19-2.33,1.16-26.66-47.39-29.11-46.44-2.43.94,12.32,53.21,9.79,53.93-2.5.71-17.43-51.51-20.02-51.02-2.55.47,2.29,54.57-.34,54.81-2.58.24-7.67-53.83-10.32-53.83-2.64,0-7.73,54.07-10.32,53.83-2.63-.24,2.21-54.34-.34-54.81-2.59-.48-17.52,51.73-20.02,51.02-2.53-.72,12.22-52.99,9.79-53.93-2.45-.95-26.78,47.6-29.11,46.44-2.35-1.17,21.8-49.82,19.58-51.19-2.23-1.38-35.08,41.86-37.17,40.29-2.09-1.58,30.57-44.97,28.64-46.73-1.93-1.76-42.14,34.74-43.91,32.81-1.76-1.93,38.28-38.62,36.7-40.71-1.58-2.08-47.79,26.45-49.17,24.22-1.38-2.22,44.71-30.94,43.54-33.29-1.16-2.33-51.84,17.21-52.79,14.76-.94-2.43,49.66-22.14,48.94-24.67-.71-2.5-54.12,7.33-54.61,4.74-.47-2.55,52.9-12.58,52.66-15.21-.24-2.58-54.55-2.72-54.55-5.37,0-2.64,54.31-2.78,54.55-5.37.24-2.63-53.13-12.66-52.66-15.21.48-2.59,53.89,7.24,54.61,4.73.72-2.53-49.88-22.25-48.94-24.67.95-2.45,51.62,17.09,52.79,14.76,1.17-2.35-44.92-31.07-43.54-33.29,1.38-2.23,47.59,26.31,49.17,24.22,1.58-2.09-38.46-38.78-36.7-40.71,1.76-1.93,41.97,34.57,43.91,32.81,1.93-1.76-30.73-45.15-28.64-46.73s34.94,41.67,37.17,40.29c2.22-1.38-21.93-50.02-19.58-51.19,2.33-1.16,26.66,47.39,29.11,46.44,2.43-.94-12.32-53.21-9.79-53.93,2.5-.71,17.43,51.51,20.02,51.02s-2.29-54.57.34-54.81c2.58-.24,7.67,53.83,10.32,53.83,2.64,0,7.73-54.07,10.32-53.83,2.63.24-2.21,54.34.34,54.81,2.59.48,17.52-51.73,20.02-51.02,2.53.72-12.22,52.99-9.79,53.93,2.45.95,26.78-47.6,29.11-46.44,2.35,1.17-21.8,49.82-19.58,51.19,2.23,1.38,35.08-41.86,37.17-40.29,2.09,1.58-30.57,44.97-28.64,46.73,1.93,1.76,42.14-34.74,43.91-32.81,1.76,1.93-38.28,38.62-36.7,40.71,1.58,2.08,47.79-26.45,49.17-24.22,1.38,2.22-44.71,30.94-43.54,33.29,1.16,2.33,51.84-17.21,52.79-14.76.94,2.43-49.66,22.14-48.94,24.67.71,2.5,54.12-7.33,54.61-4.74.47,2.55-52.9,12.58-52.66,15.21.24,2.58,54.55,2.72,54.55,5.37Z" fill="#653a8e"/>
  <path d="M168.16,112.83c.79.73-4.91,7.93-4.2,8.71.72.79,8.43-4.21,9.06-3.37.65.86-6.28,6.89-5.73,7.79.56.91,9.06-2.58,9.53-1.63.48.96-7.45,5.6-7.07,6.59s9.38-.87,9.67.15c.29,1.03-8.36,4.13-8.16,5.18.19,1.05,9.38.86,9.47,1.92s-8.97,2.53-8.97,3.6,9.06,2.56,8.96,3.62-9.28.85-9.48,1.9c-.2,1.04,8.44,4.18,8.15,5.21-.29,1.02-9.28-.88-9.67.12s7.52,5.66,7.04,6.62c-.47.95-8.95-2.58-9.52-1.67s6.35,6.95,5.7,7.81c-.64.84-8.33-4.18-9.05-3.39-.73.79,4.96,8,4.18,8.72-.79.72-7.44-5.62-8.29-4.98-.86.65,3.41,8.78,2.51,9.33-.91.56-6.27-6.9-7.22-6.43-.96.48,1.73,9.26.74,9.64-1,.38-4.89-7.94-5.91-7.65-1.03.29,0,9.42-1.04,9.61-1.05.19-3.35-8.7-4.41-8.6-1.06.1-1.72,9.26-2.78,9.26-1.06,0-1.7-9.17-2.76-9.26-1.06-.1-3.38,8.79-4.43,8.59-1.04-.2.01-9.32-1.02-9.61s-4.94,8.02-5.94,7.63c-.99-.38,1.74-9.16.78-9.64-.95-.47-6.34,6.97-7.25,6.4-.9-.56,3.4-8.68,2.54-9.33-.84-.64-7.5,5.69-8.3,4.96s4.91-7.93,4.2-8.71c-.72-.79-8.43,4.21-9.06,3.37s6.28-6.89,5.73-7.79-9.06,2.58-9.53,1.63c-.48-.96,7.45-5.6,7.07-6.59-.38-1-9.38.87-9.67-.15-.29-1.03,8.36-4.13,8.16-5.18s-9.38-.86-9.47-1.92c-.1-1.06,8.97-2.53,8.97-3.6,0-1.06-9.06-2.56-8.96-3.62.1-1.06,9.28-.85,9.48-1.9.2-1.04-8.44-4.18-8.15-5.21s9.28.88,9.67-.12c.38-.99-7.52-5.66-7.04-6.62s8.95,2.58,9.52,1.67c.56-.9-6.35-6.95-5.7-7.81.64-.84,8.33,4.18,9.05,3.39.73-.79-4.96-8-4.18-8.72.79-.72,7.44,5.62,8.29,4.98s-3.41-8.78-2.51-9.33c.91-.56,6.27,6.9,7.22,6.43.96-.48-1.73-9.26-.74-9.64,1-.38,4.89,7.94,5.91,7.65,1.03-.29,0-9.42,1.04-9.61,1.05-.19,3.35,8.7,4.41,8.6,1.06-.1,1.72-9.26,2.78-9.26,1.06,0,1.7,9.17,2.76,9.26,1.06.1,3.38-8.79,4.43-8.59s-.01,9.32,1.02,9.61c1.02.29,4.94-8.02,5.94-7.63s-1.74,9.16-.78,9.64c.95.47,6.34-6.97,7.25-6.4.9.56-3.4,8.68-2.54,9.33s7.5-5.69,8.3-4.96Z" fill="#9074b2"/>
</svg>