<?xml version="1.0" encoding="UTF-8"?>
<svg id="a" data-name="图层 1" xmlns="http://www.w3.org/2000/svg" width="100mm" height="100mm" viewBox="0 0 283.46 283.46">
  <path d="M283.45,154.9c-.31,3.33-68.97-2.87-69.58.35-.61,3.28,65.68,22.17,64.78,25.32-.91,3.2-67.28-15.44-68.47-12.37-1.2,3.1,60.45,33.86,58.98,36.8-1.49,2.97-63.25-27.57-65-24.77-1.76,2.82,53.14,44.38,51.14,47.01-2.01,2.64-57.08-38.7-59.32-36.26-2.24,2.44,44.08,53.33,41.63,55.55-2.46,2.23-49.01-48.44-51.66-46.45-2.65,1.99,33.56,60.44,30.74,62.18-2.82,1.74-39.29-56.55-42.27-55.07-2.97,1.47,21.87,65.53,18.77,66.73-3.09,1.19-28.16-62.77-31.37-61.87-3.18.9,9.35,68.42,6.07,69.03-3.25.6-16.01-66.87-19.34-66.57-3.28.3-3.49,68.95-6.84,68.94-3.29,0-3.4-68.66-6.74-68.97-3.34-.31-16.1,67.15-19.33,66.55s9.15-68.13,5.98-69.02c-3.22-.91-28.19,63.06-31.27,61.87-3.12-1.2,21.64-65.26,18.68-66.73-2.99-1.48-39.42,56.77-42.23,55.03-2.83-1.75,33.38-60.14,30.74-62.13-2.65-2-49.24,48.57-51.69,46.34s43.9-53.01,41.67-55.46c-2.24-2.45-57.33,38.78-59.34,36.14-2-2.64,52.9-44.12,51.15-46.93-1.75-2.81-63.49,27.68-64.98,24.71-1.48-2.95,60.14-33.69,58.93-36.79-1.2-3.07-67.53,15.57-68.45,12.38-.91-3.17,65.36-22.04,64.75-25.31-.61-3.23-69.27,2.87-69.57-.45-.3-3.27,68.34-9.62,68.34-12.96,0-3.28-68.63-9.83-68.32-13.16.31-3.33,68.97,2.87,69.58-.35.61-3.28-65.68-22.17-64.78-25.32.91-3.2,67.28,15.44,68.47,12.37,1.2-3.1-60.45-33.86-58.98-36.8,1.49-2.97,63.25,27.57,65,24.77,1.76-2.82-53.14-44.38-51.14-47.01,2.01-2.64,57.08,38.7,59.32,36.26,2.24-2.44-44.08-53.33-41.63-55.55,2.46-2.23,49.01,48.44,51.66,46.45,2.65-1.99-33.56-60.44-30.74-62.18,2.82-1.74,39.29,56.55,42.27,55.07,2.97-1.47-21.87-65.53-18.77-66.73,3.09-1.19,28.16,62.77,31.37,61.87,3.18-.9-9.35-68.42-6.07-69.03s16.01,66.87,19.34,66.57C138.19,68.65,138.4,0,141.75,0c3.29,0,3.4,68.66,6.74,68.97,3.34.31,16.1-67.15,19.33-66.55,3.29.61-9.15,68.13-5.98,69.02,3.22.91,28.19-63.06,31.27-61.87,3.12,1.2-21.64,65.26-18.68,66.73,2.99,1.48,39.42-56.77,42.23-55.03,2.83,1.75-33.38,60.14-30.74,62.13s49.24-48.57,51.69-46.34c2.46,2.23-43.9,53.01-41.67,55.46,2.24,2.45,57.33-38.78,59.34-36.14,2,2.64-52.9,44.12-51.15,46.93,1.75,2.81,63.49-27.68,64.98-24.71,1.48,2.95-60.14,33.69-58.93,36.79,1.2,3.07,67.53-15.57,68.45-12.38.91,3.17-65.36,22.04-64.75,25.31.61,3.23,69.27-2.87,69.57.45.3,3.27-68.34,9.62-68.34,12.96,0,3.28,68.63,9.83,68.32,13.16Z" fill="#b39aca"/>
  <path d="M274.49,141.73c0,3.13-64.31,3.3-64.59,6.36-.28,3.11,62.92,14.99,62.36,18.01-.57,3.07-63.82-8.57-64.66-5.61-.85,3,59.07,26.34,57.95,29.22-1.12,2.9-61.13-20.24-62.51-17.47-1.39,2.78,53.19,36.79,51.56,39.42-1.64,2.64-56.36-31.15-58.22-28.68-1.87,2.47,45.54,45.92,43.46,48.21-2.09,2.29-49.7-40.94-51.99-38.85-2.29,2.09,36.39,53.47,33.91,55.34-2.47,1.87-41.37-49.34-44.01-47.71-2.63,1.63,25.97,59.23,23.19,60.62-2.76,1.38-31.57-56.11-34.47-54.99-2.88,1.11,14.59,63.01,11.59,63.86s-20.64-60.99-23.7-60.42c-3.02.56,2.71,64.62-.4,64.9-3.06.28-9.08-63.75-12.22-63.75-3.13,0-9.16,64.03-12.21,63.75-3.11-.28,2.62-64.34-.4-64.9-3.07-.57-20.74,61.26-23.71,60.42-3-.85,14.47-62.74,11.59-63.86-2.9-1.12-31.71,56.37-34.48,54.99-2.78-1.39,25.82-58.99,23.19-60.62-2.64-1.64-41.54,49.57-44.01,47.7-2.47-1.87,36.2-53.25,33.92-55.34-2.29-2.09-49.91,41.14-51.99,38.85-2.09-2.29,45.33-45.73,43.46-48.21-1.87-2.47-56.59,31.32-58.22,28.68-1.63-2.63,52.95-36.64,51.56-39.42-1.38-2.76-61.38,20.38-62.51,17.47-1.11-2.88,58.81-26.22,57.95-29.22-.84-2.96-64.09,8.67-64.66,5.61-.56-3.02,62.64-14.9,62.36-18.01-.28-3.06-64.59-3.22-64.59-6.36,0-3.13,64.31-3.3,64.59-6.36.28-3.11-62.92-14.99-62.36-18.01.57-3.07,63.82,8.57,64.66,5.61.85-3-59.07-26.34-57.95-29.22,1.12-2.9,61.13,20.24,62.51,17.47,1.39-2.78-53.19-36.79-51.56-39.42,1.64-2.64,56.36,31.15,58.22,28.68,1.87-2.47-45.54-45.92-43.46-48.21s49.7,40.94,51.99,38.85c2.29-2.09-36.39-53.47-33.91-55.34,2.47-1.87,41.37,49.34,44.01,47.71,2.63-1.63-25.97-59.23-23.19-60.62,2.76-1.38,31.57,56.11,34.47,54.99,2.88-1.11-14.59-63.01-11.59-63.86,2.96-.84,20.64,60.99,23.7,60.42,3.02-.56-2.71-64.62.4-64.9,3.06-.28,9.08,63.75,12.22,63.75,3.13,0,9.16-64.03,12.21-63.75,3.11.28-2.62,64.34.4,64.9,3.07.57,20.74-61.26,23.71-60.42,3,.85-14.47,62.74-11.59,63.86,2.9,1.12,31.71-56.37,34.48-54.99,2.78,1.39-25.82,58.99-23.19,60.62,2.64,1.64,41.54-49.57,44.01-47.7,2.47,1.87-36.2,53.25-33.92,55.34,2.29,2.09,49.91-41.14,51.99-38.85,2.09,2.29-45.33,45.73-43.46,48.21,1.87,2.47,56.59-31.32,58.22-28.68,1.63,2.63-52.95,36.64-51.56,39.42s61.38-20.38,62.51-17.47c1.11,2.88-58.81,26.22-57.95,29.22.84,2.96,64.09-8.67,64.66-5.61.56,3.02-62.64,14.9-62.36,18.01.28,3.06,64.59,3.22,64.59,6.36Z" fill="#653a8e"/>
  <path d="M201.8,87.17c1.5,1.65-11.65,15.42-10.33,17.16,1.34,1.78,18.19-7.07,19.34-5.21,1.17,1.89-14.28,13.01-13.31,14.97.99,1.99,19.18-3.6,19.97-1.55.8,2.07-16.45,10.13-15.85,12.25.6,2.13,19.52,0,19.91,2.17.4,2.18-18.03,6.93-17.83,9.12.2,2.2,19.18,3.58,19.18,5.79,0,2.21-19,3.51-19.2,5.71-.21,2.2,18.21,7.02,17.8,9.19-.41,2.17-19.32-.03-19.92,2.1-.6,2.12,16.61,10.24,15.81,12.3-.8,2.05-18.98-3.59-19.97-1.6-.98,1.97,14.44,13.13,13.27,15.01-1.16,1.86-17.98-7.04-19.33-5.27-1.33,1.74,11.77,15.56,10.27,17.2-1.48,1.61-16.38-10.23-18.03-8.73-1.65,1.5,8.71,17.47,6.96,18.79-1.78,1.34-14.28-13.02-16.14-11.86-1.89,1.17,5.36,18.77,3.4,19.74-1.99.99-11.62-15.43-13.67-14.64-2.07.8,1.8,19.43-.32,20.03-2.13.6-8.56-17.32-10.73-16.92-2.18.4-1.8,19.43-4,19.63-2.2.2-5.24-18.59-7.45-18.6-2.21,0-5.32,18.77-7.52,18.57-2.2-.21-1.75-19.24-3.92-19.65-2.17-.41-8.66,17.49-10.79,16.88-2.12-.6,1.81-19.23-.25-20.03-2.05-.8-11.73,15.59-13.71,14.6-1.97-.98,5.34-18.56,3.45-19.73-1.86-1.16-14.41,13.16-16.18,11.81-1.74-1.33,8.68-17.25,7.04-18.76-1.61-1.48-16.57,10.3-18.07,8.64-1.5-1.65,11.65-15.42,10.33-17.16-1.34-1.78-18.19,7.07-19.34,5.21-1.17-1.89,14.28-13.01,13.31-14.97-.99-1.99-19.18,3.6-19.97,1.55-.8-2.07,16.45-10.13,15.85-12.25-.6-2.13-19.52,0-19.91-2.17s18.03-6.93,17.83-9.12c-.2-2.2-19.18-3.58-19.18-5.79,0-2.21,19-3.51,19.2-5.71.21-2.2-18.21-7.02-17.8-9.19.41-2.17,19.32.03,19.92-2.1.6-2.12-16.61-10.24-15.81-12.3.8-2.05,18.98,3.59,19.97,1.6s-14.44-13.13-13.27-15.01c1.16-1.86,17.98,7.04,19.33,5.27,1.33-1.74-11.77-15.56-10.27-17.2,1.48-1.61,16.38,10.23,18.03,8.73,1.65-1.5-8.71-17.47-6.96-18.79,1.78-1.34,14.28,13.02,16.14,11.86,1.89-1.17-5.36-18.77-3.4-19.74,1.99-.99,11.62,15.43,13.67,14.64,2.07-.8-1.8-19.43.32-20.03,2.13-.6,8.56,17.32,10.73,16.92,2.18-.4,1.8-19.43,4-19.63,2.2-.2,5.24,18.59,7.45,18.6,2.21,0,5.32-18.77,7.52-18.57,2.2.21,1.75,19.24,3.92,19.65,2.17.41,8.66-17.49,10.79-16.88,2.12.6-1.81,19.23.25,20.03,2.05.8,11.73-15.59,13.71-14.6,1.97.98-5.34,18.56-3.45,19.73,1.86,1.16,14.41-13.16,16.18-11.81,1.74,1.33-8.68,17.25-7.04,18.76,1.61,1.48,16.57-10.3,18.07-8.64Z" fill="#cfbbdc"/>
  <path d="M178.07,102c1.09,1-6.75,10.9-5.77,11.97.99,1.09,11.58-5.79,12.46-4.63.89,1.18-8.64,9.47-7.87,10.71.77,1.25,12.45-3.55,13.1-2.25.65,1.32-10.24,7.7-9.72,9.07.53,1.37,12.89-1.2,13.29.21.4,1.41-11.49,5.68-11.22,7.12.27,1.44,12.89,1.19,13.03,2.65.13,1.46-12.33,3.48-12.34,4.95,0,1.46,12.46,3.52,12.32,4.98-.14,1.46-12.76,1.17-13.03,2.61-.27,1.44,11.6,5.74,11.2,7.16-.4,1.4-12.76-1.2-13.29.17-.53,1.36,10.35,7.79,9.69,9.1-.65,1.3-12.31-3.55-13.09-2.3-.77,1.23,8.73,9.56,7.84,10.74-.88,1.16-11.45-5.75-12.45-4.66-1,1.09,6.83,11.01,5.75,11.98-1.09.99-10.23-7.72-11.39-6.85-1.18.89,4.69,12.07,3.46,12.84s-8.62-9.48-9.93-8.83c-1.32.65,2.38,12.73,1.02,13.25-1.37.53-6.72-10.91-8.13-10.52-1.41.4,0,12.95-1.44,13.21-1.44.27-4.6-11.96-6.06-11.83-1.46.13-2.36,12.73-3.83,12.73-1.46,0-2.34-12.6-3.8-12.74-1.46-.14-4.65,12.08-6.09,11.81s.02-12.82-1.4-13.22-6.79,11.02-8.16,10.49c-1.36-.53,2.39-12.59,1.07-13.25-1.3-.65-8.71,9.58-9.96,8.8-1.23-.77,4.68-11.93,3.5-12.82-1.16-.88-10.32,7.82-11.41,6.82-1.09-1,6.75-10.9,5.77-11.97-.99-1.09-11.58,5.79-12.46,4.63-.89-1.18,8.64-9.47,7.87-10.71-.77-1.25-12.45,3.55-13.1,2.25-.65-1.32,10.24-7.7,9.72-9.07-.53-1.37-12.89,1.2-13.29-.21s11.49-5.68,11.22-7.12c-.27-1.44-12.89-1.19-13.03-2.65-.13-1.46,12.33-3.48,12.34-4.95,0-1.46-12.46-3.52-12.32-4.98.14-1.46,12.76-1.17,13.03-2.61.27-1.44-11.6-5.74-11.2-7.16s12.76,1.2,13.29-.17c.53-1.36-10.35-7.79-9.69-9.1.65-1.3,12.31,3.55,13.09,2.3.77-1.23-8.73-9.56-7.84-10.74.88-1.16,11.45,5.75,12.45,4.66,1-1.09-6.83-11.01-5.75-11.98,1.09-.99,10.23,7.72,11.39,6.85s-4.69-12.07-3.46-12.84c1.25-.77,8.62,9.48,9.93,8.83,1.32-.65-2.38-12.73-1.02-13.25,1.37-.53,6.72,10.91,8.13,10.52,1.41-.4,0-12.95,1.44-13.21,1.44-.27,4.6,11.96,6.06,11.83,1.46-.13,2.36-12.73,3.83-12.73s2.34,12.6,3.8,12.74c1.46.14,4.65-12.08,6.09-11.81s-.02,12.82,1.4,13.22c1.4.4,6.79-11.02,8.16-10.49,1.36.53-2.39,12.59-1.07,13.25,1.3.65,8.71-9.58,9.96-8.8,1.23.77-4.68,11.93-3.5,12.82,1.16.88,10.32-7.82,11.41-6.82Z" fill="#9074b2"/>
</svg>